G04 #@! TF.GenerationSoftware,KiCad,Pcbnew,(5.1.5)-3*
G04 #@! TF.CreationDate,2020-01-24T16:48:12-05:00*
G04 #@! TF.ProjectId,Flight_Computer,466c6967-6874-45f4-936f-6d7075746572,rev?*
G04 #@! TF.SameCoordinates,Original*
G04 #@! TF.FileFunction,Legend,Top*
G04 #@! TF.FilePolarity,Positive*
%FSLAX46Y46*%
G04 Gerber Fmt 4.6, Leading zero omitted, Abs format (unit mm)*
G04 Created by KiCad (PCBNEW (5.1.5)-3) date 2020-01-24 16:48:12*
%MOMM*%
%LPD*%
G04 APERTURE LIST*
%ADD10C,0.150000*%
%ADD11C,0.152400*%
%ADD12C,0.127000*%
%ADD13C,0.200000*%
%ADD14C,0.100000*%
%ADD15C,0.250000*%
%ADD16C,0.120000*%
%ADD17C,0.254000*%
%ADD18C,0.101600*%
%ADD19C,0.114300*%
G04 APERTURE END LIST*
D10*
X150260323Y-144732361D02*
X150403180Y-144779980D01*
X150641276Y-144779980D01*
X150736514Y-144732361D01*
X150784133Y-144684742D01*
X150831752Y-144589504D01*
X150831752Y-144494266D01*
X150784133Y-144399028D01*
X150736514Y-144351409D01*
X150641276Y-144303790D01*
X150450800Y-144256171D01*
X150355561Y-144208552D01*
X150307942Y-144160933D01*
X150260323Y-144065695D01*
X150260323Y-143970457D01*
X150307942Y-143875219D01*
X150355561Y-143827600D01*
X150450800Y-143779980D01*
X150688895Y-143779980D01*
X150831752Y-143827600D01*
X151403180Y-144779980D02*
X151307942Y-144732361D01*
X151260323Y-144684742D01*
X151212704Y-144589504D01*
X151212704Y-144303790D01*
X151260323Y-144208552D01*
X151307942Y-144160933D01*
X151403180Y-144113314D01*
X151546038Y-144113314D01*
X151641276Y-144160933D01*
X151688895Y-144208552D01*
X151736514Y-144303790D01*
X151736514Y-144589504D01*
X151688895Y-144684742D01*
X151641276Y-144732361D01*
X151546038Y-144779980D01*
X151403180Y-144779980D01*
X152307942Y-144779980D02*
X152212704Y-144732361D01*
X152165085Y-144637123D01*
X152165085Y-143779980D01*
X153117466Y-144779980D02*
X153117466Y-143779980D01*
X153117466Y-144732361D02*
X153022228Y-144779980D01*
X152831752Y-144779980D01*
X152736514Y-144732361D01*
X152688895Y-144684742D01*
X152641276Y-144589504D01*
X152641276Y-144303790D01*
X152688895Y-144208552D01*
X152736514Y-144160933D01*
X152831752Y-144113314D01*
X153022228Y-144113314D01*
X153117466Y-144160933D01*
X153974609Y-144732361D02*
X153879371Y-144779980D01*
X153688895Y-144779980D01*
X153593657Y-144732361D01*
X153546038Y-144637123D01*
X153546038Y-144256171D01*
X153593657Y-144160933D01*
X153688895Y-144113314D01*
X153879371Y-144113314D01*
X153974609Y-144160933D01*
X154022228Y-144256171D01*
X154022228Y-144351409D01*
X153546038Y-144446647D01*
X154450800Y-144779980D02*
X154450800Y-144113314D01*
X154450800Y-144303790D02*
X154498419Y-144208552D01*
X154546038Y-144160933D01*
X154641276Y-144113314D01*
X154736514Y-144113314D01*
X151046038Y-145429980D02*
X151284133Y-146429980D01*
X151474609Y-145715695D01*
X151665085Y-146429980D01*
X151903180Y-145429980D01*
X152284133Y-146429980D02*
X152284133Y-145763314D01*
X152284133Y-145429980D02*
X152236514Y-145477600D01*
X152284133Y-145525219D01*
X152331752Y-145477600D01*
X152284133Y-145429980D01*
X152284133Y-145525219D01*
X152617466Y-145763314D02*
X152998419Y-145763314D01*
X152760323Y-145429980D02*
X152760323Y-146287123D01*
X152807942Y-146382361D01*
X152903180Y-146429980D01*
X152998419Y-146429980D01*
X153331752Y-146429980D02*
X153331752Y-145429980D01*
X153760323Y-146429980D02*
X153760323Y-145906171D01*
X153712704Y-145810933D01*
X153617466Y-145763314D01*
X153474609Y-145763314D01*
X153379371Y-145810933D01*
X153331752Y-145858552D01*
X151569847Y-147984742D02*
X151522228Y-148032361D01*
X151379371Y-148079980D01*
X151284133Y-148079980D01*
X151141276Y-148032361D01*
X151046038Y-147937123D01*
X150998419Y-147841885D01*
X150950800Y-147651409D01*
X150950800Y-147508552D01*
X150998419Y-147318076D01*
X151046038Y-147222838D01*
X151141276Y-147127600D01*
X151284133Y-147079980D01*
X151379371Y-147079980D01*
X151522228Y-147127600D01*
X151569847Y-147175219D01*
X152426990Y-148079980D02*
X152426990Y-147556171D01*
X152379371Y-147460933D01*
X152284133Y-147413314D01*
X152093657Y-147413314D01*
X151998419Y-147460933D01*
X152426990Y-148032361D02*
X152331752Y-148079980D01*
X152093657Y-148079980D01*
X151998419Y-148032361D01*
X151950800Y-147937123D01*
X151950800Y-147841885D01*
X151998419Y-147746647D01*
X152093657Y-147699028D01*
X152331752Y-147699028D01*
X152426990Y-147651409D01*
X152903180Y-148079980D02*
X152903180Y-147413314D01*
X152903180Y-147603790D02*
X152950800Y-147508552D01*
X152998419Y-147460933D01*
X153093657Y-147413314D01*
X153188895Y-147413314D01*
X153903180Y-148032361D02*
X153807942Y-148079980D01*
X153617466Y-148079980D01*
X153522228Y-148032361D01*
X153474609Y-147937123D01*
X153474609Y-147556171D01*
X153522228Y-147460933D01*
X153617466Y-147413314D01*
X153807942Y-147413314D01*
X153903180Y-147460933D01*
X153950800Y-147556171D01*
X153950800Y-147651409D01*
X153474609Y-147746647D01*
D11*
X183235600Y-120764471D02*
X182691314Y-120764471D01*
X182691314Y-119621471D01*
X183616600Y-120655614D02*
X183671028Y-120710042D01*
X183616600Y-120764471D01*
X183562171Y-120710042D01*
X183616600Y-120655614D01*
X183616600Y-120764471D01*
X184814028Y-120764471D02*
X184433028Y-120220185D01*
X184160885Y-120764471D02*
X184160885Y-119621471D01*
X184596314Y-119621471D01*
X184705171Y-119675900D01*
X184759600Y-119730328D01*
X184814028Y-119839185D01*
X184814028Y-120002471D01*
X184759600Y-120111328D01*
X184705171Y-120165757D01*
X184596314Y-120220185D01*
X184160885Y-120220185D01*
X185303885Y-120655614D02*
X185358314Y-120710042D01*
X185303885Y-120764471D01*
X185249457Y-120710042D01*
X185303885Y-120655614D01*
X185303885Y-120764471D01*
D12*
X126232627Y-145931376D02*
X126861245Y-145302759D01*
X126621771Y-145961311D01*
X127280323Y-145721837D01*
X126651706Y-146350455D01*
X127370126Y-146949139D02*
X127310258Y-146949139D01*
X127190521Y-146889270D01*
X127130653Y-146829402D01*
X127070784Y-146709665D01*
X127070784Y-146589929D01*
X127100718Y-146500126D01*
X127190521Y-146350455D01*
X127280323Y-146260653D01*
X127429994Y-146170850D01*
X127519797Y-146140916D01*
X127639534Y-146140916D01*
X127759270Y-146200784D01*
X127819139Y-146260653D01*
X127879007Y-146380389D01*
X127879007Y-146440258D01*
X127879007Y-147577757D02*
X127579665Y-147278415D01*
X128208283Y-146649797D01*
X128447757Y-148146506D02*
X128537559Y-147637625D01*
X128088546Y-147787296D02*
X128717164Y-147158678D01*
X128956638Y-147398152D01*
X128986572Y-147487954D01*
X128986572Y-147547823D01*
X128956638Y-147637625D01*
X128866835Y-147727428D01*
X128777033Y-147757362D01*
X128717164Y-147757362D01*
X128627362Y-147727428D01*
X128387888Y-147487954D01*
D13*
X114749400Y-129886300D02*
G75*
G03X114749400Y-130086300I0J-100000D01*
G01*
X114749400Y-130086300D02*
G75*
G03X114749400Y-129886300I0J100000D01*
G01*
X114749400Y-130086300D02*
X114749400Y-130086300D01*
X114749400Y-129886300D02*
X114749400Y-129886300D01*
D14*
X115249400Y-133486300D02*
X116249400Y-133486300D01*
X115249400Y-119886300D02*
X115249400Y-133486300D01*
X116249400Y-119886300D02*
X115249400Y-119886300D01*
X124749400Y-133486300D02*
X119249400Y-133486300D01*
X124749400Y-119886300D02*
X119249400Y-119886300D01*
X128249400Y-133486300D02*
X127749400Y-133486300D01*
X128249400Y-119886300D02*
X127749400Y-119886300D01*
X129749400Y-133486300D02*
X128249400Y-133486300D01*
X129749400Y-119886300D02*
X129749400Y-133486300D01*
X128249400Y-119886300D02*
X129749400Y-119886300D01*
D13*
X172574940Y-116042800D02*
G75*
G03X172574940Y-116042800I-13340J0D01*
G01*
X146196340Y-114669200D02*
G75*
G03X146196340Y-114669200I-13340J0D01*
G01*
D15*
X141300000Y-141405200D02*
G75*
G03X141300000Y-141405200I-125000J0D01*
G01*
D13*
X142750000Y-160555200D02*
X142750000Y-141255200D01*
X162050000Y-160555200D02*
X142750000Y-160555200D01*
X162050000Y-141255200D02*
X162050000Y-160555200D01*
X142750000Y-141255200D02*
X162050000Y-141255200D01*
D16*
X165898600Y-141343600D02*
X165898600Y-139943600D01*
X167298600Y-141343600D02*
X165898600Y-141343600D01*
X167298600Y-139943600D02*
X167298600Y-141343600D01*
X165898600Y-139943600D02*
X167298600Y-139943600D01*
X125350500Y-138205200D02*
G75*
G03X125350500Y-138205200I-700000J0D01*
G01*
X122556500Y-140872200D02*
G75*
G03X122556500Y-140872200I-700000J0D01*
G01*
X129287500Y-140364200D02*
G75*
G03X129287500Y-140364200I-700000J0D01*
G01*
X118810000Y-136808200D02*
G75*
G03X118810000Y-136808200I-700000J0D01*
G01*
X138177500Y-133188700D02*
G75*
G03X138177500Y-133188700I-700000J0D01*
G01*
X166943000Y-138395700D02*
G75*
G03X166943000Y-138395700I-700000J0D01*
G01*
D13*
X140300000Y-130829200D02*
G75*
G02X140200000Y-130829200I-50000J0D01*
G01*
X140200000Y-130829200D02*
G75*
G02X140300000Y-130829200I50000J0D01*
G01*
X140300000Y-130829200D02*
G75*
G02X140200000Y-130829200I-50000J0D01*
G01*
D14*
X138100000Y-128029200D02*
X138100000Y-129929200D01*
D13*
X140200000Y-130829200D02*
X140200000Y-130829200D01*
X140300000Y-130829200D02*
X140300000Y-130829200D01*
X140200000Y-130829200D02*
X140200000Y-130829200D01*
D14*
X166690000Y-129889200D02*
X166690000Y-129889200D01*
X165200000Y-129889200D02*
X166690000Y-129889200D01*
X165200000Y-129889200D02*
X165200000Y-129889200D01*
X166690000Y-129889200D02*
X165200000Y-129889200D01*
X166700000Y-129829200D02*
X166700000Y-127929200D01*
X166690000Y-129829200D02*
X166700000Y-129829200D01*
X166690000Y-127929200D02*
X166690000Y-129829200D01*
X166700000Y-127929200D02*
X166690000Y-127929200D01*
X166700000Y-125929200D02*
X166700000Y-124229200D01*
X166700000Y-125929200D02*
X166700000Y-125929200D01*
X166700000Y-124229200D02*
X166700000Y-125929200D01*
X166700000Y-124229200D02*
X166700000Y-124229200D01*
X165200000Y-124169200D02*
X165200000Y-124169200D01*
X166690000Y-124169200D02*
X165200000Y-124169200D01*
X166690000Y-124169200D02*
X166690000Y-124169200D01*
X165200000Y-124169200D02*
X166690000Y-124169200D01*
X138110000Y-124169200D02*
X138110000Y-124169200D01*
X139600000Y-124169200D02*
X138110000Y-124169200D01*
X139600000Y-124169200D02*
X139600000Y-124169200D01*
X138110000Y-124169200D02*
X139600000Y-124169200D01*
X138110000Y-124229200D02*
X138110000Y-125929200D01*
X138110000Y-124229200D02*
X138110000Y-124229200D01*
X138110000Y-125929200D02*
X138110000Y-124229200D01*
X138110000Y-125929200D02*
X138110000Y-125929200D01*
X138100000Y-129929200D02*
X138100000Y-129929200D01*
X139500000Y-129929200D02*
X138100000Y-129929200D01*
X139500000Y-129929200D02*
X139500000Y-129929200D01*
X138100000Y-129929200D02*
X139500000Y-129929200D01*
X177866800Y-138765000D02*
X178216800Y-138765000D01*
X177866800Y-139115000D02*
X177866800Y-138765000D01*
X179866800Y-138765000D02*
X179866800Y-139115000D01*
X179516800Y-138765000D02*
X179866800Y-138765000D01*
X177866800Y-142065000D02*
X178216800Y-142065000D01*
X177866800Y-141715000D02*
X177866800Y-142065000D01*
X179916800Y-141715000D02*
X179466800Y-142065000D01*
X180516800Y-141715000D02*
X179916800Y-141715000D01*
X177866800Y-134421600D02*
X178216800Y-134421600D01*
X177866800Y-134771600D02*
X177866800Y-134421600D01*
X179866800Y-134421600D02*
X179866800Y-134771600D01*
X179516800Y-134421600D02*
X179866800Y-134421600D01*
X177866800Y-137721600D02*
X178216800Y-137721600D01*
X177866800Y-137371600D02*
X177866800Y-137721600D01*
X179916800Y-137371600D02*
X179466800Y-137721600D01*
X180516800Y-137371600D02*
X179916800Y-137371600D01*
D11*
X146236000Y-94803200D02*
X146236000Y-94603200D01*
X146236000Y-94803200D02*
X145636000Y-94803200D01*
X145636000Y-94803200D02*
X145636000Y-95403200D01*
X145636000Y-98203200D02*
X145636000Y-98803200D01*
X145636000Y-98803200D02*
X146236000Y-98803200D01*
X150436000Y-98803200D02*
X151036000Y-98803200D01*
X151036000Y-98803200D02*
X151036000Y-98203200D01*
X151036000Y-95403200D02*
X151036000Y-94803200D01*
X151036000Y-94803200D02*
X150436000Y-94803200D01*
D14*
X160059000Y-99232200D02*
X161009000Y-99232200D01*
X159634000Y-99657200D02*
X160059000Y-99232200D01*
X159259000Y-99657200D02*
X159634000Y-99657200D01*
X160034000Y-94457200D02*
X159584000Y-94457200D01*
X160034000Y-94457200D02*
X160034000Y-94832200D01*
X155434000Y-94457200D02*
X155434000Y-94857200D01*
X155434000Y-94457200D02*
X155884000Y-94457200D01*
X155434000Y-99657200D02*
X155434000Y-99232200D01*
X155434000Y-99657200D02*
X155809000Y-99657200D01*
X176942167Y-157671666D02*
X177242687Y-157371146D01*
X176730035Y-157459534D02*
X176942167Y-157671666D01*
X176730035Y-157459534D02*
X176677002Y-157406501D01*
X182563666Y-152050167D02*
X182210113Y-152403720D01*
X182333856Y-151820357D02*
X182563666Y-152050167D01*
X182333856Y-151820357D02*
X182280823Y-151767324D01*
X178586190Y-148072691D02*
X177260365Y-146746866D01*
X171744932Y-152474431D02*
X173070757Y-153800256D01*
X175298144Y-145951371D02*
X174538004Y-146711511D01*
X171674222Y-149575293D02*
X170808016Y-150441499D01*
D16*
X170115000Y-130472400D02*
X170115000Y-129072400D01*
X171515000Y-130472400D02*
X170115000Y-130472400D01*
X171515000Y-129072400D02*
X171515000Y-130472400D01*
X170115000Y-129072400D02*
X171515000Y-129072400D01*
X168108400Y-130472400D02*
X168108400Y-129072400D01*
X169508400Y-130472400D02*
X168108400Y-130472400D01*
X169508400Y-129072400D02*
X169508400Y-130472400D01*
X168108400Y-129072400D02*
X169508400Y-129072400D01*
X167285900Y-142470900D02*
X167285900Y-143870900D01*
X165885900Y-142470900D02*
X167285900Y-142470900D01*
X165885900Y-143870900D02*
X165885900Y-142470900D01*
X167285900Y-143870900D02*
X165885900Y-143870900D01*
X169505400Y-115410200D02*
X169505400Y-114010200D01*
X170905400Y-115410200D02*
X169505400Y-115410200D01*
X170905400Y-114010200D02*
X170905400Y-115410200D01*
X169505400Y-114010200D02*
X170905400Y-114010200D01*
X150353800Y-114010200D02*
X151753800Y-114010200D01*
X150353800Y-115410200D02*
X150353800Y-114010200D01*
X151753800Y-115410200D02*
X150353800Y-115410200D01*
X151753800Y-114010200D02*
X151753800Y-115410200D01*
X171565800Y-122265200D02*
X171565800Y-123665200D01*
X170165800Y-122265200D02*
X171565800Y-122265200D01*
X170165800Y-123665200D02*
X170165800Y-122265200D01*
X171565800Y-123665200D02*
X170165800Y-123665200D01*
X148906000Y-120360200D02*
X150306000Y-120360200D01*
X148906000Y-121760200D02*
X148906000Y-120360200D01*
X150306000Y-121760200D02*
X148906000Y-121760200D01*
X150306000Y-120360200D02*
X150306000Y-121760200D01*
X138238000Y-153789600D02*
X138238000Y-152389600D01*
X139638000Y-153789600D02*
X138238000Y-153789600D01*
X139638000Y-152389600D02*
X139638000Y-153789600D01*
X138238000Y-152389600D02*
X139638000Y-152389600D01*
X135469400Y-148836600D02*
X135469400Y-147436600D01*
X136869400Y-148836600D02*
X135469400Y-148836600D01*
X136869400Y-147436600D02*
X136869400Y-148836600D01*
X135469400Y-147436600D02*
X136869400Y-147436600D01*
X171525000Y-120654578D02*
X171525000Y-120137422D01*
X170105000Y-120654578D02*
X170105000Y-120137422D01*
X148157000Y-119794778D02*
X148157000Y-119277622D01*
X146737000Y-119794778D02*
X146737000Y-119277622D01*
X152964000Y-101246400D02*
X152964000Y-102706400D01*
X149804000Y-101246400D02*
X149804000Y-103406400D01*
X149804000Y-101246400D02*
X150734000Y-101246400D01*
X152964000Y-101246400D02*
X152034000Y-101246400D01*
X147245200Y-101275600D02*
X147245200Y-102735600D01*
X144085200Y-101275600D02*
X144085200Y-103435600D01*
X144085200Y-101275600D02*
X145015200Y-101275600D01*
X147245200Y-101275600D02*
X146315200Y-101275600D01*
X145740000Y-120536200D02*
X145740000Y-117851200D01*
X145740000Y-117851200D02*
X143820000Y-117851200D01*
X143820000Y-117851200D02*
X143820000Y-120536200D01*
X164500779Y-133123200D02*
X164175221Y-133123200D01*
X164500779Y-134143200D02*
X164175221Y-134143200D01*
D14*
X140224000Y-120099200D02*
X140224000Y-120424200D01*
X140224000Y-120424200D02*
X140524000Y-120424200D01*
X142224000Y-117449200D02*
X142224000Y-117124200D01*
X142224000Y-117124200D02*
X141924000Y-117124200D01*
X140224000Y-117424200D02*
X140224000Y-117124200D01*
X140224000Y-117124200D02*
X140549000Y-117124200D01*
X141899000Y-120424200D02*
X142224000Y-120199200D01*
X142224000Y-120199200D02*
X142224000Y-120099200D01*
X142224000Y-120099200D02*
X142749000Y-120099200D01*
X141899000Y-120424200D02*
X141524000Y-120424200D01*
D16*
X170133778Y-117499200D02*
X169616622Y-117499200D01*
X170133778Y-116079200D02*
X169616622Y-116079200D01*
X148839422Y-115905200D02*
X149356578Y-115905200D01*
X148839422Y-117325200D02*
X149356578Y-117325200D01*
D14*
X163592000Y-121721000D02*
X163592000Y-122046000D01*
X163592000Y-122046000D02*
X163892000Y-122046000D01*
X165592000Y-119071000D02*
X165592000Y-118746000D01*
X165592000Y-118746000D02*
X165292000Y-118746000D01*
X163592000Y-119046000D02*
X163592000Y-118746000D01*
X163592000Y-118746000D02*
X163917000Y-118746000D01*
X165267000Y-122046000D02*
X165592000Y-121821000D01*
X165592000Y-121821000D02*
X165592000Y-121721000D01*
X165592000Y-121721000D02*
X166117000Y-121721000D01*
X165267000Y-122046000D02*
X164892000Y-122046000D01*
D16*
X174327500Y-136236700D02*
X174327500Y-134286700D01*
X174327500Y-136236700D02*
X174327500Y-138186700D01*
X169207500Y-136236700D02*
X169207500Y-134286700D01*
X169207500Y-136236700D02*
X169207500Y-139686700D01*
X164175221Y-135857700D02*
X164500779Y-135857700D01*
X164175221Y-134837700D02*
X164500779Y-134837700D01*
X172918622Y-115365600D02*
X173435778Y-115365600D01*
X172918622Y-113945600D02*
X173435778Y-113945600D01*
X145673578Y-115905200D02*
X145156422Y-115905200D01*
X145673578Y-117325200D02*
X145156422Y-117325200D01*
X184447720Y-138538060D02*
X182987720Y-138538060D01*
X184447720Y-135378060D02*
X182287720Y-135378060D01*
X184447720Y-135378060D02*
X184447720Y-136308060D01*
X184447720Y-138538060D02*
X184447720Y-137608060D01*
X129151920Y-108830220D02*
X127691920Y-108830220D01*
X129151920Y-105670220D02*
X126991920Y-105670220D01*
X129151920Y-105670220D02*
X129151920Y-106600220D01*
X129151920Y-108830220D02*
X129151920Y-107900220D01*
X123849096Y-148619200D02*
X124789548Y-147678748D01*
X124789548Y-149559652D02*
X123849096Y-148619200D01*
X125687574Y-150457678D02*
X127568478Y-148576774D01*
X127568478Y-148576774D02*
X134795109Y-155803405D01*
X125687574Y-150457678D02*
X132914205Y-157684309D01*
X132914205Y-157684309D02*
X134795109Y-155803405D01*
X158498000Y-133069200D02*
X158498000Y-133999200D01*
X158498000Y-136229200D02*
X158498000Y-135299200D01*
X158498000Y-136229200D02*
X160658000Y-136229200D01*
X158498000Y-133069200D02*
X159958000Y-133069200D01*
X169235000Y-121396000D02*
X169235000Y-118711000D01*
X169235000Y-118711000D02*
X167315000Y-118711000D01*
X167315000Y-118711000D02*
X167315000Y-121396000D01*
D17*
X121503923Y-127109633D02*
X122411066Y-127109633D01*
X122592495Y-127170109D01*
X122713447Y-127291061D01*
X122773923Y-127472490D01*
X122773923Y-127593442D01*
X121927257Y-125960585D02*
X122773923Y-125960585D01*
X121443447Y-126262966D02*
X122350590Y-126565347D01*
X122350590Y-125779157D01*
X175639123Y-117278561D02*
X174369123Y-117278561D01*
X175518171Y-115948085D02*
X175578647Y-116008561D01*
X175639123Y-116189990D01*
X175639123Y-116310942D01*
X175578647Y-116492371D01*
X175457695Y-116613323D01*
X175336742Y-116673800D01*
X175094838Y-116734276D01*
X174913409Y-116734276D01*
X174671504Y-116673800D01*
X174550552Y-116613323D01*
X174429600Y-116492371D01*
X174369123Y-116310942D01*
X174369123Y-116189990D01*
X174429600Y-116008561D01*
X174490076Y-115948085D01*
X174369123Y-115524752D02*
X174369123Y-114738561D01*
X174852933Y-115161895D01*
X174852933Y-114980466D01*
X174913409Y-114859514D01*
X174973885Y-114799038D01*
X175094838Y-114738561D01*
X175397219Y-114738561D01*
X175518171Y-114799038D01*
X175578647Y-114859514D01*
X175639123Y-114980466D01*
X175639123Y-115343323D01*
X175578647Y-115464276D01*
X175518171Y-115524752D01*
X144254523Y-115912961D02*
X142984523Y-115912961D01*
X144133571Y-114582485D02*
X144194047Y-114642961D01*
X144254523Y-114824390D01*
X144254523Y-114945342D01*
X144194047Y-115126771D01*
X144073095Y-115247723D01*
X143952142Y-115308200D01*
X143710238Y-115368676D01*
X143528809Y-115368676D01*
X143286904Y-115308200D01*
X143165952Y-115247723D01*
X143045000Y-115126771D01*
X142984523Y-114945342D01*
X142984523Y-114824390D01*
X143045000Y-114642961D01*
X143105476Y-114582485D01*
X143105476Y-114098676D02*
X143045000Y-114038200D01*
X142984523Y-113917247D01*
X142984523Y-113614866D01*
X143045000Y-113493914D01*
X143105476Y-113433438D01*
X143226428Y-113372961D01*
X143347380Y-113372961D01*
X143528809Y-113433438D01*
X144254523Y-114159152D01*
X144254523Y-113372961D01*
X151160238Y-151479723D02*
X151160238Y-150209723D01*
X152490714Y-151358771D02*
X152430238Y-151419247D01*
X152248809Y-151479723D01*
X152127857Y-151479723D01*
X151946428Y-151419247D01*
X151825476Y-151298295D01*
X151765000Y-151177342D01*
X151704523Y-150935438D01*
X151704523Y-150754009D01*
X151765000Y-150512104D01*
X151825476Y-150391152D01*
X151946428Y-150270200D01*
X152127857Y-150209723D01*
X152248809Y-150209723D01*
X152430238Y-150270200D01*
X152490714Y-150330676D01*
X153700238Y-151479723D02*
X152974523Y-151479723D01*
X153337380Y-151479723D02*
X153337380Y-150209723D01*
X153216428Y-150391152D01*
X153095476Y-150512104D01*
X152974523Y-150572580D01*
D18*
X165031661Y-141343309D02*
X165031661Y-140980452D01*
X165666661Y-141161880D02*
X165031661Y-141161880D01*
X165666661Y-140768785D02*
X165031661Y-140768785D01*
X165031661Y-140526880D01*
X165061900Y-140466404D01*
X165092138Y-140436166D01*
X165152614Y-140405928D01*
X165243328Y-140405928D01*
X165303804Y-140436166D01*
X165334042Y-140466404D01*
X165364280Y-140526880D01*
X165364280Y-140768785D01*
X165031661Y-140194261D02*
X165031661Y-139770928D01*
X165666661Y-140043071D01*
X165148985Y-96328461D02*
X164937319Y-96026080D01*
X164786128Y-96328461D02*
X164786128Y-95693461D01*
X165028033Y-95693461D01*
X165088509Y-95723700D01*
X165118747Y-95753938D01*
X165148985Y-95814414D01*
X165148985Y-95905128D01*
X165118747Y-95965604D01*
X165088509Y-95995842D01*
X165028033Y-96026080D01*
X164786128Y-96026080D01*
X165360652Y-95693461D02*
X165753747Y-95693461D01*
X165542080Y-95935366D01*
X165632795Y-95935366D01*
X165693271Y-95965604D01*
X165723509Y-95995842D01*
X165753747Y-96056319D01*
X165753747Y-96207509D01*
X165723509Y-96267985D01*
X165693271Y-96298223D01*
X165632795Y-96328461D01*
X165451366Y-96328461D01*
X165390890Y-96298223D01*
X165360652Y-96267985D01*
X165965414Y-95693461D02*
X166388747Y-95693461D01*
X166116604Y-96328461D01*
X163980585Y-99579661D02*
X163768919Y-99277280D01*
X163617728Y-99579661D02*
X163617728Y-98944661D01*
X163859633Y-98944661D01*
X163920109Y-98974900D01*
X163950347Y-99005138D01*
X163980585Y-99065614D01*
X163980585Y-99156328D01*
X163950347Y-99216804D01*
X163920109Y-99247042D01*
X163859633Y-99277280D01*
X163617728Y-99277280D01*
X164192252Y-98944661D02*
X164585347Y-98944661D01*
X164373680Y-99186566D01*
X164464395Y-99186566D01*
X164524871Y-99216804D01*
X164555109Y-99247042D01*
X164585347Y-99307519D01*
X164585347Y-99458709D01*
X164555109Y-99519185D01*
X164524871Y-99549423D01*
X164464395Y-99579661D01*
X164282966Y-99579661D01*
X164222490Y-99549423D01*
X164192252Y-99519185D01*
X164948204Y-99216804D02*
X164887728Y-99186566D01*
X164857490Y-99156328D01*
X164827252Y-99095852D01*
X164827252Y-99065614D01*
X164857490Y-99005138D01*
X164887728Y-98974900D01*
X164948204Y-98944661D01*
X165069157Y-98944661D01*
X165129633Y-98974900D01*
X165159871Y-99005138D01*
X165190109Y-99065614D01*
X165190109Y-99095852D01*
X165159871Y-99156328D01*
X165129633Y-99186566D01*
X165069157Y-99216804D01*
X164948204Y-99216804D01*
X164887728Y-99247042D01*
X164857490Y-99277280D01*
X164827252Y-99337757D01*
X164827252Y-99458709D01*
X164857490Y-99519185D01*
X164887728Y-99549423D01*
X164948204Y-99579661D01*
X165069157Y-99579661D01*
X165129633Y-99549423D01*
X165159871Y-99519185D01*
X165190109Y-99458709D01*
X165190109Y-99337757D01*
X165159871Y-99277280D01*
X165129633Y-99247042D01*
X165069157Y-99216804D01*
X163193185Y-96957414D02*
X163223423Y-96987652D01*
X163253661Y-97078366D01*
X163253661Y-97138842D01*
X163223423Y-97229557D01*
X163162947Y-97290033D01*
X163102471Y-97320271D01*
X162981519Y-97350509D01*
X162890804Y-97350509D01*
X162769852Y-97320271D01*
X162709376Y-97290033D01*
X162648900Y-97229557D01*
X162618661Y-97138842D01*
X162618661Y-97078366D01*
X162648900Y-96987652D01*
X162679138Y-96957414D01*
X163253661Y-96352652D02*
X163253661Y-96715509D01*
X163253661Y-96534080D02*
X162618661Y-96534080D01*
X162709376Y-96594557D01*
X162769852Y-96655033D01*
X162800090Y-96715509D01*
X162618661Y-96140985D02*
X162618661Y-95717652D01*
X163253661Y-95989795D01*
X167411185Y-99192614D02*
X167441423Y-99222852D01*
X167471661Y-99313566D01*
X167471661Y-99374042D01*
X167441423Y-99464757D01*
X167380947Y-99525233D01*
X167320471Y-99555471D01*
X167199519Y-99585709D01*
X167108804Y-99585709D01*
X166987852Y-99555471D01*
X166927376Y-99525233D01*
X166866900Y-99464757D01*
X166836661Y-99374042D01*
X166836661Y-99313566D01*
X166866900Y-99222852D01*
X166897138Y-99192614D01*
X167471661Y-98587852D02*
X167471661Y-98950709D01*
X167471661Y-98769280D02*
X166836661Y-98769280D01*
X166927376Y-98829757D01*
X166987852Y-98890233D01*
X167018090Y-98950709D01*
X166836661Y-98043566D02*
X166836661Y-98164519D01*
X166866900Y-98224995D01*
X166897138Y-98255233D01*
X166987852Y-98315709D01*
X167108804Y-98345947D01*
X167350709Y-98345947D01*
X167411185Y-98315709D01*
X167441423Y-98285471D01*
X167471661Y-98224995D01*
X167471661Y-98104042D01*
X167441423Y-98043566D01*
X167411185Y-98013328D01*
X167350709Y-97983090D01*
X167199519Y-97983090D01*
X167139042Y-98013328D01*
X167108804Y-98043566D01*
X167078566Y-98104042D01*
X167078566Y-98224995D01*
X167108804Y-98285471D01*
X167139042Y-98315709D01*
X167199519Y-98345947D01*
D19*
X156284385Y-136429014D02*
X156314623Y-136459252D01*
X156344861Y-136549966D01*
X156344861Y-136610442D01*
X156314623Y-136701157D01*
X156254147Y-136761633D01*
X156193671Y-136791871D01*
X156072719Y-136822109D01*
X155982004Y-136822109D01*
X155861052Y-136791871D01*
X155800576Y-136761633D01*
X155740100Y-136701157D01*
X155709861Y-136610442D01*
X155709861Y-136549966D01*
X155740100Y-136459252D01*
X155770338Y-136429014D01*
X155709861Y-135884728D02*
X155709861Y-136005680D01*
X155740100Y-136066157D01*
X155770338Y-136096395D01*
X155861052Y-136156871D01*
X155982004Y-136187109D01*
X156223909Y-136187109D01*
X156284385Y-136156871D01*
X156314623Y-136126633D01*
X156344861Y-136066157D01*
X156344861Y-135945204D01*
X156314623Y-135884728D01*
X156284385Y-135854490D01*
X156223909Y-135824252D01*
X156072719Y-135824252D01*
X156012242Y-135854490D01*
X155982004Y-135884728D01*
X155951766Y-135945204D01*
X155951766Y-136066157D01*
X155982004Y-136126633D01*
X156012242Y-136156871D01*
X156072719Y-136187109D01*
X155709861Y-135612585D02*
X155709861Y-135189252D01*
X156344861Y-135461395D01*
D18*
X157208461Y-134244614D02*
X156906080Y-134456280D01*
X157208461Y-134607471D02*
X156573461Y-134607471D01*
X156573461Y-134365566D01*
X156603700Y-134305090D01*
X156633938Y-134274852D01*
X156694414Y-134244614D01*
X156785128Y-134244614D01*
X156845604Y-134274852D01*
X156875842Y-134305090D01*
X156906080Y-134365566D01*
X156906080Y-134607471D01*
X156573461Y-134032947D02*
X156573461Y-133639852D01*
X156815366Y-133851519D01*
X156815366Y-133760804D01*
X156845604Y-133700328D01*
X156875842Y-133670090D01*
X156936319Y-133639852D01*
X157087509Y-133639852D01*
X157147985Y-133670090D01*
X157178223Y-133700328D01*
X157208461Y-133760804D01*
X157208461Y-133942233D01*
X157178223Y-134002709D01*
X157147985Y-134032947D01*
X156573461Y-133246757D02*
X156573461Y-133186280D01*
X156603700Y-133125804D01*
X156633938Y-133095566D01*
X156694414Y-133065328D01*
X156815366Y-133035090D01*
X156966557Y-133035090D01*
X157087509Y-133065328D01*
X157147985Y-133095566D01*
X157178223Y-133125804D01*
X157208461Y-133186280D01*
X157208461Y-133246757D01*
X157178223Y-133307233D01*
X157147985Y-133337471D01*
X157087509Y-133367709D01*
X156966557Y-133397947D01*
X156815366Y-133397947D01*
X156694414Y-133367709D01*
X156633938Y-133337471D01*
X156603700Y-133307233D01*
X156573461Y-133246757D01*
X149575761Y-133342914D02*
X149273380Y-133554580D01*
X149575761Y-133705771D02*
X148940761Y-133705771D01*
X148940761Y-133463866D01*
X148971000Y-133403390D01*
X149001238Y-133373152D01*
X149061714Y-133342914D01*
X149152428Y-133342914D01*
X149212904Y-133373152D01*
X149243142Y-133403390D01*
X149273380Y-133463866D01*
X149273380Y-133705771D01*
X149001238Y-133101009D02*
X148971000Y-133070771D01*
X148940761Y-133010295D01*
X148940761Y-132859104D01*
X148971000Y-132798628D01*
X149001238Y-132768390D01*
X149061714Y-132738152D01*
X149122190Y-132738152D01*
X149212904Y-132768390D01*
X149575761Y-133131247D01*
X149575761Y-132738152D01*
X149575761Y-132435771D02*
X149575761Y-132314819D01*
X149545523Y-132254342D01*
X149515285Y-132224104D01*
X149424571Y-132163628D01*
X149303619Y-132133390D01*
X149061714Y-132133390D01*
X149001238Y-132163628D01*
X148971000Y-132193866D01*
X148940761Y-132254342D01*
X148940761Y-132375295D01*
X148971000Y-132435771D01*
X149001238Y-132466009D01*
X149061714Y-132496247D01*
X149212904Y-132496247D01*
X149273380Y-132466009D01*
X149303619Y-132435771D01*
X149333857Y-132375295D01*
X149333857Y-132254342D01*
X149303619Y-132193866D01*
X149273380Y-132163628D01*
X149212904Y-132133390D01*
X141260285Y-138809961D02*
X141048619Y-138507580D01*
X140897428Y-138809961D02*
X140897428Y-138174961D01*
X141139333Y-138174961D01*
X141199809Y-138205200D01*
X141230047Y-138235438D01*
X141260285Y-138295914D01*
X141260285Y-138386628D01*
X141230047Y-138447104D01*
X141199809Y-138477342D01*
X141139333Y-138507580D01*
X140897428Y-138507580D01*
X141502190Y-138235438D02*
X141532428Y-138205200D01*
X141592904Y-138174961D01*
X141744095Y-138174961D01*
X141804571Y-138205200D01*
X141834809Y-138235438D01*
X141865047Y-138295914D01*
X141865047Y-138356390D01*
X141834809Y-138447104D01*
X141471952Y-138809961D01*
X141865047Y-138809961D01*
X142227904Y-138447104D02*
X142167428Y-138416866D01*
X142137190Y-138386628D01*
X142106952Y-138326152D01*
X142106952Y-138295914D01*
X142137190Y-138235438D01*
X142167428Y-138205200D01*
X142227904Y-138174961D01*
X142348857Y-138174961D01*
X142409333Y-138205200D01*
X142439571Y-138235438D01*
X142469809Y-138295914D01*
X142469809Y-138326152D01*
X142439571Y-138386628D01*
X142409333Y-138416866D01*
X142348857Y-138447104D01*
X142227904Y-138447104D01*
X142167428Y-138477342D01*
X142137190Y-138507580D01*
X142106952Y-138568057D01*
X142106952Y-138689009D01*
X142137190Y-138749485D01*
X142167428Y-138779723D01*
X142227904Y-138809961D01*
X142348857Y-138809961D01*
X142409333Y-138779723D01*
X142439571Y-138749485D01*
X142469809Y-138689009D01*
X142469809Y-138568057D01*
X142439571Y-138507580D01*
X142409333Y-138477342D01*
X142348857Y-138447104D01*
X151480761Y-137089414D02*
X151178380Y-137301080D01*
X151480761Y-137452271D02*
X150845761Y-137452271D01*
X150845761Y-137210366D01*
X150876000Y-137149890D01*
X150906238Y-137119652D01*
X150966714Y-137089414D01*
X151057428Y-137089414D01*
X151117904Y-137119652D01*
X151148142Y-137149890D01*
X151178380Y-137210366D01*
X151178380Y-137452271D01*
X151480761Y-136484652D02*
X151480761Y-136847509D01*
X151480761Y-136666080D02*
X150845761Y-136666080D01*
X150936476Y-136726557D01*
X150996952Y-136787033D01*
X151027190Y-136847509D01*
X151480761Y-135879890D02*
X151480761Y-136242747D01*
X151480761Y-136061319D02*
X150845761Y-136061319D01*
X150936476Y-136121795D01*
X150996952Y-136182271D01*
X151027190Y-136242747D01*
X124372309Y-139508461D02*
X124735166Y-139508461D01*
X124553738Y-140143461D02*
X124553738Y-139508461D01*
X124946833Y-140143461D02*
X124946833Y-139508461D01*
X125188738Y-139508461D01*
X125249214Y-139538700D01*
X125279452Y-139568938D01*
X125309690Y-139629414D01*
X125309690Y-139720128D01*
X125279452Y-139780604D01*
X125249214Y-139810842D01*
X125188738Y-139841080D01*
X124946833Y-139841080D01*
X125914452Y-140143461D02*
X125551595Y-140143461D01*
X125733023Y-140143461D02*
X125733023Y-139508461D01*
X125672547Y-139599176D01*
X125612071Y-139659652D01*
X125551595Y-139689890D01*
X126458738Y-139508461D02*
X126337785Y-139508461D01*
X126277309Y-139538700D01*
X126247071Y-139568938D01*
X126186595Y-139659652D01*
X126156357Y-139780604D01*
X126156357Y-140022509D01*
X126186595Y-140082985D01*
X126216833Y-140113223D01*
X126277309Y-140143461D01*
X126398261Y-140143461D01*
X126458738Y-140113223D01*
X126488976Y-140082985D01*
X126519214Y-140022509D01*
X126519214Y-139871319D01*
X126488976Y-139810842D01*
X126458738Y-139780604D01*
X126398261Y-139750366D01*
X126277309Y-139750366D01*
X126216833Y-139780604D01*
X126186595Y-139810842D01*
X126156357Y-139871319D01*
X120752809Y-141972461D02*
X121115666Y-141972461D01*
X120934238Y-142607461D02*
X120934238Y-141972461D01*
X121327333Y-142607461D02*
X121327333Y-141972461D01*
X121569238Y-141972461D01*
X121629714Y-142002700D01*
X121659952Y-142032938D01*
X121690190Y-142093414D01*
X121690190Y-142184128D01*
X121659952Y-142244604D01*
X121629714Y-142274842D01*
X121569238Y-142305080D01*
X121327333Y-142305080D01*
X122294952Y-142607461D02*
X121932095Y-142607461D01*
X122113523Y-142607461D02*
X122113523Y-141972461D01*
X122053047Y-142063176D01*
X121992571Y-142123652D01*
X121932095Y-142153890D01*
X122869476Y-141972461D02*
X122567095Y-141972461D01*
X122536857Y-142274842D01*
X122567095Y-142244604D01*
X122627571Y-142214366D01*
X122778761Y-142214366D01*
X122839238Y-142244604D01*
X122869476Y-142274842D01*
X122899714Y-142335319D01*
X122899714Y-142486509D01*
X122869476Y-142546985D01*
X122839238Y-142577223D01*
X122778761Y-142607461D01*
X122627571Y-142607461D01*
X122567095Y-142577223D01*
X122536857Y-142546985D01*
X127483809Y-141464461D02*
X127846666Y-141464461D01*
X127665238Y-142099461D02*
X127665238Y-141464461D01*
X128058333Y-142099461D02*
X128058333Y-141464461D01*
X128300238Y-141464461D01*
X128360714Y-141494700D01*
X128390952Y-141524938D01*
X128421190Y-141585414D01*
X128421190Y-141676128D01*
X128390952Y-141736604D01*
X128360714Y-141766842D01*
X128300238Y-141797080D01*
X128058333Y-141797080D01*
X129025952Y-142099461D02*
X128663095Y-142099461D01*
X128844523Y-142099461D02*
X128844523Y-141464461D01*
X128784047Y-141555176D01*
X128723571Y-141615652D01*
X128663095Y-141645890D01*
X129237619Y-141464461D02*
X129630714Y-141464461D01*
X129419047Y-141706366D01*
X129509761Y-141706366D01*
X129570238Y-141736604D01*
X129600476Y-141766842D01*
X129630714Y-141827319D01*
X129630714Y-141978509D01*
X129600476Y-142038985D01*
X129570238Y-142069223D01*
X129509761Y-142099461D01*
X129328333Y-142099461D01*
X129267857Y-142069223D01*
X129237619Y-142038985D01*
X116314261Y-137911890D02*
X116314261Y-137549033D01*
X116949261Y-137730461D02*
X116314261Y-137730461D01*
X116949261Y-137337366D02*
X116314261Y-137337366D01*
X116314261Y-137095461D01*
X116344500Y-137034985D01*
X116374738Y-137004747D01*
X116435214Y-136974509D01*
X116525928Y-136974509D01*
X116586404Y-137004747D01*
X116616642Y-137034985D01*
X116646880Y-137095461D01*
X116646880Y-137337366D01*
X116949261Y-136369747D02*
X116949261Y-136732604D01*
X116949261Y-136551176D02*
X116314261Y-136551176D01*
X116404976Y-136611652D01*
X116465452Y-136672128D01*
X116495690Y-136732604D01*
X116374738Y-136127842D02*
X116344500Y-136097604D01*
X116314261Y-136037128D01*
X116314261Y-135885938D01*
X116344500Y-135825461D01*
X116374738Y-135795223D01*
X116435214Y-135764985D01*
X116495690Y-135764985D01*
X116586404Y-135795223D01*
X116949261Y-136158080D01*
X116949261Y-135764985D01*
D19*
X119987785Y-140073914D02*
X120018023Y-140104152D01*
X120048261Y-140194866D01*
X120048261Y-140255342D01*
X120018023Y-140346057D01*
X119957547Y-140406533D01*
X119897071Y-140436771D01*
X119776119Y-140467009D01*
X119685404Y-140467009D01*
X119564452Y-140436771D01*
X119503976Y-140406533D01*
X119443500Y-140346057D01*
X119413261Y-140255342D01*
X119413261Y-140194866D01*
X119443500Y-140104152D01*
X119473738Y-140073914D01*
X119624928Y-139529628D02*
X120048261Y-139529628D01*
X119383023Y-139680819D02*
X119836595Y-139832009D01*
X119836595Y-139438914D01*
X119413261Y-138894628D02*
X119413261Y-139197009D01*
X119715642Y-139227247D01*
X119685404Y-139197009D01*
X119655166Y-139136533D01*
X119655166Y-138985342D01*
X119685404Y-138924866D01*
X119715642Y-138894628D01*
X119776119Y-138864390D01*
X119927309Y-138864390D01*
X119987785Y-138894628D01*
X120018023Y-138924866D01*
X120048261Y-138985342D01*
X120048261Y-139136533D01*
X120018023Y-139197009D01*
X119987785Y-139227247D01*
D18*
X135605761Y-134292390D02*
X135605761Y-133929533D01*
X136240761Y-134110961D02*
X135605761Y-134110961D01*
X136240761Y-133717866D02*
X135605761Y-133717866D01*
X135605761Y-133475961D01*
X135636000Y-133415485D01*
X135666238Y-133385247D01*
X135726714Y-133355009D01*
X135817428Y-133355009D01*
X135877904Y-133385247D01*
X135908142Y-133415485D01*
X135938380Y-133475961D01*
X135938380Y-133717866D01*
X136240761Y-132750247D02*
X136240761Y-133113104D01*
X136240761Y-132931676D02*
X135605761Y-132931676D01*
X135696476Y-132992152D01*
X135756952Y-133052628D01*
X135787190Y-133113104D01*
X135817428Y-132205961D02*
X136240761Y-132205961D01*
X135575523Y-132357152D02*
X136029095Y-132508342D01*
X136029095Y-132115247D01*
X165139309Y-136904961D02*
X165502166Y-136904961D01*
X165320738Y-137539961D02*
X165320738Y-136904961D01*
X165713833Y-137539961D02*
X165713833Y-136904961D01*
X165955738Y-136904961D01*
X166016214Y-136935200D01*
X166046452Y-136965438D01*
X166076690Y-137025914D01*
X166076690Y-137116628D01*
X166046452Y-137177104D01*
X166016214Y-137207342D01*
X165955738Y-137237580D01*
X165713833Y-137237580D01*
X166681452Y-137539961D02*
X166318595Y-137539961D01*
X166500023Y-137539961D02*
X166500023Y-136904961D01*
X166439547Y-136995676D01*
X166379071Y-137056152D01*
X166318595Y-137086390D01*
X167286214Y-137539961D02*
X166923357Y-137539961D01*
X167104785Y-137539961D02*
X167104785Y-136904961D01*
X167044309Y-136995676D01*
X166983833Y-137056152D01*
X166923357Y-137086390D01*
X129636761Y-138803914D02*
X129334380Y-139015580D01*
X129636761Y-139166771D02*
X129001761Y-139166771D01*
X129001761Y-138924866D01*
X129032000Y-138864390D01*
X129062238Y-138834152D01*
X129122714Y-138803914D01*
X129213428Y-138803914D01*
X129273904Y-138834152D01*
X129304142Y-138864390D01*
X129334380Y-138924866D01*
X129334380Y-139166771D01*
X129062238Y-138562009D02*
X129032000Y-138531771D01*
X129001761Y-138471295D01*
X129001761Y-138320104D01*
X129032000Y-138259628D01*
X129062238Y-138229390D01*
X129122714Y-138199152D01*
X129183190Y-138199152D01*
X129273904Y-138229390D01*
X129636761Y-138592247D01*
X129636761Y-138199152D01*
X129213428Y-137654866D02*
X129636761Y-137654866D01*
X128971523Y-137806057D02*
X129425095Y-137957247D01*
X129425095Y-137564152D01*
X122424761Y-136962414D02*
X122122380Y-137174080D01*
X122424761Y-137325271D02*
X121789761Y-137325271D01*
X121789761Y-137083366D01*
X121820000Y-137022890D01*
X121850238Y-136992652D01*
X121910714Y-136962414D01*
X122001428Y-136962414D01*
X122061904Y-136992652D01*
X122092142Y-137022890D01*
X122122380Y-137083366D01*
X122122380Y-137325271D01*
X121850238Y-136720509D02*
X121820000Y-136690271D01*
X121789761Y-136629795D01*
X121789761Y-136478604D01*
X121820000Y-136418128D01*
X121850238Y-136387890D01*
X121910714Y-136357652D01*
X121971190Y-136357652D01*
X122061904Y-136387890D01*
X122424761Y-136750747D01*
X122424761Y-136357652D01*
X121789761Y-136145985D02*
X121789761Y-135752890D01*
X122031666Y-135964557D01*
X122031666Y-135873842D01*
X122061904Y-135813366D01*
X122092142Y-135783128D01*
X122152619Y-135752890D01*
X122303809Y-135752890D01*
X122364285Y-135783128D01*
X122394523Y-135813366D01*
X122424761Y-135873842D01*
X122424761Y-136055271D01*
X122394523Y-136115747D01*
X122364285Y-136145985D01*
X158786285Y-138809961D02*
X158574619Y-138507580D01*
X158423428Y-138809961D02*
X158423428Y-138174961D01*
X158665333Y-138174961D01*
X158725809Y-138205200D01*
X158756047Y-138235438D01*
X158786285Y-138295914D01*
X158786285Y-138386628D01*
X158756047Y-138447104D01*
X158725809Y-138477342D01*
X158665333Y-138507580D01*
X158423428Y-138507580D01*
X159028190Y-138235438D02*
X159058428Y-138205200D01*
X159118904Y-138174961D01*
X159270095Y-138174961D01*
X159330571Y-138205200D01*
X159360809Y-138235438D01*
X159391047Y-138295914D01*
X159391047Y-138356390D01*
X159360809Y-138447104D01*
X158997952Y-138809961D01*
X159391047Y-138809961D01*
X159632952Y-138235438D02*
X159663190Y-138205200D01*
X159723666Y-138174961D01*
X159874857Y-138174961D01*
X159935333Y-138205200D01*
X159965571Y-138235438D01*
X159995809Y-138295914D01*
X159995809Y-138356390D01*
X159965571Y-138447104D01*
X159602714Y-138809961D01*
X159995809Y-138809961D01*
D19*
X166031333Y-130808961D02*
X166031333Y-131262533D01*
X166001095Y-131353247D01*
X165940619Y-131413723D01*
X165849904Y-131443961D01*
X165789428Y-131443961D01*
X166303476Y-130869438D02*
X166333714Y-130839200D01*
X166394190Y-130808961D01*
X166545380Y-130808961D01*
X166605857Y-130839200D01*
X166636095Y-130869438D01*
X166666333Y-130929914D01*
X166666333Y-130990390D01*
X166636095Y-131081104D01*
X166273238Y-131443961D01*
X166666333Y-131443961D01*
D10*
X178003295Y-142381980D02*
X178003295Y-143191504D01*
X178050914Y-143286742D01*
X178098533Y-143334361D01*
X178193771Y-143381980D01*
X178384247Y-143381980D01*
X178479485Y-143334361D01*
X178527104Y-143286742D01*
X178574723Y-143191504D01*
X178574723Y-142381980D01*
X179527104Y-142381980D02*
X179050914Y-142381980D01*
X179003295Y-142858171D01*
X179050914Y-142810552D01*
X179146152Y-142762933D01*
X179384247Y-142762933D01*
X179479485Y-142810552D01*
X179527104Y-142858171D01*
X179574723Y-142953409D01*
X179574723Y-143191504D01*
X179527104Y-143286742D01*
X179479485Y-143334361D01*
X179384247Y-143381980D01*
X179146152Y-143381980D01*
X179050914Y-143334361D01*
X179003295Y-143286742D01*
X178104895Y-133060180D02*
X178104895Y-133869704D01*
X178152514Y-133964942D01*
X178200133Y-134012561D01*
X178295371Y-134060180D01*
X178485847Y-134060180D01*
X178581085Y-134012561D01*
X178628704Y-133964942D01*
X178676323Y-133869704D01*
X178676323Y-133060180D01*
X179581085Y-133060180D02*
X179390609Y-133060180D01*
X179295371Y-133107800D01*
X179247752Y-133155419D01*
X179152514Y-133298276D01*
X179104895Y-133488752D01*
X179104895Y-133869704D01*
X179152514Y-133964942D01*
X179200133Y-134012561D01*
X179295371Y-134060180D01*
X179485847Y-134060180D01*
X179581085Y-134012561D01*
X179628704Y-133964942D01*
X179676323Y-133869704D01*
X179676323Y-133631609D01*
X179628704Y-133536371D01*
X179581085Y-133488752D01*
X179485847Y-133441133D01*
X179295371Y-133441133D01*
X179200133Y-133488752D01*
X179152514Y-133536371D01*
X179104895Y-133631609D01*
D19*
X147902990Y-96557061D02*
X147902990Y-97071109D01*
X147933228Y-97131585D01*
X147963466Y-97161823D01*
X148023942Y-97192061D01*
X148144895Y-97192061D01*
X148205371Y-97161823D01*
X148235609Y-97131585D01*
X148265847Y-97071109D01*
X148265847Y-96557061D01*
X148507752Y-96557061D02*
X148900847Y-96557061D01*
X148689180Y-96798966D01*
X148779895Y-96798966D01*
X148840371Y-96829204D01*
X148870609Y-96859442D01*
X148900847Y-96919919D01*
X148900847Y-97071109D01*
X148870609Y-97131585D01*
X148840371Y-97161823D01*
X148779895Y-97192061D01*
X148598466Y-97192061D01*
X148537990Y-97161823D01*
X148507752Y-97131585D01*
X157411661Y-97591809D02*
X157925709Y-97591809D01*
X157986185Y-97561571D01*
X158016423Y-97531333D01*
X158046661Y-97470857D01*
X158046661Y-97349904D01*
X158016423Y-97289428D01*
X157986185Y-97259190D01*
X157925709Y-97228952D01*
X157411661Y-97228952D01*
X157683804Y-96835857D02*
X157653566Y-96896333D01*
X157623328Y-96926571D01*
X157562852Y-96956809D01*
X157532614Y-96956809D01*
X157472138Y-96926571D01*
X157441900Y-96896333D01*
X157411661Y-96835857D01*
X157411661Y-96714904D01*
X157441900Y-96654428D01*
X157472138Y-96624190D01*
X157532614Y-96593952D01*
X157562852Y-96593952D01*
X157623328Y-96624190D01*
X157653566Y-96654428D01*
X157683804Y-96714904D01*
X157683804Y-96835857D01*
X157714042Y-96896333D01*
X157744280Y-96926571D01*
X157804757Y-96956809D01*
X157925709Y-96956809D01*
X157986185Y-96926571D01*
X158016423Y-96896333D01*
X158046661Y-96835857D01*
X158046661Y-96714904D01*
X158016423Y-96654428D01*
X157986185Y-96624190D01*
X157925709Y-96593952D01*
X157804757Y-96593952D01*
X157744280Y-96624190D01*
X157714042Y-96654428D01*
X157683804Y-96714904D01*
X176604442Y-151903782D02*
X176925165Y-152224506D01*
X176967928Y-152310032D01*
X176967928Y-152395558D01*
X176925165Y-152481085D01*
X176882402Y-152523848D01*
X176775494Y-151732730D02*
X177053454Y-151454770D01*
X177074836Y-151775493D01*
X177138981Y-151711348D01*
X177203125Y-151689967D01*
X177245888Y-151689967D01*
X177310033Y-151711348D01*
X177416941Y-151818256D01*
X177438323Y-151882401D01*
X177438323Y-151925164D01*
X177416941Y-151989309D01*
X177288652Y-152117598D01*
X177224507Y-152138980D01*
X177181744Y-152138980D01*
D18*
X137828261Y-158567533D02*
X137525880Y-158779200D01*
X137828261Y-158930390D02*
X137193261Y-158930390D01*
X137193261Y-158688485D01*
X137223500Y-158628009D01*
X137253738Y-158597771D01*
X137314214Y-158567533D01*
X137404928Y-158567533D01*
X137465404Y-158597771D01*
X137495642Y-158628009D01*
X137525880Y-158688485D01*
X137525880Y-158930390D01*
X137253738Y-158325628D02*
X137223500Y-158295390D01*
X137193261Y-158234914D01*
X137193261Y-158083723D01*
X137223500Y-158023247D01*
X137253738Y-157993009D01*
X137314214Y-157962771D01*
X137374690Y-157962771D01*
X137465404Y-157993009D01*
X137828261Y-158355866D01*
X137828261Y-157962771D01*
X137828261Y-159837533D02*
X137525880Y-160049200D01*
X137828261Y-160200390D02*
X137193261Y-160200390D01*
X137193261Y-159958485D01*
X137223500Y-159898009D01*
X137253738Y-159867771D01*
X137314214Y-159837533D01*
X137404928Y-159837533D01*
X137465404Y-159867771D01*
X137495642Y-159898009D01*
X137525880Y-159958485D01*
X137525880Y-160200390D01*
X137828261Y-159232771D02*
X137828261Y-159595628D01*
X137828261Y-159414200D02*
X137193261Y-159414200D01*
X137283976Y-159474676D01*
X137344452Y-159535152D01*
X137374690Y-159595628D01*
X148245285Y-103053414D02*
X148275523Y-103083652D01*
X148305761Y-103174366D01*
X148305761Y-103234842D01*
X148275523Y-103325557D01*
X148215047Y-103386033D01*
X148154571Y-103416271D01*
X148033619Y-103446509D01*
X147942904Y-103446509D01*
X147821952Y-103416271D01*
X147761476Y-103386033D01*
X147701000Y-103325557D01*
X147670761Y-103234842D01*
X147670761Y-103174366D01*
X147701000Y-103083652D01*
X147731238Y-103053414D01*
X147670761Y-102841747D02*
X147670761Y-102448652D01*
X147912666Y-102660319D01*
X147912666Y-102569604D01*
X147942904Y-102509128D01*
X147973142Y-102478890D01*
X148033619Y-102448652D01*
X148184809Y-102448652D01*
X148245285Y-102478890D01*
X148275523Y-102509128D01*
X148305761Y-102569604D01*
X148305761Y-102751033D01*
X148275523Y-102811509D01*
X148245285Y-102841747D01*
X147670761Y-102236985D02*
X147670761Y-101843890D01*
X147912666Y-102055557D01*
X147912666Y-101964842D01*
X147942904Y-101904366D01*
X147973142Y-101874128D01*
X148033619Y-101843890D01*
X148184809Y-101843890D01*
X148245285Y-101874128D01*
X148275523Y-101904366D01*
X148305761Y-101964842D01*
X148305761Y-102146271D01*
X148275523Y-102206747D01*
X148245285Y-102236985D01*
X141768285Y-96204485D02*
X141738047Y-96234723D01*
X141647333Y-96264961D01*
X141586857Y-96264961D01*
X141496142Y-96234723D01*
X141435666Y-96174247D01*
X141405428Y-96113771D01*
X141375190Y-95992819D01*
X141375190Y-95902104D01*
X141405428Y-95781152D01*
X141435666Y-95720676D01*
X141496142Y-95660200D01*
X141586857Y-95629961D01*
X141647333Y-95629961D01*
X141738047Y-95660200D01*
X141768285Y-95690438D01*
X141979952Y-95629961D02*
X142373047Y-95629961D01*
X142161380Y-95871866D01*
X142252095Y-95871866D01*
X142312571Y-95902104D01*
X142342809Y-95932342D01*
X142373047Y-95992819D01*
X142373047Y-96144009D01*
X142342809Y-96204485D01*
X142312571Y-96234723D01*
X142252095Y-96264961D01*
X142070666Y-96264961D01*
X142010190Y-96234723D01*
X141979952Y-96204485D01*
X142977809Y-96264961D02*
X142614952Y-96264961D01*
X142796380Y-96264961D02*
X142796380Y-95629961D01*
X142735904Y-95720676D01*
X142675428Y-95781152D01*
X142614952Y-95811390D01*
X141768285Y-95124985D02*
X141738047Y-95155223D01*
X141647333Y-95185461D01*
X141586857Y-95185461D01*
X141496142Y-95155223D01*
X141435666Y-95094747D01*
X141405428Y-95034271D01*
X141375190Y-94913319D01*
X141375190Y-94822604D01*
X141405428Y-94701652D01*
X141435666Y-94641176D01*
X141496142Y-94580700D01*
X141586857Y-94550461D01*
X141647333Y-94550461D01*
X141738047Y-94580700D01*
X141768285Y-94610938D01*
X141979952Y-94550461D02*
X142373047Y-94550461D01*
X142161380Y-94792366D01*
X142252095Y-94792366D01*
X142312571Y-94822604D01*
X142342809Y-94852842D01*
X142373047Y-94913319D01*
X142373047Y-95064509D01*
X142342809Y-95124985D01*
X142312571Y-95155223D01*
X142252095Y-95185461D01*
X142070666Y-95185461D01*
X142010190Y-95155223D01*
X141979952Y-95124985D01*
X142766142Y-94550461D02*
X142826619Y-94550461D01*
X142887095Y-94580700D01*
X142917333Y-94610938D01*
X142947571Y-94671414D01*
X142977809Y-94792366D01*
X142977809Y-94943557D01*
X142947571Y-95064509D01*
X142917333Y-95124985D01*
X142887095Y-95155223D01*
X142826619Y-95185461D01*
X142766142Y-95185461D01*
X142705666Y-95155223D01*
X142675428Y-95124985D01*
X142645190Y-95064509D01*
X142614952Y-94943557D01*
X142614952Y-94792366D01*
X142645190Y-94671414D01*
X142675428Y-94610938D01*
X142705666Y-94580700D01*
X142766142Y-94550461D01*
D10*
X133353142Y-149928866D02*
X133400761Y-149976485D01*
X133448380Y-150119342D01*
X133448380Y-150214580D01*
X133400761Y-150357438D01*
X133305523Y-150452676D01*
X133210285Y-150500295D01*
X133019809Y-150547914D01*
X132876952Y-150547914D01*
X132686476Y-150500295D01*
X132591238Y-150452676D01*
X132496000Y-150357438D01*
X132448380Y-150214580D01*
X132448380Y-150119342D01*
X132496000Y-149976485D01*
X132543619Y-149928866D01*
X133448380Y-148976485D02*
X133448380Y-149547914D01*
X133448380Y-149262200D02*
X132448380Y-149262200D01*
X132591238Y-149357438D01*
X132686476Y-149452676D01*
X132734095Y-149547914D01*
D18*
X136467761Y-151265033D02*
X136165380Y-151476700D01*
X136467761Y-151627890D02*
X135832761Y-151627890D01*
X135832761Y-151385985D01*
X135863000Y-151325509D01*
X135893238Y-151295271D01*
X135953714Y-151265033D01*
X136044428Y-151265033D01*
X136104904Y-151295271D01*
X136135142Y-151325509D01*
X136165380Y-151385985D01*
X136165380Y-151627890D01*
X136044428Y-150720747D02*
X136467761Y-150720747D01*
X135802523Y-150871938D02*
X136256095Y-151023128D01*
X136256095Y-150630033D01*
X137752666Y-148688961D02*
X137541000Y-148386580D01*
X137389809Y-148688961D02*
X137389809Y-148053961D01*
X137631714Y-148053961D01*
X137692190Y-148084200D01*
X137722428Y-148114438D01*
X137752666Y-148174914D01*
X137752666Y-148265628D01*
X137722428Y-148326104D01*
X137692190Y-148356342D01*
X137631714Y-148386580D01*
X137389809Y-148386580D01*
X137964333Y-148053961D02*
X138357428Y-148053961D01*
X138145761Y-148295866D01*
X138236476Y-148295866D01*
X138296952Y-148326104D01*
X138327190Y-148356342D01*
X138357428Y-148416819D01*
X138357428Y-148568009D01*
X138327190Y-148628485D01*
X138296952Y-148658723D01*
X138236476Y-148688961D01*
X138055047Y-148688961D01*
X137994571Y-148658723D01*
X137964333Y-148628485D01*
X166191985Y-152329414D02*
X166222223Y-152359652D01*
X166252461Y-152450366D01*
X166252461Y-152510842D01*
X166222223Y-152601557D01*
X166161747Y-152662033D01*
X166101271Y-152692271D01*
X165980319Y-152722509D01*
X165889604Y-152722509D01*
X165768652Y-152692271D01*
X165708176Y-152662033D01*
X165647700Y-152601557D01*
X165617461Y-152510842D01*
X165617461Y-152450366D01*
X165647700Y-152359652D01*
X165677938Y-152329414D01*
X166252461Y-151724652D02*
X166252461Y-152087509D01*
X166252461Y-151906080D02*
X165617461Y-151906080D01*
X165708176Y-151966557D01*
X165768652Y-152027033D01*
X165798890Y-152087509D01*
X166252461Y-151119890D02*
X166252461Y-151482747D01*
X166252461Y-151301319D02*
X165617461Y-151301319D01*
X165708176Y-151361795D01*
X165768652Y-151422271D01*
X165798890Y-151482747D01*
X162964585Y-141051814D02*
X162994823Y-141082052D01*
X163025061Y-141172766D01*
X163025061Y-141233242D01*
X162994823Y-141323957D01*
X162934347Y-141384433D01*
X162873871Y-141414671D01*
X162752919Y-141444909D01*
X162662204Y-141444909D01*
X162541252Y-141414671D01*
X162480776Y-141384433D01*
X162420300Y-141323957D01*
X162390061Y-141233242D01*
X162390061Y-141172766D01*
X162420300Y-141082052D01*
X162450538Y-141051814D01*
X163025061Y-140447052D02*
X163025061Y-140809909D01*
X163025061Y-140628480D02*
X162390061Y-140628480D01*
X162480776Y-140688957D01*
X162541252Y-140749433D01*
X162571490Y-140809909D01*
X162390061Y-140053957D02*
X162390061Y-139993480D01*
X162420300Y-139933004D01*
X162450538Y-139902766D01*
X162511014Y-139872528D01*
X162631966Y-139842290D01*
X162783157Y-139842290D01*
X162904109Y-139872528D01*
X162964585Y-139902766D01*
X162994823Y-139933004D01*
X163025061Y-139993480D01*
X163025061Y-140053957D01*
X162994823Y-140114433D01*
X162964585Y-140144671D01*
X162904109Y-140174909D01*
X162783157Y-140205147D01*
X162631966Y-140205147D01*
X162511014Y-140174909D01*
X162450538Y-140144671D01*
X162420300Y-140114433D01*
X162390061Y-140053957D01*
X155293785Y-163457033D02*
X155324023Y-163487271D01*
X155354261Y-163577985D01*
X155354261Y-163638461D01*
X155324023Y-163729176D01*
X155263547Y-163789652D01*
X155203071Y-163819890D01*
X155082119Y-163850128D01*
X154991404Y-163850128D01*
X154870452Y-163819890D01*
X154809976Y-163789652D01*
X154749500Y-163729176D01*
X154719261Y-163638461D01*
X154719261Y-163577985D01*
X154749500Y-163487271D01*
X154779738Y-163457033D01*
X155354261Y-163154652D02*
X155354261Y-163033700D01*
X155324023Y-162973223D01*
X155293785Y-162942985D01*
X155203071Y-162882509D01*
X155082119Y-162852271D01*
X154840214Y-162852271D01*
X154779738Y-162882509D01*
X154749500Y-162912747D01*
X154719261Y-162973223D01*
X154719261Y-163094176D01*
X154749500Y-163154652D01*
X154779738Y-163184890D01*
X154840214Y-163215128D01*
X154991404Y-163215128D01*
X155051880Y-163184890D01*
X155082119Y-163154652D01*
X155112357Y-163094176D01*
X155112357Y-162973223D01*
X155082119Y-162912747D01*
X155051880Y-162882509D01*
X154991404Y-162852271D01*
X154249966Y-137847785D02*
X154219728Y-137878023D01*
X154129014Y-137908261D01*
X154068538Y-137908261D01*
X153977823Y-137878023D01*
X153917347Y-137817547D01*
X153887109Y-137757071D01*
X153856871Y-137636119D01*
X153856871Y-137545404D01*
X153887109Y-137424452D01*
X153917347Y-137363976D01*
X153977823Y-137303500D01*
X154068538Y-137273261D01*
X154129014Y-137273261D01*
X154219728Y-137303500D01*
X154249966Y-137333738D01*
X154612823Y-137545404D02*
X154552347Y-137515166D01*
X154522109Y-137484928D01*
X154491871Y-137424452D01*
X154491871Y-137394214D01*
X154522109Y-137333738D01*
X154552347Y-137303500D01*
X154612823Y-137273261D01*
X154733776Y-137273261D01*
X154794252Y-137303500D01*
X154824490Y-137333738D01*
X154854728Y-137394214D01*
X154854728Y-137424452D01*
X154824490Y-137484928D01*
X154794252Y-137515166D01*
X154733776Y-137545404D01*
X154612823Y-137545404D01*
X154552347Y-137575642D01*
X154522109Y-137605880D01*
X154491871Y-137666357D01*
X154491871Y-137787309D01*
X154522109Y-137847785D01*
X154552347Y-137878023D01*
X154612823Y-137908261D01*
X154733776Y-137908261D01*
X154794252Y-137878023D01*
X154824490Y-137847785D01*
X154854728Y-137787309D01*
X154854728Y-137666357D01*
X154824490Y-137605880D01*
X154794252Y-137575642D01*
X154733776Y-137545404D01*
X151293285Y-163520533D02*
X151323523Y-163550771D01*
X151353761Y-163641485D01*
X151353761Y-163701961D01*
X151323523Y-163792676D01*
X151263047Y-163853152D01*
X151202571Y-163883390D01*
X151081619Y-163913628D01*
X150990904Y-163913628D01*
X150869952Y-163883390D01*
X150809476Y-163853152D01*
X150749000Y-163792676D01*
X150718761Y-163701961D01*
X150718761Y-163641485D01*
X150749000Y-163550771D01*
X150779238Y-163520533D01*
X150718761Y-163308866D02*
X150718761Y-162885533D01*
X151353761Y-163157676D01*
X147264966Y-137822385D02*
X147234728Y-137852623D01*
X147144014Y-137882861D01*
X147083538Y-137882861D01*
X146992823Y-137852623D01*
X146932347Y-137792147D01*
X146902109Y-137731671D01*
X146871871Y-137610719D01*
X146871871Y-137520004D01*
X146902109Y-137399052D01*
X146932347Y-137338576D01*
X146992823Y-137278100D01*
X147083538Y-137247861D01*
X147144014Y-137247861D01*
X147234728Y-137278100D01*
X147264966Y-137308338D01*
X147809252Y-137247861D02*
X147688300Y-137247861D01*
X147627823Y-137278100D01*
X147597585Y-137308338D01*
X147537109Y-137399052D01*
X147506871Y-137520004D01*
X147506871Y-137761909D01*
X147537109Y-137822385D01*
X147567347Y-137852623D01*
X147627823Y-137882861D01*
X147748776Y-137882861D01*
X147809252Y-137852623D01*
X147839490Y-137822385D01*
X147869728Y-137761909D01*
X147869728Y-137610719D01*
X147839490Y-137550242D01*
X147809252Y-137520004D01*
X147748776Y-137489766D01*
X147627823Y-137489766D01*
X147567347Y-137520004D01*
X147537109Y-137550242D01*
X147506871Y-137610719D01*
X144816285Y-163520533D02*
X144846523Y-163550771D01*
X144876761Y-163641485D01*
X144876761Y-163701961D01*
X144846523Y-163792676D01*
X144786047Y-163853152D01*
X144725571Y-163883390D01*
X144604619Y-163913628D01*
X144513904Y-163913628D01*
X144392952Y-163883390D01*
X144332476Y-163853152D01*
X144272000Y-163792676D01*
X144241761Y-163701961D01*
X144241761Y-163641485D01*
X144272000Y-163550771D01*
X144302238Y-163520533D01*
X144241761Y-162946009D02*
X144241761Y-163248390D01*
X144544142Y-163278628D01*
X144513904Y-163248390D01*
X144483666Y-163187914D01*
X144483666Y-163036723D01*
X144513904Y-162976247D01*
X144544142Y-162946009D01*
X144604619Y-162915771D01*
X144755809Y-162915771D01*
X144816285Y-162946009D01*
X144846523Y-162976247D01*
X144876761Y-163036723D01*
X144876761Y-163187914D01*
X144846523Y-163248390D01*
X144816285Y-163278628D01*
X137767785Y-157297533D02*
X137798023Y-157327771D01*
X137828261Y-157418485D01*
X137828261Y-157478961D01*
X137798023Y-157569676D01*
X137737547Y-157630152D01*
X137677071Y-157660390D01*
X137556119Y-157690628D01*
X137465404Y-157690628D01*
X137344452Y-157660390D01*
X137283976Y-157630152D01*
X137223500Y-157569676D01*
X137193261Y-157478961D01*
X137193261Y-157418485D01*
X137223500Y-157327771D01*
X137253738Y-157297533D01*
X137404928Y-156753247D02*
X137828261Y-156753247D01*
X137163023Y-156904438D02*
X137616595Y-157055628D01*
X137616595Y-156662533D01*
X139721166Y-148972985D02*
X139690928Y-149003223D01*
X139600214Y-149033461D01*
X139539738Y-149033461D01*
X139449023Y-149003223D01*
X139388547Y-148942747D01*
X139358309Y-148882271D01*
X139328071Y-148761319D01*
X139328071Y-148670604D01*
X139358309Y-148549652D01*
X139388547Y-148489176D01*
X139449023Y-148428700D01*
X139539738Y-148398461D01*
X139600214Y-148398461D01*
X139690928Y-148428700D01*
X139721166Y-148458938D01*
X139932833Y-148398461D02*
X140325928Y-148398461D01*
X140114261Y-148640366D01*
X140204976Y-148640366D01*
X140265452Y-148670604D01*
X140295690Y-148700842D01*
X140325928Y-148761319D01*
X140325928Y-148912509D01*
X140295690Y-148972985D01*
X140265452Y-149003223D01*
X140204976Y-149033461D01*
X140023547Y-149033461D01*
X139963071Y-149003223D01*
X139932833Y-148972985D01*
X135264285Y-150122033D02*
X135294523Y-150152271D01*
X135324761Y-150242985D01*
X135324761Y-150303461D01*
X135294523Y-150394176D01*
X135234047Y-150454652D01*
X135173571Y-150484890D01*
X135052619Y-150515128D01*
X134961904Y-150515128D01*
X134840952Y-150484890D01*
X134780476Y-150454652D01*
X134720000Y-150394176D01*
X134689761Y-150303461D01*
X134689761Y-150242985D01*
X134720000Y-150152271D01*
X134750238Y-150122033D01*
X134750238Y-149880128D02*
X134720000Y-149849890D01*
X134689761Y-149789414D01*
X134689761Y-149638223D01*
X134720000Y-149577747D01*
X134750238Y-149547509D01*
X134810714Y-149517271D01*
X134871190Y-149517271D01*
X134961904Y-149547509D01*
X135324761Y-149910366D01*
X135324761Y-149517271D01*
X181828681Y-139588774D02*
X181526300Y-139800440D01*
X181828681Y-139951631D02*
X181193681Y-139951631D01*
X181193681Y-139709726D01*
X181223920Y-139649250D01*
X181254158Y-139619012D01*
X181314634Y-139588774D01*
X181405348Y-139588774D01*
X181465824Y-139619012D01*
X181496062Y-139649250D01*
X181526300Y-139709726D01*
X181526300Y-139951631D01*
X181193681Y-139377107D02*
X181193681Y-138984012D01*
X181435586Y-139195679D01*
X181435586Y-139104964D01*
X181465824Y-139044488D01*
X181496062Y-139014250D01*
X181556539Y-138984012D01*
X181707729Y-138984012D01*
X181768205Y-139014250D01*
X181798443Y-139044488D01*
X181828681Y-139104964D01*
X181828681Y-139286393D01*
X181798443Y-139346869D01*
X181768205Y-139377107D01*
X181193681Y-138439726D02*
X181193681Y-138560679D01*
X181223920Y-138621155D01*
X181254158Y-138651393D01*
X181344872Y-138711869D01*
X181465824Y-138742107D01*
X181707729Y-138742107D01*
X181768205Y-138711869D01*
X181798443Y-138681631D01*
X181828681Y-138621155D01*
X181828681Y-138500202D01*
X181798443Y-138439726D01*
X181768205Y-138409488D01*
X181707729Y-138379250D01*
X181556539Y-138379250D01*
X181496062Y-138409488D01*
X181465824Y-138439726D01*
X181435586Y-138500202D01*
X181435586Y-138621155D01*
X181465824Y-138681631D01*
X181496062Y-138711869D01*
X181556539Y-138742107D01*
X126398261Y-110038414D02*
X126095880Y-110250080D01*
X126398261Y-110401271D02*
X125763261Y-110401271D01*
X125763261Y-110159366D01*
X125793500Y-110098890D01*
X125823738Y-110068652D01*
X125884214Y-110038414D01*
X125974928Y-110038414D01*
X126035404Y-110068652D01*
X126065642Y-110098890D01*
X126095880Y-110159366D01*
X126095880Y-110401271D01*
X125823738Y-109796509D02*
X125793500Y-109766271D01*
X125763261Y-109705795D01*
X125763261Y-109554604D01*
X125793500Y-109494128D01*
X125823738Y-109463890D01*
X125884214Y-109433652D01*
X125944690Y-109433652D01*
X126035404Y-109463890D01*
X126398261Y-109826747D01*
X126398261Y-109433652D01*
X126398261Y-108828890D02*
X126398261Y-109191747D01*
X126398261Y-109010319D02*
X125763261Y-109010319D01*
X125853976Y-109070795D01*
X125914452Y-109131271D01*
X125944690Y-109191747D01*
X172756285Y-130427961D02*
X172544619Y-130125580D01*
X172393428Y-130427961D02*
X172393428Y-129792961D01*
X172635333Y-129792961D01*
X172695809Y-129823200D01*
X172726047Y-129853438D01*
X172756285Y-129913914D01*
X172756285Y-130004628D01*
X172726047Y-130065104D01*
X172695809Y-130095342D01*
X172635333Y-130125580D01*
X172393428Y-130125580D01*
X173361047Y-130427961D02*
X172998190Y-130427961D01*
X173179619Y-130427961D02*
X173179619Y-129792961D01*
X173119142Y-129883676D01*
X173058666Y-129944152D01*
X172998190Y-129974390D01*
X173723904Y-130065104D02*
X173663428Y-130034866D01*
X173633190Y-130004628D01*
X173602952Y-129944152D01*
X173602952Y-129913914D01*
X173633190Y-129853438D01*
X173663428Y-129823200D01*
X173723904Y-129792961D01*
X173844857Y-129792961D01*
X173905333Y-129823200D01*
X173935571Y-129853438D01*
X173965809Y-129913914D01*
X173965809Y-129944152D01*
X173935571Y-130004628D01*
X173905333Y-130034866D01*
X173844857Y-130065104D01*
X173723904Y-130065104D01*
X173663428Y-130095342D01*
X173633190Y-130125580D01*
X173602952Y-130186057D01*
X173602952Y-130307009D01*
X173633190Y-130367485D01*
X173663428Y-130397723D01*
X173723904Y-130427961D01*
X173844857Y-130427961D01*
X173905333Y-130397723D01*
X173935571Y-130367485D01*
X173965809Y-130307009D01*
X173965809Y-130186057D01*
X173935571Y-130125580D01*
X173905333Y-130095342D01*
X173844857Y-130065104D01*
X168663861Y-137292614D02*
X168361480Y-137504280D01*
X168663861Y-137655471D02*
X168028861Y-137655471D01*
X168028861Y-137413566D01*
X168059100Y-137353090D01*
X168089338Y-137322852D01*
X168149814Y-137292614D01*
X168240528Y-137292614D01*
X168301004Y-137322852D01*
X168331242Y-137353090D01*
X168361480Y-137413566D01*
X168361480Y-137655471D01*
X168663861Y-136687852D02*
X168663861Y-137050709D01*
X168663861Y-136869280D02*
X168028861Y-136869280D01*
X168119576Y-136929757D01*
X168180052Y-136990233D01*
X168210290Y-137050709D01*
X168028861Y-136476185D02*
X168028861Y-136052852D01*
X168663861Y-136324995D01*
X174445385Y-142048461D02*
X174233719Y-141746080D01*
X174082528Y-142048461D02*
X174082528Y-141413461D01*
X174324433Y-141413461D01*
X174384909Y-141443700D01*
X174415147Y-141473938D01*
X174445385Y-141534414D01*
X174445385Y-141625128D01*
X174415147Y-141685604D01*
X174384909Y-141715842D01*
X174324433Y-141746080D01*
X174082528Y-141746080D01*
X175050147Y-142048461D02*
X174687290Y-142048461D01*
X174868719Y-142048461D02*
X174868719Y-141413461D01*
X174808242Y-141504176D01*
X174747766Y-141564652D01*
X174687290Y-141594890D01*
X175594433Y-141413461D02*
X175473480Y-141413461D01*
X175413004Y-141443700D01*
X175382766Y-141473938D01*
X175322290Y-141564652D01*
X175292052Y-141685604D01*
X175292052Y-141927509D01*
X175322290Y-141987985D01*
X175352528Y-142018223D01*
X175413004Y-142048461D01*
X175533957Y-142048461D01*
X175594433Y-142018223D01*
X175624671Y-141987985D01*
X175654909Y-141927509D01*
X175654909Y-141776319D01*
X175624671Y-141715842D01*
X175594433Y-141685604D01*
X175533957Y-141655366D01*
X175413004Y-141655366D01*
X175352528Y-141685604D01*
X175322290Y-141715842D01*
X175292052Y-141776319D01*
X168206661Y-141737614D02*
X167904280Y-141949280D01*
X168206661Y-142100471D02*
X167571661Y-142100471D01*
X167571661Y-141858566D01*
X167601900Y-141798090D01*
X167632138Y-141767852D01*
X167692614Y-141737614D01*
X167783328Y-141737614D01*
X167843804Y-141767852D01*
X167874042Y-141798090D01*
X167904280Y-141858566D01*
X167904280Y-142100471D01*
X168206661Y-141132852D02*
X168206661Y-141495709D01*
X168206661Y-141314280D02*
X167571661Y-141314280D01*
X167662376Y-141374757D01*
X167722852Y-141435233D01*
X167753090Y-141495709D01*
X167571661Y-140558328D02*
X167571661Y-140860709D01*
X167874042Y-140890947D01*
X167843804Y-140860709D01*
X167813566Y-140800233D01*
X167813566Y-140649042D01*
X167843804Y-140588566D01*
X167874042Y-140558328D01*
X167934519Y-140528090D01*
X168085709Y-140528090D01*
X168146185Y-140558328D01*
X168176423Y-140588566D01*
X168206661Y-140649042D01*
X168206661Y-140800233D01*
X168176423Y-140860709D01*
X168146185Y-140890947D01*
D19*
X169939909Y-127976661D02*
X170302766Y-127976661D01*
X170121338Y-128611661D02*
X170121338Y-127976661D01*
X170514433Y-128611661D02*
X170514433Y-127976661D01*
X170756338Y-127976661D01*
X170816814Y-128006900D01*
X170847052Y-128037138D01*
X170877290Y-128097614D01*
X170877290Y-128188328D01*
X170847052Y-128248804D01*
X170816814Y-128279042D01*
X170756338Y-128309280D01*
X170514433Y-128309280D01*
X171482052Y-128611661D02*
X171119195Y-128611661D01*
X171300623Y-128611661D02*
X171300623Y-127976661D01*
X171240147Y-128067376D01*
X171179671Y-128127852D01*
X171119195Y-128158090D01*
X171875147Y-127976661D02*
X171935623Y-127976661D01*
X171996100Y-128006900D01*
X172026338Y-128037138D01*
X172056576Y-128097614D01*
X172086814Y-128218566D01*
X172086814Y-128369757D01*
X172056576Y-128490709D01*
X172026338Y-128551185D01*
X171996100Y-128581423D01*
X171935623Y-128611661D01*
X171875147Y-128611661D01*
X171814671Y-128581423D01*
X171784433Y-128551185D01*
X171754195Y-128490709D01*
X171723957Y-128369757D01*
X171723957Y-128218566D01*
X171754195Y-128097614D01*
X171784433Y-128037138D01*
X171814671Y-128006900D01*
X171875147Y-127976661D01*
X168007090Y-127976661D02*
X168369947Y-127976661D01*
X168188519Y-128611661D02*
X168188519Y-127976661D01*
X168581614Y-128611661D02*
X168581614Y-127976661D01*
X168823519Y-127976661D01*
X168883995Y-128006900D01*
X168914233Y-128037138D01*
X168944471Y-128097614D01*
X168944471Y-128188328D01*
X168914233Y-128248804D01*
X168883995Y-128279042D01*
X168823519Y-128309280D01*
X168581614Y-128309280D01*
X169246852Y-128611661D02*
X169367804Y-128611661D01*
X169428280Y-128581423D01*
X169458519Y-128551185D01*
X169518995Y-128460471D01*
X169549233Y-128339519D01*
X169549233Y-128097614D01*
X169518995Y-128037138D01*
X169488757Y-128006900D01*
X169428280Y-127976661D01*
X169307328Y-127976661D01*
X169246852Y-128006900D01*
X169216614Y-128037138D01*
X169186376Y-128097614D01*
X169186376Y-128248804D01*
X169216614Y-128309280D01*
X169246852Y-128339519D01*
X169307328Y-128369757D01*
X169428280Y-128369757D01*
X169488757Y-128339519D01*
X169518995Y-128309280D01*
X169549233Y-128248804D01*
X165784590Y-144271161D02*
X166147447Y-144271161D01*
X165966019Y-144906161D02*
X165966019Y-144271161D01*
X166359114Y-144906161D02*
X166359114Y-144271161D01*
X166601019Y-144271161D01*
X166661495Y-144301400D01*
X166691733Y-144331638D01*
X166721971Y-144392114D01*
X166721971Y-144482828D01*
X166691733Y-144543304D01*
X166661495Y-144573542D01*
X166601019Y-144603780D01*
X166359114Y-144603780D01*
X167084828Y-144543304D02*
X167024352Y-144513066D01*
X166994114Y-144482828D01*
X166963876Y-144422352D01*
X166963876Y-144392114D01*
X166994114Y-144331638D01*
X167024352Y-144301400D01*
X167084828Y-144271161D01*
X167205780Y-144271161D01*
X167266257Y-144301400D01*
X167296495Y-144331638D01*
X167326733Y-144392114D01*
X167326733Y-144422352D01*
X167296495Y-144482828D01*
X167266257Y-144513066D01*
X167205780Y-144543304D01*
X167084828Y-144543304D01*
X167024352Y-144573542D01*
X166994114Y-144603780D01*
X166963876Y-144664257D01*
X166963876Y-144785209D01*
X166994114Y-144845685D01*
X167024352Y-144875923D01*
X167084828Y-144906161D01*
X167205780Y-144906161D01*
X167266257Y-144875923D01*
X167296495Y-144845685D01*
X167326733Y-144785209D01*
X167326733Y-144664257D01*
X167296495Y-144603780D01*
X167266257Y-144573542D01*
X167205780Y-144543304D01*
X169404090Y-112914461D02*
X169766947Y-112914461D01*
X169585519Y-113549461D02*
X169585519Y-112914461D01*
X169978614Y-113549461D02*
X169978614Y-112914461D01*
X170220519Y-112914461D01*
X170280995Y-112944700D01*
X170311233Y-112974938D01*
X170341471Y-113035414D01*
X170341471Y-113126128D01*
X170311233Y-113186604D01*
X170280995Y-113216842D01*
X170220519Y-113247080D01*
X169978614Y-113247080D01*
X170885757Y-112914461D02*
X170764804Y-112914461D01*
X170704328Y-112944700D01*
X170674090Y-112974938D01*
X170613614Y-113065652D01*
X170583376Y-113186604D01*
X170583376Y-113428509D01*
X170613614Y-113488985D01*
X170643852Y-113519223D01*
X170704328Y-113549461D01*
X170825280Y-113549461D01*
X170885757Y-113519223D01*
X170915995Y-113488985D01*
X170946233Y-113428509D01*
X170946233Y-113277319D01*
X170915995Y-113216842D01*
X170885757Y-113186604D01*
X170825280Y-113156366D01*
X170704328Y-113156366D01*
X170643852Y-113186604D01*
X170613614Y-113216842D01*
X170583376Y-113277319D01*
X152154061Y-115511509D02*
X152154061Y-115148652D01*
X152789061Y-115330080D02*
X152154061Y-115330080D01*
X152789061Y-114936985D02*
X152154061Y-114936985D01*
X152154061Y-114695080D01*
X152184300Y-114634604D01*
X152214538Y-114604366D01*
X152275014Y-114574128D01*
X152365728Y-114574128D01*
X152426204Y-114604366D01*
X152456442Y-114634604D01*
X152486680Y-114695080D01*
X152486680Y-114936985D01*
X152154061Y-113999604D02*
X152154061Y-114301985D01*
X152456442Y-114332223D01*
X152426204Y-114301985D01*
X152395966Y-114241509D01*
X152395966Y-114090319D01*
X152426204Y-114029842D01*
X152456442Y-113999604D01*
X152516919Y-113969366D01*
X152668109Y-113969366D01*
X152728585Y-113999604D01*
X152758823Y-114029842D01*
X152789061Y-114090319D01*
X152789061Y-114241509D01*
X152758823Y-114301985D01*
X152728585Y-114332223D01*
X170064490Y-124065461D02*
X170427347Y-124065461D01*
X170245919Y-124700461D02*
X170245919Y-124065461D01*
X170639014Y-124700461D02*
X170639014Y-124065461D01*
X170880919Y-124065461D01*
X170941395Y-124095700D01*
X170971633Y-124125938D01*
X171001871Y-124186414D01*
X171001871Y-124277128D01*
X170971633Y-124337604D01*
X170941395Y-124367842D01*
X170880919Y-124398080D01*
X170639014Y-124398080D01*
X171546157Y-124277128D02*
X171546157Y-124700461D01*
X171394966Y-124035223D02*
X171243776Y-124488795D01*
X171636871Y-124488795D01*
X150706261Y-121861509D02*
X150706261Y-121498652D01*
X151341261Y-121680080D02*
X150706261Y-121680080D01*
X151341261Y-121286985D02*
X150706261Y-121286985D01*
X150706261Y-121045080D01*
X150736500Y-120984604D01*
X150766738Y-120954366D01*
X150827214Y-120924128D01*
X150917928Y-120924128D01*
X150978404Y-120954366D01*
X151008642Y-120984604D01*
X151038880Y-121045080D01*
X151038880Y-121286985D01*
X150706261Y-120712461D02*
X150706261Y-120319366D01*
X150948166Y-120531033D01*
X150948166Y-120440319D01*
X150978404Y-120379842D01*
X151008642Y-120349604D01*
X151069119Y-120319366D01*
X151220309Y-120319366D01*
X151280785Y-120349604D01*
X151311023Y-120379842D01*
X151341261Y-120440319D01*
X151341261Y-120621747D01*
X151311023Y-120682223D01*
X151280785Y-120712461D01*
X138136690Y-151293861D02*
X138499547Y-151293861D01*
X138318119Y-151928861D02*
X138318119Y-151293861D01*
X138711214Y-151928861D02*
X138711214Y-151293861D01*
X138953119Y-151293861D01*
X139013595Y-151324100D01*
X139043833Y-151354338D01*
X139074071Y-151414814D01*
X139074071Y-151505528D01*
X139043833Y-151566004D01*
X139013595Y-151596242D01*
X138953119Y-151626480D01*
X138711214Y-151626480D01*
X139315976Y-151354338D02*
X139346214Y-151324100D01*
X139406690Y-151293861D01*
X139557880Y-151293861D01*
X139618357Y-151324100D01*
X139648595Y-151354338D01*
X139678833Y-151414814D01*
X139678833Y-151475290D01*
X139648595Y-151566004D01*
X139285738Y-151928861D01*
X139678833Y-151928861D01*
X135368090Y-146340861D02*
X135730947Y-146340861D01*
X135549519Y-146975861D02*
X135549519Y-146340861D01*
X135942614Y-146975861D02*
X135942614Y-146340861D01*
X136184519Y-146340861D01*
X136244995Y-146371100D01*
X136275233Y-146401338D01*
X136305471Y-146461814D01*
X136305471Y-146552528D01*
X136275233Y-146613004D01*
X136244995Y-146643242D01*
X136184519Y-146673480D01*
X135942614Y-146673480D01*
X136910233Y-146975861D02*
X136547376Y-146975861D01*
X136728804Y-146975861D02*
X136728804Y-146340861D01*
X136668328Y-146431576D01*
X136607852Y-146492052D01*
X136547376Y-146522290D01*
X160559661Y-120044633D02*
X160257280Y-120256300D01*
X160559661Y-120407490D02*
X159924661Y-120407490D01*
X159924661Y-120165585D01*
X159954900Y-120105109D01*
X159985138Y-120074871D01*
X160045614Y-120044633D01*
X160136328Y-120044633D01*
X160196804Y-120074871D01*
X160227042Y-120105109D01*
X160257280Y-120165585D01*
X160257280Y-120407490D01*
X160196804Y-119681776D02*
X160166566Y-119742252D01*
X160136328Y-119772490D01*
X160075852Y-119802728D01*
X160045614Y-119802728D01*
X159985138Y-119772490D01*
X159954900Y-119742252D01*
X159924661Y-119681776D01*
X159924661Y-119560823D01*
X159954900Y-119500347D01*
X159985138Y-119470109D01*
X160045614Y-119439871D01*
X160075852Y-119439871D01*
X160136328Y-119470109D01*
X160166566Y-119500347D01*
X160196804Y-119560823D01*
X160196804Y-119681776D01*
X160227042Y-119742252D01*
X160257280Y-119772490D01*
X160317757Y-119802728D01*
X160438709Y-119802728D01*
X160499185Y-119772490D01*
X160529423Y-119742252D01*
X160559661Y-119681776D01*
X160559661Y-119560823D01*
X160529423Y-119500347D01*
X160499185Y-119470109D01*
X160438709Y-119439871D01*
X160317757Y-119439871D01*
X160257280Y-119470109D01*
X160227042Y-119500347D01*
X160196804Y-119560823D01*
X140356166Y-115124461D02*
X140144500Y-114822080D01*
X139993309Y-115124461D02*
X139993309Y-114489461D01*
X140235214Y-114489461D01*
X140295690Y-114519700D01*
X140325928Y-114549938D01*
X140356166Y-114610414D01*
X140356166Y-114701128D01*
X140325928Y-114761604D01*
X140295690Y-114791842D01*
X140235214Y-114822080D01*
X139993309Y-114822080D01*
X140567833Y-114489461D02*
X140991166Y-114489461D01*
X140719023Y-115124461D01*
X163673366Y-116263661D02*
X163461700Y-115961280D01*
X163310509Y-116263661D02*
X163310509Y-115628661D01*
X163552414Y-115628661D01*
X163612890Y-115658900D01*
X163643128Y-115689138D01*
X163673366Y-115749614D01*
X163673366Y-115840328D01*
X163643128Y-115900804D01*
X163612890Y-115931042D01*
X163552414Y-115961280D01*
X163310509Y-115961280D01*
X164217652Y-115628661D02*
X164096700Y-115628661D01*
X164036223Y-115658900D01*
X164005985Y-115689138D01*
X163945509Y-115779852D01*
X163915271Y-115900804D01*
X163915271Y-116142709D01*
X163945509Y-116203185D01*
X163975747Y-116233423D01*
X164036223Y-116263661D01*
X164157176Y-116263661D01*
X164217652Y-116233423D01*
X164247890Y-116203185D01*
X164278128Y-116142709D01*
X164278128Y-115991519D01*
X164247890Y-115931042D01*
X164217652Y-115900804D01*
X164157176Y-115870566D01*
X164036223Y-115870566D01*
X163975747Y-115900804D01*
X163945509Y-115931042D01*
X163915271Y-115991519D01*
X137166261Y-118499033D02*
X136863880Y-118710700D01*
X137166261Y-118861890D02*
X136531261Y-118861890D01*
X136531261Y-118619985D01*
X136561500Y-118559509D01*
X136591738Y-118529271D01*
X136652214Y-118499033D01*
X136742928Y-118499033D01*
X136803404Y-118529271D01*
X136833642Y-118559509D01*
X136863880Y-118619985D01*
X136863880Y-118861890D01*
X136531261Y-117924509D02*
X136531261Y-118226890D01*
X136833642Y-118257128D01*
X136803404Y-118226890D01*
X136773166Y-118166414D01*
X136773166Y-118015223D01*
X136803404Y-117954747D01*
X136833642Y-117924509D01*
X136894119Y-117894271D01*
X137045309Y-117894271D01*
X137105785Y-117924509D01*
X137136023Y-117954747D01*
X137166261Y-118015223D01*
X137166261Y-118166414D01*
X137136023Y-118226890D01*
X137105785Y-118257128D01*
X166454061Y-117553014D02*
X166151680Y-117764680D01*
X166454061Y-117915871D02*
X165819061Y-117915871D01*
X165819061Y-117673966D01*
X165849300Y-117613490D01*
X165879538Y-117583252D01*
X165940014Y-117553014D01*
X166030728Y-117553014D01*
X166091204Y-117583252D01*
X166121442Y-117613490D01*
X166151680Y-117673966D01*
X166151680Y-117915871D01*
X166454061Y-116948252D02*
X166454061Y-117311109D01*
X166454061Y-117129680D02*
X165819061Y-117129680D01*
X165909776Y-117190157D01*
X165970252Y-117250633D01*
X166000490Y-117311109D01*
X165819061Y-116555157D02*
X165819061Y-116494680D01*
X165849300Y-116434204D01*
X165879538Y-116403966D01*
X165940014Y-116373728D01*
X166060966Y-116343490D01*
X166212157Y-116343490D01*
X166333109Y-116373728D01*
X166393585Y-116403966D01*
X166423823Y-116434204D01*
X166454061Y-116494680D01*
X166454061Y-116555157D01*
X166423823Y-116615633D01*
X166393585Y-116645871D01*
X166333109Y-116676109D01*
X166212157Y-116706347D01*
X166060966Y-116706347D01*
X165940014Y-116676109D01*
X165879538Y-116645871D01*
X165849300Y-116615633D01*
X165819061Y-116555157D01*
X151151166Y-119188461D02*
X150939500Y-118886080D01*
X150788309Y-119188461D02*
X150788309Y-118553461D01*
X151030214Y-118553461D01*
X151090690Y-118583700D01*
X151120928Y-118613938D01*
X151151166Y-118674414D01*
X151151166Y-118765128D01*
X151120928Y-118825604D01*
X151090690Y-118855842D01*
X151030214Y-118886080D01*
X150788309Y-118886080D01*
X151453547Y-119188461D02*
X151574500Y-119188461D01*
X151634976Y-119158223D01*
X151665214Y-119127985D01*
X151725690Y-119037271D01*
X151755928Y-118916319D01*
X151755928Y-118674414D01*
X151725690Y-118613938D01*
X151695452Y-118583700D01*
X151634976Y-118553461D01*
X151514023Y-118553461D01*
X151453547Y-118583700D01*
X151423309Y-118613938D01*
X151393071Y-118674414D01*
X151393071Y-118825604D01*
X151423309Y-118886080D01*
X151453547Y-118916319D01*
X151514023Y-118946557D01*
X151634976Y-118946557D01*
X151695452Y-118916319D01*
X151725690Y-118886080D01*
X151755928Y-118825604D01*
X167866785Y-135438414D02*
X167897023Y-135468652D01*
X167927261Y-135559366D01*
X167927261Y-135619842D01*
X167897023Y-135710557D01*
X167836547Y-135771033D01*
X167776071Y-135801271D01*
X167655119Y-135831509D01*
X167564404Y-135831509D01*
X167443452Y-135801271D01*
X167382976Y-135771033D01*
X167322500Y-135710557D01*
X167292261Y-135619842D01*
X167292261Y-135559366D01*
X167322500Y-135468652D01*
X167352738Y-135438414D01*
X167503928Y-134894128D02*
X167927261Y-134894128D01*
X167262023Y-135045319D02*
X167715595Y-135196509D01*
X167715595Y-134803414D01*
X167927261Y-134228890D02*
X167927261Y-134591747D01*
X167927261Y-134410319D02*
X167292261Y-134410319D01*
X167382976Y-134470795D01*
X167443452Y-134531271D01*
X167473690Y-134591747D01*
X161453285Y-133596914D02*
X161483523Y-133627152D01*
X161513761Y-133717866D01*
X161513761Y-133778342D01*
X161483523Y-133869057D01*
X161423047Y-133929533D01*
X161362571Y-133959771D01*
X161241619Y-133990009D01*
X161150904Y-133990009D01*
X161029952Y-133959771D01*
X160969476Y-133929533D01*
X160909000Y-133869057D01*
X160878761Y-133778342D01*
X160878761Y-133717866D01*
X160909000Y-133627152D01*
X160939238Y-133596914D01*
X161090428Y-133052628D02*
X161513761Y-133052628D01*
X160848523Y-133203819D02*
X161302095Y-133355009D01*
X161302095Y-132961914D01*
X160878761Y-132599057D02*
X160878761Y-132538580D01*
X160909000Y-132478104D01*
X160939238Y-132447866D01*
X160999714Y-132417628D01*
X161120666Y-132387390D01*
X161271857Y-132387390D01*
X161392809Y-132417628D01*
X161453285Y-132447866D01*
X161483523Y-132478104D01*
X161513761Y-132538580D01*
X161513761Y-132599057D01*
X161483523Y-132659533D01*
X161453285Y-132689771D01*
X161392809Y-132720009D01*
X161271857Y-132750247D01*
X161120666Y-132750247D01*
X160999714Y-132720009D01*
X160939238Y-132689771D01*
X160909000Y-132659533D01*
X160878761Y-132599057D01*
X161453285Y-136200414D02*
X161483523Y-136230652D01*
X161513761Y-136321366D01*
X161513761Y-136381842D01*
X161483523Y-136472557D01*
X161423047Y-136533033D01*
X161362571Y-136563271D01*
X161241619Y-136593509D01*
X161150904Y-136593509D01*
X161029952Y-136563271D01*
X160969476Y-136533033D01*
X160909000Y-136472557D01*
X160878761Y-136381842D01*
X160878761Y-136321366D01*
X160909000Y-136230652D01*
X160939238Y-136200414D01*
X160878761Y-135988747D02*
X160878761Y-135595652D01*
X161120666Y-135807319D01*
X161120666Y-135716604D01*
X161150904Y-135656128D01*
X161181142Y-135625890D01*
X161241619Y-135595652D01*
X161392809Y-135595652D01*
X161453285Y-135625890D01*
X161483523Y-135656128D01*
X161513761Y-135716604D01*
X161513761Y-135898033D01*
X161483523Y-135958509D01*
X161453285Y-135988747D01*
X161513761Y-135293271D02*
X161513761Y-135172319D01*
X161483523Y-135111842D01*
X161453285Y-135081604D01*
X161362571Y-135021128D01*
X161241619Y-134990890D01*
X160999714Y-134990890D01*
X160939238Y-135021128D01*
X160909000Y-135051366D01*
X160878761Y-135111842D01*
X160878761Y-135232795D01*
X160909000Y-135293271D01*
X160939238Y-135323509D01*
X160999714Y-135353747D01*
X161150904Y-135353747D01*
X161211380Y-135323509D01*
X161241619Y-135293271D01*
X161271857Y-135232795D01*
X161271857Y-135111842D01*
X161241619Y-135051366D01*
X161211380Y-135021128D01*
X161150904Y-134990890D01*
X172375285Y-143629914D02*
X172405523Y-143660152D01*
X172435761Y-143750866D01*
X172435761Y-143811342D01*
X172405523Y-143902057D01*
X172345047Y-143962533D01*
X172284571Y-143992771D01*
X172163619Y-144023009D01*
X172072904Y-144023009D01*
X171951952Y-143992771D01*
X171891476Y-143962533D01*
X171831000Y-143902057D01*
X171800761Y-143811342D01*
X171800761Y-143750866D01*
X171831000Y-143660152D01*
X171861238Y-143629914D01*
X171800761Y-143418247D02*
X171800761Y-143025152D01*
X172042666Y-143236819D01*
X172042666Y-143146104D01*
X172072904Y-143085628D01*
X172103142Y-143055390D01*
X172163619Y-143025152D01*
X172314809Y-143025152D01*
X172375285Y-143055390D01*
X172405523Y-143085628D01*
X172435761Y-143146104D01*
X172435761Y-143327533D01*
X172405523Y-143388009D01*
X172375285Y-143418247D01*
X171800761Y-142450628D02*
X171800761Y-142753009D01*
X172103142Y-142783247D01*
X172072904Y-142753009D01*
X172042666Y-142692533D01*
X172042666Y-142541342D01*
X172072904Y-142480866D01*
X172103142Y-142450628D01*
X172163619Y-142420390D01*
X172314809Y-142420390D01*
X172375285Y-142450628D01*
X172405523Y-142480866D01*
X172435761Y-142541342D01*
X172435761Y-142692533D01*
X172405523Y-142753009D01*
X172375285Y-142783247D01*
X173518285Y-143629914D02*
X173548523Y-143660152D01*
X173578761Y-143750866D01*
X173578761Y-143811342D01*
X173548523Y-143902057D01*
X173488047Y-143962533D01*
X173427571Y-143992771D01*
X173306619Y-144023009D01*
X173215904Y-144023009D01*
X173094952Y-143992771D01*
X173034476Y-143962533D01*
X172974000Y-143902057D01*
X172943761Y-143811342D01*
X172943761Y-143750866D01*
X172974000Y-143660152D01*
X173004238Y-143629914D01*
X172943761Y-143418247D02*
X172943761Y-143025152D01*
X173185666Y-143236819D01*
X173185666Y-143146104D01*
X173215904Y-143085628D01*
X173246142Y-143055390D01*
X173306619Y-143025152D01*
X173457809Y-143025152D01*
X173518285Y-143055390D01*
X173548523Y-143085628D01*
X173578761Y-143146104D01*
X173578761Y-143327533D01*
X173548523Y-143388009D01*
X173518285Y-143418247D01*
X173155428Y-142480866D02*
X173578761Y-142480866D01*
X172913523Y-142632057D02*
X173367095Y-142783247D01*
X173367095Y-142390152D01*
X169962285Y-142051485D02*
X169932047Y-142081723D01*
X169841333Y-142111961D01*
X169780857Y-142111961D01*
X169690142Y-142081723D01*
X169629666Y-142021247D01*
X169599428Y-141960771D01*
X169569190Y-141839819D01*
X169569190Y-141749104D01*
X169599428Y-141628152D01*
X169629666Y-141567676D01*
X169690142Y-141507200D01*
X169780857Y-141476961D01*
X169841333Y-141476961D01*
X169932047Y-141507200D01*
X169962285Y-141537438D01*
X170173952Y-141476961D02*
X170567047Y-141476961D01*
X170355380Y-141718866D01*
X170446095Y-141718866D01*
X170506571Y-141749104D01*
X170536809Y-141779342D01*
X170567047Y-141839819D01*
X170567047Y-141991009D01*
X170536809Y-142051485D01*
X170506571Y-142081723D01*
X170446095Y-142111961D01*
X170264666Y-142111961D01*
X170204190Y-142081723D01*
X170173952Y-142051485D01*
X170808952Y-141537438D02*
X170839190Y-141507200D01*
X170899666Y-141476961D01*
X171050857Y-141476961D01*
X171111333Y-141507200D01*
X171141571Y-141537438D01*
X171171809Y-141597914D01*
X171171809Y-141658390D01*
X171141571Y-141749104D01*
X170778714Y-142111961D01*
X171171809Y-142111961D01*
X168552585Y-124237014D02*
X168582823Y-124267252D01*
X168613061Y-124357966D01*
X168613061Y-124418442D01*
X168582823Y-124509157D01*
X168522347Y-124569633D01*
X168461871Y-124599871D01*
X168340919Y-124630109D01*
X168250204Y-124630109D01*
X168129252Y-124599871D01*
X168068776Y-124569633D01*
X168008300Y-124509157D01*
X167978061Y-124418442D01*
X167978061Y-124357966D01*
X168008300Y-124267252D01*
X168038538Y-124237014D01*
X168613061Y-123632252D02*
X168613061Y-123995109D01*
X168613061Y-123813680D02*
X167978061Y-123813680D01*
X168068776Y-123874157D01*
X168129252Y-123934633D01*
X168159490Y-123995109D01*
X167978061Y-123420585D02*
X167978061Y-123027490D01*
X168219966Y-123239157D01*
X168219966Y-123148442D01*
X168250204Y-123087966D01*
X168280442Y-123057728D01*
X168340919Y-123027490D01*
X168492109Y-123027490D01*
X168552585Y-123057728D01*
X168582823Y-123087966D01*
X168613061Y-123148442D01*
X168613061Y-123329871D01*
X168582823Y-123390347D01*
X168552585Y-123420585D01*
X139545785Y-121794985D02*
X139515547Y-121825223D01*
X139424833Y-121855461D01*
X139364357Y-121855461D01*
X139273642Y-121825223D01*
X139213166Y-121764747D01*
X139182928Y-121704271D01*
X139152690Y-121583319D01*
X139152690Y-121492604D01*
X139182928Y-121371652D01*
X139213166Y-121311176D01*
X139273642Y-121250700D01*
X139364357Y-121220461D01*
X139424833Y-121220461D01*
X139515547Y-121250700D01*
X139545785Y-121280938D01*
X140150547Y-121855461D02*
X139787690Y-121855461D01*
X139969119Y-121855461D02*
X139969119Y-121220461D01*
X139908642Y-121311176D01*
X139848166Y-121371652D01*
X139787690Y-121401890D01*
X140392452Y-121280938D02*
X140422690Y-121250700D01*
X140483166Y-121220461D01*
X140634357Y-121220461D01*
X140694833Y-121250700D01*
X140725071Y-121280938D01*
X140755309Y-121341414D01*
X140755309Y-121401890D01*
X140725071Y-121492604D01*
X140362214Y-121855461D01*
X140755309Y-121855461D01*
X172600861Y-120298633D02*
X172600861Y-120601014D01*
X171965861Y-120601014D01*
X172026338Y-120117204D02*
X171996100Y-120086966D01*
X171965861Y-120026490D01*
X171965861Y-119875300D01*
X171996100Y-119814823D01*
X172026338Y-119784585D01*
X172086814Y-119754347D01*
X172147290Y-119754347D01*
X172238004Y-119784585D01*
X172600861Y-120147442D01*
X172600861Y-119754347D01*
X147341166Y-121982461D02*
X147038785Y-121982461D01*
X147038785Y-121347461D01*
X147885452Y-121982461D02*
X147522595Y-121982461D01*
X147704023Y-121982461D02*
X147704023Y-121347461D01*
X147643547Y-121438176D01*
X147583071Y-121498652D01*
X147522595Y-121528890D01*
X152847523Y-100960938D02*
X152787047Y-100930700D01*
X152726571Y-100870223D01*
X152635857Y-100779509D01*
X152575380Y-100749271D01*
X152514904Y-100749271D01*
X152545142Y-100900461D02*
X152484666Y-100870223D01*
X152424190Y-100809747D01*
X152393952Y-100688795D01*
X152393952Y-100477128D01*
X152424190Y-100356176D01*
X152484666Y-100295700D01*
X152545142Y-100265461D01*
X152666095Y-100265461D01*
X152726571Y-100295700D01*
X152787047Y-100356176D01*
X152817285Y-100477128D01*
X152817285Y-100688795D01*
X152787047Y-100809747D01*
X152726571Y-100870223D01*
X152666095Y-100900461D01*
X152545142Y-100900461D01*
X153059190Y-100325938D02*
X153089428Y-100295700D01*
X153149904Y-100265461D01*
X153301095Y-100265461D01*
X153361571Y-100295700D01*
X153391809Y-100325938D01*
X153422047Y-100386414D01*
X153422047Y-100446890D01*
X153391809Y-100537604D01*
X153028952Y-100900461D01*
X153422047Y-100900461D01*
X144029923Y-100859338D02*
X143969447Y-100829100D01*
X143908971Y-100768623D01*
X143818257Y-100677909D01*
X143757780Y-100647671D01*
X143697304Y-100647671D01*
X143727542Y-100798861D02*
X143667066Y-100768623D01*
X143606590Y-100708147D01*
X143576352Y-100587195D01*
X143576352Y-100375528D01*
X143606590Y-100254576D01*
X143667066Y-100194100D01*
X143727542Y-100163861D01*
X143848495Y-100163861D01*
X143908971Y-100194100D01*
X143969447Y-100254576D01*
X143999685Y-100375528D01*
X143999685Y-100587195D01*
X143969447Y-100708147D01*
X143908971Y-100768623D01*
X143848495Y-100798861D01*
X143727542Y-100798861D01*
X144604447Y-100798861D02*
X144241590Y-100798861D01*
X144423019Y-100798861D02*
X144423019Y-100163861D01*
X144362542Y-100254576D01*
X144302066Y-100315052D01*
X144241590Y-100345290D01*
X129329905Y-103921005D02*
X129299667Y-103951243D01*
X129208953Y-103981481D01*
X129148477Y-103981481D01*
X129057762Y-103951243D01*
X128997286Y-103890767D01*
X128967048Y-103830291D01*
X128936810Y-103709339D01*
X128936810Y-103618624D01*
X128967048Y-103497672D01*
X128997286Y-103437196D01*
X129057762Y-103376720D01*
X129148477Y-103346481D01*
X129208953Y-103346481D01*
X129299667Y-103376720D01*
X129329905Y-103406958D01*
X129571810Y-103406958D02*
X129602048Y-103376720D01*
X129662524Y-103346481D01*
X129813715Y-103346481D01*
X129874191Y-103376720D01*
X129904429Y-103406958D01*
X129934667Y-103467434D01*
X129934667Y-103527910D01*
X129904429Y-103618624D01*
X129541572Y-103981481D01*
X129934667Y-103981481D01*
X130327762Y-103346481D02*
X130388239Y-103346481D01*
X130448715Y-103376720D01*
X130478953Y-103406958D01*
X130509191Y-103467434D01*
X130539429Y-103588386D01*
X130539429Y-103739577D01*
X130509191Y-103860529D01*
X130478953Y-103921005D01*
X130448715Y-103951243D01*
X130388239Y-103981481D01*
X130327762Y-103981481D01*
X130267286Y-103951243D01*
X130237048Y-103921005D01*
X130206810Y-103860529D01*
X130176572Y-103739577D01*
X130176572Y-103588386D01*
X130206810Y-103467434D01*
X130237048Y-103406958D01*
X130267286Y-103376720D01*
X130327762Y-103346481D01*
X129329905Y-105003045D02*
X129299667Y-105033283D01*
X129208953Y-105063521D01*
X129148477Y-105063521D01*
X129057762Y-105033283D01*
X128997286Y-104972807D01*
X128967048Y-104912331D01*
X128936810Y-104791379D01*
X128936810Y-104700664D01*
X128967048Y-104579712D01*
X128997286Y-104519236D01*
X129057762Y-104458760D01*
X129148477Y-104428521D01*
X129208953Y-104428521D01*
X129299667Y-104458760D01*
X129329905Y-104488998D01*
X129934667Y-105063521D02*
X129571810Y-105063521D01*
X129753239Y-105063521D02*
X129753239Y-104428521D01*
X129692762Y-104519236D01*
X129632286Y-104579712D01*
X129571810Y-104609950D01*
X130297524Y-104700664D02*
X130237048Y-104670426D01*
X130206810Y-104640188D01*
X130176572Y-104579712D01*
X130176572Y-104549474D01*
X130206810Y-104488998D01*
X130237048Y-104458760D01*
X130297524Y-104428521D01*
X130418477Y-104428521D01*
X130478953Y-104458760D01*
X130509191Y-104488998D01*
X130539429Y-104549474D01*
X130539429Y-104579712D01*
X130509191Y-104640188D01*
X130478953Y-104670426D01*
X130418477Y-104700664D01*
X130297524Y-104700664D01*
X130237048Y-104730902D01*
X130206810Y-104761140D01*
X130176572Y-104821617D01*
X130176572Y-104942569D01*
X130206810Y-105003045D01*
X130237048Y-105033283D01*
X130297524Y-105063521D01*
X130418477Y-105063521D01*
X130478953Y-105033283D01*
X130509191Y-105003045D01*
X130539429Y-104942569D01*
X130539429Y-104821617D01*
X130509191Y-104761140D01*
X130478953Y-104730902D01*
X130418477Y-104700664D01*
X144311309Y-121982461D02*
X144311309Y-121347461D01*
X144462500Y-121347461D01*
X144553214Y-121377700D01*
X144613690Y-121438176D01*
X144643928Y-121498652D01*
X144674166Y-121619604D01*
X144674166Y-121710319D01*
X144643928Y-121831271D01*
X144613690Y-121891747D01*
X144553214Y-121952223D01*
X144462500Y-121982461D01*
X144311309Y-121982461D01*
X145278928Y-121982461D02*
X144916071Y-121982461D01*
X145097500Y-121982461D02*
X145097500Y-121347461D01*
X145037023Y-121438176D01*
X144976547Y-121498652D01*
X144916071Y-121528890D01*
X163929785Y-132713961D02*
X163718119Y-132411580D01*
X163566928Y-132713961D02*
X163566928Y-132078961D01*
X163808833Y-132078961D01*
X163869309Y-132109200D01*
X163899547Y-132139438D01*
X163929785Y-132199914D01*
X163929785Y-132290628D01*
X163899547Y-132351104D01*
X163869309Y-132381342D01*
X163808833Y-132411580D01*
X163566928Y-132411580D01*
X164171690Y-132139438D02*
X164201928Y-132109200D01*
X164262404Y-132078961D01*
X164413595Y-132078961D01*
X164474071Y-132109200D01*
X164504309Y-132139438D01*
X164534547Y-132199914D01*
X164534547Y-132260390D01*
X164504309Y-132351104D01*
X164141452Y-132713961D01*
X164534547Y-132713961D01*
X164927642Y-132078961D02*
X164988119Y-132078961D01*
X165048595Y-132109200D01*
X165078833Y-132139438D01*
X165109071Y-132199914D01*
X165139309Y-132320866D01*
X165139309Y-132472057D01*
X165109071Y-132593009D01*
X165078833Y-132653485D01*
X165048595Y-132683723D01*
X164988119Y-132713961D01*
X164927642Y-132713961D01*
X164867166Y-132683723D01*
X164836928Y-132653485D01*
X164806690Y-132593009D01*
X164776452Y-132472057D01*
X164776452Y-132320866D01*
X164806690Y-132199914D01*
X164836928Y-132139438D01*
X164867166Y-132109200D01*
X164927642Y-132078961D01*
X141629190Y-116140461D02*
X141629190Y-116654509D01*
X141659428Y-116714985D01*
X141689666Y-116745223D01*
X141750142Y-116775461D01*
X141871095Y-116775461D01*
X141931571Y-116745223D01*
X141961809Y-116714985D01*
X141992047Y-116654509D01*
X141992047Y-116140461D01*
X142627047Y-116775461D02*
X142264190Y-116775461D01*
X142445619Y-116775461D02*
X142445619Y-116140461D01*
X142385142Y-116231176D01*
X142324666Y-116291652D01*
X142264190Y-116321890D01*
X167866785Y-115593585D02*
X167836547Y-115623823D01*
X167745833Y-115654061D01*
X167685357Y-115654061D01*
X167594642Y-115623823D01*
X167534166Y-115563347D01*
X167503928Y-115502871D01*
X167473690Y-115381919D01*
X167473690Y-115291204D01*
X167503928Y-115170252D01*
X167534166Y-115109776D01*
X167594642Y-115049300D01*
X167685357Y-115019061D01*
X167745833Y-115019061D01*
X167836547Y-115049300D01*
X167866785Y-115079538D01*
X168471547Y-115654061D02*
X168108690Y-115654061D01*
X168290119Y-115654061D02*
X168290119Y-115019061D01*
X168229642Y-115109776D01*
X168169166Y-115170252D01*
X168108690Y-115200490D01*
X169046071Y-115019061D02*
X168743690Y-115019061D01*
X168713452Y-115321442D01*
X168743690Y-115291204D01*
X168804166Y-115260966D01*
X168955357Y-115260966D01*
X169015833Y-115291204D01*
X169046071Y-115321442D01*
X169076309Y-115381919D01*
X169076309Y-115533109D01*
X169046071Y-115593585D01*
X169015833Y-115623823D01*
X168955357Y-115654061D01*
X168804166Y-115654061D01*
X168743690Y-115623823D01*
X168713452Y-115593585D01*
X151547285Y-117023414D02*
X151577523Y-117053652D01*
X151607761Y-117144366D01*
X151607761Y-117204842D01*
X151577523Y-117295557D01*
X151517047Y-117356033D01*
X151456571Y-117386271D01*
X151335619Y-117416509D01*
X151244904Y-117416509D01*
X151123952Y-117386271D01*
X151063476Y-117356033D01*
X151003000Y-117295557D01*
X150972761Y-117204842D01*
X150972761Y-117144366D01*
X151003000Y-117053652D01*
X151033238Y-117023414D01*
X151607761Y-116418652D02*
X151607761Y-116781509D01*
X151607761Y-116600080D02*
X150972761Y-116600080D01*
X151063476Y-116660557D01*
X151123952Y-116721033D01*
X151154190Y-116781509D01*
X151184428Y-115874366D02*
X151607761Y-115874366D01*
X150942523Y-116025557D02*
X151396095Y-116176747D01*
X151396095Y-115783652D01*
X161602661Y-122251409D02*
X162116709Y-122251409D01*
X162177185Y-122221171D01*
X162207423Y-122190933D01*
X162237661Y-122130457D01*
X162237661Y-122009504D01*
X162207423Y-121949028D01*
X162177185Y-121918790D01*
X162116709Y-121888552D01*
X161602661Y-121888552D01*
X161663138Y-121616409D02*
X161632900Y-121586171D01*
X161602661Y-121525695D01*
X161602661Y-121374504D01*
X161632900Y-121314028D01*
X161663138Y-121283790D01*
X161723614Y-121253552D01*
X161784090Y-121253552D01*
X161874804Y-121283790D01*
X162237661Y-121646647D01*
X162237661Y-121253552D01*
X174785261Y-136784009D02*
X175299309Y-136784009D01*
X175359785Y-136753771D01*
X175390023Y-136723533D01*
X175420261Y-136663057D01*
X175420261Y-136542104D01*
X175390023Y-136481628D01*
X175359785Y-136451390D01*
X175299309Y-136421152D01*
X174785261Y-136421152D01*
X174996928Y-135846628D02*
X175420261Y-135846628D01*
X174755023Y-135997819D02*
X175208595Y-136149009D01*
X175208595Y-135755914D01*
X163929785Y-136841461D02*
X163718119Y-136539080D01*
X163566928Y-136841461D02*
X163566928Y-136206461D01*
X163808833Y-136206461D01*
X163869309Y-136236700D01*
X163899547Y-136266938D01*
X163929785Y-136327414D01*
X163929785Y-136418128D01*
X163899547Y-136478604D01*
X163869309Y-136508842D01*
X163808833Y-136539080D01*
X163566928Y-136539080D01*
X164534547Y-136841461D02*
X164171690Y-136841461D01*
X164353119Y-136841461D02*
X164353119Y-136206461D01*
X164292642Y-136297176D01*
X164232166Y-136357652D01*
X164171690Y-136387890D01*
X164836928Y-136841461D02*
X164957880Y-136841461D01*
X165018357Y-136811223D01*
X165048595Y-136780985D01*
X165109071Y-136690271D01*
X165139309Y-136569319D01*
X165139309Y-136327414D01*
X165109071Y-136266938D01*
X165078833Y-136236700D01*
X165018357Y-136206461D01*
X164897404Y-136206461D01*
X164836928Y-136236700D01*
X164806690Y-136266938D01*
X164776452Y-136327414D01*
X164776452Y-136478604D01*
X164806690Y-136539080D01*
X164836928Y-136569319D01*
X164897404Y-136599557D01*
X165018357Y-136599557D01*
X165078833Y-136569319D01*
X165109071Y-136539080D01*
X165139309Y-136478604D01*
X150620185Y-106551185D02*
X150589947Y-106581423D01*
X150499233Y-106611661D01*
X150438757Y-106611661D01*
X150348042Y-106581423D01*
X150287566Y-106520947D01*
X150257328Y-106460471D01*
X150227090Y-106339519D01*
X150227090Y-106248804D01*
X150257328Y-106127852D01*
X150287566Y-106067376D01*
X150348042Y-106006900D01*
X150438757Y-105976661D01*
X150499233Y-105976661D01*
X150589947Y-106006900D01*
X150620185Y-106037138D01*
X151194709Y-105976661D02*
X150892328Y-105976661D01*
X150862090Y-106279042D01*
X150892328Y-106248804D01*
X150952804Y-106218566D01*
X151103995Y-106218566D01*
X151164471Y-106248804D01*
X151194709Y-106279042D01*
X151224947Y-106339519D01*
X151224947Y-106490709D01*
X151194709Y-106551185D01*
X151164471Y-106581423D01*
X151103995Y-106611661D01*
X150952804Y-106611661D01*
X150892328Y-106581423D01*
X150862090Y-106551185D01*
X151799471Y-105976661D02*
X151497090Y-105976661D01*
X151466852Y-106279042D01*
X151497090Y-106248804D01*
X151557566Y-106218566D01*
X151708757Y-106218566D01*
X151769233Y-106248804D01*
X151799471Y-106279042D01*
X151829709Y-106339519D01*
X151829709Y-106490709D01*
X151799471Y-106551185D01*
X151769233Y-106581423D01*
X151708757Y-106611661D01*
X151557566Y-106611661D01*
X151497090Y-106581423D01*
X151466852Y-106551185D01*
X145917385Y-105665985D02*
X145887147Y-105696223D01*
X145796433Y-105726461D01*
X145735957Y-105726461D01*
X145645242Y-105696223D01*
X145584766Y-105635747D01*
X145554528Y-105575271D01*
X145524290Y-105454319D01*
X145524290Y-105363604D01*
X145554528Y-105242652D01*
X145584766Y-105182176D01*
X145645242Y-105121700D01*
X145735957Y-105091461D01*
X145796433Y-105091461D01*
X145887147Y-105121700D01*
X145917385Y-105151938D01*
X146491909Y-105091461D02*
X146189528Y-105091461D01*
X146159290Y-105393842D01*
X146189528Y-105363604D01*
X146250004Y-105333366D01*
X146401195Y-105333366D01*
X146461671Y-105363604D01*
X146491909Y-105393842D01*
X146522147Y-105454319D01*
X146522147Y-105605509D01*
X146491909Y-105665985D01*
X146461671Y-105696223D01*
X146401195Y-105726461D01*
X146250004Y-105726461D01*
X146189528Y-105696223D01*
X146159290Y-105665985D01*
X147066433Y-105303128D02*
X147066433Y-105726461D01*
X146915242Y-105061223D02*
X146764052Y-105514795D01*
X147157147Y-105514795D01*
X172768985Y-113292861D02*
X172557319Y-112990480D01*
X172406128Y-113292861D02*
X172406128Y-112657861D01*
X172648033Y-112657861D01*
X172708509Y-112688100D01*
X172738747Y-112718338D01*
X172768985Y-112778814D01*
X172768985Y-112869528D01*
X172738747Y-112930004D01*
X172708509Y-112960242D01*
X172648033Y-112990480D01*
X172406128Y-112990480D01*
X172980652Y-112657861D02*
X173373747Y-112657861D01*
X173162080Y-112899766D01*
X173252795Y-112899766D01*
X173313271Y-112930004D01*
X173343509Y-112960242D01*
X173373747Y-113020719D01*
X173373747Y-113171909D01*
X173343509Y-113232385D01*
X173313271Y-113262623D01*
X173252795Y-113292861D01*
X173071366Y-113292861D01*
X173010890Y-113262623D01*
X172980652Y-113232385D01*
X173948271Y-112657861D02*
X173645890Y-112657861D01*
X173615652Y-112960242D01*
X173645890Y-112930004D01*
X173706366Y-112899766D01*
X173857557Y-112899766D01*
X173918033Y-112930004D01*
X173948271Y-112960242D01*
X173978509Y-113020719D01*
X173978509Y-113171909D01*
X173948271Y-113232385D01*
X173918033Y-113262623D01*
X173857557Y-113292861D01*
X173706366Y-113292861D01*
X173645890Y-113262623D01*
X173615652Y-113232385D01*
X145006785Y-118552461D02*
X144795119Y-118250080D01*
X144643928Y-118552461D02*
X144643928Y-117917461D01*
X144885833Y-117917461D01*
X144946309Y-117947700D01*
X144976547Y-117977938D01*
X145006785Y-118038414D01*
X145006785Y-118129128D01*
X144976547Y-118189604D01*
X144946309Y-118219842D01*
X144885833Y-118250080D01*
X144643928Y-118250080D01*
X145218452Y-117917461D02*
X145611547Y-117917461D01*
X145399880Y-118159366D01*
X145490595Y-118159366D01*
X145551071Y-118189604D01*
X145581309Y-118219842D01*
X145611547Y-118280319D01*
X145611547Y-118431509D01*
X145581309Y-118491985D01*
X145551071Y-118522223D01*
X145490595Y-118552461D01*
X145309166Y-118552461D01*
X145248690Y-118522223D01*
X145218452Y-118491985D01*
X146155833Y-118129128D02*
X146155833Y-118552461D01*
X146004642Y-117887223D02*
X145853452Y-118340795D01*
X146246547Y-118340795D01*
X174226461Y-118823014D02*
X173924080Y-119034680D01*
X174226461Y-119185871D02*
X173591461Y-119185871D01*
X173591461Y-118943966D01*
X173621700Y-118883490D01*
X173651938Y-118853252D01*
X173712414Y-118823014D01*
X173803128Y-118823014D01*
X173863604Y-118853252D01*
X173893842Y-118883490D01*
X173924080Y-118943966D01*
X173924080Y-119185871D01*
X173591461Y-118611347D02*
X173591461Y-118218252D01*
X173833366Y-118429919D01*
X173833366Y-118339204D01*
X173863604Y-118278728D01*
X173893842Y-118248490D01*
X173954319Y-118218252D01*
X174105509Y-118218252D01*
X174165985Y-118248490D01*
X174196223Y-118278728D01*
X174226461Y-118339204D01*
X174226461Y-118520633D01*
X174196223Y-118581109D01*
X174165985Y-118611347D01*
X173591461Y-118006585D02*
X173591461Y-117613490D01*
X173833366Y-117825157D01*
X173833366Y-117734442D01*
X173863604Y-117673966D01*
X173893842Y-117643728D01*
X173954319Y-117613490D01*
X174105509Y-117613490D01*
X174165985Y-117643728D01*
X174196223Y-117673966D01*
X174226461Y-117734442D01*
X174226461Y-117915871D01*
X174196223Y-117976347D01*
X174165985Y-118006585D01*
X147991285Y-114108461D02*
X147779619Y-113806080D01*
X147628428Y-114108461D02*
X147628428Y-113473461D01*
X147870333Y-113473461D01*
X147930809Y-113503700D01*
X147961047Y-113533938D01*
X147991285Y-113594414D01*
X147991285Y-113685128D01*
X147961047Y-113745604D01*
X147930809Y-113775842D01*
X147870333Y-113806080D01*
X147628428Y-113806080D01*
X148202952Y-113473461D02*
X148596047Y-113473461D01*
X148384380Y-113715366D01*
X148475095Y-113715366D01*
X148535571Y-113745604D01*
X148565809Y-113775842D01*
X148596047Y-113836319D01*
X148596047Y-113987509D01*
X148565809Y-114047985D01*
X148535571Y-114078223D01*
X148475095Y-114108461D01*
X148293666Y-114108461D01*
X148233190Y-114078223D01*
X148202952Y-114047985D01*
X148837952Y-113533938D02*
X148868190Y-113503700D01*
X148928666Y-113473461D01*
X149079857Y-113473461D01*
X149140333Y-113503700D01*
X149170571Y-113533938D01*
X149200809Y-113594414D01*
X149200809Y-113654890D01*
X149170571Y-113745604D01*
X148807714Y-114108461D01*
X149200809Y-114108461D01*
X153515785Y-92772461D02*
X153304119Y-92470080D01*
X153152928Y-92772461D02*
X153152928Y-92137461D01*
X153394833Y-92137461D01*
X153455309Y-92167700D01*
X153485547Y-92197938D01*
X153515785Y-92258414D01*
X153515785Y-92349128D01*
X153485547Y-92409604D01*
X153455309Y-92439842D01*
X153394833Y-92470080D01*
X153152928Y-92470080D01*
X153727452Y-92137461D02*
X154120547Y-92137461D01*
X153908880Y-92379366D01*
X153999595Y-92379366D01*
X154060071Y-92409604D01*
X154090309Y-92439842D01*
X154120547Y-92500319D01*
X154120547Y-92651509D01*
X154090309Y-92711985D01*
X154060071Y-92742223D01*
X153999595Y-92772461D01*
X153818166Y-92772461D01*
X153757690Y-92742223D01*
X153727452Y-92711985D01*
X154725309Y-92772461D02*
X154362452Y-92772461D01*
X154543880Y-92772461D02*
X154543880Y-92137461D01*
X154483404Y-92228176D01*
X154422928Y-92288652D01*
X154362452Y-92318890D01*
X153820585Y-133691861D02*
X153518204Y-133691861D01*
X153518204Y-133056861D01*
X154364871Y-133691861D02*
X154002014Y-133691861D01*
X154183442Y-133691861D02*
X154183442Y-133056861D01*
X154122966Y-133147576D01*
X154062490Y-133208052D01*
X154002014Y-133238290D01*
X154969633Y-133691861D02*
X154606776Y-133691861D01*
X154788204Y-133691861D02*
X154788204Y-133056861D01*
X154727728Y-133147576D01*
X154667252Y-133208052D01*
X154606776Y-133238290D01*
X152369761Y-135882914D02*
X152369761Y-136185295D01*
X151734761Y-136185295D01*
X152369761Y-135338628D02*
X152369761Y-135701485D01*
X152369761Y-135520057D02*
X151734761Y-135520057D01*
X151825476Y-135580533D01*
X151885952Y-135641009D01*
X151916190Y-135701485D01*
X151734761Y-134945533D02*
X151734761Y-134885057D01*
X151765000Y-134824580D01*
X151795238Y-134794342D01*
X151855714Y-134764104D01*
X151976666Y-134733866D01*
X152127857Y-134733866D01*
X152248809Y-134764104D01*
X152309285Y-134794342D01*
X152339523Y-134824580D01*
X152369761Y-134885057D01*
X152369761Y-134945533D01*
X152339523Y-135006009D01*
X152309285Y-135036247D01*
X152248809Y-135066485D01*
X152127857Y-135096723D01*
X151976666Y-135096723D01*
X151855714Y-135066485D01*
X151795238Y-135036247D01*
X151765000Y-135006009D01*
X151734761Y-134945533D01*
X145436166Y-132777461D02*
X145133785Y-132777461D01*
X145133785Y-132142461D01*
X145678071Y-132777461D02*
X145799023Y-132777461D01*
X145859500Y-132747223D01*
X145889738Y-132716985D01*
X145950214Y-132626271D01*
X145980452Y-132505319D01*
X145980452Y-132263414D01*
X145950214Y-132202938D01*
X145919976Y-132172700D01*
X145859500Y-132142461D01*
X145738547Y-132142461D01*
X145678071Y-132172700D01*
X145647833Y-132202938D01*
X145617595Y-132263414D01*
X145617595Y-132414604D01*
X145647833Y-132475080D01*
X145678071Y-132505319D01*
X145738547Y-132535557D01*
X145859500Y-132535557D01*
X145919976Y-132505319D01*
X145950214Y-132475080D01*
X145980452Y-132414604D01*
X143416261Y-136025033D02*
X143416261Y-136327414D01*
X142781261Y-136327414D01*
X143053404Y-135722652D02*
X143023166Y-135783128D01*
X142992928Y-135813366D01*
X142932452Y-135843604D01*
X142902214Y-135843604D01*
X142841738Y-135813366D01*
X142811500Y-135783128D01*
X142781261Y-135722652D01*
X142781261Y-135601700D01*
X142811500Y-135541223D01*
X142841738Y-135510985D01*
X142902214Y-135480747D01*
X142932452Y-135480747D01*
X142992928Y-135510985D01*
X143023166Y-135541223D01*
X143053404Y-135601700D01*
X143053404Y-135722652D01*
X143083642Y-135783128D01*
X143113880Y-135813366D01*
X143174357Y-135843604D01*
X143295309Y-135843604D01*
X143355785Y-135813366D01*
X143386023Y-135783128D01*
X143416261Y-135722652D01*
X143416261Y-135601700D01*
X143386023Y-135541223D01*
X143355785Y-135510985D01*
X143295309Y-135480747D01*
X143174357Y-135480747D01*
X143113880Y-135510985D01*
X143083642Y-135541223D01*
X143053404Y-135601700D01*
X155039785Y-101855985D02*
X155009547Y-101886223D01*
X154918833Y-101916461D01*
X154858357Y-101916461D01*
X154767642Y-101886223D01*
X154707166Y-101825747D01*
X154676928Y-101765271D01*
X154646690Y-101644319D01*
X154646690Y-101553604D01*
X154676928Y-101432652D01*
X154707166Y-101372176D01*
X154767642Y-101311700D01*
X154858357Y-101281461D01*
X154918833Y-101281461D01*
X155009547Y-101311700D01*
X155039785Y-101341938D01*
X155251452Y-101281461D02*
X155674785Y-101281461D01*
X155402642Y-101916461D01*
X156037642Y-101281461D02*
X156098119Y-101281461D01*
X156158595Y-101311700D01*
X156188833Y-101341938D01*
X156219071Y-101402414D01*
X156249309Y-101523366D01*
X156249309Y-101674557D01*
X156219071Y-101795509D01*
X156188833Y-101855985D01*
X156158595Y-101886223D01*
X156098119Y-101916461D01*
X156037642Y-101916461D01*
X155977166Y-101886223D01*
X155946928Y-101855985D01*
X155916690Y-101795509D01*
X155886452Y-101674557D01*
X155886452Y-101523366D01*
X155916690Y-101402414D01*
X155946928Y-101341938D01*
X155977166Y-101311700D01*
X156037642Y-101281461D01*
X159611785Y-101855985D02*
X159581547Y-101886223D01*
X159490833Y-101916461D01*
X159430357Y-101916461D01*
X159339642Y-101886223D01*
X159279166Y-101825747D01*
X159248928Y-101765271D01*
X159218690Y-101644319D01*
X159218690Y-101553604D01*
X159248928Y-101432652D01*
X159279166Y-101372176D01*
X159339642Y-101311700D01*
X159430357Y-101281461D01*
X159490833Y-101281461D01*
X159581547Y-101311700D01*
X159611785Y-101341938D01*
X160156071Y-101281461D02*
X160035119Y-101281461D01*
X159974642Y-101311700D01*
X159944404Y-101341938D01*
X159883928Y-101432652D01*
X159853690Y-101553604D01*
X159853690Y-101795509D01*
X159883928Y-101855985D01*
X159914166Y-101886223D01*
X159974642Y-101916461D01*
X160095595Y-101916461D01*
X160156071Y-101886223D01*
X160186309Y-101855985D01*
X160216547Y-101795509D01*
X160216547Y-101644319D01*
X160186309Y-101583842D01*
X160156071Y-101553604D01*
X160095595Y-101523366D01*
X159974642Y-101523366D01*
X159914166Y-101553604D01*
X159883928Y-101583842D01*
X159853690Y-101644319D01*
X160518928Y-101916461D02*
X160639880Y-101916461D01*
X160700357Y-101886223D01*
X160730595Y-101855985D01*
X160791071Y-101765271D01*
X160821309Y-101644319D01*
X160821309Y-101402414D01*
X160791071Y-101341938D01*
X160760833Y-101311700D01*
X160700357Y-101281461D01*
X160579404Y-101281461D01*
X160518928Y-101311700D01*
X160488690Y-101341938D01*
X160458452Y-101402414D01*
X160458452Y-101553604D01*
X160488690Y-101614080D01*
X160518928Y-101644319D01*
X160579404Y-101674557D01*
X160700357Y-101674557D01*
X160760833Y-101644319D01*
X160791071Y-101614080D01*
X160821309Y-101553604D01*
X150975785Y-92711985D02*
X150945547Y-92742223D01*
X150854833Y-92772461D01*
X150794357Y-92772461D01*
X150703642Y-92742223D01*
X150643166Y-92681747D01*
X150612928Y-92621271D01*
X150582690Y-92500319D01*
X150582690Y-92409604D01*
X150612928Y-92288652D01*
X150643166Y-92228176D01*
X150703642Y-92167700D01*
X150794357Y-92137461D01*
X150854833Y-92137461D01*
X150945547Y-92167700D01*
X150975785Y-92197938D01*
X151520071Y-92137461D02*
X151399119Y-92137461D01*
X151338642Y-92167700D01*
X151308404Y-92197938D01*
X151247928Y-92288652D01*
X151217690Y-92409604D01*
X151217690Y-92651509D01*
X151247928Y-92711985D01*
X151278166Y-92742223D01*
X151338642Y-92772461D01*
X151459595Y-92772461D01*
X151520071Y-92742223D01*
X151550309Y-92711985D01*
X151580547Y-92651509D01*
X151580547Y-92500319D01*
X151550309Y-92439842D01*
X151520071Y-92409604D01*
X151459595Y-92379366D01*
X151338642Y-92379366D01*
X151278166Y-92409604D01*
X151247928Y-92439842D01*
X151217690Y-92500319D01*
X151943404Y-92409604D02*
X151882928Y-92379366D01*
X151852690Y-92349128D01*
X151822452Y-92288652D01*
X151822452Y-92258414D01*
X151852690Y-92197938D01*
X151882928Y-92167700D01*
X151943404Y-92137461D01*
X152064357Y-92137461D01*
X152124833Y-92167700D01*
X152155071Y-92197938D01*
X152185309Y-92258414D01*
X152185309Y-92288652D01*
X152155071Y-92349128D01*
X152124833Y-92379366D01*
X152064357Y-92409604D01*
X151943404Y-92409604D01*
X151882928Y-92439842D01*
X151852690Y-92470080D01*
X151822452Y-92530557D01*
X151822452Y-92651509D01*
X151852690Y-92711985D01*
X151882928Y-92742223D01*
X151943404Y-92772461D01*
X152064357Y-92772461D01*
X152124833Y-92742223D01*
X152155071Y-92711985D01*
X152185309Y-92651509D01*
X152185309Y-92530557D01*
X152155071Y-92470080D01*
X152124833Y-92439842D01*
X152064357Y-92409604D01*
X148308785Y-136200414D02*
X148339023Y-136230652D01*
X148369261Y-136321366D01*
X148369261Y-136381842D01*
X148339023Y-136472557D01*
X148278547Y-136533033D01*
X148218071Y-136563271D01*
X148097119Y-136593509D01*
X148006404Y-136593509D01*
X147885452Y-136563271D01*
X147824976Y-136533033D01*
X147764500Y-136472557D01*
X147734261Y-136381842D01*
X147734261Y-136321366D01*
X147764500Y-136230652D01*
X147794738Y-136200414D01*
X147734261Y-135656128D02*
X147734261Y-135777080D01*
X147764500Y-135837557D01*
X147794738Y-135867795D01*
X147885452Y-135928271D01*
X148006404Y-135958509D01*
X148248309Y-135958509D01*
X148308785Y-135928271D01*
X148339023Y-135898033D01*
X148369261Y-135837557D01*
X148369261Y-135716604D01*
X148339023Y-135656128D01*
X148308785Y-135625890D01*
X148248309Y-135595652D01*
X148097119Y-135595652D01*
X148036642Y-135625890D01*
X148006404Y-135656128D01*
X147976166Y-135716604D01*
X147976166Y-135837557D01*
X148006404Y-135898033D01*
X148036642Y-135928271D01*
X148097119Y-135958509D01*
X147734261Y-135051366D02*
X147734261Y-135172319D01*
X147764500Y-135232795D01*
X147794738Y-135263033D01*
X147885452Y-135323509D01*
X148006404Y-135353747D01*
X148248309Y-135353747D01*
X148308785Y-135323509D01*
X148339023Y-135293271D01*
X148369261Y-135232795D01*
X148369261Y-135111842D01*
X148339023Y-135051366D01*
X148308785Y-135021128D01*
X148248309Y-134990890D01*
X148097119Y-134990890D01*
X148036642Y-135021128D01*
X148006404Y-135051366D01*
X147976166Y-135111842D01*
X147976166Y-135232795D01*
X148006404Y-135293271D01*
X148036642Y-135323509D01*
X148097119Y-135353747D01*
X147292785Y-132365014D02*
X147323023Y-132395252D01*
X147353261Y-132485966D01*
X147353261Y-132546442D01*
X147323023Y-132637157D01*
X147262547Y-132697633D01*
X147202071Y-132727871D01*
X147081119Y-132758109D01*
X146990404Y-132758109D01*
X146869452Y-132727871D01*
X146808976Y-132697633D01*
X146748500Y-132637157D01*
X146718261Y-132546442D01*
X146718261Y-132485966D01*
X146748500Y-132395252D01*
X146778738Y-132365014D01*
X146718261Y-131820728D02*
X146718261Y-131941680D01*
X146748500Y-132002157D01*
X146778738Y-132032395D01*
X146869452Y-132092871D01*
X146990404Y-132123109D01*
X147232309Y-132123109D01*
X147292785Y-132092871D01*
X147323023Y-132062633D01*
X147353261Y-132002157D01*
X147353261Y-131881204D01*
X147323023Y-131820728D01*
X147292785Y-131790490D01*
X147232309Y-131760252D01*
X147081119Y-131760252D01*
X147020642Y-131790490D01*
X146990404Y-131820728D01*
X146960166Y-131881204D01*
X146960166Y-132002157D01*
X146990404Y-132062633D01*
X147020642Y-132092871D01*
X147081119Y-132123109D01*
X146718261Y-131185728D02*
X146718261Y-131488109D01*
X147020642Y-131518347D01*
X146990404Y-131488109D01*
X146960166Y-131427633D01*
X146960166Y-131276442D01*
X146990404Y-131215966D01*
X147020642Y-131185728D01*
X147081119Y-131155490D01*
X147232309Y-131155490D01*
X147292785Y-131185728D01*
X147323023Y-131215966D01*
X147353261Y-131276442D01*
X147353261Y-131427633D01*
X147323023Y-131488109D01*
X147292785Y-131518347D01*
X140307785Y-136327414D02*
X140338023Y-136357652D01*
X140368261Y-136448366D01*
X140368261Y-136508842D01*
X140338023Y-136599557D01*
X140277547Y-136660033D01*
X140217071Y-136690271D01*
X140096119Y-136720509D01*
X140005404Y-136720509D01*
X139884452Y-136690271D01*
X139823976Y-136660033D01*
X139763500Y-136599557D01*
X139733261Y-136508842D01*
X139733261Y-136448366D01*
X139763500Y-136357652D01*
X139793738Y-136327414D01*
X139733261Y-135783128D02*
X139733261Y-135904080D01*
X139763500Y-135964557D01*
X139793738Y-135994795D01*
X139884452Y-136055271D01*
X140005404Y-136085509D01*
X140247309Y-136085509D01*
X140307785Y-136055271D01*
X140338023Y-136025033D01*
X140368261Y-135964557D01*
X140368261Y-135843604D01*
X140338023Y-135783128D01*
X140307785Y-135752890D01*
X140247309Y-135722652D01*
X140096119Y-135722652D01*
X140035642Y-135752890D01*
X140005404Y-135783128D01*
X139975166Y-135843604D01*
X139975166Y-135964557D01*
X140005404Y-136025033D01*
X140035642Y-136055271D01*
X140096119Y-136085509D01*
X139944928Y-135178366D02*
X140368261Y-135178366D01*
X139703023Y-135329557D02*
X140156595Y-135480747D01*
X140156595Y-135087652D01*
X153134785Y-136327414D02*
X153165023Y-136357652D01*
X153195261Y-136448366D01*
X153195261Y-136508842D01*
X153165023Y-136599557D01*
X153104547Y-136660033D01*
X153044071Y-136690271D01*
X152923119Y-136720509D01*
X152832404Y-136720509D01*
X152711452Y-136690271D01*
X152650976Y-136660033D01*
X152590500Y-136599557D01*
X152560261Y-136508842D01*
X152560261Y-136448366D01*
X152590500Y-136357652D01*
X152620738Y-136327414D01*
X152560261Y-135783128D02*
X152560261Y-135904080D01*
X152590500Y-135964557D01*
X152620738Y-135994795D01*
X152711452Y-136055271D01*
X152832404Y-136085509D01*
X153074309Y-136085509D01*
X153134785Y-136055271D01*
X153165023Y-136025033D01*
X153195261Y-135964557D01*
X153195261Y-135843604D01*
X153165023Y-135783128D01*
X153134785Y-135752890D01*
X153074309Y-135722652D01*
X152923119Y-135722652D01*
X152862642Y-135752890D01*
X152832404Y-135783128D01*
X152802166Y-135843604D01*
X152802166Y-135964557D01*
X152832404Y-136025033D01*
X152862642Y-136055271D01*
X152923119Y-136085509D01*
X152560261Y-135510985D02*
X152560261Y-135117890D01*
X152802166Y-135329557D01*
X152802166Y-135238842D01*
X152832404Y-135178366D01*
X152862642Y-135148128D01*
X152923119Y-135117890D01*
X153074309Y-135117890D01*
X153134785Y-135148128D01*
X153165023Y-135178366D01*
X153195261Y-135238842D01*
X153195261Y-135420271D01*
X153165023Y-135480747D01*
X153134785Y-135510985D01*
X152245785Y-134168414D02*
X152276023Y-134198652D01*
X152306261Y-134289366D01*
X152306261Y-134349842D01*
X152276023Y-134440557D01*
X152215547Y-134501033D01*
X152155071Y-134531271D01*
X152034119Y-134561509D01*
X151943404Y-134561509D01*
X151822452Y-134531271D01*
X151761976Y-134501033D01*
X151701500Y-134440557D01*
X151671261Y-134349842D01*
X151671261Y-134289366D01*
X151701500Y-134198652D01*
X151731738Y-134168414D01*
X151671261Y-133624128D02*
X151671261Y-133745080D01*
X151701500Y-133805557D01*
X151731738Y-133835795D01*
X151822452Y-133896271D01*
X151943404Y-133926509D01*
X152185309Y-133926509D01*
X152245785Y-133896271D01*
X152276023Y-133866033D01*
X152306261Y-133805557D01*
X152306261Y-133684604D01*
X152276023Y-133624128D01*
X152245785Y-133593890D01*
X152185309Y-133563652D01*
X152034119Y-133563652D01*
X151973642Y-133593890D01*
X151943404Y-133624128D01*
X151913166Y-133684604D01*
X151913166Y-133805557D01*
X151943404Y-133866033D01*
X151973642Y-133896271D01*
X152034119Y-133926509D01*
X151731738Y-133321747D02*
X151701500Y-133291509D01*
X151671261Y-133231033D01*
X151671261Y-133079842D01*
X151701500Y-133019366D01*
X151731738Y-132989128D01*
X151792214Y-132958890D01*
X151852690Y-132958890D01*
X151943404Y-132989128D01*
X152306261Y-133351985D01*
X152306261Y-132958890D01*
X144371785Y-136327414D02*
X144402023Y-136357652D01*
X144432261Y-136448366D01*
X144432261Y-136508842D01*
X144402023Y-136599557D01*
X144341547Y-136660033D01*
X144281071Y-136690271D01*
X144160119Y-136720509D01*
X144069404Y-136720509D01*
X143948452Y-136690271D01*
X143887976Y-136660033D01*
X143827500Y-136599557D01*
X143797261Y-136508842D01*
X143797261Y-136448366D01*
X143827500Y-136357652D01*
X143857738Y-136327414D01*
X143797261Y-135783128D02*
X143797261Y-135904080D01*
X143827500Y-135964557D01*
X143857738Y-135994795D01*
X143948452Y-136055271D01*
X144069404Y-136085509D01*
X144311309Y-136085509D01*
X144371785Y-136055271D01*
X144402023Y-136025033D01*
X144432261Y-135964557D01*
X144432261Y-135843604D01*
X144402023Y-135783128D01*
X144371785Y-135752890D01*
X144311309Y-135722652D01*
X144160119Y-135722652D01*
X144099642Y-135752890D01*
X144069404Y-135783128D01*
X144039166Y-135843604D01*
X144039166Y-135964557D01*
X144069404Y-136025033D01*
X144099642Y-136055271D01*
X144160119Y-136085509D01*
X144432261Y-135117890D02*
X144432261Y-135480747D01*
X144432261Y-135299319D02*
X143797261Y-135299319D01*
X143887976Y-135359795D01*
X143948452Y-135420271D01*
X143978690Y-135480747D01*
X143482785Y-134295414D02*
X143513023Y-134325652D01*
X143543261Y-134416366D01*
X143543261Y-134476842D01*
X143513023Y-134567557D01*
X143452547Y-134628033D01*
X143392071Y-134658271D01*
X143271119Y-134688509D01*
X143180404Y-134688509D01*
X143059452Y-134658271D01*
X142998976Y-134628033D01*
X142938500Y-134567557D01*
X142908261Y-134476842D01*
X142908261Y-134416366D01*
X142938500Y-134325652D01*
X142968738Y-134295414D01*
X142908261Y-133751128D02*
X142908261Y-133872080D01*
X142938500Y-133932557D01*
X142968738Y-133962795D01*
X143059452Y-134023271D01*
X143180404Y-134053509D01*
X143422309Y-134053509D01*
X143482785Y-134023271D01*
X143513023Y-133993033D01*
X143543261Y-133932557D01*
X143543261Y-133811604D01*
X143513023Y-133751128D01*
X143482785Y-133720890D01*
X143422309Y-133690652D01*
X143271119Y-133690652D01*
X143210642Y-133720890D01*
X143180404Y-133751128D01*
X143150166Y-133811604D01*
X143150166Y-133932557D01*
X143180404Y-133993033D01*
X143210642Y-134023271D01*
X143271119Y-134053509D01*
X142908261Y-133297557D02*
X142908261Y-133237080D01*
X142938500Y-133176604D01*
X142968738Y-133146366D01*
X143029214Y-133116128D01*
X143150166Y-133085890D01*
X143301357Y-133085890D01*
X143422309Y-133116128D01*
X143482785Y-133146366D01*
X143513023Y-133176604D01*
X143543261Y-133237080D01*
X143543261Y-133297557D01*
X143513023Y-133358033D01*
X143482785Y-133388271D01*
X143422309Y-133418509D01*
X143301357Y-133448747D01*
X143150166Y-133448747D01*
X143029214Y-133418509D01*
X142968738Y-133388271D01*
X142938500Y-133358033D01*
X142908261Y-133297557D01*
X185524381Y-138096826D02*
X185524381Y-137733969D01*
X186159381Y-137915398D02*
X185524381Y-137915398D01*
X186159381Y-137522302D02*
X185524381Y-137522302D01*
X185977953Y-137310636D01*
X185524381Y-137098969D01*
X186159381Y-137098969D01*
X186159381Y-136796588D02*
X185524381Y-136796588D01*
X185524381Y-136554683D01*
X185554620Y-136494207D01*
X185584858Y-136463969D01*
X185645334Y-136433731D01*
X185736048Y-136433731D01*
X185796524Y-136463969D01*
X185826762Y-136494207D01*
X185857000Y-136554683D01*
X185857000Y-136796588D01*
X185584858Y-136191826D02*
X185554620Y-136161588D01*
X185524381Y-136101112D01*
X185524381Y-135949921D01*
X185554620Y-135889445D01*
X185584858Y-135859207D01*
X185645334Y-135828969D01*
X185705810Y-135828969D01*
X185796524Y-135859207D01*
X186159381Y-136222064D01*
X186159381Y-135828969D01*
X130312401Y-108457566D02*
X130312401Y-108094709D01*
X130947401Y-108276138D02*
X130312401Y-108276138D01*
X130947401Y-107883042D02*
X130312401Y-107883042D01*
X130765973Y-107671376D01*
X130312401Y-107459709D01*
X130947401Y-107459709D01*
X130947401Y-107157328D02*
X130312401Y-107157328D01*
X130312401Y-106915423D01*
X130342640Y-106854947D01*
X130372878Y-106824709D01*
X130433354Y-106794471D01*
X130524068Y-106794471D01*
X130584544Y-106824709D01*
X130614782Y-106854947D01*
X130645020Y-106915423D01*
X130645020Y-107157328D01*
X130947401Y-106189709D02*
X130947401Y-106552566D01*
X130947401Y-106371138D02*
X130312401Y-106371138D01*
X130403116Y-106431614D01*
X130463592Y-106492090D01*
X130493830Y-106552566D01*
X149134285Y-100074961D02*
X148922619Y-99772580D01*
X148771428Y-100074961D02*
X148771428Y-99439961D01*
X149013333Y-99439961D01*
X149073809Y-99470200D01*
X149104047Y-99500438D01*
X149134285Y-99560914D01*
X149134285Y-99651628D01*
X149104047Y-99712104D01*
X149073809Y-99742342D01*
X149013333Y-99772580D01*
X148771428Y-99772580D01*
X149376190Y-99500438D02*
X149406428Y-99470200D01*
X149466904Y-99439961D01*
X149618095Y-99439961D01*
X149678571Y-99470200D01*
X149708809Y-99500438D01*
X149739047Y-99560914D01*
X149739047Y-99621390D01*
X149708809Y-99712104D01*
X149345952Y-100074961D01*
X149739047Y-100074961D01*
X149950714Y-99439961D02*
X150374047Y-99439961D01*
X150101904Y-100074961D01*
X142650461Y-103002614D02*
X142348080Y-103214280D01*
X142650461Y-103365471D02*
X142015461Y-103365471D01*
X142015461Y-103123566D01*
X142045700Y-103063090D01*
X142075938Y-103032852D01*
X142136414Y-103002614D01*
X142227128Y-103002614D01*
X142287604Y-103032852D01*
X142317842Y-103063090D01*
X142348080Y-103123566D01*
X142348080Y-103365471D01*
X142075938Y-102760709D02*
X142045700Y-102730471D01*
X142015461Y-102669995D01*
X142015461Y-102518804D01*
X142045700Y-102458328D01*
X142075938Y-102428090D01*
X142136414Y-102397852D01*
X142196890Y-102397852D01*
X142287604Y-102428090D01*
X142650461Y-102790947D01*
X142650461Y-102397852D01*
X142015461Y-101853566D02*
X142015461Y-101974519D01*
X142045700Y-102034995D01*
X142075938Y-102065233D01*
X142166652Y-102125709D01*
X142287604Y-102155947D01*
X142529509Y-102155947D01*
X142589985Y-102125709D01*
X142620223Y-102095471D01*
X142650461Y-102034995D01*
X142650461Y-101914042D01*
X142620223Y-101853566D01*
X142589985Y-101823328D01*
X142529509Y-101793090D01*
X142378319Y-101793090D01*
X142317842Y-101823328D01*
X142287604Y-101853566D01*
X142257366Y-101914042D01*
X142257366Y-102034995D01*
X142287604Y-102095471D01*
X142317842Y-102125709D01*
X142378319Y-102155947D01*
X149604185Y-105494061D02*
X149392519Y-105191680D01*
X149241328Y-105494061D02*
X149241328Y-104859061D01*
X149483233Y-104859061D01*
X149543709Y-104889300D01*
X149573947Y-104919538D01*
X149604185Y-104980014D01*
X149604185Y-105070728D01*
X149573947Y-105131204D01*
X149543709Y-105161442D01*
X149483233Y-105191680D01*
X149241328Y-105191680D01*
X149846090Y-104919538D02*
X149876328Y-104889300D01*
X149936804Y-104859061D01*
X150087995Y-104859061D01*
X150148471Y-104889300D01*
X150178709Y-104919538D01*
X150208947Y-104980014D01*
X150208947Y-105040490D01*
X150178709Y-105131204D01*
X149815852Y-105494061D01*
X150208947Y-105494061D01*
X150783471Y-104859061D02*
X150481090Y-104859061D01*
X150450852Y-105161442D01*
X150481090Y-105131204D01*
X150541566Y-105100966D01*
X150692757Y-105100966D01*
X150753233Y-105131204D01*
X150783471Y-105161442D01*
X150813709Y-105221919D01*
X150813709Y-105373109D01*
X150783471Y-105433585D01*
X150753233Y-105463823D01*
X150692757Y-105494061D01*
X150541566Y-105494061D01*
X150481090Y-105463823D01*
X150450852Y-105433585D01*
X185867281Y-143411474D02*
X185564900Y-143623140D01*
X185867281Y-143774331D02*
X185232281Y-143774331D01*
X185232281Y-143532426D01*
X185262520Y-143471950D01*
X185292758Y-143441712D01*
X185353234Y-143411474D01*
X185443948Y-143411474D01*
X185504424Y-143441712D01*
X185534662Y-143471950D01*
X185564900Y-143532426D01*
X185564900Y-143774331D01*
X185867281Y-142806712D02*
X185867281Y-143169569D01*
X185867281Y-142988140D02*
X185232281Y-142988140D01*
X185322996Y-143048617D01*
X185383472Y-143109093D01*
X185413710Y-143169569D01*
X185443948Y-142262426D02*
X185867281Y-142262426D01*
X185202043Y-142413617D02*
X185655615Y-142564807D01*
X185655615Y-142171712D01*
X130589261Y-113848414D02*
X130286880Y-114060080D01*
X130589261Y-114211271D02*
X129954261Y-114211271D01*
X129954261Y-113969366D01*
X129984500Y-113908890D01*
X130014738Y-113878652D01*
X130075214Y-113848414D01*
X130165928Y-113848414D01*
X130226404Y-113878652D01*
X130256642Y-113908890D01*
X130286880Y-113969366D01*
X130286880Y-114211271D01*
X130589261Y-113243652D02*
X130589261Y-113606509D01*
X130589261Y-113425080D02*
X129954261Y-113425080D01*
X130044976Y-113485557D01*
X130105452Y-113546033D01*
X130135690Y-113606509D01*
X129954261Y-113031985D02*
X129954261Y-112638890D01*
X130196166Y-112850557D01*
X130196166Y-112759842D01*
X130226404Y-112699366D01*
X130256642Y-112669128D01*
X130317119Y-112638890D01*
X130468309Y-112638890D01*
X130528785Y-112669128D01*
X130559023Y-112699366D01*
X130589261Y-112759842D01*
X130589261Y-112941271D01*
X130559023Y-113001747D01*
X130528785Y-113031985D01*
X143869661Y-105441014D02*
X143567280Y-105652680D01*
X143869661Y-105803871D02*
X143234661Y-105803871D01*
X143234661Y-105561966D01*
X143264900Y-105501490D01*
X143295138Y-105471252D01*
X143355614Y-105441014D01*
X143446328Y-105441014D01*
X143506804Y-105471252D01*
X143537042Y-105501490D01*
X143567280Y-105561966D01*
X143567280Y-105803871D01*
X143869661Y-104836252D02*
X143869661Y-105199109D01*
X143869661Y-105017680D02*
X143234661Y-105017680D01*
X143325376Y-105078157D01*
X143385852Y-105138633D01*
X143416090Y-105199109D01*
X143295138Y-104594347D02*
X143264900Y-104564109D01*
X143234661Y-104503633D01*
X143234661Y-104352442D01*
X143264900Y-104291966D01*
X143295138Y-104261728D01*
X143355614Y-104231490D01*
X143416090Y-104231490D01*
X143506804Y-104261728D01*
X143869661Y-104624585D01*
X143869661Y-104231490D01*
X129357966Y-137044661D02*
X129055585Y-137044661D01*
X129055585Y-136409661D01*
X129509157Y-136409661D02*
X129932490Y-136409661D01*
X129660347Y-137044661D01*
X122893666Y-138492461D02*
X122591285Y-138492461D01*
X122591285Y-137857461D01*
X123377476Y-137857461D02*
X123256523Y-137857461D01*
X123196047Y-137887700D01*
X123165809Y-137917938D01*
X123105333Y-138008652D01*
X123075095Y-138129604D01*
X123075095Y-138371509D01*
X123105333Y-138431985D01*
X123135571Y-138462223D01*
X123196047Y-138492461D01*
X123317000Y-138492461D01*
X123377476Y-138462223D01*
X123407714Y-138431985D01*
X123437952Y-138371509D01*
X123437952Y-138220319D01*
X123407714Y-138159842D01*
X123377476Y-138129604D01*
X123317000Y-138099366D01*
X123196047Y-138099366D01*
X123135571Y-138129604D01*
X123105333Y-138159842D01*
X123075095Y-138220319D01*
X162517666Y-137666961D02*
X162215285Y-137666961D01*
X162215285Y-137031961D01*
X163031714Y-137031961D02*
X162729333Y-137031961D01*
X162699095Y-137334342D01*
X162729333Y-137304104D01*
X162789809Y-137273866D01*
X162941000Y-137273866D01*
X163001476Y-137304104D01*
X163031714Y-137334342D01*
X163061952Y-137394819D01*
X163061952Y-137546009D01*
X163031714Y-137606485D01*
X163001476Y-137636723D01*
X162941000Y-137666961D01*
X162789809Y-137666961D01*
X162729333Y-137636723D01*
X162699095Y-137606485D01*
X181854081Y-141089793D02*
X181854081Y-141392174D01*
X181219081Y-141392174D01*
X181430748Y-140605983D02*
X181854081Y-140605983D01*
X181188843Y-140757174D02*
X181642415Y-140908364D01*
X181642415Y-140515269D01*
X126398261Y-111323533D02*
X126398261Y-111625914D01*
X125763261Y-111625914D01*
X125763261Y-111172342D02*
X125763261Y-110779247D01*
X126005166Y-110990914D01*
X126005166Y-110900200D01*
X126035404Y-110839723D01*
X126065642Y-110809485D01*
X126126119Y-110779247D01*
X126277309Y-110779247D01*
X126337785Y-110809485D01*
X126368023Y-110839723D01*
X126398261Y-110900200D01*
X126398261Y-111081628D01*
X126368023Y-111142104D01*
X126337785Y-111172342D01*
X123238985Y-136907985D02*
X123208747Y-136938223D01*
X123118033Y-136968461D01*
X123057557Y-136968461D01*
X122966842Y-136938223D01*
X122906366Y-136877747D01*
X122876128Y-136817271D01*
X122845890Y-136696319D01*
X122845890Y-136605604D01*
X122876128Y-136484652D01*
X122906366Y-136424176D01*
X122966842Y-136363700D01*
X123057557Y-136333461D01*
X123118033Y-136333461D01*
X123208747Y-136363700D01*
X123238985Y-136393938D01*
X123783271Y-136545128D02*
X123783271Y-136968461D01*
X123632080Y-136303223D02*
X123480890Y-136756795D01*
X123873985Y-136756795D01*
X124146128Y-136968461D02*
X124267080Y-136968461D01*
X124327557Y-136938223D01*
X124357795Y-136907985D01*
X124418271Y-136817271D01*
X124448509Y-136696319D01*
X124448509Y-136454414D01*
X124418271Y-136393938D01*
X124388033Y-136363700D01*
X124327557Y-136333461D01*
X124206604Y-136333461D01*
X124146128Y-136363700D01*
X124115890Y-136393938D01*
X124085652Y-136454414D01*
X124085652Y-136605604D01*
X124115890Y-136666080D01*
X124146128Y-136696319D01*
X124206604Y-136726557D01*
X124327557Y-136726557D01*
X124388033Y-136696319D01*
X124418271Y-136666080D01*
X124448509Y-136605604D01*
X122934185Y-139562285D02*
X122903947Y-139592523D01*
X122813233Y-139622761D01*
X122752757Y-139622761D01*
X122662042Y-139592523D01*
X122601566Y-139532047D01*
X122571328Y-139471571D01*
X122541090Y-139350619D01*
X122541090Y-139259904D01*
X122571328Y-139138952D01*
X122601566Y-139078476D01*
X122662042Y-139018000D01*
X122752757Y-138987761D01*
X122813233Y-138987761D01*
X122903947Y-139018000D01*
X122934185Y-139048238D01*
X123478471Y-139199428D02*
X123478471Y-139622761D01*
X123327280Y-138957523D02*
X123176090Y-139411095D01*
X123569185Y-139411095D01*
X123901804Y-139259904D02*
X123841328Y-139229666D01*
X123811090Y-139199428D01*
X123780852Y-139138952D01*
X123780852Y-139108714D01*
X123811090Y-139048238D01*
X123841328Y-139018000D01*
X123901804Y-138987761D01*
X124022757Y-138987761D01*
X124083233Y-139018000D01*
X124113471Y-139048238D01*
X124143709Y-139108714D01*
X124143709Y-139138952D01*
X124113471Y-139199428D01*
X124083233Y-139229666D01*
X124022757Y-139259904D01*
X123901804Y-139259904D01*
X123841328Y-139290142D01*
X123811090Y-139320380D01*
X123780852Y-139380857D01*
X123780852Y-139501809D01*
X123811090Y-139562285D01*
X123841328Y-139592523D01*
X123901804Y-139622761D01*
X124022757Y-139622761D01*
X124083233Y-139592523D01*
X124113471Y-139562285D01*
X124143709Y-139501809D01*
X124143709Y-139380857D01*
X124113471Y-139320380D01*
X124083233Y-139290142D01*
X124022757Y-139259904D01*
X157643285Y-137851414D02*
X157673523Y-137881652D01*
X157703761Y-137972366D01*
X157703761Y-138032842D01*
X157673523Y-138123557D01*
X157613047Y-138184033D01*
X157552571Y-138214271D01*
X157431619Y-138244509D01*
X157340904Y-138244509D01*
X157219952Y-138214271D01*
X157159476Y-138184033D01*
X157099000Y-138123557D01*
X157068761Y-138032842D01*
X157068761Y-137972366D01*
X157099000Y-137881652D01*
X157129238Y-137851414D01*
X157280428Y-137307128D02*
X157703761Y-137307128D01*
X157038523Y-137458319D02*
X157492095Y-137609509D01*
X157492095Y-137216414D01*
X157068761Y-137034985D02*
X157068761Y-136611652D01*
X157703761Y-136883795D01*
X126325085Y-139219385D02*
X126294847Y-139249623D01*
X126204133Y-139279861D01*
X126143657Y-139279861D01*
X126052942Y-139249623D01*
X125992466Y-139189147D01*
X125962228Y-139128671D01*
X125931990Y-139007719D01*
X125931990Y-138917004D01*
X125962228Y-138796052D01*
X125992466Y-138735576D01*
X126052942Y-138675100D01*
X126143657Y-138644861D01*
X126204133Y-138644861D01*
X126294847Y-138675100D01*
X126325085Y-138705338D01*
X126869371Y-138856528D02*
X126869371Y-139279861D01*
X126718180Y-138614623D02*
X126566990Y-139068195D01*
X126960085Y-139068195D01*
X127474133Y-138644861D02*
X127353180Y-138644861D01*
X127292704Y-138675100D01*
X127262466Y-138705338D01*
X127201990Y-138796052D01*
X127171752Y-138917004D01*
X127171752Y-139158909D01*
X127201990Y-139219385D01*
X127232228Y-139249623D01*
X127292704Y-139279861D01*
X127413657Y-139279861D01*
X127474133Y-139249623D01*
X127504371Y-139219385D01*
X127534609Y-139158909D01*
X127534609Y-139007719D01*
X127504371Y-138947242D01*
X127474133Y-138917004D01*
X127413657Y-138886766D01*
X127292704Y-138886766D01*
X127232228Y-138917004D01*
X127201990Y-138947242D01*
X127171752Y-139007719D01*
X163675785Y-137860485D02*
X163645547Y-137890723D01*
X163554833Y-137920961D01*
X163494357Y-137920961D01*
X163403642Y-137890723D01*
X163343166Y-137830247D01*
X163312928Y-137769771D01*
X163282690Y-137648819D01*
X163282690Y-137558104D01*
X163312928Y-137437152D01*
X163343166Y-137376676D01*
X163403642Y-137316200D01*
X163494357Y-137285961D01*
X163554833Y-137285961D01*
X163645547Y-137316200D01*
X163675785Y-137346438D01*
X164220071Y-137497628D02*
X164220071Y-137920961D01*
X164068880Y-137255723D02*
X163917690Y-137709295D01*
X164310785Y-137709295D01*
X164824833Y-137497628D02*
X164824833Y-137920961D01*
X164673642Y-137255723D02*
X164522452Y-137709295D01*
X164915547Y-137709295D01*
X133475185Y-128453414D02*
X133505423Y-128483652D01*
X133535661Y-128574366D01*
X133535661Y-128634842D01*
X133505423Y-128725557D01*
X133444947Y-128786033D01*
X133384471Y-128816271D01*
X133263519Y-128846509D01*
X133172804Y-128846509D01*
X133051852Y-128816271D01*
X132991376Y-128786033D01*
X132930900Y-128725557D01*
X132900661Y-128634842D01*
X132900661Y-128574366D01*
X132930900Y-128483652D01*
X132961138Y-128453414D01*
X132900661Y-128241747D02*
X132900661Y-127848652D01*
X133142566Y-128060319D01*
X133142566Y-127969604D01*
X133172804Y-127909128D01*
X133203042Y-127878890D01*
X133263519Y-127848652D01*
X133414709Y-127848652D01*
X133475185Y-127878890D01*
X133505423Y-127909128D01*
X133535661Y-127969604D01*
X133535661Y-128151033D01*
X133505423Y-128211509D01*
X133475185Y-128241747D01*
X132900661Y-127636985D02*
X132900661Y-127213652D01*
X133535661Y-127485795D01*
X133475185Y-126218214D02*
X133505423Y-126248452D01*
X133535661Y-126339166D01*
X133535661Y-126399642D01*
X133505423Y-126490357D01*
X133444947Y-126550833D01*
X133384471Y-126581071D01*
X133263519Y-126611309D01*
X133172804Y-126611309D01*
X133051852Y-126581071D01*
X132991376Y-126550833D01*
X132930900Y-126490357D01*
X132900661Y-126399642D01*
X132900661Y-126339166D01*
X132930900Y-126248452D01*
X132961138Y-126218214D01*
X132900661Y-126006547D02*
X132900661Y-125613452D01*
X133142566Y-125825119D01*
X133142566Y-125734404D01*
X133172804Y-125673928D01*
X133203042Y-125643690D01*
X133263519Y-125613452D01*
X133414709Y-125613452D01*
X133475185Y-125643690D01*
X133505423Y-125673928D01*
X133535661Y-125734404D01*
X133535661Y-125915833D01*
X133505423Y-125976309D01*
X133475185Y-126006547D01*
X132900661Y-125069166D02*
X132900661Y-125190119D01*
X132930900Y-125250595D01*
X132961138Y-125280833D01*
X133051852Y-125341309D01*
X133172804Y-125371547D01*
X133414709Y-125371547D01*
X133475185Y-125341309D01*
X133505423Y-125311071D01*
X133535661Y-125250595D01*
X133535661Y-125129642D01*
X133505423Y-125069166D01*
X133475185Y-125038928D01*
X133414709Y-125008690D01*
X133263519Y-125008690D01*
X133203042Y-125038928D01*
X133172804Y-125069166D01*
X133142566Y-125129642D01*
X133142566Y-125250595D01*
X133172804Y-125311071D01*
X133203042Y-125341309D01*
X133263519Y-125371547D01*
X182690225Y-144888665D02*
X182659987Y-144918903D01*
X182569273Y-144949141D01*
X182508797Y-144949141D01*
X182418082Y-144918903D01*
X182357606Y-144858427D01*
X182327368Y-144797951D01*
X182297130Y-144676999D01*
X182297130Y-144586284D01*
X182327368Y-144465332D01*
X182357606Y-144404856D01*
X182418082Y-144344380D01*
X182508797Y-144314141D01*
X182569273Y-144314141D01*
X182659987Y-144344380D01*
X182690225Y-144374618D01*
X182932130Y-144374618D02*
X182962368Y-144344380D01*
X183022844Y-144314141D01*
X183174035Y-144314141D01*
X183234511Y-144344380D01*
X183264749Y-144374618D01*
X183294987Y-144435094D01*
X183294987Y-144495570D01*
X183264749Y-144586284D01*
X182901892Y-144949141D01*
X183294987Y-144949141D01*
X183597368Y-144949141D02*
X183718320Y-144949141D01*
X183778797Y-144918903D01*
X183809035Y-144888665D01*
X183869511Y-144797951D01*
X183899749Y-144676999D01*
X183899749Y-144435094D01*
X183869511Y-144374618D01*
X183839273Y-144344380D01*
X183778797Y-144314141D01*
X183657844Y-144314141D01*
X183597368Y-144344380D01*
X183567130Y-144374618D01*
X183536892Y-144435094D01*
X183536892Y-144586284D01*
X183567130Y-144646760D01*
X183597368Y-144676999D01*
X183657844Y-144707237D01*
X183778797Y-144707237D01*
X183839273Y-144676999D01*
X183869511Y-144646760D01*
X183899749Y-144586284D01*
X127290285Y-115408485D02*
X127260047Y-115438723D01*
X127169333Y-115468961D01*
X127108857Y-115468961D01*
X127018142Y-115438723D01*
X126957666Y-115378247D01*
X126927428Y-115317771D01*
X126897190Y-115196819D01*
X126897190Y-115106104D01*
X126927428Y-114985152D01*
X126957666Y-114924676D01*
X127018142Y-114864200D01*
X127108857Y-114833961D01*
X127169333Y-114833961D01*
X127260047Y-114864200D01*
X127290285Y-114894438D01*
X127532190Y-114894438D02*
X127562428Y-114864200D01*
X127622904Y-114833961D01*
X127774095Y-114833961D01*
X127834571Y-114864200D01*
X127864809Y-114894438D01*
X127895047Y-114954914D01*
X127895047Y-115015390D01*
X127864809Y-115106104D01*
X127501952Y-115468961D01*
X127895047Y-115468961D01*
X128257904Y-115106104D02*
X128197428Y-115075866D01*
X128167190Y-115045628D01*
X128136952Y-114985152D01*
X128136952Y-114954914D01*
X128167190Y-114894438D01*
X128197428Y-114864200D01*
X128257904Y-114833961D01*
X128378857Y-114833961D01*
X128439333Y-114864200D01*
X128469571Y-114894438D01*
X128499809Y-114954914D01*
X128499809Y-114985152D01*
X128469571Y-115045628D01*
X128439333Y-115075866D01*
X128378857Y-115106104D01*
X128257904Y-115106104D01*
X128197428Y-115136342D01*
X128167190Y-115166580D01*
X128136952Y-115227057D01*
X128136952Y-115348009D01*
X128167190Y-115408485D01*
X128197428Y-115438723D01*
X128257904Y-115468961D01*
X128378857Y-115468961D01*
X128439333Y-115438723D01*
X128469571Y-115408485D01*
X128499809Y-115348009D01*
X128499809Y-115227057D01*
X128469571Y-115166580D01*
X128439333Y-115136342D01*
X128378857Y-115106104D01*
X181755505Y-142916174D02*
X181785743Y-142946412D01*
X181815981Y-143037126D01*
X181815981Y-143097602D01*
X181785743Y-143188317D01*
X181725267Y-143248793D01*
X181664791Y-143279031D01*
X181543839Y-143309269D01*
X181453124Y-143309269D01*
X181332172Y-143279031D01*
X181271696Y-143248793D01*
X181211220Y-143188317D01*
X181180981Y-143097602D01*
X181180981Y-143037126D01*
X181211220Y-142946412D01*
X181241458Y-142916174D01*
X181241458Y-142674269D02*
X181211220Y-142644031D01*
X181180981Y-142583555D01*
X181180981Y-142432364D01*
X181211220Y-142371888D01*
X181241458Y-142341650D01*
X181301934Y-142311412D01*
X181362410Y-142311412D01*
X181453124Y-142341650D01*
X181815981Y-142704507D01*
X181815981Y-142311412D01*
X181180981Y-142099745D02*
X181180981Y-141676412D01*
X181815981Y-141948555D01*
X126337785Y-113276914D02*
X126368023Y-113307152D01*
X126398261Y-113397866D01*
X126398261Y-113458342D01*
X126368023Y-113549057D01*
X126307547Y-113609533D01*
X126247071Y-113639771D01*
X126126119Y-113670009D01*
X126035404Y-113670009D01*
X125914452Y-113639771D01*
X125853976Y-113609533D01*
X125793500Y-113549057D01*
X125763261Y-113458342D01*
X125763261Y-113397866D01*
X125793500Y-113307152D01*
X125823738Y-113276914D01*
X125823738Y-113035009D02*
X125793500Y-113004771D01*
X125763261Y-112944295D01*
X125763261Y-112793104D01*
X125793500Y-112732628D01*
X125823738Y-112702390D01*
X125884214Y-112672152D01*
X125944690Y-112672152D01*
X126035404Y-112702390D01*
X126398261Y-113065247D01*
X126398261Y-112672152D01*
X125763261Y-112127866D02*
X125763261Y-112248819D01*
X125793500Y-112309295D01*
X125823738Y-112339533D01*
X125914452Y-112400009D01*
X126035404Y-112430247D01*
X126277309Y-112430247D01*
X126337785Y-112400009D01*
X126368023Y-112369771D01*
X126398261Y-112309295D01*
X126398261Y-112188342D01*
X126368023Y-112127866D01*
X126337785Y-112097628D01*
X126277309Y-112067390D01*
X126126119Y-112067390D01*
X126065642Y-112097628D01*
X126035404Y-112127866D01*
X126005166Y-112188342D01*
X126005166Y-112309295D01*
X126035404Y-112369771D01*
X126065642Y-112400009D01*
X126126119Y-112430247D01*
X184701905Y-141731445D02*
X184671667Y-141761683D01*
X184580953Y-141791921D01*
X184520477Y-141791921D01*
X184429762Y-141761683D01*
X184369286Y-141701207D01*
X184339048Y-141640731D01*
X184308810Y-141519779D01*
X184308810Y-141429064D01*
X184339048Y-141308112D01*
X184369286Y-141247636D01*
X184429762Y-141187160D01*
X184520477Y-141156921D01*
X184580953Y-141156921D01*
X184671667Y-141187160D01*
X184701905Y-141217398D01*
X184943810Y-141217398D02*
X184974048Y-141187160D01*
X185034524Y-141156921D01*
X185185715Y-141156921D01*
X185246191Y-141187160D01*
X185276429Y-141217398D01*
X185306667Y-141277874D01*
X185306667Y-141338350D01*
X185276429Y-141429064D01*
X184913572Y-141791921D01*
X185306667Y-141791921D01*
X185881191Y-141156921D02*
X185578810Y-141156921D01*
X185548572Y-141459302D01*
X185578810Y-141429064D01*
X185639286Y-141398826D01*
X185790477Y-141398826D01*
X185850953Y-141429064D01*
X185881191Y-141459302D01*
X185911429Y-141519779D01*
X185911429Y-141670969D01*
X185881191Y-141731445D01*
X185850953Y-141761683D01*
X185790477Y-141791921D01*
X185639286Y-141791921D01*
X185578810Y-141761683D01*
X185548572Y-141731445D01*
X129385785Y-111888985D02*
X129355547Y-111919223D01*
X129264833Y-111949461D01*
X129204357Y-111949461D01*
X129113642Y-111919223D01*
X129053166Y-111858747D01*
X129022928Y-111798271D01*
X128992690Y-111677319D01*
X128992690Y-111586604D01*
X129022928Y-111465652D01*
X129053166Y-111405176D01*
X129113642Y-111344700D01*
X129204357Y-111314461D01*
X129264833Y-111314461D01*
X129355547Y-111344700D01*
X129385785Y-111374938D01*
X129627690Y-111374938D02*
X129657928Y-111344700D01*
X129718404Y-111314461D01*
X129869595Y-111314461D01*
X129930071Y-111344700D01*
X129960309Y-111374938D01*
X129990547Y-111435414D01*
X129990547Y-111495890D01*
X129960309Y-111586604D01*
X129597452Y-111949461D01*
X129990547Y-111949461D01*
X130534833Y-111526128D02*
X130534833Y-111949461D01*
X130383642Y-111284223D02*
X130232452Y-111737795D01*
X130625547Y-111737795D01*
X186100505Y-140312674D02*
X186130743Y-140342912D01*
X186160981Y-140433626D01*
X186160981Y-140494102D01*
X186130743Y-140584817D01*
X186070267Y-140645293D01*
X186009791Y-140675531D01*
X185888839Y-140705769D01*
X185798124Y-140705769D01*
X185677172Y-140675531D01*
X185616696Y-140645293D01*
X185556220Y-140584817D01*
X185525981Y-140494102D01*
X185525981Y-140433626D01*
X185556220Y-140342912D01*
X185586458Y-140312674D01*
X185586458Y-140070769D02*
X185556220Y-140040531D01*
X185525981Y-139980055D01*
X185525981Y-139828864D01*
X185556220Y-139768388D01*
X185586458Y-139738150D01*
X185646934Y-139707912D01*
X185707410Y-139707912D01*
X185798124Y-139738150D01*
X186160981Y-140101007D01*
X186160981Y-139707912D01*
X185525981Y-139496245D02*
X185525981Y-139103150D01*
X185767886Y-139314817D01*
X185767886Y-139224102D01*
X185798124Y-139163626D01*
X185828362Y-139133388D01*
X185888839Y-139103150D01*
X186040029Y-139103150D01*
X186100505Y-139133388D01*
X186130743Y-139163626D01*
X186160981Y-139224102D01*
X186160981Y-139405531D01*
X186130743Y-139466007D01*
X186100505Y-139496245D01*
X130809785Y-110546414D02*
X130840023Y-110576652D01*
X130870261Y-110667366D01*
X130870261Y-110727842D01*
X130840023Y-110818557D01*
X130779547Y-110879033D01*
X130719071Y-110909271D01*
X130598119Y-110939509D01*
X130507404Y-110939509D01*
X130386452Y-110909271D01*
X130325976Y-110879033D01*
X130265500Y-110818557D01*
X130235261Y-110727842D01*
X130235261Y-110667366D01*
X130265500Y-110576652D01*
X130295738Y-110546414D01*
X130295738Y-110304509D02*
X130265500Y-110274271D01*
X130235261Y-110213795D01*
X130235261Y-110062604D01*
X130265500Y-110002128D01*
X130295738Y-109971890D01*
X130356214Y-109941652D01*
X130416690Y-109941652D01*
X130507404Y-109971890D01*
X130870261Y-110334747D01*
X130870261Y-109941652D01*
X130295738Y-109699747D02*
X130265500Y-109669509D01*
X130235261Y-109609033D01*
X130235261Y-109457842D01*
X130265500Y-109397366D01*
X130295738Y-109367128D01*
X130356214Y-109336890D01*
X130416690Y-109336890D01*
X130507404Y-109367128D01*
X130870261Y-109729985D01*
X130870261Y-109336890D01*
X184651105Y-133603445D02*
X184620867Y-133633683D01*
X184530153Y-133663921D01*
X184469677Y-133663921D01*
X184378962Y-133633683D01*
X184318486Y-133573207D01*
X184288248Y-133512731D01*
X184258010Y-133391779D01*
X184258010Y-133301064D01*
X184288248Y-133180112D01*
X184318486Y-133119636D01*
X184378962Y-133059160D01*
X184469677Y-133028921D01*
X184530153Y-133028921D01*
X184620867Y-133059160D01*
X184651105Y-133089398D01*
X184893010Y-133089398D02*
X184923248Y-133059160D01*
X184983724Y-133028921D01*
X185134915Y-133028921D01*
X185195391Y-133059160D01*
X185225629Y-133089398D01*
X185255867Y-133149874D01*
X185255867Y-133210350D01*
X185225629Y-133301064D01*
X184862772Y-133663921D01*
X185255867Y-133663921D01*
X185860629Y-133663921D02*
X185497772Y-133663921D01*
X185679200Y-133663921D02*
X185679200Y-133028921D01*
X185618724Y-133119636D01*
X185558248Y-133180112D01*
X185497772Y-133210350D01*
X184651105Y-134670245D02*
X184620867Y-134700483D01*
X184530153Y-134730721D01*
X184469677Y-134730721D01*
X184378962Y-134700483D01*
X184318486Y-134640007D01*
X184288248Y-134579531D01*
X184258010Y-134458579D01*
X184258010Y-134367864D01*
X184288248Y-134246912D01*
X184318486Y-134186436D01*
X184378962Y-134125960D01*
X184469677Y-134095721D01*
X184530153Y-134095721D01*
X184620867Y-134125960D01*
X184651105Y-134156198D01*
X185255867Y-134730721D02*
X184893010Y-134730721D01*
X185074439Y-134730721D02*
X185074439Y-134095721D01*
X185013962Y-134186436D01*
X184953486Y-134246912D01*
X184893010Y-134277150D01*
X185558248Y-134730721D02*
X185679200Y-134730721D01*
X185739677Y-134700483D01*
X185769915Y-134670245D01*
X185830391Y-134579531D01*
X185860629Y-134458579D01*
X185860629Y-134216674D01*
X185830391Y-134156198D01*
X185800153Y-134125960D01*
X185739677Y-134095721D01*
X185618724Y-134095721D01*
X185558248Y-134125960D01*
X185528010Y-134156198D01*
X185497772Y-134216674D01*
X185497772Y-134367864D01*
X185528010Y-134428340D01*
X185558248Y-134458579D01*
X185618724Y-134488817D01*
X185739677Y-134488817D01*
X185800153Y-134458579D01*
X185830391Y-134428340D01*
X185860629Y-134367864D01*
X123686882Y-146875423D02*
X124007605Y-147196147D01*
X124050368Y-147281673D01*
X124050368Y-147367199D01*
X124007605Y-147452726D01*
X123964842Y-147495489D01*
X124584907Y-146875423D02*
X124328328Y-147132002D01*
X124456618Y-147003713D02*
X124007605Y-146554700D01*
X124028987Y-146661608D01*
X124028987Y-146747134D01*
X124007605Y-146811279D01*
X157201809Y-136079461D02*
X157201809Y-135444461D01*
X157353000Y-135444461D01*
X157443714Y-135474700D01*
X157504190Y-135535176D01*
X157534428Y-135595652D01*
X157564666Y-135716604D01*
X157564666Y-135807319D01*
X157534428Y-135928271D01*
X157504190Y-135988747D01*
X157443714Y-136049223D01*
X157353000Y-136079461D01*
X157201809Y-136079461D01*
X157776333Y-135444461D02*
X158169428Y-135444461D01*
X157957761Y-135686366D01*
X158048476Y-135686366D01*
X158108952Y-135716604D01*
X158139190Y-135746842D01*
X158169428Y-135807319D01*
X158169428Y-135958509D01*
X158139190Y-136018985D01*
X158108952Y-136049223D01*
X158048476Y-136079461D01*
X157867047Y-136079461D01*
X157806571Y-136049223D01*
X157776333Y-136018985D01*
X167806309Y-118524261D02*
X167806309Y-117889261D01*
X167957500Y-117889261D01*
X168048214Y-117919500D01*
X168108690Y-117979976D01*
X168138928Y-118040452D01*
X168169166Y-118161404D01*
X168169166Y-118252119D01*
X168138928Y-118373071D01*
X168108690Y-118433547D01*
X168048214Y-118494023D01*
X167957500Y-118524261D01*
X167806309Y-118524261D01*
X168411071Y-117949738D02*
X168441309Y-117919500D01*
X168501785Y-117889261D01*
X168652976Y-117889261D01*
X168713452Y-117919500D01*
X168743690Y-117949738D01*
X168773928Y-118010214D01*
X168773928Y-118070690D01*
X168743690Y-118161404D01*
X168380833Y-118524261D01*
X168773928Y-118524261D01*
M02*
