G04 #@! TF.GenerationSoftware,KiCad,Pcbnew,(5.1.5)-3*
G04 #@! TF.CreationDate,2020-02-20T11:24:20-05:00*
G04 #@! TF.ProjectId,Flight_Computer,466c6967-6874-45f4-936f-6d7075746572,rev?*
G04 #@! TF.SameCoordinates,Original*
G04 #@! TF.FileFunction,Copper,L3,Inr*
G04 #@! TF.FilePolarity,Positive*
%FSLAX46Y46*%
G04 Gerber Fmt 4.6, Leading zero omitted, Abs format (unit mm)*
G04 Created by KiCad (PCBNEW (5.1.5)-3) date 2020-02-20 11:24:20*
%MOMM*%
%LPD*%
G04 APERTURE LIST*
%ADD10R,0.740000X2.920000*%
%ADD11C,2.100000*%
%ADD12C,1.700000*%
%ADD13C,0.100000*%
%ADD14C,0.508000*%
%ADD15C,0.254000*%
%ADD16C,0.508000*%
%ADD17C,0.381000*%
%ADD18C,0.152400*%
%ADD19C,0.482600*%
G04 APERTURE END LIST*
D10*
X164465000Y-125314200D03*
X164465000Y-128744200D03*
X163195000Y-125314200D03*
X163195000Y-128744200D03*
X161925000Y-125314200D03*
X161925000Y-128744200D03*
X160655000Y-125314200D03*
X160655000Y-128744200D03*
X159385000Y-125314200D03*
X159385000Y-128744200D03*
X158115000Y-125314200D03*
X158115000Y-128744200D03*
X156845000Y-125314200D03*
X156845000Y-128744200D03*
X155575000Y-125314200D03*
X155575000Y-128744200D03*
X154305000Y-125314200D03*
X154305000Y-128744200D03*
X153035000Y-125314200D03*
X153035000Y-128744200D03*
X151765000Y-125314200D03*
X151765000Y-128744200D03*
X150495000Y-125314200D03*
X150495000Y-128744200D03*
X149225000Y-125314200D03*
X149225000Y-128744200D03*
X147955000Y-125314200D03*
X147955000Y-128744200D03*
X146685000Y-125314200D03*
X146685000Y-128744200D03*
X145415000Y-125314200D03*
X145415000Y-128744200D03*
X144145000Y-125314200D03*
X144145000Y-128744200D03*
X142875000Y-125314200D03*
X142875000Y-128744200D03*
X141605000Y-125314200D03*
X141605000Y-128744200D03*
X140335000Y-125314200D03*
X140335000Y-128744200D03*
D11*
X177019949Y-149016679D03*
X173908679Y-152127949D03*
D12*
X132914205Y-155803405D02*
X132914205Y-155803405D01*
X131118154Y-154007354D02*
X131118154Y-154007354D01*
X129322102Y-152211302D02*
X129322102Y-152211302D01*
X127526051Y-150415251D02*
X127526051Y-150415251D01*
G04 #@! TA.AperFunction,ViaPad*
D13*
G36*
X125730000Y-149821282D02*
G01*
X124527918Y-148619200D01*
X125730000Y-147417118D01*
X126932082Y-148619200D01*
X125730000Y-149821282D01*
G37*
G04 #@! TD.AperFunction*
D14*
X164401500Y-158703000D03*
X151434800Y-105968800D03*
X153263600Y-103022400D03*
X146630400Y-102137200D03*
X166319200Y-117754400D03*
X161391600Y-121056400D03*
X168452800Y-124307600D03*
X160782000Y-94517200D03*
X159004000Y-100613200D03*
X156464000Y-100613200D03*
X151130000Y-98327200D03*
X148082000Y-94517200D03*
X145288000Y-96041200D03*
X145288000Y-98327200D03*
X150114000Y-93501200D03*
X154940000Y-93501200D03*
X144399000Y-114329200D03*
X149606000Y-114710200D03*
X141795500Y-118774200D03*
X141478000Y-115980200D03*
X141478000Y-122203200D03*
X171145200Y-137367000D03*
X167614600Y-139284700D03*
X165671500Y-152162500D03*
X166751000Y-149559000D03*
X168973500Y-147336500D03*
X172021500Y-146853900D03*
X167043100Y-157674300D03*
X167347900Y-153457900D03*
X168287700Y-150524200D03*
X174990512Y-146647912D03*
X175530262Y-146108162D03*
X177627336Y-146569364D03*
X179062436Y-148004464D03*
X178357586Y-147299614D03*
X171562965Y-152836935D03*
X172667864Y-153941836D03*
X161378900Y-136262100D03*
X161315400Y-132718800D03*
X159004000Y-134649200D03*
X143002000Y-133379200D03*
X144272000Y-136427200D03*
X151892000Y-133252200D03*
X153035000Y-136427200D03*
X140525500Y-157509200D03*
X137795000Y-157255200D03*
X147002500Y-163414700D03*
X151193500Y-163414700D03*
X155321000Y-163351200D03*
X139192000Y-149635200D03*
X135572500Y-150524200D03*
X148145500Y-101883200D03*
X143510000Y-96612700D03*
X118300500Y-118710700D03*
X126619000Y-118837700D03*
X118237000Y-134649200D03*
X126555500Y-134649200D03*
X132232400Y-129010400D03*
X132232400Y-124489200D03*
X124688600Y-136757400D03*
X184518300Y-134458700D03*
X185089800Y-136109700D03*
X185534300Y-139475200D03*
X184518300Y-141507200D03*
X129095500Y-104867700D03*
X129794000Y-106328200D03*
X130302000Y-109503200D03*
X130111500Y-112932200D03*
X163652200Y-139602200D03*
X147828000Y-137646400D03*
X153543000Y-137646400D03*
X172237400Y-119053600D03*
X178790600Y-136071600D03*
X179501800Y-140440400D03*
X152285700Y-110747800D03*
X156362400Y-119320300D03*
X160362900Y-114037100D03*
X181978300Y-118672600D03*
X187667900Y-118431300D03*
X182702200Y-109782600D03*
X173977300Y-98581200D03*
X162052000Y-92739200D03*
X146431000Y-91862900D03*
X132829300Y-97298500D03*
X138988800Y-99381300D03*
X121615200Y-107864900D03*
X117944900Y-115065800D03*
X121297700Y-143805900D03*
X128739900Y-145164800D03*
X138277600Y-144136100D03*
X138353800Y-138205200D03*
X139306300Y-110354100D03*
X145732500Y-143932900D03*
X152209500Y-143971000D03*
X159499300Y-143894800D03*
X145567400Y-149914600D03*
X152336500Y-149698700D03*
X159397700Y-149597100D03*
X145338800Y-157242500D03*
X152082500Y-157052000D03*
X159461200Y-156988500D03*
X148729700Y-153470600D03*
X148755100Y-146574500D03*
X156337000Y-146434800D03*
X156337000Y-153432500D03*
X158496000Y-138141700D03*
X119697500Y-138840200D03*
X140947000Y-133402200D03*
X177292000Y-116818400D03*
X177292000Y-109046000D03*
X147167600Y-136325600D03*
X163220400Y-136427200D03*
X169062400Y-137443200D03*
X170586400Y-135309600D03*
X184861200Y-132769600D03*
X189179200Y-132922000D03*
X185775600Y-143640800D03*
X187706000Y-137697200D03*
X172720000Y-144047200D03*
X177596800Y-143539200D03*
X176631600Y-155375600D03*
X180035200Y-151819600D03*
X166116000Y-161725600D03*
X170688000Y-159338000D03*
X164896800Y-160455600D03*
X161823400Y-162182800D03*
X153974800Y-164265600D03*
X149555200Y-164265600D03*
X156413200Y-135665200D03*
X120548400Y-131804400D03*
X123139200Y-134344400D03*
X149961600Y-100003600D03*
X154025600Y-101019600D03*
X144627600Y-100206800D03*
X149301200Y-103102400D03*
X179984400Y-120831600D03*
X188722000Y-120882400D03*
X155854400Y-115243600D03*
X132029200Y-119053600D03*
X136448800Y-123828800D03*
X135788400Y-105185200D03*
X170891200Y-102848400D03*
X166116000Y-107471200D03*
X152501600Y-98174800D03*
X180797200Y-134141200D03*
X177698400Y-134141200D03*
X181076600Y-138611600D03*
X147066000Y-96193600D03*
X149758400Y-97311200D03*
X166065200Y-129620000D03*
X165404800Y-137443200D03*
X160934400Y-163427400D03*
X139344400Y-161979600D03*
X143560800Y-163198800D03*
X134467600Y-159439600D03*
X129082800Y-112195600D03*
X146100800Y-119206000D03*
X168325800Y-146079200D03*
X166116000Y-148162000D03*
X164515800Y-153978600D03*
X164922200Y-156645600D03*
X173151800Y-126749800D03*
X171780200Y-128502400D03*
X173228000Y-129467600D03*
X139039600Y-118774200D03*
X138506200Y-119841000D03*
X149225000Y-119409200D03*
X123850400Y-130128000D03*
X125780800Y-127918200D03*
X129438400Y-132998200D03*
X117398800Y-125911600D03*
X123494800Y-125048000D03*
X119329200Y-124336800D03*
X132588000Y-143259800D03*
X135610600Y-139729200D03*
X167513000Y-135512800D03*
X169672000Y-120374400D03*
X173532800Y-117275600D03*
X162153600Y-96904800D03*
X162407600Y-99317800D03*
X153466800Y-95863400D03*
X128778000Y-149482800D03*
X136652000Y-152734000D03*
X132105400Y-135614400D03*
X136220200Y-135766800D03*
X135864600Y-132185400D03*
X167386000Y-110595400D03*
X172923200Y-110646200D03*
X126339600Y-139856200D03*
X160147000Y-132744200D03*
X160274000Y-134776200D03*
X169697400Y-131067800D03*
X170942000Y-132426700D03*
X143192500Y-116297700D03*
X143827500Y-116297700D03*
X143510000Y-115726200D03*
X156908500Y-163986200D03*
X152908000Y-164049700D03*
X144780000Y-163414700D03*
X139573000Y-156556700D03*
X139192000Y-150651200D03*
X161163000Y-100676700D03*
X133146800Y-126216400D03*
X164795200Y-153038800D03*
X164566600Y-140465800D03*
X146862800Y-137646400D03*
X155219400Y-137671800D03*
X181000400Y-137011400D03*
X180263800Y-142040600D03*
X178308000Y-140415000D03*
X174421800Y-136097000D03*
X173405800Y-112906800D03*
X177749200Y-137925800D03*
X181737000Y-134496800D03*
X178409600Y-141405600D03*
X168300400Y-152353000D03*
X171005500Y-149736800D03*
X138938000Y-151667200D03*
X178562000Y-120552200D03*
X173024800Y-120984000D03*
X164465000Y-150168600D03*
X166878000Y-97108000D03*
X149860000Y-99152700D03*
X165582600Y-144428200D03*
X148336000Y-99152700D03*
X165785800Y-145266400D03*
X175463200Y-132972800D03*
X177952400Y-120120400D03*
X173609000Y-120323600D03*
X164388800Y-149330400D03*
X166065200Y-100003600D03*
X149453600Y-162995600D03*
X126263400Y-113999000D03*
X167424100Y-133176000D03*
X171767500Y-131105900D03*
X160083500Y-138522700D03*
X164973000Y-138395700D03*
X161823400Y-140669000D03*
X129349500Y-138967200D03*
X123101100Y-127740400D03*
X159425500Y-136721700D03*
X138557000Y-133696700D03*
X158572200Y-139145000D03*
X123164600Y-128896100D03*
X155651200Y-141227800D03*
X122936000Y-139538700D03*
X125222000Y-141253200D03*
X137668000Y-158398200D03*
X137604500Y-159668200D03*
X151892000Y-136554200D03*
X151638000Y-137697200D03*
X144145000Y-135665200D03*
X156591000Y-138840200D03*
X155956000Y-138713200D03*
X142938500Y-137570200D03*
X165455600Y-145977600D03*
X145745200Y-105566200D03*
X165404800Y-146917400D03*
X148666200Y-104245400D03*
X182575200Y-144504400D03*
X150114000Y-163046400D03*
X177063400Y-152353000D03*
X148132800Y-113770400D03*
X134289800Y-133379200D03*
X168833800Y-154385000D03*
X177165000Y-117885200D03*
X146558000Y-100740200D03*
X146558000Y-97057200D03*
D15*
X154305000Y-127744200D02*
X154305000Y-131093200D01*
X154305000Y-131093200D02*
X155702000Y-132490200D01*
X155702000Y-132490200D02*
X159893000Y-132490200D01*
X159893000Y-132490200D02*
X160147000Y-132744200D01*
X153035000Y-127744200D02*
X153035000Y-130839200D01*
X153035000Y-130839200D02*
X155321000Y-133125200D01*
X155321000Y-133125200D02*
X159131000Y-133125200D01*
X159131000Y-133125200D02*
X160274000Y-134268200D01*
X160274000Y-134268200D02*
X160274000Y-134776200D01*
X169697400Y-131067800D02*
X169697400Y-131182100D01*
X169697400Y-131182100D02*
X170942000Y-132426700D01*
D16*
X173202600Y-113110000D02*
X173405800Y-112906800D01*
X173202600Y-114710200D02*
X173202600Y-113110000D01*
X174294800Y-115802400D02*
X173202600Y-114710200D01*
X174421800Y-136097000D02*
X174294800Y-135970000D01*
X174294800Y-135970000D02*
X174294800Y-115802400D01*
D15*
X177749200Y-137925800D02*
X181025800Y-137925800D01*
X181025800Y-137925800D02*
X181686200Y-137265400D01*
X181686200Y-137265400D02*
X181686200Y-134547600D01*
X181686200Y-134547600D02*
X181737000Y-134496800D01*
X178409600Y-141405600D02*
X178968400Y-140846800D01*
X178968400Y-140846800D02*
X178968400Y-139399000D01*
X177749200Y-138179800D02*
X177749200Y-137925800D01*
X178968400Y-139399000D02*
X177749200Y-138179800D01*
X168300400Y-152353000D02*
X170916600Y-149736800D01*
X170916600Y-149736800D02*
X171005500Y-149736800D01*
X129095500Y-148619200D02*
X132143500Y-151667200D01*
X125730000Y-148619200D02*
X129095500Y-148619200D01*
X132143500Y-151667200D02*
X138938000Y-151667200D01*
X173024800Y-120984000D02*
X173024800Y-123524000D01*
X173024800Y-123524000D02*
X173024800Y-125454400D01*
X173024800Y-125454400D02*
X166725600Y-131753600D01*
X166725600Y-131753600D02*
X166725600Y-142523200D01*
X166725600Y-142523200D02*
X165531800Y-143717000D01*
X165531800Y-143717000D02*
X165303200Y-143717000D01*
X165303200Y-143717000D02*
X164871400Y-144148800D01*
X164871400Y-144148800D02*
X164871400Y-148644600D01*
X164871400Y-148644600D02*
X165354000Y-149127200D01*
X165354000Y-149127200D02*
X165354000Y-149279600D01*
X165354000Y-149279600D02*
X164465000Y-150168600D01*
X166878000Y-97108000D02*
X167614600Y-97108000D01*
X178536600Y-120526800D02*
X178562000Y-120552200D01*
X178536600Y-108030000D02*
X178536600Y-120526800D01*
X167614600Y-97108000D02*
X178536600Y-108030000D01*
X165582600Y-144428200D02*
X168732200Y-141278600D01*
X168732200Y-141278600D02*
X173659800Y-141278600D01*
X173659800Y-141278600D02*
X174929800Y-140008600D01*
X174929800Y-140008600D02*
X174929800Y-109325400D01*
X174929800Y-109325400D02*
X171424600Y-105820200D01*
X171424600Y-105820200D02*
X152349200Y-105820200D01*
X152349200Y-105820200D02*
X151333200Y-106836200D01*
X151333200Y-106836200D02*
X145338800Y-106836200D01*
X145338800Y-106836200D02*
X144449800Y-105947200D01*
X144449800Y-105947200D02*
X144449800Y-104829600D01*
X144449800Y-104829600D02*
X145643600Y-103635800D01*
X145643600Y-103635800D02*
X146710400Y-103635800D01*
X146710400Y-103635800D02*
X147294600Y-103051600D01*
X147294600Y-103051600D02*
X147294600Y-99241600D01*
X147294600Y-99241600D02*
X147955000Y-98581200D01*
X149288500Y-98581200D02*
X149860000Y-99152700D01*
X147955000Y-98581200D02*
X149288500Y-98581200D01*
X165785800Y-145266400D02*
X167005000Y-144047200D01*
X167005000Y-144047200D02*
X167005000Y-143793200D01*
X167005000Y-143793200D02*
X169037000Y-141761200D01*
X169037000Y-141761200D02*
X173939200Y-141761200D01*
X173939200Y-141761200D02*
X175463200Y-140237200D01*
X175463200Y-140237200D02*
X175463200Y-132972800D01*
X175463200Y-109046000D02*
X171729400Y-105312200D01*
X171729400Y-105312200D02*
X149225000Y-105312200D01*
X149225000Y-105312200D02*
X148234400Y-106302800D01*
X148234400Y-106302800D02*
X145592800Y-106302800D01*
X145592800Y-106302800D02*
X144957800Y-105667800D01*
X144957800Y-105667800D02*
X144957800Y-105185200D01*
X144957800Y-105185200D02*
X145948400Y-104194600D01*
X145948400Y-104194600D02*
X147091400Y-104194600D01*
X147091400Y-104194600D02*
X149301200Y-101984800D01*
X149301200Y-100117900D02*
X148336000Y-99152700D01*
X149301200Y-101984800D02*
X149301200Y-100117900D01*
X175463200Y-132972800D02*
X175463200Y-109046000D01*
X172516800Y-102873800D02*
X177977800Y-108334800D01*
X177977800Y-108334800D02*
X177977800Y-120095000D01*
X177977800Y-120095000D02*
X177952400Y-120120400D01*
X173609000Y-120323600D02*
X172948600Y-120323600D01*
X172948600Y-120323600D02*
X172466000Y-120806200D01*
X172466000Y-120806200D02*
X172466000Y-125302000D01*
X172466000Y-125302000D02*
X166217600Y-131550400D01*
X166217600Y-131550400D02*
X166217600Y-142167600D01*
X166217600Y-142167600D02*
X164363400Y-144021800D01*
X164388800Y-144047200D02*
X164363400Y-144021800D01*
X164388800Y-149330400D02*
X164388800Y-144047200D01*
X172516800Y-102873800D02*
X169951400Y-100308400D01*
X169951400Y-100308400D02*
X166370000Y-100308400D01*
X166370000Y-100308400D02*
X166065200Y-100003600D01*
X149453600Y-162995600D02*
X149123400Y-162665400D01*
X149123400Y-162665400D02*
X141224000Y-162665400D01*
X141224000Y-162665400D02*
X138836400Y-160277800D01*
X138836400Y-160277800D02*
X138836400Y-154029400D01*
X138836400Y-154029400D02*
X139801600Y-153064200D01*
X139801600Y-153064200D02*
X139801600Y-148416000D01*
X139801600Y-148416000D02*
X139801600Y-143310600D01*
X139801600Y-143310600D02*
X139801600Y-143183600D01*
X139801600Y-143183600D02*
X138811000Y-142193000D01*
X138811000Y-142193000D02*
X124002800Y-142193000D01*
X124002800Y-142193000D02*
X122301000Y-140491200D01*
X122301000Y-140491200D02*
X122301000Y-117555000D01*
X122301000Y-117555000D02*
X125857000Y-113999000D01*
X125857000Y-113999000D02*
X126263400Y-113999000D01*
D17*
X167424100Y-133176000D02*
X167424100Y-132185400D01*
X167424100Y-132185400D02*
X168503600Y-131105900D01*
X168503600Y-131105900D02*
X168516300Y-131105900D01*
X168516300Y-131105900D02*
X169545000Y-130077200D01*
X170738800Y-130077200D02*
X171767500Y-131105900D01*
X169545000Y-130077200D02*
X170738800Y-130077200D01*
D15*
X160083500Y-138522700D02*
X164846000Y-138522700D01*
X164846000Y-138522700D02*
X164973000Y-138395700D01*
X129844800Y-140364200D02*
X130149600Y-140669000D01*
X130149600Y-140669000D02*
X161823400Y-140669000D01*
X129844800Y-140364200D02*
X129844800Y-139462500D01*
X129844800Y-139462500D02*
X129349500Y-138967200D01*
X128181100Y-133226800D02*
X129159000Y-134204700D01*
X128181100Y-133226800D02*
X128181100Y-132045700D01*
X128181100Y-132045700D02*
X123875800Y-127740400D01*
X123875800Y-127740400D02*
X123101100Y-127740400D01*
X155742500Y-136721700D02*
X153225500Y-134204700D01*
X159425500Y-136721700D02*
X155742500Y-136721700D01*
X138557000Y-133696700D02*
X138493500Y-133760200D01*
X129159000Y-134204700D02*
X138493500Y-134204700D01*
X138493500Y-133760200D02*
X138493500Y-134204700D01*
X138493500Y-134204700D02*
X153225500Y-134204700D01*
X158572200Y-139145000D02*
X156768800Y-137341600D01*
X156768800Y-137341600D02*
X155714700Y-137341600D01*
X155714700Y-137341600D02*
X153047700Y-134674600D01*
X153047700Y-134674600D02*
X128905000Y-134674600D01*
X128905000Y-134674600D02*
X127622300Y-133391900D01*
X127622300Y-133391900D02*
X127622300Y-132210800D01*
X127622300Y-132210800D02*
X124307600Y-128896100D01*
X124307600Y-128896100D02*
X123164600Y-128896100D01*
X155498800Y-141253200D02*
X155524200Y-141227800D01*
X155524200Y-141227800D02*
X155651200Y-141227800D01*
X122936000Y-139538700D02*
X124650500Y-141253200D01*
X124650500Y-141253200D02*
X125222000Y-141253200D01*
X125222000Y-141253200D02*
X155498800Y-141253200D01*
X137642600Y-158398200D02*
X135051800Y-155807400D01*
X137668000Y-158398200D02*
X137642600Y-158398200D01*
D18*
X135073205Y-155803405D02*
X135051800Y-155807400D01*
D15*
X135073205Y-155803405D02*
X132914205Y-155803405D01*
X137591800Y-159668200D02*
X135305800Y-157382200D01*
X137604500Y-159668200D02*
X137591800Y-159668200D01*
D18*
X135318500Y-157382200D02*
X135305800Y-157382200D01*
D15*
X135318500Y-157382200D02*
X132461000Y-157382200D01*
X131118154Y-156039354D02*
X131118154Y-154007354D01*
X132461000Y-157382200D02*
X131118154Y-156039354D01*
X151892000Y-136554200D02*
X151638000Y-136808200D01*
X151638000Y-136808200D02*
X151638000Y-137697200D01*
X144145000Y-135665200D02*
X143764000Y-136046200D01*
X143764000Y-136046200D02*
X143764000Y-136808200D01*
X143764000Y-136808200D02*
X145161000Y-138205200D01*
X145161000Y-138205200D02*
X156210000Y-138205200D01*
X156210000Y-138205200D02*
X156591000Y-138586200D01*
X156591000Y-138586200D02*
X156591000Y-138840200D01*
X144970500Y-138649700D02*
X155892500Y-138649700D01*
X155892500Y-138649700D02*
X155956000Y-138713200D01*
X144970500Y-138649700D02*
X144018000Y-138649700D01*
X144018000Y-138649700D02*
X142938500Y-137570200D01*
X165455600Y-145977600D02*
X165608000Y-146130000D01*
X165608000Y-146130000D02*
X166192200Y-146130000D01*
X166192200Y-146130000D02*
X167563800Y-144758400D01*
X167563800Y-144758400D02*
X167563800Y-143971000D01*
X167563800Y-143971000D02*
X169189400Y-142345400D01*
X169189400Y-142345400D02*
X174066200Y-142345400D01*
X174066200Y-142345400D02*
X176047400Y-140364200D01*
X176047400Y-140364200D02*
X176047400Y-108893600D01*
X176047400Y-108893600D02*
X171907200Y-104753400D01*
X171907200Y-104753400D02*
X149098000Y-104753400D01*
X149098000Y-104753400D02*
X148285200Y-105566200D01*
X148285200Y-105566200D02*
X145745200Y-105566200D01*
X165404800Y-146917400D02*
X165430200Y-146942800D01*
X165430200Y-146942800D02*
X166319200Y-146942800D01*
X166319200Y-146942800D02*
X168148000Y-145114000D01*
X168148000Y-145114000D02*
X168148000Y-144098000D01*
X168148000Y-144098000D02*
X169341800Y-142904200D01*
X169341800Y-142904200D02*
X174421800Y-142904200D01*
X174421800Y-142904200D02*
X176555400Y-140770600D01*
X176555400Y-140770600D02*
X176555400Y-108639600D01*
X176555400Y-108639600D02*
X172135800Y-104220000D01*
X172135800Y-104220000D02*
X148691600Y-104220000D01*
X148691600Y-104220000D02*
X148666200Y-104245400D01*
X150215600Y-163046400D02*
X151688800Y-161573200D01*
X150114000Y-163046400D02*
X150215600Y-163046400D01*
X170942000Y-155883600D02*
X173532800Y-155883600D01*
X182575200Y-146841200D02*
X182575200Y-144504400D01*
X173532800Y-155883600D02*
X177063400Y-152353000D01*
X151688800Y-161573200D02*
X165252400Y-161573200D01*
X165252400Y-161573200D02*
X170942000Y-155883600D01*
X177063400Y-152353000D02*
X182575200Y-146841200D01*
X148132800Y-113770400D02*
X147320000Y-112957600D01*
X147320000Y-112957600D02*
X139141200Y-112957600D01*
X139141200Y-112957600D02*
X134289800Y-117809000D01*
X134289800Y-117809000D02*
X134289800Y-133379200D01*
X168833800Y-154385000D02*
X168833800Y-152810200D01*
X168833800Y-152810200D02*
X173863000Y-147781000D01*
X173863000Y-147781000D02*
X173863000Y-144402800D01*
X173863000Y-144402800D02*
X177063400Y-141202400D01*
X177063400Y-141202400D02*
X177063400Y-117986800D01*
X177063400Y-117986800D02*
X177165000Y-117885200D01*
X146558000Y-100740200D02*
X144653000Y-98835200D01*
X144653000Y-98835200D02*
X144653000Y-97501700D01*
X144653000Y-97501700D02*
X145097500Y-97057200D01*
X145097500Y-97057200D02*
X146558000Y-97057200D01*
D19*
G36*
X162552278Y-163034242D02*
G01*
X160205752Y-163614282D01*
X157826677Y-164041686D01*
X157784800Y-164046446D01*
X157784800Y-163899892D01*
X157751124Y-163730593D01*
X157685067Y-163571116D01*
X157589167Y-163427591D01*
X157467109Y-163305533D01*
X157323584Y-163209633D01*
X157164107Y-163143576D01*
X156994808Y-163109900D01*
X156822192Y-163109900D01*
X156652893Y-163143576D01*
X156493416Y-163209633D01*
X156349891Y-163305533D01*
X156227833Y-163427591D01*
X156131933Y-163571116D01*
X156065876Y-163730593D01*
X156032200Y-163899892D01*
X156032200Y-164072508D01*
X156065876Y-164241807D01*
X156065884Y-164241825D01*
X155424983Y-164314673D01*
X153712238Y-164397980D01*
X153750624Y-164305307D01*
X153784300Y-164136008D01*
X153784300Y-163963392D01*
X153750624Y-163794093D01*
X153684567Y-163634616D01*
X153588667Y-163491091D01*
X153466609Y-163369033D01*
X153323084Y-163273133D01*
X153163607Y-163207076D01*
X152994308Y-163173400D01*
X152821692Y-163173400D01*
X152652393Y-163207076D01*
X152492916Y-163273133D01*
X152349391Y-163369033D01*
X152227333Y-163491091D01*
X152131433Y-163634616D01*
X152065376Y-163794093D01*
X152031700Y-163963392D01*
X152031700Y-164136008D01*
X152065376Y-164305307D01*
X152111949Y-164417746D01*
X150593828Y-164393490D01*
X148184499Y-164198991D01*
X145792749Y-163849418D01*
X145568228Y-163801631D01*
X145622624Y-163670307D01*
X145656300Y-163501008D01*
X145656300Y-163414700D01*
X148679716Y-163414700D01*
X148772933Y-163554209D01*
X148894991Y-163676267D01*
X149038516Y-163772167D01*
X149197993Y-163838224D01*
X149367292Y-163871900D01*
X149539908Y-163871900D01*
X149709207Y-163838224D01*
X149722478Y-163832727D01*
X149858393Y-163889024D01*
X150027692Y-163922700D01*
X150200308Y-163922700D01*
X150369607Y-163889024D01*
X150529084Y-163822967D01*
X150672609Y-163727067D01*
X150794667Y-163605009D01*
X150890567Y-163461484D01*
X150912050Y-163409619D01*
X151999170Y-162322500D01*
X164798060Y-162322500D01*
X162552278Y-163034242D01*
G37*
X162552278Y-163034242D02*
X160205752Y-163614282D01*
X157826677Y-164041686D01*
X157784800Y-164046446D01*
X157784800Y-163899892D01*
X157751124Y-163730593D01*
X157685067Y-163571116D01*
X157589167Y-163427591D01*
X157467109Y-163305533D01*
X157323584Y-163209633D01*
X157164107Y-163143576D01*
X156994808Y-163109900D01*
X156822192Y-163109900D01*
X156652893Y-163143576D01*
X156493416Y-163209633D01*
X156349891Y-163305533D01*
X156227833Y-163427591D01*
X156131933Y-163571116D01*
X156065876Y-163730593D01*
X156032200Y-163899892D01*
X156032200Y-164072508D01*
X156065876Y-164241807D01*
X156065884Y-164241825D01*
X155424983Y-164314673D01*
X153712238Y-164397980D01*
X153750624Y-164305307D01*
X153784300Y-164136008D01*
X153784300Y-163963392D01*
X153750624Y-163794093D01*
X153684567Y-163634616D01*
X153588667Y-163491091D01*
X153466609Y-163369033D01*
X153323084Y-163273133D01*
X153163607Y-163207076D01*
X152994308Y-163173400D01*
X152821692Y-163173400D01*
X152652393Y-163207076D01*
X152492916Y-163273133D01*
X152349391Y-163369033D01*
X152227333Y-163491091D01*
X152131433Y-163634616D01*
X152065376Y-163794093D01*
X152031700Y-163963392D01*
X152031700Y-164136008D01*
X152065376Y-164305307D01*
X152111949Y-164417746D01*
X150593828Y-164393490D01*
X148184499Y-164198991D01*
X145792749Y-163849418D01*
X145568228Y-163801631D01*
X145622624Y-163670307D01*
X145656300Y-163501008D01*
X145656300Y-163414700D01*
X148679716Y-163414700D01*
X148772933Y-163554209D01*
X148894991Y-163676267D01*
X149038516Y-163772167D01*
X149197993Y-163838224D01*
X149367292Y-163871900D01*
X149539908Y-163871900D01*
X149709207Y-163838224D01*
X149722478Y-163832727D01*
X149858393Y-163889024D01*
X150027692Y-163922700D01*
X150200308Y-163922700D01*
X150369607Y-163889024D01*
X150529084Y-163822967D01*
X150672609Y-163727067D01*
X150794667Y-163605009D01*
X150890567Y-163461484D01*
X150912050Y-163409619D01*
X151999170Y-162322500D01*
X164798060Y-162322500D01*
X162552278Y-163034242D01*
G36*
X189102964Y-134377519D02*
G01*
X188550373Y-136730668D01*
X187847078Y-139043257D01*
X186996017Y-141305627D01*
X186000732Y-143508367D01*
X184865365Y-145642302D01*
X183594670Y-147698501D01*
X182193919Y-149668431D01*
X180668979Y-151543841D01*
X179026180Y-153316951D01*
X177272395Y-154980339D01*
X175414909Y-156527094D01*
X173461478Y-157950759D01*
X171420272Y-159245382D01*
X169299744Y-160405599D01*
X167108787Y-161426544D01*
X166043853Y-161841416D01*
X171252370Y-156632900D01*
X173496005Y-156632900D01*
X173532800Y-156636524D01*
X173569595Y-156632900D01*
X173569606Y-156632900D01*
X173679688Y-156622058D01*
X173820932Y-156579212D01*
X173951103Y-156509634D01*
X174065198Y-156415998D01*
X174088663Y-156387406D01*
X177270871Y-153205199D01*
X177319007Y-153195624D01*
X177478484Y-153129567D01*
X177622009Y-153033667D01*
X177744067Y-152911609D01*
X177839967Y-152768084D01*
X177906024Y-152608607D01*
X177915599Y-152560470D01*
X183079013Y-147397057D01*
X183107598Y-147373598D01*
X183201234Y-147259503D01*
X183270812Y-147129332D01*
X183313658Y-146988088D01*
X183324500Y-146878006D01*
X183324500Y-146877997D01*
X183328124Y-146841201D01*
X183324500Y-146804405D01*
X183324500Y-144960292D01*
X183351767Y-144919484D01*
X183417824Y-144760007D01*
X183451500Y-144590708D01*
X183451500Y-144418092D01*
X183417824Y-144248793D01*
X183351767Y-144089316D01*
X183255867Y-143945791D01*
X183133809Y-143823733D01*
X182990284Y-143727833D01*
X182830807Y-143661776D01*
X182661508Y-143628100D01*
X182488892Y-143628100D01*
X182319593Y-143661776D01*
X182160116Y-143727833D01*
X182016591Y-143823733D01*
X181894533Y-143945791D01*
X181798633Y-144089316D01*
X181732576Y-144248793D01*
X181698900Y-144418092D01*
X181698900Y-144590708D01*
X181732576Y-144760007D01*
X181798633Y-144919484D01*
X181825901Y-144960293D01*
X181825900Y-146530830D01*
X178704316Y-149652415D01*
X178780920Y-149426390D01*
X178803664Y-149312050D01*
X178640580Y-149029379D01*
X177032649Y-149029379D01*
X177032649Y-150637310D01*
X177315320Y-150800394D01*
X177644787Y-150711944D01*
X176855930Y-151500801D01*
X176807793Y-151510376D01*
X176648316Y-151576433D01*
X176504791Y-151672333D01*
X176382733Y-151794391D01*
X176286833Y-151937916D01*
X176220776Y-152097393D01*
X176211201Y-152145529D01*
X175593046Y-152763684D01*
X175669650Y-152537660D01*
X175692394Y-152423320D01*
X175529310Y-152140649D01*
X173921379Y-152140649D01*
X173921379Y-153748580D01*
X174204050Y-153911664D01*
X174533517Y-153823214D01*
X173222431Y-155134300D01*
X170978795Y-155134300D01*
X170941999Y-155130676D01*
X170905203Y-155134300D01*
X170905194Y-155134300D01*
X170795112Y-155145142D01*
X170653868Y-155187988D01*
X170523697Y-155257566D01*
X170508646Y-155269918D01*
X170444884Y-155322247D01*
X170409602Y-155351202D01*
X170386141Y-155379789D01*
X164942031Y-160823900D01*
X151725595Y-160823900D01*
X151688799Y-160820276D01*
X151652003Y-160823900D01*
X151651994Y-160823900D01*
X151541912Y-160834742D01*
X151400668Y-160877588D01*
X151270497Y-160947166D01*
X151250533Y-160963550D01*
X151186309Y-161016258D01*
X151156402Y-161040802D01*
X151132941Y-161069389D01*
X150032231Y-162170100D01*
X150027692Y-162170100D01*
X149858393Y-162203776D01*
X149845122Y-162209273D01*
X149709207Y-162152976D01*
X149664969Y-162144176D01*
X149655798Y-162133002D01*
X149541703Y-162039366D01*
X149411532Y-161969788D01*
X149270288Y-161926942D01*
X149160206Y-161916100D01*
X149160195Y-161916100D01*
X149123400Y-161912476D01*
X149086605Y-161916100D01*
X141534370Y-161916100D01*
X139585700Y-159967431D01*
X139585700Y-157433000D01*
X139659308Y-157433000D01*
X139828607Y-157399324D01*
X139988084Y-157333267D01*
X140131609Y-157237367D01*
X140253667Y-157115309D01*
X140349567Y-156971784D01*
X140415624Y-156812307D01*
X140449300Y-156643008D01*
X140449300Y-156470392D01*
X140415624Y-156301093D01*
X140349567Y-156141616D01*
X140253667Y-155998091D01*
X140131609Y-155876033D01*
X139988084Y-155780133D01*
X139828607Y-155714076D01*
X139659308Y-155680400D01*
X139585700Y-155680400D01*
X139585700Y-154339769D01*
X140305412Y-153620058D01*
X140333998Y-153596598D01*
X140361470Y-153563124D01*
X140427634Y-153482504D01*
X140497212Y-153352332D01*
X140497212Y-153352331D01*
X140540058Y-153211088D01*
X140550900Y-153101006D01*
X140550900Y-153100996D01*
X140554524Y-153064200D01*
X140550900Y-153027404D01*
X140550900Y-152952492D01*
X163918900Y-152952492D01*
X163918900Y-153125108D01*
X163952576Y-153294407D01*
X164018633Y-153453884D01*
X164114533Y-153597409D01*
X164236591Y-153719467D01*
X164380116Y-153815367D01*
X164539593Y-153881424D01*
X164708892Y-153915100D01*
X164881508Y-153915100D01*
X165050807Y-153881424D01*
X165210284Y-153815367D01*
X165353809Y-153719467D01*
X165475867Y-153597409D01*
X165571767Y-153453884D01*
X165637824Y-153294407D01*
X165671500Y-153125108D01*
X165671500Y-152952492D01*
X165637824Y-152783193D01*
X165571767Y-152623716D01*
X165475867Y-152480191D01*
X165353809Y-152358133D01*
X165210284Y-152262233D01*
X165050807Y-152196176D01*
X164881508Y-152162500D01*
X164708892Y-152162500D01*
X164539593Y-152196176D01*
X164380116Y-152262233D01*
X164236591Y-152358133D01*
X164114533Y-152480191D01*
X164018633Y-152623716D01*
X163952576Y-152783193D01*
X163918900Y-152952492D01*
X140550900Y-152952492D01*
X140550900Y-143220396D01*
X140554524Y-143183600D01*
X140550900Y-143146804D01*
X140550900Y-143146795D01*
X140540058Y-143036713D01*
X140508129Y-142931458D01*
X140497212Y-142895468D01*
X140427634Y-142765296D01*
X140357460Y-142679790D01*
X140357458Y-142679788D01*
X140333998Y-142651202D01*
X140305411Y-142627741D01*
X139680169Y-142002500D01*
X155233322Y-142002500D01*
X155236116Y-142004367D01*
X155395593Y-142070424D01*
X155564892Y-142104100D01*
X155737508Y-142104100D01*
X155906807Y-142070424D01*
X156066284Y-142004367D01*
X156209809Y-141908467D01*
X156331867Y-141786409D01*
X156427767Y-141642884D01*
X156493824Y-141483407D01*
X156506775Y-141418300D01*
X161367508Y-141418300D01*
X161408316Y-141445567D01*
X161567793Y-141511624D01*
X161737092Y-141545300D01*
X161909708Y-141545300D01*
X162079007Y-141511624D01*
X162238484Y-141445567D01*
X162382009Y-141349667D01*
X162504067Y-141227609D01*
X162599967Y-141084084D01*
X162666024Y-140924607D01*
X162699700Y-140755308D01*
X162699700Y-140582692D01*
X162666024Y-140413393D01*
X162599967Y-140253916D01*
X162504067Y-140110391D01*
X162420300Y-140026624D01*
X162420300Y-139272000D01*
X163741100Y-139272000D01*
X163741100Y-140168852D01*
X163723976Y-140210193D01*
X163690300Y-140379492D01*
X163690300Y-140552108D01*
X163723976Y-140721407D01*
X163790033Y-140880884D01*
X163885933Y-141024409D01*
X164007991Y-141146467D01*
X164151516Y-141242367D01*
X164310993Y-141308424D01*
X164417312Y-141329572D01*
X164443325Y-141337463D01*
X164470376Y-141340128D01*
X164480292Y-141342100D01*
X165468301Y-141342100D01*
X165468301Y-141857228D01*
X163859594Y-143465937D01*
X163831002Y-143489402D01*
X163745003Y-143594191D01*
X163737366Y-143603497D01*
X163667788Y-143733669D01*
X163624943Y-143874913D01*
X163610476Y-144021800D01*
X163624943Y-144168687D01*
X163639501Y-144216679D01*
X163639500Y-148874508D01*
X163612233Y-148915316D01*
X163546176Y-149074793D01*
X163512500Y-149244092D01*
X163512500Y-149416708D01*
X163546176Y-149586007D01*
X163612233Y-149745484D01*
X163661326Y-149818958D01*
X163622376Y-149912993D01*
X163588700Y-150082292D01*
X163588700Y-150254908D01*
X163622376Y-150424207D01*
X163688433Y-150583684D01*
X163784333Y-150727209D01*
X163906391Y-150849267D01*
X164049916Y-150945167D01*
X164209393Y-151011224D01*
X164378692Y-151044900D01*
X164551308Y-151044900D01*
X164720607Y-151011224D01*
X164880084Y-150945167D01*
X165023609Y-150849267D01*
X165145667Y-150727209D01*
X165241567Y-150583684D01*
X165307624Y-150424207D01*
X165317199Y-150376070D01*
X165857811Y-149835459D01*
X165886398Y-149811998D01*
X165916844Y-149774900D01*
X165980034Y-149697904D01*
X166049612Y-149567732D01*
X166071488Y-149495616D01*
X166092458Y-149426487D01*
X166103300Y-149316405D01*
X166103300Y-149316396D01*
X166106924Y-149279600D01*
X166103300Y-149242804D01*
X166103300Y-149163995D01*
X166106924Y-149127199D01*
X166103300Y-149090403D01*
X166103300Y-149090394D01*
X166092458Y-148980312D01*
X166049612Y-148839068D01*
X165980034Y-148708897D01*
X165886398Y-148594802D01*
X165857807Y-148571338D01*
X165620700Y-148334231D01*
X165620700Y-147767922D01*
X165660407Y-147760024D01*
X165819884Y-147693967D01*
X165822678Y-147692100D01*
X166282405Y-147692100D01*
X166319200Y-147695724D01*
X166355995Y-147692100D01*
X166356006Y-147692100D01*
X166466088Y-147681258D01*
X166607332Y-147638412D01*
X166737503Y-147568834D01*
X166851598Y-147475198D01*
X166875063Y-147446606D01*
X168352089Y-145969582D01*
X168486102Y-146170146D01*
X168789854Y-146473898D01*
X169147028Y-146712554D01*
X169543899Y-146876943D01*
X169965215Y-146960748D01*
X170394785Y-146960748D01*
X170816101Y-146876943D01*
X171212972Y-146712554D01*
X171570146Y-146473898D01*
X171873898Y-146170146D01*
X172112554Y-145812972D01*
X172276943Y-145416101D01*
X172360748Y-144994785D01*
X172360748Y-144565215D01*
X172276943Y-144143899D01*
X172112554Y-143747028D01*
X172050061Y-143653500D01*
X173552631Y-143653500D01*
X173359189Y-143846942D01*
X173330603Y-143870402D01*
X173307143Y-143898988D01*
X173307140Y-143898991D01*
X173236966Y-143984497D01*
X173167388Y-144114669D01*
X173140733Y-144202540D01*
X173124543Y-144255912D01*
X173119223Y-144309931D01*
X173110076Y-144402800D01*
X173113701Y-144439605D01*
X173113700Y-147470630D01*
X171542582Y-149041749D01*
X171420584Y-148960233D01*
X171261107Y-148894176D01*
X171091808Y-148860500D01*
X170919192Y-148860500D01*
X170749893Y-148894176D01*
X170590416Y-148960233D01*
X170446891Y-149056133D01*
X170324833Y-149178191D01*
X170228933Y-149321716D01*
X170198471Y-149395258D01*
X168092930Y-151500801D01*
X168044793Y-151510376D01*
X167885316Y-151576433D01*
X167741791Y-151672333D01*
X167619733Y-151794391D01*
X167523833Y-151937916D01*
X167457776Y-152097393D01*
X167424100Y-152266692D01*
X167424100Y-152439308D01*
X167457776Y-152608607D01*
X167523833Y-152768084D01*
X167619733Y-152911609D01*
X167741791Y-153033667D01*
X167885316Y-153129567D01*
X168044793Y-153195624D01*
X168084501Y-153203522D01*
X168084500Y-153929107D01*
X168057233Y-153969916D01*
X167991176Y-154129393D01*
X167957500Y-154298692D01*
X167957500Y-154471308D01*
X167991176Y-154640607D01*
X168057233Y-154800084D01*
X168153133Y-154943609D01*
X168275191Y-155065667D01*
X168418716Y-155161567D01*
X168578193Y-155227624D01*
X168747492Y-155261300D01*
X168920108Y-155261300D01*
X169089407Y-155227624D01*
X169248884Y-155161567D01*
X169392409Y-155065667D01*
X169514467Y-154943609D01*
X169610367Y-154800084D01*
X169676424Y-154640607D01*
X169710100Y-154471308D01*
X169710100Y-154298692D01*
X169676424Y-154129393D01*
X169610367Y-153969916D01*
X169583100Y-153929108D01*
X169583100Y-153120569D01*
X170280349Y-152423320D01*
X172124964Y-152423320D01*
X172216862Y-152765630D01*
X172373775Y-153083434D01*
X172589674Y-153364520D01*
X172856261Y-153598085D01*
X173163292Y-153775153D01*
X173498968Y-153888920D01*
X173613308Y-153911664D01*
X173895979Y-153748580D01*
X173895979Y-152140649D01*
X172288048Y-152140649D01*
X172124964Y-152423320D01*
X170280349Y-152423320D01*
X170871091Y-151832578D01*
X172124964Y-151832578D01*
X172288048Y-152115249D01*
X173895979Y-152115249D01*
X173895979Y-150507318D01*
X173921379Y-150507318D01*
X173921379Y-152115249D01*
X175529310Y-152115249D01*
X175692394Y-151832578D01*
X175600496Y-151490268D01*
X175443583Y-151172464D01*
X175227684Y-150891378D01*
X174961097Y-150657813D01*
X174654066Y-150480745D01*
X174318390Y-150366978D01*
X174204050Y-150344234D01*
X173921379Y-150507318D01*
X173895979Y-150507318D01*
X173613308Y-150344234D01*
X173270998Y-150436132D01*
X172953194Y-150593045D01*
X172672108Y-150808944D01*
X172438543Y-151075531D01*
X172261475Y-151382562D01*
X172147708Y-151718238D01*
X172124964Y-151832578D01*
X170871091Y-151832578D01*
X173391619Y-149312050D01*
X175236234Y-149312050D01*
X175328132Y-149654360D01*
X175485045Y-149972164D01*
X175700944Y-150253250D01*
X175967531Y-150486815D01*
X176274562Y-150663883D01*
X176610238Y-150777650D01*
X176724578Y-150800394D01*
X177007249Y-150637310D01*
X177007249Y-149029379D01*
X175399318Y-149029379D01*
X175236234Y-149312050D01*
X173391619Y-149312050D01*
X173982361Y-148721308D01*
X175236234Y-148721308D01*
X175399318Y-149003979D01*
X177007249Y-149003979D01*
X177007249Y-147396048D01*
X177032649Y-147396048D01*
X177032649Y-149003979D01*
X178640580Y-149003979D01*
X178803664Y-148721308D01*
X178711766Y-148378998D01*
X178554853Y-148061194D01*
X178338954Y-147780108D01*
X178072367Y-147546543D01*
X177765336Y-147369475D01*
X177429660Y-147255708D01*
X177315320Y-147232964D01*
X177032649Y-147396048D01*
X177007249Y-147396048D01*
X176724578Y-147232964D01*
X176382268Y-147324862D01*
X176064464Y-147481775D01*
X175783378Y-147697674D01*
X175549813Y-147964261D01*
X175372745Y-148271292D01*
X175258978Y-148606968D01*
X175236234Y-148721308D01*
X173982361Y-148721308D01*
X174366813Y-148336857D01*
X174395398Y-148313398D01*
X174418860Y-148284810D01*
X174489034Y-148199304D01*
X174558612Y-148069132D01*
X174567851Y-148038675D01*
X174601458Y-147927888D01*
X174612300Y-147817806D01*
X174612300Y-147817796D01*
X174615924Y-147781000D01*
X174612300Y-147744204D01*
X174612300Y-144713169D01*
X177567213Y-141758257D01*
X177595798Y-141734798D01*
X177596901Y-141733454D01*
X177633033Y-141820684D01*
X177728933Y-141964209D01*
X177850991Y-142086267D01*
X177994516Y-142182167D01*
X178153993Y-142248224D01*
X178323292Y-142281900D01*
X178495908Y-142281900D01*
X178665207Y-142248224D01*
X178824684Y-142182167D01*
X178968209Y-142086267D01*
X179090267Y-141964209D01*
X179096893Y-141954292D01*
X179387500Y-141954292D01*
X179387500Y-142126908D01*
X179421176Y-142296207D01*
X179487233Y-142455684D01*
X179583133Y-142599209D01*
X179705191Y-142721267D01*
X179848716Y-142817167D01*
X180008193Y-142883224D01*
X180177492Y-142916900D01*
X180350108Y-142916900D01*
X180519407Y-142883224D01*
X180678884Y-142817167D01*
X180822409Y-142721267D01*
X180944467Y-142599209D01*
X181040367Y-142455684D01*
X181106424Y-142296207D01*
X181140100Y-142126908D01*
X181140100Y-141954292D01*
X181106424Y-141784993D01*
X181040367Y-141625516D01*
X180944467Y-141481991D01*
X180822409Y-141359933D01*
X180678884Y-141264033D01*
X180519407Y-141197976D01*
X180350108Y-141164300D01*
X180177492Y-141164300D01*
X180008193Y-141197976D01*
X179848716Y-141264033D01*
X179705191Y-141359933D01*
X179583133Y-141481991D01*
X179487233Y-141625516D01*
X179421176Y-141784993D01*
X179387500Y-141954292D01*
X179096893Y-141954292D01*
X179186167Y-141820684D01*
X179252224Y-141661207D01*
X179261799Y-141613071D01*
X179472217Y-141402654D01*
X179500798Y-141379198D01*
X179524254Y-141350617D01*
X179524261Y-141350610D01*
X179594434Y-141265103D01*
X179664012Y-141134932D01*
X179706858Y-140993688D01*
X179708634Y-140975658D01*
X179717700Y-140883606D01*
X179717700Y-140883598D01*
X179721324Y-140846800D01*
X179717700Y-140810002D01*
X179717700Y-139435795D01*
X179721324Y-139398999D01*
X179717700Y-139362203D01*
X179717700Y-139362194D01*
X179706858Y-139252112D01*
X179664012Y-139110868D01*
X179599694Y-138990537D01*
X179594434Y-138980696D01*
X179524260Y-138895190D01*
X179524258Y-138895188D01*
X179500798Y-138866602D01*
X179472211Y-138843141D01*
X179304170Y-138675100D01*
X180989005Y-138675100D01*
X181025800Y-138678724D01*
X181062595Y-138675100D01*
X181062606Y-138675100D01*
X181172688Y-138664258D01*
X181313932Y-138621412D01*
X181444103Y-138551834D01*
X181558198Y-138458198D01*
X181581662Y-138429607D01*
X182190017Y-137821253D01*
X182218598Y-137797798D01*
X182242054Y-137769217D01*
X182242061Y-137769210D01*
X182312234Y-137683703D01*
X182381812Y-137553532D01*
X182424658Y-137412288D01*
X182426518Y-137393402D01*
X182435500Y-137302206D01*
X182435500Y-137302198D01*
X182439124Y-137265400D01*
X182435500Y-137228602D01*
X182435500Y-135028720D01*
X182513567Y-134911884D01*
X182579624Y-134752407D01*
X182613300Y-134583108D01*
X182613300Y-134410492D01*
X182579624Y-134241193D01*
X182513567Y-134081716D01*
X182417667Y-133938191D01*
X182295609Y-133816133D01*
X182152084Y-133720233D01*
X181992607Y-133654176D01*
X181823308Y-133620500D01*
X181650692Y-133620500D01*
X181481393Y-133654176D01*
X181321916Y-133720233D01*
X181178391Y-133816133D01*
X181056333Y-133938191D01*
X180960433Y-134081716D01*
X180894376Y-134241193D01*
X180860700Y-134410492D01*
X180860700Y-134583108D01*
X180894376Y-134752407D01*
X180936901Y-134855072D01*
X180936900Y-136135100D01*
X180914092Y-136135100D01*
X180744793Y-136168776D01*
X180585316Y-136234833D01*
X180441791Y-136330733D01*
X180319733Y-136452791D01*
X180223833Y-136596316D01*
X180157776Y-136755793D01*
X180124100Y-136925092D01*
X180124100Y-137097708D01*
X180139773Y-137176500D01*
X178205092Y-137176500D01*
X178164284Y-137149233D01*
X178004807Y-137083176D01*
X177835508Y-137049500D01*
X177812700Y-137049500D01*
X177812700Y-132729181D01*
X177831799Y-132727300D01*
X189379571Y-132727300D01*
X189102964Y-134377519D01*
G37*
X189102964Y-134377519D02*
X188550373Y-136730668D01*
X187847078Y-139043257D01*
X186996017Y-141305627D01*
X186000732Y-143508367D01*
X184865365Y-145642302D01*
X183594670Y-147698501D01*
X182193919Y-149668431D01*
X180668979Y-151543841D01*
X179026180Y-153316951D01*
X177272395Y-154980339D01*
X175414909Y-156527094D01*
X173461478Y-157950759D01*
X171420272Y-159245382D01*
X169299744Y-160405599D01*
X167108787Y-161426544D01*
X166043853Y-161841416D01*
X171252370Y-156632900D01*
X173496005Y-156632900D01*
X173532800Y-156636524D01*
X173569595Y-156632900D01*
X173569606Y-156632900D01*
X173679688Y-156622058D01*
X173820932Y-156579212D01*
X173951103Y-156509634D01*
X174065198Y-156415998D01*
X174088663Y-156387406D01*
X177270871Y-153205199D01*
X177319007Y-153195624D01*
X177478484Y-153129567D01*
X177622009Y-153033667D01*
X177744067Y-152911609D01*
X177839967Y-152768084D01*
X177906024Y-152608607D01*
X177915599Y-152560470D01*
X183079013Y-147397057D01*
X183107598Y-147373598D01*
X183201234Y-147259503D01*
X183270812Y-147129332D01*
X183313658Y-146988088D01*
X183324500Y-146878006D01*
X183324500Y-146877997D01*
X183328124Y-146841201D01*
X183324500Y-146804405D01*
X183324500Y-144960292D01*
X183351767Y-144919484D01*
X183417824Y-144760007D01*
X183451500Y-144590708D01*
X183451500Y-144418092D01*
X183417824Y-144248793D01*
X183351767Y-144089316D01*
X183255867Y-143945791D01*
X183133809Y-143823733D01*
X182990284Y-143727833D01*
X182830807Y-143661776D01*
X182661508Y-143628100D01*
X182488892Y-143628100D01*
X182319593Y-143661776D01*
X182160116Y-143727833D01*
X182016591Y-143823733D01*
X181894533Y-143945791D01*
X181798633Y-144089316D01*
X181732576Y-144248793D01*
X181698900Y-144418092D01*
X181698900Y-144590708D01*
X181732576Y-144760007D01*
X181798633Y-144919484D01*
X181825901Y-144960293D01*
X181825900Y-146530830D01*
X178704316Y-149652415D01*
X178780920Y-149426390D01*
X178803664Y-149312050D01*
X178640580Y-149029379D01*
X177032649Y-149029379D01*
X177032649Y-150637310D01*
X177315320Y-150800394D01*
X177644787Y-150711944D01*
X176855930Y-151500801D01*
X176807793Y-151510376D01*
X176648316Y-151576433D01*
X176504791Y-151672333D01*
X176382733Y-151794391D01*
X176286833Y-151937916D01*
X176220776Y-152097393D01*
X176211201Y-152145529D01*
X175593046Y-152763684D01*
X175669650Y-152537660D01*
X175692394Y-152423320D01*
X175529310Y-152140649D01*
X173921379Y-152140649D01*
X173921379Y-153748580D01*
X174204050Y-153911664D01*
X174533517Y-153823214D01*
X173222431Y-155134300D01*
X170978795Y-155134300D01*
X170941999Y-155130676D01*
X170905203Y-155134300D01*
X170905194Y-155134300D01*
X170795112Y-155145142D01*
X170653868Y-155187988D01*
X170523697Y-155257566D01*
X170508646Y-155269918D01*
X170444884Y-155322247D01*
X170409602Y-155351202D01*
X170386141Y-155379789D01*
X164942031Y-160823900D01*
X151725595Y-160823900D01*
X151688799Y-160820276D01*
X151652003Y-160823900D01*
X151651994Y-160823900D01*
X151541912Y-160834742D01*
X151400668Y-160877588D01*
X151270497Y-160947166D01*
X151250533Y-160963550D01*
X151186309Y-161016258D01*
X151156402Y-161040802D01*
X151132941Y-161069389D01*
X150032231Y-162170100D01*
X150027692Y-162170100D01*
X149858393Y-162203776D01*
X149845122Y-162209273D01*
X149709207Y-162152976D01*
X149664969Y-162144176D01*
X149655798Y-162133002D01*
X149541703Y-162039366D01*
X149411532Y-161969788D01*
X149270288Y-161926942D01*
X149160206Y-161916100D01*
X149160195Y-161916100D01*
X149123400Y-161912476D01*
X149086605Y-161916100D01*
X141534370Y-161916100D01*
X139585700Y-159967431D01*
X139585700Y-157433000D01*
X139659308Y-157433000D01*
X139828607Y-157399324D01*
X139988084Y-157333267D01*
X140131609Y-157237367D01*
X140253667Y-157115309D01*
X140349567Y-156971784D01*
X140415624Y-156812307D01*
X140449300Y-156643008D01*
X140449300Y-156470392D01*
X140415624Y-156301093D01*
X140349567Y-156141616D01*
X140253667Y-155998091D01*
X140131609Y-155876033D01*
X139988084Y-155780133D01*
X139828607Y-155714076D01*
X139659308Y-155680400D01*
X139585700Y-155680400D01*
X139585700Y-154339769D01*
X140305412Y-153620058D01*
X140333998Y-153596598D01*
X140361470Y-153563124D01*
X140427634Y-153482504D01*
X140497212Y-153352332D01*
X140497212Y-153352331D01*
X140540058Y-153211088D01*
X140550900Y-153101006D01*
X140550900Y-153100996D01*
X140554524Y-153064200D01*
X140550900Y-153027404D01*
X140550900Y-152952492D01*
X163918900Y-152952492D01*
X163918900Y-153125108D01*
X163952576Y-153294407D01*
X164018633Y-153453884D01*
X164114533Y-153597409D01*
X164236591Y-153719467D01*
X164380116Y-153815367D01*
X164539593Y-153881424D01*
X164708892Y-153915100D01*
X164881508Y-153915100D01*
X165050807Y-153881424D01*
X165210284Y-153815367D01*
X165353809Y-153719467D01*
X165475867Y-153597409D01*
X165571767Y-153453884D01*
X165637824Y-153294407D01*
X165671500Y-153125108D01*
X165671500Y-152952492D01*
X165637824Y-152783193D01*
X165571767Y-152623716D01*
X165475867Y-152480191D01*
X165353809Y-152358133D01*
X165210284Y-152262233D01*
X165050807Y-152196176D01*
X164881508Y-152162500D01*
X164708892Y-152162500D01*
X164539593Y-152196176D01*
X164380116Y-152262233D01*
X164236591Y-152358133D01*
X164114533Y-152480191D01*
X164018633Y-152623716D01*
X163952576Y-152783193D01*
X163918900Y-152952492D01*
X140550900Y-152952492D01*
X140550900Y-143220396D01*
X140554524Y-143183600D01*
X140550900Y-143146804D01*
X140550900Y-143146795D01*
X140540058Y-143036713D01*
X140508129Y-142931458D01*
X140497212Y-142895468D01*
X140427634Y-142765296D01*
X140357460Y-142679790D01*
X140357458Y-142679788D01*
X140333998Y-142651202D01*
X140305411Y-142627741D01*
X139680169Y-142002500D01*
X155233322Y-142002500D01*
X155236116Y-142004367D01*
X155395593Y-142070424D01*
X155564892Y-142104100D01*
X155737508Y-142104100D01*
X155906807Y-142070424D01*
X156066284Y-142004367D01*
X156209809Y-141908467D01*
X156331867Y-141786409D01*
X156427767Y-141642884D01*
X156493824Y-141483407D01*
X156506775Y-141418300D01*
X161367508Y-141418300D01*
X161408316Y-141445567D01*
X161567793Y-141511624D01*
X161737092Y-141545300D01*
X161909708Y-141545300D01*
X162079007Y-141511624D01*
X162238484Y-141445567D01*
X162382009Y-141349667D01*
X162504067Y-141227609D01*
X162599967Y-141084084D01*
X162666024Y-140924607D01*
X162699700Y-140755308D01*
X162699700Y-140582692D01*
X162666024Y-140413393D01*
X162599967Y-140253916D01*
X162504067Y-140110391D01*
X162420300Y-140026624D01*
X162420300Y-139272000D01*
X163741100Y-139272000D01*
X163741100Y-140168852D01*
X163723976Y-140210193D01*
X163690300Y-140379492D01*
X163690300Y-140552108D01*
X163723976Y-140721407D01*
X163790033Y-140880884D01*
X163885933Y-141024409D01*
X164007991Y-141146467D01*
X164151516Y-141242367D01*
X164310993Y-141308424D01*
X164417312Y-141329572D01*
X164443325Y-141337463D01*
X164470376Y-141340128D01*
X164480292Y-141342100D01*
X165468301Y-141342100D01*
X165468301Y-141857228D01*
X163859594Y-143465937D01*
X163831002Y-143489402D01*
X163745003Y-143594191D01*
X163737366Y-143603497D01*
X163667788Y-143733669D01*
X163624943Y-143874913D01*
X163610476Y-144021800D01*
X163624943Y-144168687D01*
X163639501Y-144216679D01*
X163639500Y-148874508D01*
X163612233Y-148915316D01*
X163546176Y-149074793D01*
X163512500Y-149244092D01*
X163512500Y-149416708D01*
X163546176Y-149586007D01*
X163612233Y-149745484D01*
X163661326Y-149818958D01*
X163622376Y-149912993D01*
X163588700Y-150082292D01*
X163588700Y-150254908D01*
X163622376Y-150424207D01*
X163688433Y-150583684D01*
X163784333Y-150727209D01*
X163906391Y-150849267D01*
X164049916Y-150945167D01*
X164209393Y-151011224D01*
X164378692Y-151044900D01*
X164551308Y-151044900D01*
X164720607Y-151011224D01*
X164880084Y-150945167D01*
X165023609Y-150849267D01*
X165145667Y-150727209D01*
X165241567Y-150583684D01*
X165307624Y-150424207D01*
X165317199Y-150376070D01*
X165857811Y-149835459D01*
X165886398Y-149811998D01*
X165916844Y-149774900D01*
X165980034Y-149697904D01*
X166049612Y-149567732D01*
X166071488Y-149495616D01*
X166092458Y-149426487D01*
X166103300Y-149316405D01*
X166103300Y-149316396D01*
X166106924Y-149279600D01*
X166103300Y-149242804D01*
X166103300Y-149163995D01*
X166106924Y-149127199D01*
X166103300Y-149090403D01*
X166103300Y-149090394D01*
X166092458Y-148980312D01*
X166049612Y-148839068D01*
X165980034Y-148708897D01*
X165886398Y-148594802D01*
X165857807Y-148571338D01*
X165620700Y-148334231D01*
X165620700Y-147767922D01*
X165660407Y-147760024D01*
X165819884Y-147693967D01*
X165822678Y-147692100D01*
X166282405Y-147692100D01*
X166319200Y-147695724D01*
X166355995Y-147692100D01*
X166356006Y-147692100D01*
X166466088Y-147681258D01*
X166607332Y-147638412D01*
X166737503Y-147568834D01*
X166851598Y-147475198D01*
X166875063Y-147446606D01*
X168352089Y-145969582D01*
X168486102Y-146170146D01*
X168789854Y-146473898D01*
X169147028Y-146712554D01*
X169543899Y-146876943D01*
X169965215Y-146960748D01*
X170394785Y-146960748D01*
X170816101Y-146876943D01*
X171212972Y-146712554D01*
X171570146Y-146473898D01*
X171873898Y-146170146D01*
X172112554Y-145812972D01*
X172276943Y-145416101D01*
X172360748Y-144994785D01*
X172360748Y-144565215D01*
X172276943Y-144143899D01*
X172112554Y-143747028D01*
X172050061Y-143653500D01*
X173552631Y-143653500D01*
X173359189Y-143846942D01*
X173330603Y-143870402D01*
X173307143Y-143898988D01*
X173307140Y-143898991D01*
X173236966Y-143984497D01*
X173167388Y-144114669D01*
X173140733Y-144202540D01*
X173124543Y-144255912D01*
X173119223Y-144309931D01*
X173110076Y-144402800D01*
X173113701Y-144439605D01*
X173113700Y-147470630D01*
X171542582Y-149041749D01*
X171420584Y-148960233D01*
X171261107Y-148894176D01*
X171091808Y-148860500D01*
X170919192Y-148860500D01*
X170749893Y-148894176D01*
X170590416Y-148960233D01*
X170446891Y-149056133D01*
X170324833Y-149178191D01*
X170228933Y-149321716D01*
X170198471Y-149395258D01*
X168092930Y-151500801D01*
X168044793Y-151510376D01*
X167885316Y-151576433D01*
X167741791Y-151672333D01*
X167619733Y-151794391D01*
X167523833Y-151937916D01*
X167457776Y-152097393D01*
X167424100Y-152266692D01*
X167424100Y-152439308D01*
X167457776Y-152608607D01*
X167523833Y-152768084D01*
X167619733Y-152911609D01*
X167741791Y-153033667D01*
X167885316Y-153129567D01*
X168044793Y-153195624D01*
X168084501Y-153203522D01*
X168084500Y-153929107D01*
X168057233Y-153969916D01*
X167991176Y-154129393D01*
X167957500Y-154298692D01*
X167957500Y-154471308D01*
X167991176Y-154640607D01*
X168057233Y-154800084D01*
X168153133Y-154943609D01*
X168275191Y-155065667D01*
X168418716Y-155161567D01*
X168578193Y-155227624D01*
X168747492Y-155261300D01*
X168920108Y-155261300D01*
X169089407Y-155227624D01*
X169248884Y-155161567D01*
X169392409Y-155065667D01*
X169514467Y-154943609D01*
X169610367Y-154800084D01*
X169676424Y-154640607D01*
X169710100Y-154471308D01*
X169710100Y-154298692D01*
X169676424Y-154129393D01*
X169610367Y-153969916D01*
X169583100Y-153929108D01*
X169583100Y-153120569D01*
X170280349Y-152423320D01*
X172124964Y-152423320D01*
X172216862Y-152765630D01*
X172373775Y-153083434D01*
X172589674Y-153364520D01*
X172856261Y-153598085D01*
X173163292Y-153775153D01*
X173498968Y-153888920D01*
X173613308Y-153911664D01*
X173895979Y-153748580D01*
X173895979Y-152140649D01*
X172288048Y-152140649D01*
X172124964Y-152423320D01*
X170280349Y-152423320D01*
X170871091Y-151832578D01*
X172124964Y-151832578D01*
X172288048Y-152115249D01*
X173895979Y-152115249D01*
X173895979Y-150507318D01*
X173921379Y-150507318D01*
X173921379Y-152115249D01*
X175529310Y-152115249D01*
X175692394Y-151832578D01*
X175600496Y-151490268D01*
X175443583Y-151172464D01*
X175227684Y-150891378D01*
X174961097Y-150657813D01*
X174654066Y-150480745D01*
X174318390Y-150366978D01*
X174204050Y-150344234D01*
X173921379Y-150507318D01*
X173895979Y-150507318D01*
X173613308Y-150344234D01*
X173270998Y-150436132D01*
X172953194Y-150593045D01*
X172672108Y-150808944D01*
X172438543Y-151075531D01*
X172261475Y-151382562D01*
X172147708Y-151718238D01*
X172124964Y-151832578D01*
X170871091Y-151832578D01*
X173391619Y-149312050D01*
X175236234Y-149312050D01*
X175328132Y-149654360D01*
X175485045Y-149972164D01*
X175700944Y-150253250D01*
X175967531Y-150486815D01*
X176274562Y-150663883D01*
X176610238Y-150777650D01*
X176724578Y-150800394D01*
X177007249Y-150637310D01*
X177007249Y-149029379D01*
X175399318Y-149029379D01*
X175236234Y-149312050D01*
X173391619Y-149312050D01*
X173982361Y-148721308D01*
X175236234Y-148721308D01*
X175399318Y-149003979D01*
X177007249Y-149003979D01*
X177007249Y-147396048D01*
X177032649Y-147396048D01*
X177032649Y-149003979D01*
X178640580Y-149003979D01*
X178803664Y-148721308D01*
X178711766Y-148378998D01*
X178554853Y-148061194D01*
X178338954Y-147780108D01*
X178072367Y-147546543D01*
X177765336Y-147369475D01*
X177429660Y-147255708D01*
X177315320Y-147232964D01*
X177032649Y-147396048D01*
X177007249Y-147396048D01*
X176724578Y-147232964D01*
X176382268Y-147324862D01*
X176064464Y-147481775D01*
X175783378Y-147697674D01*
X175549813Y-147964261D01*
X175372745Y-148271292D01*
X175258978Y-148606968D01*
X175236234Y-148721308D01*
X173982361Y-148721308D01*
X174366813Y-148336857D01*
X174395398Y-148313398D01*
X174418860Y-148284810D01*
X174489034Y-148199304D01*
X174558612Y-148069132D01*
X174567851Y-148038675D01*
X174601458Y-147927888D01*
X174612300Y-147817806D01*
X174612300Y-147817796D01*
X174615924Y-147781000D01*
X174612300Y-147744204D01*
X174612300Y-144713169D01*
X177567213Y-141758257D01*
X177595798Y-141734798D01*
X177596901Y-141733454D01*
X177633033Y-141820684D01*
X177728933Y-141964209D01*
X177850991Y-142086267D01*
X177994516Y-142182167D01*
X178153993Y-142248224D01*
X178323292Y-142281900D01*
X178495908Y-142281900D01*
X178665207Y-142248224D01*
X178824684Y-142182167D01*
X178968209Y-142086267D01*
X179090267Y-141964209D01*
X179096893Y-141954292D01*
X179387500Y-141954292D01*
X179387500Y-142126908D01*
X179421176Y-142296207D01*
X179487233Y-142455684D01*
X179583133Y-142599209D01*
X179705191Y-142721267D01*
X179848716Y-142817167D01*
X180008193Y-142883224D01*
X180177492Y-142916900D01*
X180350108Y-142916900D01*
X180519407Y-142883224D01*
X180678884Y-142817167D01*
X180822409Y-142721267D01*
X180944467Y-142599209D01*
X181040367Y-142455684D01*
X181106424Y-142296207D01*
X181140100Y-142126908D01*
X181140100Y-141954292D01*
X181106424Y-141784993D01*
X181040367Y-141625516D01*
X180944467Y-141481991D01*
X180822409Y-141359933D01*
X180678884Y-141264033D01*
X180519407Y-141197976D01*
X180350108Y-141164300D01*
X180177492Y-141164300D01*
X180008193Y-141197976D01*
X179848716Y-141264033D01*
X179705191Y-141359933D01*
X179583133Y-141481991D01*
X179487233Y-141625516D01*
X179421176Y-141784993D01*
X179387500Y-141954292D01*
X179096893Y-141954292D01*
X179186167Y-141820684D01*
X179252224Y-141661207D01*
X179261799Y-141613071D01*
X179472217Y-141402654D01*
X179500798Y-141379198D01*
X179524254Y-141350617D01*
X179524261Y-141350610D01*
X179594434Y-141265103D01*
X179664012Y-141134932D01*
X179706858Y-140993688D01*
X179708634Y-140975658D01*
X179717700Y-140883606D01*
X179717700Y-140883598D01*
X179721324Y-140846800D01*
X179717700Y-140810002D01*
X179717700Y-139435795D01*
X179721324Y-139398999D01*
X179717700Y-139362203D01*
X179717700Y-139362194D01*
X179706858Y-139252112D01*
X179664012Y-139110868D01*
X179599694Y-138990537D01*
X179594434Y-138980696D01*
X179524260Y-138895190D01*
X179524258Y-138895188D01*
X179500798Y-138866602D01*
X179472211Y-138843141D01*
X179304170Y-138675100D01*
X180989005Y-138675100D01*
X181025800Y-138678724D01*
X181062595Y-138675100D01*
X181062606Y-138675100D01*
X181172688Y-138664258D01*
X181313932Y-138621412D01*
X181444103Y-138551834D01*
X181558198Y-138458198D01*
X181581662Y-138429607D01*
X182190017Y-137821253D01*
X182218598Y-137797798D01*
X182242054Y-137769217D01*
X182242061Y-137769210D01*
X182312234Y-137683703D01*
X182381812Y-137553532D01*
X182424658Y-137412288D01*
X182426518Y-137393402D01*
X182435500Y-137302206D01*
X182435500Y-137302198D01*
X182439124Y-137265400D01*
X182435500Y-137228602D01*
X182435500Y-135028720D01*
X182513567Y-134911884D01*
X182579624Y-134752407D01*
X182613300Y-134583108D01*
X182613300Y-134410492D01*
X182579624Y-134241193D01*
X182513567Y-134081716D01*
X182417667Y-133938191D01*
X182295609Y-133816133D01*
X182152084Y-133720233D01*
X181992607Y-133654176D01*
X181823308Y-133620500D01*
X181650692Y-133620500D01*
X181481393Y-133654176D01*
X181321916Y-133720233D01*
X181178391Y-133816133D01*
X181056333Y-133938191D01*
X180960433Y-134081716D01*
X180894376Y-134241193D01*
X180860700Y-134410492D01*
X180860700Y-134583108D01*
X180894376Y-134752407D01*
X180936901Y-134855072D01*
X180936900Y-136135100D01*
X180914092Y-136135100D01*
X180744793Y-136168776D01*
X180585316Y-136234833D01*
X180441791Y-136330733D01*
X180319733Y-136452791D01*
X180223833Y-136596316D01*
X180157776Y-136755793D01*
X180124100Y-136925092D01*
X180124100Y-137097708D01*
X180139773Y-137176500D01*
X178205092Y-137176500D01*
X178164284Y-137149233D01*
X178004807Y-137083176D01*
X177835508Y-137049500D01*
X177812700Y-137049500D01*
X177812700Y-132729181D01*
X177831799Y-132727300D01*
X189379571Y-132727300D01*
X189102964Y-134377519D01*
G36*
X155054073Y-89657112D02*
G01*
X157458365Y-89906223D01*
X159841559Y-90309967D01*
X162193756Y-90866668D01*
X164505093Y-91573991D01*
X166765999Y-92429009D01*
X168966992Y-93428134D01*
X171098931Y-94567219D01*
X173152921Y-95841507D01*
X175120385Y-97245682D01*
X176993144Y-98773902D01*
X178763374Y-100419784D01*
X180423708Y-102176478D01*
X181967215Y-104036656D01*
X183387464Y-105992563D01*
X184678534Y-108036045D01*
X185835037Y-110158573D01*
X186852166Y-112351328D01*
X187725667Y-114605139D01*
X188451902Y-116910611D01*
X189027851Y-119258173D01*
X189386137Y-121272700D01*
X179060994Y-121272700D01*
X179120609Y-121232867D01*
X179242667Y-121110809D01*
X179338567Y-120967284D01*
X179404624Y-120807807D01*
X179438300Y-120638508D01*
X179438300Y-120465892D01*
X179404624Y-120296593D01*
X179338567Y-120137116D01*
X179285900Y-120058294D01*
X179285900Y-108066798D01*
X179289524Y-108030000D01*
X179285900Y-107993202D01*
X179285900Y-107993194D01*
X179275058Y-107883112D01*
X179232212Y-107741868D01*
X179162634Y-107611697D01*
X179092461Y-107526190D01*
X179092454Y-107526183D01*
X179068998Y-107497602D01*
X179040418Y-107474147D01*
X168170463Y-96604194D01*
X168146998Y-96575602D01*
X168032903Y-96481966D01*
X167902732Y-96412388D01*
X167761488Y-96369542D01*
X167651406Y-96358700D01*
X167651395Y-96358700D01*
X167614600Y-96355076D01*
X167577805Y-96358700D01*
X167333892Y-96358700D01*
X167293084Y-96331433D01*
X167133607Y-96265376D01*
X166964308Y-96231700D01*
X166791692Y-96231700D01*
X166622393Y-96265376D01*
X166462916Y-96331433D01*
X166319391Y-96427333D01*
X166197333Y-96549391D01*
X166101433Y-96692916D01*
X166035376Y-96852393D01*
X166001700Y-97021692D01*
X166001700Y-97194308D01*
X166035376Y-97363607D01*
X166101433Y-97523084D01*
X166197333Y-97666609D01*
X166319391Y-97788667D01*
X166462916Y-97884567D01*
X166622393Y-97950624D01*
X166791692Y-97984300D01*
X166964308Y-97984300D01*
X167133607Y-97950624D01*
X167293084Y-97884567D01*
X167316112Y-97869181D01*
X169006031Y-99559100D01*
X166822112Y-99559100D01*
X166745867Y-99444991D01*
X166623809Y-99322933D01*
X166480284Y-99227033D01*
X166320807Y-99160976D01*
X166151508Y-99127300D01*
X165978892Y-99127300D01*
X165809593Y-99160976D01*
X165650116Y-99227033D01*
X165506591Y-99322933D01*
X165384533Y-99444991D01*
X165288633Y-99588516D01*
X165222576Y-99747993D01*
X165188900Y-99917292D01*
X165188900Y-100089908D01*
X165222576Y-100259207D01*
X165288633Y-100418684D01*
X165384533Y-100562209D01*
X165506591Y-100684267D01*
X165650116Y-100780167D01*
X165809593Y-100846224D01*
X165855289Y-100855314D01*
X165951697Y-100934434D01*
X166081868Y-101004012D01*
X166223112Y-101046858D01*
X166333194Y-101057700D01*
X166333203Y-101057700D01*
X166369999Y-101061324D01*
X166406795Y-101057700D01*
X169641031Y-101057700D01*
X172012990Y-103429660D01*
X172012996Y-103429665D01*
X172054031Y-103470700D01*
X149084078Y-103470700D01*
X149081284Y-103468833D01*
X148936718Y-103408952D01*
X149805013Y-102540657D01*
X149833598Y-102517198D01*
X149857060Y-102488610D01*
X149927234Y-102403104D01*
X149960214Y-102341402D01*
X149996812Y-102272932D01*
X150039658Y-102131688D01*
X150050500Y-102021606D01*
X150050500Y-102021597D01*
X150054124Y-101984801D01*
X150050500Y-101948005D01*
X150050500Y-100590392D01*
X160286700Y-100590392D01*
X160286700Y-100763008D01*
X160320376Y-100932307D01*
X160386433Y-101091784D01*
X160482333Y-101235309D01*
X160604391Y-101357367D01*
X160747916Y-101453267D01*
X160907393Y-101519324D01*
X161076692Y-101553000D01*
X161249308Y-101553000D01*
X161418607Y-101519324D01*
X161578084Y-101453267D01*
X161721609Y-101357367D01*
X161843667Y-101235309D01*
X161939567Y-101091784D01*
X162005624Y-100932307D01*
X162039300Y-100763008D01*
X162039300Y-100590392D01*
X162005624Y-100421093D01*
X161939567Y-100261616D01*
X161843667Y-100118091D01*
X161721609Y-99996033D01*
X161578084Y-99900133D01*
X161418607Y-99834076D01*
X161249308Y-99800400D01*
X161076692Y-99800400D01*
X160907393Y-99834076D01*
X160747916Y-99900133D01*
X160604391Y-99996033D01*
X160482333Y-100118091D01*
X160386433Y-100261616D01*
X160320376Y-100421093D01*
X160286700Y-100590392D01*
X150050500Y-100590392D01*
X150050500Y-100154696D01*
X150054124Y-100117900D01*
X150050500Y-100081104D01*
X150050500Y-100081094D01*
X150043466Y-100009674D01*
X150115607Y-99995324D01*
X150275084Y-99929267D01*
X150418609Y-99833367D01*
X150540667Y-99711309D01*
X150636567Y-99567784D01*
X150702624Y-99408307D01*
X150736300Y-99239008D01*
X150736300Y-99066392D01*
X150702624Y-98897093D01*
X150636567Y-98737616D01*
X150540667Y-98594091D01*
X150418609Y-98472033D01*
X150275084Y-98376133D01*
X150115607Y-98310076D01*
X150067470Y-98300501D01*
X149844363Y-98077394D01*
X149820898Y-98048802D01*
X149706803Y-97955166D01*
X149576632Y-97885588D01*
X149435388Y-97842742D01*
X149325306Y-97831900D01*
X149325295Y-97831900D01*
X149288500Y-97828276D01*
X149251705Y-97831900D01*
X147991798Y-97831900D01*
X147955000Y-97828276D01*
X147918202Y-97831900D01*
X147918194Y-97831900D01*
X147808112Y-97842742D01*
X147666868Y-97885588D01*
X147536697Y-97955166D01*
X147451190Y-98025339D01*
X147451183Y-98025346D01*
X147422602Y-98048802D01*
X147399145Y-98077384D01*
X146790789Y-98685742D01*
X146762203Y-98709202D01*
X146738743Y-98737788D01*
X146738740Y-98737791D01*
X146668566Y-98823297D01*
X146598988Y-98953469D01*
X146583111Y-99005811D01*
X146556143Y-99094712D01*
X146550649Y-99150494D01*
X146541676Y-99241600D01*
X146545301Y-99278405D01*
X146545301Y-99667831D01*
X145402300Y-98524831D01*
X145402300Y-97812069D01*
X145407869Y-97806500D01*
X146102108Y-97806500D01*
X146142916Y-97833767D01*
X146302393Y-97899824D01*
X146471692Y-97933500D01*
X146644308Y-97933500D01*
X146813607Y-97899824D01*
X146973084Y-97833767D01*
X147116609Y-97737867D01*
X147238667Y-97615809D01*
X147334567Y-97472284D01*
X147400624Y-97312807D01*
X147434300Y-97143508D01*
X147434300Y-96970892D01*
X147400624Y-96801593D01*
X147334567Y-96642116D01*
X147238667Y-96498591D01*
X147116609Y-96376533D01*
X146973084Y-96280633D01*
X146813607Y-96214576D01*
X146644308Y-96180900D01*
X146471692Y-96180900D01*
X146302393Y-96214576D01*
X146142916Y-96280633D01*
X146102108Y-96307900D01*
X145134296Y-96307900D01*
X145097500Y-96304276D01*
X145060704Y-96307900D01*
X145060694Y-96307900D01*
X144950612Y-96318742D01*
X144809368Y-96361588D01*
X144679196Y-96431166D01*
X144654895Y-96451110D01*
X144565102Y-96524802D01*
X144541637Y-96553394D01*
X144149189Y-96945842D01*
X144120603Y-96969302D01*
X144097143Y-96997888D01*
X144097140Y-96997891D01*
X144026966Y-97083397D01*
X143957388Y-97213569D01*
X143927540Y-97311967D01*
X143914543Y-97354812D01*
X143910473Y-97396132D01*
X143900076Y-97501700D01*
X143903701Y-97538505D01*
X143903700Y-98798404D01*
X143900076Y-98835200D01*
X143903700Y-98871995D01*
X143903700Y-98872005D01*
X143914542Y-98982087D01*
X143948707Y-99094712D01*
X143957388Y-99123331D01*
X144026966Y-99253503D01*
X144071681Y-99307988D01*
X144120602Y-99367598D01*
X144149194Y-99391063D01*
X145705801Y-100947671D01*
X145715376Y-100995807D01*
X145781433Y-101155284D01*
X145877333Y-101298809D01*
X145999391Y-101420867D01*
X146142916Y-101516767D01*
X146302393Y-101582824D01*
X146471692Y-101616500D01*
X146545300Y-101616500D01*
X146545300Y-102741230D01*
X146400030Y-102886500D01*
X145680395Y-102886500D01*
X145643599Y-102882876D01*
X145606803Y-102886500D01*
X145606794Y-102886500D01*
X145496712Y-102897342D01*
X145355468Y-102940188D01*
X145284955Y-102977878D01*
X145225296Y-103009766D01*
X145176278Y-103049995D01*
X145111202Y-103103402D01*
X145087741Y-103131989D01*
X143945989Y-104273742D01*
X143917403Y-104297202D01*
X143893943Y-104325788D01*
X143893940Y-104325791D01*
X143823766Y-104411297D01*
X143754188Y-104541469D01*
X143728628Y-104625731D01*
X143711343Y-104682712D01*
X143704480Y-104752398D01*
X143696876Y-104829600D01*
X143700501Y-104866405D01*
X143700500Y-105910404D01*
X143696876Y-105947200D01*
X143700500Y-105983995D01*
X143700500Y-105984005D01*
X143711342Y-106094087D01*
X143744657Y-106203912D01*
X143754188Y-106235331D01*
X143823766Y-106365503D01*
X143866765Y-106417897D01*
X143917402Y-106479598D01*
X143945994Y-106503063D01*
X144782941Y-107340011D01*
X144806402Y-107368598D01*
X144834988Y-107392058D01*
X144834990Y-107392060D01*
X144920496Y-107462234D01*
X144990297Y-107499543D01*
X145050668Y-107531812D01*
X145191912Y-107574658D01*
X145301994Y-107585500D01*
X145302004Y-107585500D01*
X145338800Y-107589124D01*
X145375596Y-107585500D01*
X151296405Y-107585500D01*
X151333200Y-107589124D01*
X151369995Y-107585500D01*
X151370006Y-107585500D01*
X151480088Y-107574658D01*
X151621332Y-107531812D01*
X151751503Y-107462234D01*
X151865598Y-107368598D01*
X151889063Y-107340006D01*
X152659570Y-106569500D01*
X171114231Y-106569500D01*
X174180501Y-109635771D01*
X174180501Y-112488923D01*
X174158329Y-112455740D01*
X174137942Y-112417599D01*
X174110507Y-112384169D01*
X174086467Y-112348191D01*
X174055868Y-112317592D01*
X174028435Y-112284165D01*
X173995008Y-112256732D01*
X173964409Y-112226133D01*
X173928431Y-112202093D01*
X173895001Y-112174658D01*
X173856860Y-112154271D01*
X173820884Y-112130233D01*
X173780911Y-112113676D01*
X173742768Y-112093288D01*
X173701379Y-112080733D01*
X173661407Y-112064176D01*
X173618974Y-112055735D01*
X173577584Y-112043180D01*
X173534540Y-112038940D01*
X173492108Y-112030500D01*
X173448847Y-112030500D01*
X173405799Y-112026260D01*
X173362751Y-112030500D01*
X173319492Y-112030500D01*
X173277061Y-112038940D01*
X173234015Y-112043180D01*
X173192624Y-112055736D01*
X173150193Y-112064176D01*
X173110222Y-112080732D01*
X173068832Y-112093288D01*
X173030688Y-112113676D01*
X172990716Y-112130233D01*
X172954743Y-112154269D01*
X172916598Y-112174658D01*
X172883166Y-112202096D01*
X172847191Y-112226133D01*
X172725133Y-112348191D01*
X172725129Y-112348197D01*
X172613407Y-112459919D01*
X172579965Y-112487364D01*
X172552522Y-112520804D01*
X172470458Y-112620799D01*
X172404216Y-112744729D01*
X172389088Y-112773032D01*
X172348510Y-112906801D01*
X172338980Y-112938216D01*
X172322060Y-113110000D01*
X172326301Y-113153057D01*
X172326300Y-114667152D01*
X172322060Y-114710200D01*
X172326300Y-114753248D01*
X172326300Y-114753249D01*
X172338979Y-114881984D01*
X172389087Y-115047167D01*
X172470458Y-115199401D01*
X172579964Y-115332836D01*
X172613411Y-115360285D01*
X173418501Y-116165376D01*
X173418501Y-119468025D01*
X173353393Y-119480976D01*
X173193916Y-119547033D01*
X173153108Y-119574300D01*
X172985395Y-119574300D01*
X172948599Y-119570676D01*
X172911803Y-119574300D01*
X172911794Y-119574300D01*
X172801712Y-119585142D01*
X172660468Y-119627988D01*
X172530297Y-119697566D01*
X172416202Y-119791202D01*
X172392737Y-119819794D01*
X171962194Y-120250337D01*
X171933602Y-120273802D01*
X171910140Y-120302391D01*
X171839966Y-120387897D01*
X171795820Y-120470489D01*
X171770388Y-120518069D01*
X171727542Y-120659313D01*
X171716700Y-120769395D01*
X171716700Y-120769405D01*
X171713076Y-120806200D01*
X171716700Y-120842996D01*
X171716701Y-124991629D01*
X165713794Y-130994537D01*
X165685202Y-131018002D01*
X165650773Y-131059954D01*
X165591566Y-131132097D01*
X165533844Y-131240088D01*
X165521988Y-131262269D01*
X165479142Y-131403513D01*
X165468300Y-131513595D01*
X165468300Y-131513605D01*
X165464676Y-131550400D01*
X165468300Y-131587195D01*
X165468301Y-137672732D01*
X165388084Y-137619133D01*
X165228607Y-137553076D01*
X165059308Y-137519400D01*
X164886692Y-137519400D01*
X164717393Y-137553076D01*
X164557916Y-137619133D01*
X164414391Y-137715033D01*
X164356024Y-137773400D01*
X160539392Y-137773400D01*
X160498584Y-137746133D01*
X160339107Y-137680076D01*
X160169808Y-137646400D01*
X159997192Y-137646400D01*
X159827893Y-137680076D01*
X159668416Y-137746133D01*
X159524891Y-137842033D01*
X159402833Y-137964091D01*
X159306933Y-138107616D01*
X159240876Y-138267093D01*
X159207200Y-138436392D01*
X159207200Y-138525749D01*
X159192112Y-138525636D01*
X159130809Y-138464333D01*
X158987284Y-138368433D01*
X158827807Y-138302376D01*
X158779672Y-138292801D01*
X157957870Y-137471000D01*
X158969608Y-137471000D01*
X159010416Y-137498267D01*
X159169893Y-137564324D01*
X159339192Y-137598000D01*
X159511808Y-137598000D01*
X159681107Y-137564324D01*
X159840584Y-137498267D01*
X159984109Y-137402367D01*
X160106167Y-137280309D01*
X160202067Y-137136784D01*
X160268124Y-136977307D01*
X160301800Y-136808008D01*
X160301800Y-136635392D01*
X160268124Y-136466093D01*
X160202067Y-136306616D01*
X160106167Y-136163091D01*
X159984109Y-136041033D01*
X159840584Y-135945133D01*
X159681107Y-135879076D01*
X159511808Y-135845400D01*
X159339192Y-135845400D01*
X159169893Y-135879076D01*
X159010416Y-135945133D01*
X158969608Y-135972400D01*
X156052871Y-135972400D01*
X153781363Y-133700894D01*
X153757898Y-133672302D01*
X153643803Y-133578666D01*
X153513632Y-133509088D01*
X153372388Y-133466242D01*
X153262306Y-133455400D01*
X153262295Y-133455400D01*
X153225500Y-133451776D01*
X153188705Y-133455400D01*
X139402470Y-133455400D01*
X139399624Y-133441093D01*
X139333567Y-133281616D01*
X139237667Y-133138091D01*
X139115609Y-133016033D01*
X138972084Y-132920133D01*
X138812607Y-132854076D01*
X138643308Y-132820400D01*
X138470692Y-132820400D01*
X138301393Y-132854076D01*
X138141916Y-132920133D01*
X137998391Y-133016033D01*
X137876333Y-133138091D01*
X137780433Y-133281616D01*
X137714376Y-133441093D01*
X137711530Y-133455400D01*
X135166100Y-133455400D01*
X135166100Y-133292892D01*
X135132424Y-133123593D01*
X135066367Y-132964116D01*
X135039100Y-132923308D01*
X135039100Y-130204200D01*
X139212074Y-130204200D01*
X139226541Y-130351089D01*
X139269387Y-130492332D01*
X139338965Y-130622503D01*
X139432601Y-130736599D01*
X139546697Y-130830235D01*
X139676868Y-130899813D01*
X139818111Y-130942659D01*
X139965000Y-130957126D01*
X140134975Y-130953500D01*
X140322300Y-130766175D01*
X140322300Y-128756900D01*
X139403025Y-128756900D01*
X139215700Y-128944225D01*
X139212074Y-130204200D01*
X135039100Y-130204200D01*
X135039100Y-126894040D01*
X137372700Y-126894040D01*
X137372700Y-127164360D01*
X137425437Y-127429485D01*
X137528883Y-127679228D01*
X137679065Y-127903990D01*
X137870210Y-128095135D01*
X138094972Y-128245317D01*
X138344715Y-128348763D01*
X138609840Y-128401500D01*
X138880160Y-128401500D01*
X139145285Y-128348763D01*
X139215054Y-128319864D01*
X139215700Y-128544175D01*
X139403025Y-128731500D01*
X140322300Y-128731500D01*
X140322300Y-128711500D01*
X140347700Y-128711500D01*
X140347700Y-128731500D01*
X140367700Y-128731500D01*
X140367700Y-128756900D01*
X140347700Y-128756900D01*
X140347700Y-130766175D01*
X140535025Y-130953500D01*
X140705000Y-130957126D01*
X140851889Y-130942659D01*
X140993132Y-130899813D01*
X141123303Y-130830235D01*
X141136059Y-130819766D01*
X141235000Y-130829511D01*
X141975000Y-130829511D01*
X142073941Y-130819766D01*
X142086697Y-130830235D01*
X142216868Y-130899813D01*
X142358111Y-130942659D01*
X142505000Y-130957126D01*
X142674975Y-130953500D01*
X142862300Y-130766175D01*
X142862300Y-128756900D01*
X142842300Y-128756900D01*
X142842300Y-128731500D01*
X142862300Y-128731500D01*
X142862300Y-128711500D01*
X142887700Y-128711500D01*
X142887700Y-128731500D01*
X142907700Y-128731500D01*
X142907700Y-128756900D01*
X142887700Y-128756900D01*
X142887700Y-130766175D01*
X143075025Y-130953500D01*
X143245000Y-130957126D01*
X143391889Y-130942659D01*
X143533132Y-130899813D01*
X143663303Y-130830235D01*
X143676059Y-130819766D01*
X143775000Y-130829511D01*
X144515000Y-130829511D01*
X144636992Y-130817496D01*
X144754296Y-130781912D01*
X144780000Y-130768173D01*
X144805704Y-130781912D01*
X144923008Y-130817496D01*
X145045000Y-130829511D01*
X145785000Y-130829511D01*
X145906992Y-130817496D01*
X146024296Y-130781912D01*
X146050000Y-130768173D01*
X146075704Y-130781912D01*
X146193008Y-130817496D01*
X146315000Y-130829511D01*
X147055000Y-130829511D01*
X147176992Y-130817496D01*
X147294296Y-130781912D01*
X147320000Y-130768173D01*
X147345704Y-130781912D01*
X147463008Y-130817496D01*
X147585000Y-130829511D01*
X148325000Y-130829511D01*
X148446992Y-130817496D01*
X148564296Y-130781912D01*
X148590000Y-130768173D01*
X148615704Y-130781912D01*
X148733008Y-130817496D01*
X148855000Y-130829511D01*
X149595000Y-130829511D01*
X149716992Y-130817496D01*
X149834296Y-130781912D01*
X149860000Y-130768173D01*
X149885704Y-130781912D01*
X150003008Y-130817496D01*
X150125000Y-130829511D01*
X150865000Y-130829511D01*
X150963941Y-130819766D01*
X150976697Y-130830235D01*
X151106868Y-130899813D01*
X151248111Y-130942659D01*
X151395000Y-130957126D01*
X151564975Y-130953500D01*
X151752300Y-130766175D01*
X151752300Y-128756900D01*
X151732300Y-128756900D01*
X151732300Y-128731500D01*
X151752300Y-128731500D01*
X151752300Y-125326900D01*
X151732300Y-125326900D01*
X151732300Y-125301500D01*
X151752300Y-125301500D01*
X151752300Y-123292225D01*
X151777700Y-123292225D01*
X151777700Y-125301500D01*
X151797700Y-125301500D01*
X151797700Y-125326900D01*
X151777700Y-125326900D01*
X151777700Y-128731500D01*
X151797700Y-128731500D01*
X151797700Y-128756900D01*
X151777700Y-128756900D01*
X151777700Y-130766175D01*
X151965025Y-130953500D01*
X152135000Y-130957126D01*
X152281889Y-130942659D01*
X152291965Y-130939603D01*
X152296543Y-130986088D01*
X152306224Y-131018002D01*
X152339388Y-131127331D01*
X152408966Y-131257503D01*
X152472811Y-131335297D01*
X152502603Y-131371598D01*
X152531189Y-131395058D01*
X154765139Y-133629009D01*
X154788602Y-133657598D01*
X154817188Y-133681058D01*
X154817190Y-133681060D01*
X154902696Y-133751234D01*
X154953079Y-133778164D01*
X155032868Y-133820812D01*
X155174112Y-133863658D01*
X155284194Y-133874500D01*
X155284203Y-133874500D01*
X155320999Y-133878124D01*
X155357795Y-133874500D01*
X158820631Y-133874500D01*
X159441729Y-134495599D01*
X159431376Y-134520593D01*
X159397700Y-134689892D01*
X159397700Y-134862508D01*
X159431376Y-135031807D01*
X159497433Y-135191284D01*
X159593333Y-135334809D01*
X159715391Y-135456867D01*
X159858916Y-135552767D01*
X160018393Y-135618824D01*
X160187692Y-135652500D01*
X160360308Y-135652500D01*
X160529607Y-135618824D01*
X160689084Y-135552767D01*
X160832609Y-135456867D01*
X160954667Y-135334809D01*
X161050567Y-135191284D01*
X161116624Y-135031807D01*
X161150300Y-134862508D01*
X161150300Y-134689892D01*
X161116624Y-134520593D01*
X161050567Y-134361116D01*
X161023300Y-134320308D01*
X161023300Y-134304995D01*
X161026924Y-134268199D01*
X161023300Y-134231403D01*
X161023300Y-134231394D01*
X161012458Y-134121312D01*
X160969612Y-133980068D01*
X160921433Y-133889931D01*
X160900034Y-133849896D01*
X160829860Y-133764390D01*
X160829858Y-133764388D01*
X160806398Y-133735802D01*
X160777812Y-133712342D01*
X160576563Y-133511093D01*
X160705609Y-133424867D01*
X160827667Y-133302809D01*
X160923567Y-133159284D01*
X160989624Y-132999807D01*
X161023300Y-132830508D01*
X161023300Y-132657892D01*
X160989624Y-132488593D01*
X160923567Y-132329116D01*
X160905490Y-132302062D01*
X162515503Y-130888393D01*
X162536868Y-130899813D01*
X162678111Y-130942659D01*
X162825000Y-130957126D01*
X162994975Y-130953500D01*
X163182300Y-130766175D01*
X163182300Y-128756900D01*
X163162300Y-128756900D01*
X163162300Y-128731500D01*
X163182300Y-128731500D01*
X163182300Y-128711500D01*
X163207700Y-128711500D01*
X163207700Y-128731500D01*
X163227700Y-128731500D01*
X163227700Y-128756900D01*
X163207700Y-128756900D01*
X163207700Y-130766175D01*
X163395025Y-130953500D01*
X163565000Y-130957126D01*
X163711889Y-130942659D01*
X163853132Y-130899813D01*
X163983303Y-130830235D01*
X163996059Y-130819766D01*
X164095000Y-130829511D01*
X164835000Y-130829511D01*
X164956992Y-130817496D01*
X165074296Y-130781912D01*
X165182404Y-130724127D01*
X165277162Y-130646362D01*
X165354927Y-130551604D01*
X165412712Y-130443496D01*
X165448296Y-130326192D01*
X165460311Y-130204200D01*
X165460311Y-128268239D01*
X165654715Y-128348763D01*
X165919840Y-128401500D01*
X166190160Y-128401500D01*
X166455285Y-128348763D01*
X166705028Y-128245317D01*
X166929790Y-128095135D01*
X167120935Y-127903990D01*
X167271117Y-127679228D01*
X167374563Y-127429485D01*
X167427300Y-127164360D01*
X167427300Y-126894040D01*
X167374563Y-126628915D01*
X167271117Y-126379172D01*
X167120935Y-126154410D01*
X166929790Y-125963265D01*
X166705028Y-125813083D01*
X166455285Y-125709637D01*
X166190160Y-125656900D01*
X165919840Y-125656900D01*
X165654715Y-125709637D01*
X165584946Y-125738536D01*
X165584300Y-125514225D01*
X165396975Y-125326900D01*
X164477700Y-125326900D01*
X164477700Y-125346900D01*
X164452300Y-125346900D01*
X164452300Y-125326900D01*
X164432300Y-125326900D01*
X164432300Y-125301500D01*
X164452300Y-125301500D01*
X164452300Y-123292225D01*
X164477700Y-123292225D01*
X164477700Y-125301500D01*
X165396975Y-125301500D01*
X165584300Y-125114175D01*
X165587926Y-123854200D01*
X165573459Y-123707311D01*
X165530613Y-123566068D01*
X165461035Y-123435897D01*
X165367399Y-123321801D01*
X165253303Y-123228165D01*
X165123132Y-123158587D01*
X164981889Y-123115741D01*
X164835000Y-123101274D01*
X164665025Y-123104900D01*
X164477700Y-123292225D01*
X164452300Y-123292225D01*
X164264975Y-123104900D01*
X164095000Y-123101274D01*
X163948111Y-123115741D01*
X163806868Y-123158587D01*
X163676697Y-123228165D01*
X163663941Y-123238634D01*
X163565000Y-123228889D01*
X162825000Y-123228889D01*
X162726059Y-123238634D01*
X162713303Y-123228165D01*
X162583132Y-123158587D01*
X162441889Y-123115741D01*
X162295000Y-123101274D01*
X162125025Y-123104900D01*
X161937700Y-123292225D01*
X161937700Y-125301500D01*
X161957700Y-125301500D01*
X161957700Y-125326900D01*
X161937700Y-125326900D01*
X161937700Y-125346900D01*
X161912300Y-125346900D01*
X161912300Y-125326900D01*
X161892300Y-125326900D01*
X161892300Y-125301500D01*
X161912300Y-125301500D01*
X161912300Y-123292225D01*
X161724975Y-123104900D01*
X161555000Y-123101274D01*
X161408111Y-123115741D01*
X161266868Y-123158587D01*
X161136697Y-123228165D01*
X161123941Y-123238634D01*
X161025000Y-123228889D01*
X160285000Y-123228889D01*
X160163008Y-123240904D01*
X160045704Y-123276488D01*
X160020000Y-123290227D01*
X159994296Y-123276488D01*
X159876992Y-123240904D01*
X159755000Y-123228889D01*
X159015000Y-123228889D01*
X158893008Y-123240904D01*
X158775704Y-123276488D01*
X158750000Y-123290227D01*
X158724296Y-123276488D01*
X158606992Y-123240904D01*
X158485000Y-123228889D01*
X157745000Y-123228889D01*
X157623008Y-123240904D01*
X157505704Y-123276488D01*
X157480000Y-123290227D01*
X157454296Y-123276488D01*
X157336992Y-123240904D01*
X157215000Y-123228889D01*
X156475000Y-123228889D01*
X156353008Y-123240904D01*
X156235704Y-123276488D01*
X156210000Y-123290227D01*
X156184296Y-123276488D01*
X156066992Y-123240904D01*
X155945000Y-123228889D01*
X155205000Y-123228889D01*
X155083008Y-123240904D01*
X154965704Y-123276488D01*
X154940000Y-123290227D01*
X154914296Y-123276488D01*
X154796992Y-123240904D01*
X154675000Y-123228889D01*
X153935000Y-123228889D01*
X153813008Y-123240904D01*
X153695704Y-123276488D01*
X153670000Y-123290227D01*
X153644296Y-123276488D01*
X153526992Y-123240904D01*
X153405000Y-123228889D01*
X152665000Y-123228889D01*
X152566059Y-123238634D01*
X152553303Y-123228165D01*
X152423132Y-123158587D01*
X152281889Y-123115741D01*
X152135000Y-123101274D01*
X151965025Y-123104900D01*
X151777700Y-123292225D01*
X151752300Y-123292225D01*
X151564975Y-123104900D01*
X151395000Y-123101274D01*
X151248111Y-123115741D01*
X151106868Y-123158587D01*
X150976697Y-123228165D01*
X150963941Y-123238634D01*
X150865000Y-123228889D01*
X150125000Y-123228889D01*
X150003008Y-123240904D01*
X149885704Y-123276488D01*
X149860000Y-123290227D01*
X149834296Y-123276488D01*
X149716992Y-123240904D01*
X149595000Y-123228889D01*
X148855000Y-123228889D01*
X148733008Y-123240904D01*
X148615704Y-123276488D01*
X148590000Y-123290227D01*
X148564296Y-123276488D01*
X148446992Y-123240904D01*
X148325000Y-123228889D01*
X147585000Y-123228889D01*
X147463008Y-123240904D01*
X147345704Y-123276488D01*
X147320000Y-123290227D01*
X147294296Y-123276488D01*
X147176992Y-123240904D01*
X147055000Y-123228889D01*
X146315000Y-123228889D01*
X146193008Y-123240904D01*
X146075704Y-123276488D01*
X146050000Y-123290227D01*
X146024296Y-123276488D01*
X145906992Y-123240904D01*
X145785000Y-123228889D01*
X145045000Y-123228889D01*
X144923008Y-123240904D01*
X144805704Y-123276488D01*
X144780000Y-123290227D01*
X144754296Y-123276488D01*
X144636992Y-123240904D01*
X144515000Y-123228889D01*
X143775000Y-123228889D01*
X143653008Y-123240904D01*
X143535704Y-123276488D01*
X143510000Y-123290227D01*
X143484296Y-123276488D01*
X143366992Y-123240904D01*
X143245000Y-123228889D01*
X142505000Y-123228889D01*
X142406059Y-123238634D01*
X142393303Y-123228165D01*
X142263132Y-123158587D01*
X142121889Y-123115741D01*
X141975000Y-123101274D01*
X141805025Y-123104900D01*
X141617700Y-123292225D01*
X141617700Y-125301500D01*
X141637700Y-125301500D01*
X141637700Y-125326900D01*
X141617700Y-125326900D01*
X141617700Y-125346900D01*
X141592300Y-125346900D01*
X141592300Y-125326900D01*
X141572300Y-125326900D01*
X141572300Y-125301500D01*
X141592300Y-125301500D01*
X141592300Y-123292225D01*
X141404975Y-123104900D01*
X141235000Y-123101274D01*
X141088111Y-123115741D01*
X140946868Y-123158587D01*
X140816697Y-123228165D01*
X140803941Y-123238634D01*
X140705000Y-123228889D01*
X139965000Y-123228889D01*
X139843008Y-123240904D01*
X139725704Y-123276488D01*
X139617596Y-123334273D01*
X139522838Y-123412038D01*
X139445073Y-123506796D01*
X139387288Y-123614904D01*
X139351704Y-123732208D01*
X139339689Y-123854200D01*
X139339689Y-125790161D01*
X139145285Y-125709637D01*
X138880160Y-125656900D01*
X138609840Y-125656900D01*
X138344715Y-125709637D01*
X138094972Y-125813083D01*
X137870210Y-125963265D01*
X137679065Y-126154410D01*
X137528883Y-126379172D01*
X137425437Y-126628915D01*
X137372700Y-126894040D01*
X135039100Y-126894040D01*
X135039100Y-118119369D01*
X136947077Y-116211392D01*
X142316200Y-116211392D01*
X142316200Y-116384008D01*
X142349876Y-116553307D01*
X142415933Y-116712784D01*
X142511833Y-116856309D01*
X142633891Y-116978367D01*
X142777416Y-117074267D01*
X142936893Y-117140324D01*
X143106192Y-117174000D01*
X143278808Y-117174000D01*
X143448107Y-117140324D01*
X143510000Y-117114687D01*
X143571893Y-117140324D01*
X143741192Y-117174000D01*
X143913808Y-117174000D01*
X144083107Y-117140324D01*
X144242584Y-117074267D01*
X144386109Y-116978367D01*
X144508167Y-116856309D01*
X144604067Y-116712784D01*
X144670124Y-116553307D01*
X144703800Y-116384008D01*
X144703800Y-116211392D01*
X144670124Y-116042093D01*
X144604067Y-115882616D01*
X144508167Y-115739091D01*
X144386109Y-115617033D01*
X144381085Y-115613676D01*
X144352624Y-115470593D01*
X144286567Y-115311116D01*
X144190667Y-115167591D01*
X144068609Y-115045533D01*
X143925084Y-114949633D01*
X143765607Y-114883576D01*
X143596308Y-114849900D01*
X143423692Y-114849900D01*
X143254393Y-114883576D01*
X143094916Y-114949633D01*
X142951391Y-115045533D01*
X142829333Y-115167591D01*
X142733433Y-115311116D01*
X142667376Y-115470593D01*
X142638915Y-115613676D01*
X142633891Y-115617033D01*
X142511833Y-115739091D01*
X142415933Y-115882616D01*
X142349876Y-116042093D01*
X142316200Y-116211392D01*
X136947077Y-116211392D01*
X139451571Y-113706900D01*
X147009630Y-113706900D01*
X147280601Y-113977871D01*
X147290176Y-114026007D01*
X147356233Y-114185484D01*
X147452133Y-114329009D01*
X147574191Y-114451067D01*
X147717716Y-114546967D01*
X147877193Y-114613024D01*
X148046492Y-114646700D01*
X148219108Y-114646700D01*
X148388407Y-114613024D01*
X148547884Y-114546967D01*
X148691409Y-114451067D01*
X148813467Y-114329009D01*
X148909367Y-114185484D01*
X148975424Y-114026007D01*
X149009100Y-113856708D01*
X149009100Y-113684092D01*
X148975424Y-113514793D01*
X148909367Y-113355316D01*
X148813467Y-113211791D01*
X148691409Y-113089733D01*
X148547884Y-112993833D01*
X148388407Y-112927776D01*
X148340271Y-112918201D01*
X147875863Y-112453793D01*
X147852398Y-112425202D01*
X147738303Y-112331566D01*
X147608132Y-112261988D01*
X147466888Y-112219142D01*
X147356806Y-112208300D01*
X147356795Y-112208300D01*
X147320000Y-112204676D01*
X147283205Y-112208300D01*
X139177998Y-112208300D01*
X139141200Y-112204676D01*
X139104402Y-112208300D01*
X139104394Y-112208300D01*
X138994312Y-112219142D01*
X138853068Y-112261988D01*
X138722897Y-112331566D01*
X138637390Y-112401739D01*
X138637383Y-112401746D01*
X138608802Y-112425202D01*
X138585346Y-112453783D01*
X133785994Y-117253137D01*
X133757402Y-117276602D01*
X133716377Y-117326591D01*
X133663766Y-117390697D01*
X133621316Y-117470116D01*
X133594188Y-117520869D01*
X133551342Y-117662113D01*
X133540500Y-117772195D01*
X133540500Y-117772205D01*
X133536876Y-117809000D01*
X133540500Y-117845795D01*
X133540500Y-125430976D01*
X133402407Y-125373776D01*
X133233108Y-125340100D01*
X133060492Y-125340100D01*
X132891193Y-125373776D01*
X132731716Y-125439833D01*
X132588191Y-125535733D01*
X132466133Y-125657791D01*
X132370233Y-125801316D01*
X132304176Y-125960793D01*
X132270500Y-126130092D01*
X132270500Y-126302708D01*
X132304176Y-126472007D01*
X132370233Y-126631484D01*
X132466133Y-126775009D01*
X132588191Y-126897067D01*
X132731716Y-126992967D01*
X132891193Y-127059024D01*
X133060492Y-127092700D01*
X133233108Y-127092700D01*
X133402407Y-127059024D01*
X133540501Y-127001824D01*
X133540501Y-132923306D01*
X133513233Y-132964116D01*
X133447176Y-133123593D01*
X133413500Y-133292892D01*
X133413500Y-133455400D01*
X129469370Y-133455400D01*
X128930400Y-132916431D01*
X128930400Y-132082498D01*
X128934024Y-132045700D01*
X128930400Y-132008902D01*
X128930400Y-132008894D01*
X128919558Y-131898812D01*
X128876712Y-131757568D01*
X128807134Y-131627397D01*
X128790158Y-131606712D01*
X128736961Y-131541890D01*
X128736954Y-131541883D01*
X128713498Y-131513302D01*
X128684917Y-131489846D01*
X124431663Y-127236594D01*
X124408198Y-127208002D01*
X124294103Y-127114366D01*
X124163932Y-127044788D01*
X124022688Y-127001942D01*
X123912606Y-126991100D01*
X123912595Y-126991100D01*
X123875800Y-126987476D01*
X123839005Y-126991100D01*
X123556992Y-126991100D01*
X123516184Y-126963833D01*
X123356707Y-126897776D01*
X123187408Y-126864100D01*
X123050300Y-126864100D01*
X123050300Y-117865369D01*
X126063054Y-114852616D01*
X126177092Y-114875300D01*
X126349708Y-114875300D01*
X126519007Y-114841624D01*
X126678484Y-114775567D01*
X126822009Y-114679667D01*
X126944067Y-114557609D01*
X127039967Y-114414084D01*
X127106024Y-114254607D01*
X127139700Y-114085308D01*
X127139700Y-113912692D01*
X127106024Y-113743393D01*
X127039967Y-113583916D01*
X126944067Y-113440391D01*
X126822009Y-113318333D01*
X126678484Y-113222433D01*
X126519007Y-113156376D01*
X126349708Y-113122700D01*
X126177092Y-113122700D01*
X126007793Y-113156376D01*
X125848316Y-113222433D01*
X125805315Y-113251165D01*
X125710112Y-113260542D01*
X125568868Y-113303388D01*
X125438697Y-113372966D01*
X125324602Y-113466602D01*
X125301141Y-113495189D01*
X121797189Y-116999142D01*
X121768603Y-117022602D01*
X121745143Y-117051188D01*
X121745140Y-117051191D01*
X121674966Y-117136697D01*
X121605388Y-117266869D01*
X121587605Y-117325494D01*
X121567826Y-117390698D01*
X121562543Y-117408113D01*
X121548076Y-117555000D01*
X121551701Y-117591805D01*
X121551700Y-140454405D01*
X121548076Y-140491200D01*
X121551700Y-140527995D01*
X121551700Y-140528005D01*
X121562542Y-140638087D01*
X121596306Y-140749391D01*
X121605388Y-140779331D01*
X121674966Y-140909503D01*
X121709979Y-140952166D01*
X121768602Y-141023598D01*
X121797194Y-141047063D01*
X123446946Y-142696817D01*
X123470402Y-142725398D01*
X123498983Y-142748854D01*
X123498990Y-142748861D01*
X123575112Y-142811332D01*
X123584497Y-142819034D01*
X123714668Y-142888612D01*
X123855912Y-142931458D01*
X123965994Y-142942300D01*
X123966002Y-142942300D01*
X124002800Y-142945924D01*
X124039598Y-142942300D01*
X133445069Y-142942300D01*
X133229854Y-143086102D01*
X132926102Y-143389854D01*
X132687446Y-143747028D01*
X132523057Y-144143899D01*
X132439252Y-144565215D01*
X132439252Y-144994785D01*
X132523057Y-145416101D01*
X132687446Y-145812972D01*
X132926102Y-146170146D01*
X133229854Y-146473898D01*
X133587028Y-146712554D01*
X133983899Y-146876943D01*
X134405215Y-146960748D01*
X134834785Y-146960748D01*
X135256101Y-146876943D01*
X135652972Y-146712554D01*
X136010146Y-146473898D01*
X136313898Y-146170146D01*
X136552554Y-145812972D01*
X136716943Y-145416101D01*
X136800748Y-144994785D01*
X136800748Y-144565215D01*
X136716943Y-144143899D01*
X136552554Y-143747028D01*
X136313898Y-143389854D01*
X136010146Y-143086102D01*
X135794931Y-142942300D01*
X138500631Y-142942300D01*
X139052301Y-143493971D01*
X139052300Y-148452805D01*
X139052301Y-148452815D01*
X139052301Y-149785520D01*
X138936393Y-149808576D01*
X138776916Y-149874633D01*
X138633391Y-149970533D01*
X138511333Y-150092591D01*
X138415433Y-150236116D01*
X138349376Y-150395593D01*
X138315700Y-150564892D01*
X138315700Y-150737508D01*
X138349376Y-150906807D01*
X138353971Y-150917900D01*
X132453870Y-150917900D01*
X129651363Y-148115394D01*
X129627898Y-148086802D01*
X129513803Y-147993166D01*
X129383632Y-147923588D01*
X129242388Y-147880742D01*
X129132306Y-147869900D01*
X129132295Y-147869900D01*
X129095500Y-147866276D01*
X129058705Y-147869900D01*
X127067106Y-147869900D01*
X126172162Y-146974956D01*
X126077404Y-146897191D01*
X125969296Y-146839406D01*
X125851992Y-146803822D01*
X125730000Y-146791807D01*
X125608008Y-146803822D01*
X125490704Y-146839406D01*
X125382596Y-146897191D01*
X125287838Y-146974956D01*
X124085756Y-148177038D01*
X124007991Y-148271796D01*
X123950206Y-148379904D01*
X123914622Y-148497208D01*
X123902607Y-148619200D01*
X123914622Y-148741192D01*
X123950206Y-148858496D01*
X124007991Y-148966604D01*
X124085756Y-149061362D01*
X125287838Y-150263444D01*
X125382596Y-150341209D01*
X125490704Y-150398994D01*
X125608008Y-150434578D01*
X125730000Y-150446593D01*
X125851992Y-150434578D01*
X125969296Y-150398994D01*
X126053751Y-150353852D01*
X126053751Y-150560260D01*
X126110331Y-150844705D01*
X126221316Y-151112647D01*
X126382441Y-151353788D01*
X126587514Y-151558861D01*
X126828655Y-151719986D01*
X127096597Y-151830971D01*
X127381042Y-151887551D01*
X127671060Y-151887551D01*
X127761570Y-151869547D01*
X127723586Y-152161206D01*
X127744528Y-152474023D01*
X127826095Y-152776744D01*
X127965152Y-153057736D01*
X128020817Y-153141043D01*
X128314745Y-153200699D01*
X129304141Y-152211302D01*
X129289999Y-152197160D01*
X129307960Y-152179199D01*
X129322102Y-152193341D01*
X130311499Y-151203945D01*
X130251843Y-150910017D01*
X130168536Y-150854352D01*
X129887544Y-150715295D01*
X129584823Y-150633728D01*
X129272006Y-150612786D01*
X128980347Y-150650770D01*
X128998351Y-150560260D01*
X128998351Y-150270242D01*
X128941771Y-149985797D01*
X128830786Y-149717855D01*
X128669661Y-149476714D01*
X128561447Y-149368500D01*
X128785131Y-149368500D01*
X131587641Y-152171011D01*
X131611102Y-152199598D01*
X131639688Y-152223058D01*
X131639690Y-152223060D01*
X131725196Y-152293234D01*
X131825043Y-152346603D01*
X131855368Y-152362812D01*
X131996612Y-152405658D01*
X132106694Y-152416500D01*
X132106704Y-152416500D01*
X132143500Y-152420124D01*
X132180296Y-152416500D01*
X138482108Y-152416500D01*
X138522916Y-152443767D01*
X138682393Y-152509824D01*
X138851692Y-152543500D01*
X139024308Y-152543500D01*
X139052300Y-152537932D01*
X139052300Y-152753830D01*
X138332589Y-153473542D01*
X138304003Y-153497002D01*
X138280543Y-153525588D01*
X138280540Y-153525591D01*
X138210366Y-153611097D01*
X138140788Y-153741269D01*
X138118311Y-153815367D01*
X138097943Y-153882512D01*
X138090257Y-153960552D01*
X138083476Y-154029400D01*
X138087101Y-154066205D01*
X138087100Y-157624317D01*
X138083084Y-157621633D01*
X137923607Y-157555576D01*
X137843764Y-157539694D01*
X135710800Y-155406731D01*
X135699239Y-155385102D01*
X135605603Y-155271007D01*
X135491508Y-155177371D01*
X135361337Y-155107793D01*
X135220093Y-155064947D01*
X135110011Y-155054105D01*
X134184259Y-155054105D01*
X134057815Y-154864868D01*
X133852742Y-154659795D01*
X133611601Y-154498670D01*
X133343659Y-154387685D01*
X133059214Y-154331105D01*
X132769196Y-154331105D01*
X132546071Y-154375488D01*
X132590454Y-154152363D01*
X132590454Y-153862345D01*
X132533874Y-153577900D01*
X132422889Y-153309958D01*
X132261764Y-153068817D01*
X132056691Y-152863744D01*
X131815550Y-152702619D01*
X131547608Y-152591634D01*
X131263163Y-152535054D01*
X130973145Y-152535054D01*
X130882634Y-152553058D01*
X130920618Y-152261398D01*
X130899676Y-151948581D01*
X130818109Y-151645860D01*
X130679052Y-151364868D01*
X130623387Y-151281561D01*
X130329459Y-151221905D01*
X129340063Y-152211302D01*
X129354205Y-152225444D01*
X129336244Y-152243405D01*
X129322102Y-152229263D01*
X128332705Y-153218659D01*
X128392361Y-153512587D01*
X128475668Y-153568252D01*
X128756660Y-153707309D01*
X129059381Y-153788876D01*
X129372198Y-153809818D01*
X129663858Y-153771834D01*
X129645854Y-153862345D01*
X129645854Y-154152363D01*
X129702434Y-154436808D01*
X129813419Y-154704750D01*
X129974544Y-154945891D01*
X130179617Y-155150964D01*
X130368854Y-155277408D01*
X130368854Y-156002558D01*
X130365230Y-156039354D01*
X130368854Y-156076149D01*
X130368854Y-156076159D01*
X130379696Y-156186241D01*
X130399253Y-156250711D01*
X130422542Y-156327485D01*
X130492120Y-156457657D01*
X130534777Y-156509634D01*
X130585756Y-156571752D01*
X130614348Y-156595217D01*
X131905139Y-157886009D01*
X131928602Y-157914598D01*
X131957188Y-157938058D01*
X131957190Y-157938060D01*
X132042696Y-158008234D01*
X132159362Y-158070593D01*
X132172868Y-158077812D01*
X132314112Y-158120658D01*
X132424194Y-158131500D01*
X132424203Y-158131500D01*
X132460999Y-158135124D01*
X132497795Y-158131500D01*
X134995431Y-158131500D01*
X136755455Y-159891524D01*
X136761876Y-159923807D01*
X136827933Y-160083284D01*
X136923833Y-160226809D01*
X137045891Y-160348867D01*
X137189416Y-160444767D01*
X137348893Y-160510824D01*
X137518192Y-160544500D01*
X137690808Y-160544500D01*
X137860107Y-160510824D01*
X138019584Y-160444767D01*
X138094959Y-160394403D01*
X138097942Y-160424687D01*
X138134287Y-160544500D01*
X138140788Y-160565931D01*
X138210366Y-160696103D01*
X138256318Y-160752095D01*
X138304002Y-160810198D01*
X138332594Y-160833663D01*
X139694441Y-162195510D01*
X138822036Y-161888025D01*
X136598941Y-160939091D01*
X134441695Y-159848663D01*
X132359335Y-158621308D01*
X130360509Y-157262125D01*
X128453555Y-155776781D01*
X126646431Y-154171476D01*
X124946690Y-152452921D01*
X123361376Y-150628238D01*
X121897116Y-148705056D01*
X120560017Y-146691390D01*
X119355649Y-144595631D01*
X118289045Y-142426537D01*
X117364633Y-140193123D01*
X116586279Y-137904711D01*
X115957221Y-135570832D01*
X115480085Y-133201232D01*
X115156859Y-130805769D01*
X114988894Y-128394464D01*
X114976885Y-125977323D01*
X115120884Y-123564463D01*
X115420292Y-121165914D01*
X115873857Y-118791697D01*
X116479696Y-116451677D01*
X117235275Y-114155645D01*
X118137451Y-111913149D01*
X119182450Y-109733566D01*
X119595975Y-108997135D01*
X132357212Y-108997135D01*
X132357212Y-109442865D01*
X132444169Y-109880031D01*
X132614743Y-110291832D01*
X132862378Y-110662443D01*
X133177557Y-110977622D01*
X133548168Y-111225257D01*
X133959969Y-111395831D01*
X134397135Y-111482788D01*
X134842865Y-111482788D01*
X135280031Y-111395831D01*
X135691832Y-111225257D01*
X136062443Y-110977622D01*
X136377622Y-110662443D01*
X136625257Y-110291832D01*
X136795831Y-109880031D01*
X136882788Y-109442865D01*
X136882788Y-109005215D01*
X167999252Y-109005215D01*
X167999252Y-109434785D01*
X168083057Y-109856101D01*
X168247446Y-110252972D01*
X168486102Y-110610146D01*
X168789854Y-110913898D01*
X169147028Y-111152554D01*
X169543899Y-111316943D01*
X169965215Y-111400748D01*
X170394785Y-111400748D01*
X170816101Y-111316943D01*
X171212972Y-111152554D01*
X171570146Y-110913898D01*
X171873898Y-110610146D01*
X172112554Y-110252972D01*
X172276943Y-109856101D01*
X172360748Y-109434785D01*
X172360748Y-109005215D01*
X172276943Y-108583899D01*
X172112554Y-108187028D01*
X171873898Y-107829854D01*
X171570146Y-107526102D01*
X171212972Y-107287446D01*
X170816101Y-107123057D01*
X170394785Y-107039252D01*
X169965215Y-107039252D01*
X169543899Y-107123057D01*
X169147028Y-107287446D01*
X168789854Y-107526102D01*
X168486102Y-107829854D01*
X168247446Y-108187028D01*
X168083057Y-108583899D01*
X167999252Y-109005215D01*
X136882788Y-109005215D01*
X136882788Y-108997135D01*
X136795831Y-108559969D01*
X136625257Y-108148168D01*
X136377622Y-107777557D01*
X136062443Y-107462378D01*
X135691832Y-107214743D01*
X135280031Y-107044169D01*
X134842865Y-106957212D01*
X134397135Y-106957212D01*
X133959969Y-107044169D01*
X133548168Y-107214743D01*
X133177557Y-107462378D01*
X132862378Y-107777557D01*
X132614743Y-108148168D01*
X132444169Y-108559969D01*
X132357212Y-108997135D01*
X119595975Y-108997135D01*
X120365934Y-107625945D01*
X121682951Y-105599106D01*
X123128037Y-103661458D01*
X124695135Y-101821125D01*
X126377742Y-100085738D01*
X128168809Y-98462572D01*
X130060898Y-96958365D01*
X132046129Y-95579380D01*
X134116194Y-94331395D01*
X136262488Y-93219590D01*
X138476052Y-92248611D01*
X140747648Y-91422506D01*
X143067847Y-90744706D01*
X145426940Y-90218050D01*
X147815087Y-89844732D01*
X150222368Y-89626302D01*
X152638724Y-89563676D01*
X155054073Y-89657112D01*
G37*
X155054073Y-89657112D02*
X157458365Y-89906223D01*
X159841559Y-90309967D01*
X162193756Y-90866668D01*
X164505093Y-91573991D01*
X166765999Y-92429009D01*
X168966992Y-93428134D01*
X171098931Y-94567219D01*
X173152921Y-95841507D01*
X175120385Y-97245682D01*
X176993144Y-98773902D01*
X178763374Y-100419784D01*
X180423708Y-102176478D01*
X181967215Y-104036656D01*
X183387464Y-105992563D01*
X184678534Y-108036045D01*
X185835037Y-110158573D01*
X186852166Y-112351328D01*
X187725667Y-114605139D01*
X188451902Y-116910611D01*
X189027851Y-119258173D01*
X189386137Y-121272700D01*
X179060994Y-121272700D01*
X179120609Y-121232867D01*
X179242667Y-121110809D01*
X179338567Y-120967284D01*
X179404624Y-120807807D01*
X179438300Y-120638508D01*
X179438300Y-120465892D01*
X179404624Y-120296593D01*
X179338567Y-120137116D01*
X179285900Y-120058294D01*
X179285900Y-108066798D01*
X179289524Y-108030000D01*
X179285900Y-107993202D01*
X179285900Y-107993194D01*
X179275058Y-107883112D01*
X179232212Y-107741868D01*
X179162634Y-107611697D01*
X179092461Y-107526190D01*
X179092454Y-107526183D01*
X179068998Y-107497602D01*
X179040418Y-107474147D01*
X168170463Y-96604194D01*
X168146998Y-96575602D01*
X168032903Y-96481966D01*
X167902732Y-96412388D01*
X167761488Y-96369542D01*
X167651406Y-96358700D01*
X167651395Y-96358700D01*
X167614600Y-96355076D01*
X167577805Y-96358700D01*
X167333892Y-96358700D01*
X167293084Y-96331433D01*
X167133607Y-96265376D01*
X166964308Y-96231700D01*
X166791692Y-96231700D01*
X166622393Y-96265376D01*
X166462916Y-96331433D01*
X166319391Y-96427333D01*
X166197333Y-96549391D01*
X166101433Y-96692916D01*
X166035376Y-96852393D01*
X166001700Y-97021692D01*
X166001700Y-97194308D01*
X166035376Y-97363607D01*
X166101433Y-97523084D01*
X166197333Y-97666609D01*
X166319391Y-97788667D01*
X166462916Y-97884567D01*
X166622393Y-97950624D01*
X166791692Y-97984300D01*
X166964308Y-97984300D01*
X167133607Y-97950624D01*
X167293084Y-97884567D01*
X167316112Y-97869181D01*
X169006031Y-99559100D01*
X166822112Y-99559100D01*
X166745867Y-99444991D01*
X166623809Y-99322933D01*
X166480284Y-99227033D01*
X166320807Y-99160976D01*
X166151508Y-99127300D01*
X165978892Y-99127300D01*
X165809593Y-99160976D01*
X165650116Y-99227033D01*
X165506591Y-99322933D01*
X165384533Y-99444991D01*
X165288633Y-99588516D01*
X165222576Y-99747993D01*
X165188900Y-99917292D01*
X165188900Y-100089908D01*
X165222576Y-100259207D01*
X165288633Y-100418684D01*
X165384533Y-100562209D01*
X165506591Y-100684267D01*
X165650116Y-100780167D01*
X165809593Y-100846224D01*
X165855289Y-100855314D01*
X165951697Y-100934434D01*
X166081868Y-101004012D01*
X166223112Y-101046858D01*
X166333194Y-101057700D01*
X166333203Y-101057700D01*
X166369999Y-101061324D01*
X166406795Y-101057700D01*
X169641031Y-101057700D01*
X172012990Y-103429660D01*
X172012996Y-103429665D01*
X172054031Y-103470700D01*
X149084078Y-103470700D01*
X149081284Y-103468833D01*
X148936718Y-103408952D01*
X149805013Y-102540657D01*
X149833598Y-102517198D01*
X149857060Y-102488610D01*
X149927234Y-102403104D01*
X149960214Y-102341402D01*
X149996812Y-102272932D01*
X150039658Y-102131688D01*
X150050500Y-102021606D01*
X150050500Y-102021597D01*
X150054124Y-101984801D01*
X150050500Y-101948005D01*
X150050500Y-100590392D01*
X160286700Y-100590392D01*
X160286700Y-100763008D01*
X160320376Y-100932307D01*
X160386433Y-101091784D01*
X160482333Y-101235309D01*
X160604391Y-101357367D01*
X160747916Y-101453267D01*
X160907393Y-101519324D01*
X161076692Y-101553000D01*
X161249308Y-101553000D01*
X161418607Y-101519324D01*
X161578084Y-101453267D01*
X161721609Y-101357367D01*
X161843667Y-101235309D01*
X161939567Y-101091784D01*
X162005624Y-100932307D01*
X162039300Y-100763008D01*
X162039300Y-100590392D01*
X162005624Y-100421093D01*
X161939567Y-100261616D01*
X161843667Y-100118091D01*
X161721609Y-99996033D01*
X161578084Y-99900133D01*
X161418607Y-99834076D01*
X161249308Y-99800400D01*
X161076692Y-99800400D01*
X160907393Y-99834076D01*
X160747916Y-99900133D01*
X160604391Y-99996033D01*
X160482333Y-100118091D01*
X160386433Y-100261616D01*
X160320376Y-100421093D01*
X160286700Y-100590392D01*
X150050500Y-100590392D01*
X150050500Y-100154696D01*
X150054124Y-100117900D01*
X150050500Y-100081104D01*
X150050500Y-100081094D01*
X150043466Y-100009674D01*
X150115607Y-99995324D01*
X150275084Y-99929267D01*
X150418609Y-99833367D01*
X150540667Y-99711309D01*
X150636567Y-99567784D01*
X150702624Y-99408307D01*
X150736300Y-99239008D01*
X150736300Y-99066392D01*
X150702624Y-98897093D01*
X150636567Y-98737616D01*
X150540667Y-98594091D01*
X150418609Y-98472033D01*
X150275084Y-98376133D01*
X150115607Y-98310076D01*
X150067470Y-98300501D01*
X149844363Y-98077394D01*
X149820898Y-98048802D01*
X149706803Y-97955166D01*
X149576632Y-97885588D01*
X149435388Y-97842742D01*
X149325306Y-97831900D01*
X149325295Y-97831900D01*
X149288500Y-97828276D01*
X149251705Y-97831900D01*
X147991798Y-97831900D01*
X147955000Y-97828276D01*
X147918202Y-97831900D01*
X147918194Y-97831900D01*
X147808112Y-97842742D01*
X147666868Y-97885588D01*
X147536697Y-97955166D01*
X147451190Y-98025339D01*
X147451183Y-98025346D01*
X147422602Y-98048802D01*
X147399145Y-98077384D01*
X146790789Y-98685742D01*
X146762203Y-98709202D01*
X146738743Y-98737788D01*
X146738740Y-98737791D01*
X146668566Y-98823297D01*
X146598988Y-98953469D01*
X146583111Y-99005811D01*
X146556143Y-99094712D01*
X146550649Y-99150494D01*
X146541676Y-99241600D01*
X146545301Y-99278405D01*
X146545301Y-99667831D01*
X145402300Y-98524831D01*
X145402300Y-97812069D01*
X145407869Y-97806500D01*
X146102108Y-97806500D01*
X146142916Y-97833767D01*
X146302393Y-97899824D01*
X146471692Y-97933500D01*
X146644308Y-97933500D01*
X146813607Y-97899824D01*
X146973084Y-97833767D01*
X147116609Y-97737867D01*
X147238667Y-97615809D01*
X147334567Y-97472284D01*
X147400624Y-97312807D01*
X147434300Y-97143508D01*
X147434300Y-96970892D01*
X147400624Y-96801593D01*
X147334567Y-96642116D01*
X147238667Y-96498591D01*
X147116609Y-96376533D01*
X146973084Y-96280633D01*
X146813607Y-96214576D01*
X146644308Y-96180900D01*
X146471692Y-96180900D01*
X146302393Y-96214576D01*
X146142916Y-96280633D01*
X146102108Y-96307900D01*
X145134296Y-96307900D01*
X145097500Y-96304276D01*
X145060704Y-96307900D01*
X145060694Y-96307900D01*
X144950612Y-96318742D01*
X144809368Y-96361588D01*
X144679196Y-96431166D01*
X144654895Y-96451110D01*
X144565102Y-96524802D01*
X144541637Y-96553394D01*
X144149189Y-96945842D01*
X144120603Y-96969302D01*
X144097143Y-96997888D01*
X144097140Y-96997891D01*
X144026966Y-97083397D01*
X143957388Y-97213569D01*
X143927540Y-97311967D01*
X143914543Y-97354812D01*
X143910473Y-97396132D01*
X143900076Y-97501700D01*
X143903701Y-97538505D01*
X143903700Y-98798404D01*
X143900076Y-98835200D01*
X143903700Y-98871995D01*
X143903700Y-98872005D01*
X143914542Y-98982087D01*
X143948707Y-99094712D01*
X143957388Y-99123331D01*
X144026966Y-99253503D01*
X144071681Y-99307988D01*
X144120602Y-99367598D01*
X144149194Y-99391063D01*
X145705801Y-100947671D01*
X145715376Y-100995807D01*
X145781433Y-101155284D01*
X145877333Y-101298809D01*
X145999391Y-101420867D01*
X146142916Y-101516767D01*
X146302393Y-101582824D01*
X146471692Y-101616500D01*
X146545300Y-101616500D01*
X146545300Y-102741230D01*
X146400030Y-102886500D01*
X145680395Y-102886500D01*
X145643599Y-102882876D01*
X145606803Y-102886500D01*
X145606794Y-102886500D01*
X145496712Y-102897342D01*
X145355468Y-102940188D01*
X145284955Y-102977878D01*
X145225296Y-103009766D01*
X145176278Y-103049995D01*
X145111202Y-103103402D01*
X145087741Y-103131989D01*
X143945989Y-104273742D01*
X143917403Y-104297202D01*
X143893943Y-104325788D01*
X143893940Y-104325791D01*
X143823766Y-104411297D01*
X143754188Y-104541469D01*
X143728628Y-104625731D01*
X143711343Y-104682712D01*
X143704480Y-104752398D01*
X143696876Y-104829600D01*
X143700501Y-104866405D01*
X143700500Y-105910404D01*
X143696876Y-105947200D01*
X143700500Y-105983995D01*
X143700500Y-105984005D01*
X143711342Y-106094087D01*
X143744657Y-106203912D01*
X143754188Y-106235331D01*
X143823766Y-106365503D01*
X143866765Y-106417897D01*
X143917402Y-106479598D01*
X143945994Y-106503063D01*
X144782941Y-107340011D01*
X144806402Y-107368598D01*
X144834988Y-107392058D01*
X144834990Y-107392060D01*
X144920496Y-107462234D01*
X144990297Y-107499543D01*
X145050668Y-107531812D01*
X145191912Y-107574658D01*
X145301994Y-107585500D01*
X145302004Y-107585500D01*
X145338800Y-107589124D01*
X145375596Y-107585500D01*
X151296405Y-107585500D01*
X151333200Y-107589124D01*
X151369995Y-107585500D01*
X151370006Y-107585500D01*
X151480088Y-107574658D01*
X151621332Y-107531812D01*
X151751503Y-107462234D01*
X151865598Y-107368598D01*
X151889063Y-107340006D01*
X152659570Y-106569500D01*
X171114231Y-106569500D01*
X174180501Y-109635771D01*
X174180501Y-112488923D01*
X174158329Y-112455740D01*
X174137942Y-112417599D01*
X174110507Y-112384169D01*
X174086467Y-112348191D01*
X174055868Y-112317592D01*
X174028435Y-112284165D01*
X173995008Y-112256732D01*
X173964409Y-112226133D01*
X173928431Y-112202093D01*
X173895001Y-112174658D01*
X173856860Y-112154271D01*
X173820884Y-112130233D01*
X173780911Y-112113676D01*
X173742768Y-112093288D01*
X173701379Y-112080733D01*
X173661407Y-112064176D01*
X173618974Y-112055735D01*
X173577584Y-112043180D01*
X173534540Y-112038940D01*
X173492108Y-112030500D01*
X173448847Y-112030500D01*
X173405799Y-112026260D01*
X173362751Y-112030500D01*
X173319492Y-112030500D01*
X173277061Y-112038940D01*
X173234015Y-112043180D01*
X173192624Y-112055736D01*
X173150193Y-112064176D01*
X173110222Y-112080732D01*
X173068832Y-112093288D01*
X173030688Y-112113676D01*
X172990716Y-112130233D01*
X172954743Y-112154269D01*
X172916598Y-112174658D01*
X172883166Y-112202096D01*
X172847191Y-112226133D01*
X172725133Y-112348191D01*
X172725129Y-112348197D01*
X172613407Y-112459919D01*
X172579965Y-112487364D01*
X172552522Y-112520804D01*
X172470458Y-112620799D01*
X172404216Y-112744729D01*
X172389088Y-112773032D01*
X172348510Y-112906801D01*
X172338980Y-112938216D01*
X172322060Y-113110000D01*
X172326301Y-113153057D01*
X172326300Y-114667152D01*
X172322060Y-114710200D01*
X172326300Y-114753248D01*
X172326300Y-114753249D01*
X172338979Y-114881984D01*
X172389087Y-115047167D01*
X172470458Y-115199401D01*
X172579964Y-115332836D01*
X172613411Y-115360285D01*
X173418501Y-116165376D01*
X173418501Y-119468025D01*
X173353393Y-119480976D01*
X173193916Y-119547033D01*
X173153108Y-119574300D01*
X172985395Y-119574300D01*
X172948599Y-119570676D01*
X172911803Y-119574300D01*
X172911794Y-119574300D01*
X172801712Y-119585142D01*
X172660468Y-119627988D01*
X172530297Y-119697566D01*
X172416202Y-119791202D01*
X172392737Y-119819794D01*
X171962194Y-120250337D01*
X171933602Y-120273802D01*
X171910140Y-120302391D01*
X171839966Y-120387897D01*
X171795820Y-120470489D01*
X171770388Y-120518069D01*
X171727542Y-120659313D01*
X171716700Y-120769395D01*
X171716700Y-120769405D01*
X171713076Y-120806200D01*
X171716700Y-120842996D01*
X171716701Y-124991629D01*
X165713794Y-130994537D01*
X165685202Y-131018002D01*
X165650773Y-131059954D01*
X165591566Y-131132097D01*
X165533844Y-131240088D01*
X165521988Y-131262269D01*
X165479142Y-131403513D01*
X165468300Y-131513595D01*
X165468300Y-131513605D01*
X165464676Y-131550400D01*
X165468300Y-131587195D01*
X165468301Y-137672732D01*
X165388084Y-137619133D01*
X165228607Y-137553076D01*
X165059308Y-137519400D01*
X164886692Y-137519400D01*
X164717393Y-137553076D01*
X164557916Y-137619133D01*
X164414391Y-137715033D01*
X164356024Y-137773400D01*
X160539392Y-137773400D01*
X160498584Y-137746133D01*
X160339107Y-137680076D01*
X160169808Y-137646400D01*
X159997192Y-137646400D01*
X159827893Y-137680076D01*
X159668416Y-137746133D01*
X159524891Y-137842033D01*
X159402833Y-137964091D01*
X159306933Y-138107616D01*
X159240876Y-138267093D01*
X159207200Y-138436392D01*
X159207200Y-138525749D01*
X159192112Y-138525636D01*
X159130809Y-138464333D01*
X158987284Y-138368433D01*
X158827807Y-138302376D01*
X158779672Y-138292801D01*
X157957870Y-137471000D01*
X158969608Y-137471000D01*
X159010416Y-137498267D01*
X159169893Y-137564324D01*
X159339192Y-137598000D01*
X159511808Y-137598000D01*
X159681107Y-137564324D01*
X159840584Y-137498267D01*
X159984109Y-137402367D01*
X160106167Y-137280309D01*
X160202067Y-137136784D01*
X160268124Y-136977307D01*
X160301800Y-136808008D01*
X160301800Y-136635392D01*
X160268124Y-136466093D01*
X160202067Y-136306616D01*
X160106167Y-136163091D01*
X159984109Y-136041033D01*
X159840584Y-135945133D01*
X159681107Y-135879076D01*
X159511808Y-135845400D01*
X159339192Y-135845400D01*
X159169893Y-135879076D01*
X159010416Y-135945133D01*
X158969608Y-135972400D01*
X156052871Y-135972400D01*
X153781363Y-133700894D01*
X153757898Y-133672302D01*
X153643803Y-133578666D01*
X153513632Y-133509088D01*
X153372388Y-133466242D01*
X153262306Y-133455400D01*
X153262295Y-133455400D01*
X153225500Y-133451776D01*
X153188705Y-133455400D01*
X139402470Y-133455400D01*
X139399624Y-133441093D01*
X139333567Y-133281616D01*
X139237667Y-133138091D01*
X139115609Y-133016033D01*
X138972084Y-132920133D01*
X138812607Y-132854076D01*
X138643308Y-132820400D01*
X138470692Y-132820400D01*
X138301393Y-132854076D01*
X138141916Y-132920133D01*
X137998391Y-133016033D01*
X137876333Y-133138091D01*
X137780433Y-133281616D01*
X137714376Y-133441093D01*
X137711530Y-133455400D01*
X135166100Y-133455400D01*
X135166100Y-133292892D01*
X135132424Y-133123593D01*
X135066367Y-132964116D01*
X135039100Y-132923308D01*
X135039100Y-130204200D01*
X139212074Y-130204200D01*
X139226541Y-130351089D01*
X139269387Y-130492332D01*
X139338965Y-130622503D01*
X139432601Y-130736599D01*
X139546697Y-130830235D01*
X139676868Y-130899813D01*
X139818111Y-130942659D01*
X139965000Y-130957126D01*
X140134975Y-130953500D01*
X140322300Y-130766175D01*
X140322300Y-128756900D01*
X139403025Y-128756900D01*
X139215700Y-128944225D01*
X139212074Y-130204200D01*
X135039100Y-130204200D01*
X135039100Y-126894040D01*
X137372700Y-126894040D01*
X137372700Y-127164360D01*
X137425437Y-127429485D01*
X137528883Y-127679228D01*
X137679065Y-127903990D01*
X137870210Y-128095135D01*
X138094972Y-128245317D01*
X138344715Y-128348763D01*
X138609840Y-128401500D01*
X138880160Y-128401500D01*
X139145285Y-128348763D01*
X139215054Y-128319864D01*
X139215700Y-128544175D01*
X139403025Y-128731500D01*
X140322300Y-128731500D01*
X140322300Y-128711500D01*
X140347700Y-128711500D01*
X140347700Y-128731500D01*
X140367700Y-128731500D01*
X140367700Y-128756900D01*
X140347700Y-128756900D01*
X140347700Y-130766175D01*
X140535025Y-130953500D01*
X140705000Y-130957126D01*
X140851889Y-130942659D01*
X140993132Y-130899813D01*
X141123303Y-130830235D01*
X141136059Y-130819766D01*
X141235000Y-130829511D01*
X141975000Y-130829511D01*
X142073941Y-130819766D01*
X142086697Y-130830235D01*
X142216868Y-130899813D01*
X142358111Y-130942659D01*
X142505000Y-130957126D01*
X142674975Y-130953500D01*
X142862300Y-130766175D01*
X142862300Y-128756900D01*
X142842300Y-128756900D01*
X142842300Y-128731500D01*
X142862300Y-128731500D01*
X142862300Y-128711500D01*
X142887700Y-128711500D01*
X142887700Y-128731500D01*
X142907700Y-128731500D01*
X142907700Y-128756900D01*
X142887700Y-128756900D01*
X142887700Y-130766175D01*
X143075025Y-130953500D01*
X143245000Y-130957126D01*
X143391889Y-130942659D01*
X143533132Y-130899813D01*
X143663303Y-130830235D01*
X143676059Y-130819766D01*
X143775000Y-130829511D01*
X144515000Y-130829511D01*
X144636992Y-130817496D01*
X144754296Y-130781912D01*
X144780000Y-130768173D01*
X144805704Y-130781912D01*
X144923008Y-130817496D01*
X145045000Y-130829511D01*
X145785000Y-130829511D01*
X145906992Y-130817496D01*
X146024296Y-130781912D01*
X146050000Y-130768173D01*
X146075704Y-130781912D01*
X146193008Y-130817496D01*
X146315000Y-130829511D01*
X147055000Y-130829511D01*
X147176992Y-130817496D01*
X147294296Y-130781912D01*
X147320000Y-130768173D01*
X147345704Y-130781912D01*
X147463008Y-130817496D01*
X147585000Y-130829511D01*
X148325000Y-130829511D01*
X148446992Y-130817496D01*
X148564296Y-130781912D01*
X148590000Y-130768173D01*
X148615704Y-130781912D01*
X148733008Y-130817496D01*
X148855000Y-130829511D01*
X149595000Y-130829511D01*
X149716992Y-130817496D01*
X149834296Y-130781912D01*
X149860000Y-130768173D01*
X149885704Y-130781912D01*
X150003008Y-130817496D01*
X150125000Y-130829511D01*
X150865000Y-130829511D01*
X150963941Y-130819766D01*
X150976697Y-130830235D01*
X151106868Y-130899813D01*
X151248111Y-130942659D01*
X151395000Y-130957126D01*
X151564975Y-130953500D01*
X151752300Y-130766175D01*
X151752300Y-128756900D01*
X151732300Y-128756900D01*
X151732300Y-128731500D01*
X151752300Y-128731500D01*
X151752300Y-125326900D01*
X151732300Y-125326900D01*
X151732300Y-125301500D01*
X151752300Y-125301500D01*
X151752300Y-123292225D01*
X151777700Y-123292225D01*
X151777700Y-125301500D01*
X151797700Y-125301500D01*
X151797700Y-125326900D01*
X151777700Y-125326900D01*
X151777700Y-128731500D01*
X151797700Y-128731500D01*
X151797700Y-128756900D01*
X151777700Y-128756900D01*
X151777700Y-130766175D01*
X151965025Y-130953500D01*
X152135000Y-130957126D01*
X152281889Y-130942659D01*
X152291965Y-130939603D01*
X152296543Y-130986088D01*
X152306224Y-131018002D01*
X152339388Y-131127331D01*
X152408966Y-131257503D01*
X152472811Y-131335297D01*
X152502603Y-131371598D01*
X152531189Y-131395058D01*
X154765139Y-133629009D01*
X154788602Y-133657598D01*
X154817188Y-133681058D01*
X154817190Y-133681060D01*
X154902696Y-133751234D01*
X154953079Y-133778164D01*
X155032868Y-133820812D01*
X155174112Y-133863658D01*
X155284194Y-133874500D01*
X155284203Y-133874500D01*
X155320999Y-133878124D01*
X155357795Y-133874500D01*
X158820631Y-133874500D01*
X159441729Y-134495599D01*
X159431376Y-134520593D01*
X159397700Y-134689892D01*
X159397700Y-134862508D01*
X159431376Y-135031807D01*
X159497433Y-135191284D01*
X159593333Y-135334809D01*
X159715391Y-135456867D01*
X159858916Y-135552767D01*
X160018393Y-135618824D01*
X160187692Y-135652500D01*
X160360308Y-135652500D01*
X160529607Y-135618824D01*
X160689084Y-135552767D01*
X160832609Y-135456867D01*
X160954667Y-135334809D01*
X161050567Y-135191284D01*
X161116624Y-135031807D01*
X161150300Y-134862508D01*
X161150300Y-134689892D01*
X161116624Y-134520593D01*
X161050567Y-134361116D01*
X161023300Y-134320308D01*
X161023300Y-134304995D01*
X161026924Y-134268199D01*
X161023300Y-134231403D01*
X161023300Y-134231394D01*
X161012458Y-134121312D01*
X160969612Y-133980068D01*
X160921433Y-133889931D01*
X160900034Y-133849896D01*
X160829860Y-133764390D01*
X160829858Y-133764388D01*
X160806398Y-133735802D01*
X160777812Y-133712342D01*
X160576563Y-133511093D01*
X160705609Y-133424867D01*
X160827667Y-133302809D01*
X160923567Y-133159284D01*
X160989624Y-132999807D01*
X161023300Y-132830508D01*
X161023300Y-132657892D01*
X160989624Y-132488593D01*
X160923567Y-132329116D01*
X160905490Y-132302062D01*
X162515503Y-130888393D01*
X162536868Y-130899813D01*
X162678111Y-130942659D01*
X162825000Y-130957126D01*
X162994975Y-130953500D01*
X163182300Y-130766175D01*
X163182300Y-128756900D01*
X163162300Y-128756900D01*
X163162300Y-128731500D01*
X163182300Y-128731500D01*
X163182300Y-128711500D01*
X163207700Y-128711500D01*
X163207700Y-128731500D01*
X163227700Y-128731500D01*
X163227700Y-128756900D01*
X163207700Y-128756900D01*
X163207700Y-130766175D01*
X163395025Y-130953500D01*
X163565000Y-130957126D01*
X163711889Y-130942659D01*
X163853132Y-130899813D01*
X163983303Y-130830235D01*
X163996059Y-130819766D01*
X164095000Y-130829511D01*
X164835000Y-130829511D01*
X164956992Y-130817496D01*
X165074296Y-130781912D01*
X165182404Y-130724127D01*
X165277162Y-130646362D01*
X165354927Y-130551604D01*
X165412712Y-130443496D01*
X165448296Y-130326192D01*
X165460311Y-130204200D01*
X165460311Y-128268239D01*
X165654715Y-128348763D01*
X165919840Y-128401500D01*
X166190160Y-128401500D01*
X166455285Y-128348763D01*
X166705028Y-128245317D01*
X166929790Y-128095135D01*
X167120935Y-127903990D01*
X167271117Y-127679228D01*
X167374563Y-127429485D01*
X167427300Y-127164360D01*
X167427300Y-126894040D01*
X167374563Y-126628915D01*
X167271117Y-126379172D01*
X167120935Y-126154410D01*
X166929790Y-125963265D01*
X166705028Y-125813083D01*
X166455285Y-125709637D01*
X166190160Y-125656900D01*
X165919840Y-125656900D01*
X165654715Y-125709637D01*
X165584946Y-125738536D01*
X165584300Y-125514225D01*
X165396975Y-125326900D01*
X164477700Y-125326900D01*
X164477700Y-125346900D01*
X164452300Y-125346900D01*
X164452300Y-125326900D01*
X164432300Y-125326900D01*
X164432300Y-125301500D01*
X164452300Y-125301500D01*
X164452300Y-123292225D01*
X164477700Y-123292225D01*
X164477700Y-125301500D01*
X165396975Y-125301500D01*
X165584300Y-125114175D01*
X165587926Y-123854200D01*
X165573459Y-123707311D01*
X165530613Y-123566068D01*
X165461035Y-123435897D01*
X165367399Y-123321801D01*
X165253303Y-123228165D01*
X165123132Y-123158587D01*
X164981889Y-123115741D01*
X164835000Y-123101274D01*
X164665025Y-123104900D01*
X164477700Y-123292225D01*
X164452300Y-123292225D01*
X164264975Y-123104900D01*
X164095000Y-123101274D01*
X163948111Y-123115741D01*
X163806868Y-123158587D01*
X163676697Y-123228165D01*
X163663941Y-123238634D01*
X163565000Y-123228889D01*
X162825000Y-123228889D01*
X162726059Y-123238634D01*
X162713303Y-123228165D01*
X162583132Y-123158587D01*
X162441889Y-123115741D01*
X162295000Y-123101274D01*
X162125025Y-123104900D01*
X161937700Y-123292225D01*
X161937700Y-125301500D01*
X161957700Y-125301500D01*
X161957700Y-125326900D01*
X161937700Y-125326900D01*
X161937700Y-125346900D01*
X161912300Y-125346900D01*
X161912300Y-125326900D01*
X161892300Y-125326900D01*
X161892300Y-125301500D01*
X161912300Y-125301500D01*
X161912300Y-123292225D01*
X161724975Y-123104900D01*
X161555000Y-123101274D01*
X161408111Y-123115741D01*
X161266868Y-123158587D01*
X161136697Y-123228165D01*
X161123941Y-123238634D01*
X161025000Y-123228889D01*
X160285000Y-123228889D01*
X160163008Y-123240904D01*
X160045704Y-123276488D01*
X160020000Y-123290227D01*
X159994296Y-123276488D01*
X159876992Y-123240904D01*
X159755000Y-123228889D01*
X159015000Y-123228889D01*
X158893008Y-123240904D01*
X158775704Y-123276488D01*
X158750000Y-123290227D01*
X158724296Y-123276488D01*
X158606992Y-123240904D01*
X158485000Y-123228889D01*
X157745000Y-123228889D01*
X157623008Y-123240904D01*
X157505704Y-123276488D01*
X157480000Y-123290227D01*
X157454296Y-123276488D01*
X157336992Y-123240904D01*
X157215000Y-123228889D01*
X156475000Y-123228889D01*
X156353008Y-123240904D01*
X156235704Y-123276488D01*
X156210000Y-123290227D01*
X156184296Y-123276488D01*
X156066992Y-123240904D01*
X155945000Y-123228889D01*
X155205000Y-123228889D01*
X155083008Y-123240904D01*
X154965704Y-123276488D01*
X154940000Y-123290227D01*
X154914296Y-123276488D01*
X154796992Y-123240904D01*
X154675000Y-123228889D01*
X153935000Y-123228889D01*
X153813008Y-123240904D01*
X153695704Y-123276488D01*
X153670000Y-123290227D01*
X153644296Y-123276488D01*
X153526992Y-123240904D01*
X153405000Y-123228889D01*
X152665000Y-123228889D01*
X152566059Y-123238634D01*
X152553303Y-123228165D01*
X152423132Y-123158587D01*
X152281889Y-123115741D01*
X152135000Y-123101274D01*
X151965025Y-123104900D01*
X151777700Y-123292225D01*
X151752300Y-123292225D01*
X151564975Y-123104900D01*
X151395000Y-123101274D01*
X151248111Y-123115741D01*
X151106868Y-123158587D01*
X150976697Y-123228165D01*
X150963941Y-123238634D01*
X150865000Y-123228889D01*
X150125000Y-123228889D01*
X150003008Y-123240904D01*
X149885704Y-123276488D01*
X149860000Y-123290227D01*
X149834296Y-123276488D01*
X149716992Y-123240904D01*
X149595000Y-123228889D01*
X148855000Y-123228889D01*
X148733008Y-123240904D01*
X148615704Y-123276488D01*
X148590000Y-123290227D01*
X148564296Y-123276488D01*
X148446992Y-123240904D01*
X148325000Y-123228889D01*
X147585000Y-123228889D01*
X147463008Y-123240904D01*
X147345704Y-123276488D01*
X147320000Y-123290227D01*
X147294296Y-123276488D01*
X147176992Y-123240904D01*
X147055000Y-123228889D01*
X146315000Y-123228889D01*
X146193008Y-123240904D01*
X146075704Y-123276488D01*
X146050000Y-123290227D01*
X146024296Y-123276488D01*
X145906992Y-123240904D01*
X145785000Y-123228889D01*
X145045000Y-123228889D01*
X144923008Y-123240904D01*
X144805704Y-123276488D01*
X144780000Y-123290227D01*
X144754296Y-123276488D01*
X144636992Y-123240904D01*
X144515000Y-123228889D01*
X143775000Y-123228889D01*
X143653008Y-123240904D01*
X143535704Y-123276488D01*
X143510000Y-123290227D01*
X143484296Y-123276488D01*
X143366992Y-123240904D01*
X143245000Y-123228889D01*
X142505000Y-123228889D01*
X142406059Y-123238634D01*
X142393303Y-123228165D01*
X142263132Y-123158587D01*
X142121889Y-123115741D01*
X141975000Y-123101274D01*
X141805025Y-123104900D01*
X141617700Y-123292225D01*
X141617700Y-125301500D01*
X141637700Y-125301500D01*
X141637700Y-125326900D01*
X141617700Y-125326900D01*
X141617700Y-125346900D01*
X141592300Y-125346900D01*
X141592300Y-125326900D01*
X141572300Y-125326900D01*
X141572300Y-125301500D01*
X141592300Y-125301500D01*
X141592300Y-123292225D01*
X141404975Y-123104900D01*
X141235000Y-123101274D01*
X141088111Y-123115741D01*
X140946868Y-123158587D01*
X140816697Y-123228165D01*
X140803941Y-123238634D01*
X140705000Y-123228889D01*
X139965000Y-123228889D01*
X139843008Y-123240904D01*
X139725704Y-123276488D01*
X139617596Y-123334273D01*
X139522838Y-123412038D01*
X139445073Y-123506796D01*
X139387288Y-123614904D01*
X139351704Y-123732208D01*
X139339689Y-123854200D01*
X139339689Y-125790161D01*
X139145285Y-125709637D01*
X138880160Y-125656900D01*
X138609840Y-125656900D01*
X138344715Y-125709637D01*
X138094972Y-125813083D01*
X137870210Y-125963265D01*
X137679065Y-126154410D01*
X137528883Y-126379172D01*
X137425437Y-126628915D01*
X137372700Y-126894040D01*
X135039100Y-126894040D01*
X135039100Y-118119369D01*
X136947077Y-116211392D01*
X142316200Y-116211392D01*
X142316200Y-116384008D01*
X142349876Y-116553307D01*
X142415933Y-116712784D01*
X142511833Y-116856309D01*
X142633891Y-116978367D01*
X142777416Y-117074267D01*
X142936893Y-117140324D01*
X143106192Y-117174000D01*
X143278808Y-117174000D01*
X143448107Y-117140324D01*
X143510000Y-117114687D01*
X143571893Y-117140324D01*
X143741192Y-117174000D01*
X143913808Y-117174000D01*
X144083107Y-117140324D01*
X144242584Y-117074267D01*
X144386109Y-116978367D01*
X144508167Y-116856309D01*
X144604067Y-116712784D01*
X144670124Y-116553307D01*
X144703800Y-116384008D01*
X144703800Y-116211392D01*
X144670124Y-116042093D01*
X144604067Y-115882616D01*
X144508167Y-115739091D01*
X144386109Y-115617033D01*
X144381085Y-115613676D01*
X144352624Y-115470593D01*
X144286567Y-115311116D01*
X144190667Y-115167591D01*
X144068609Y-115045533D01*
X143925084Y-114949633D01*
X143765607Y-114883576D01*
X143596308Y-114849900D01*
X143423692Y-114849900D01*
X143254393Y-114883576D01*
X143094916Y-114949633D01*
X142951391Y-115045533D01*
X142829333Y-115167591D01*
X142733433Y-115311116D01*
X142667376Y-115470593D01*
X142638915Y-115613676D01*
X142633891Y-115617033D01*
X142511833Y-115739091D01*
X142415933Y-115882616D01*
X142349876Y-116042093D01*
X142316200Y-116211392D01*
X136947077Y-116211392D01*
X139451571Y-113706900D01*
X147009630Y-113706900D01*
X147280601Y-113977871D01*
X147290176Y-114026007D01*
X147356233Y-114185484D01*
X147452133Y-114329009D01*
X147574191Y-114451067D01*
X147717716Y-114546967D01*
X147877193Y-114613024D01*
X148046492Y-114646700D01*
X148219108Y-114646700D01*
X148388407Y-114613024D01*
X148547884Y-114546967D01*
X148691409Y-114451067D01*
X148813467Y-114329009D01*
X148909367Y-114185484D01*
X148975424Y-114026007D01*
X149009100Y-113856708D01*
X149009100Y-113684092D01*
X148975424Y-113514793D01*
X148909367Y-113355316D01*
X148813467Y-113211791D01*
X148691409Y-113089733D01*
X148547884Y-112993833D01*
X148388407Y-112927776D01*
X148340271Y-112918201D01*
X147875863Y-112453793D01*
X147852398Y-112425202D01*
X147738303Y-112331566D01*
X147608132Y-112261988D01*
X147466888Y-112219142D01*
X147356806Y-112208300D01*
X147356795Y-112208300D01*
X147320000Y-112204676D01*
X147283205Y-112208300D01*
X139177998Y-112208300D01*
X139141200Y-112204676D01*
X139104402Y-112208300D01*
X139104394Y-112208300D01*
X138994312Y-112219142D01*
X138853068Y-112261988D01*
X138722897Y-112331566D01*
X138637390Y-112401739D01*
X138637383Y-112401746D01*
X138608802Y-112425202D01*
X138585346Y-112453783D01*
X133785994Y-117253137D01*
X133757402Y-117276602D01*
X133716377Y-117326591D01*
X133663766Y-117390697D01*
X133621316Y-117470116D01*
X133594188Y-117520869D01*
X133551342Y-117662113D01*
X133540500Y-117772195D01*
X133540500Y-117772205D01*
X133536876Y-117809000D01*
X133540500Y-117845795D01*
X133540500Y-125430976D01*
X133402407Y-125373776D01*
X133233108Y-125340100D01*
X133060492Y-125340100D01*
X132891193Y-125373776D01*
X132731716Y-125439833D01*
X132588191Y-125535733D01*
X132466133Y-125657791D01*
X132370233Y-125801316D01*
X132304176Y-125960793D01*
X132270500Y-126130092D01*
X132270500Y-126302708D01*
X132304176Y-126472007D01*
X132370233Y-126631484D01*
X132466133Y-126775009D01*
X132588191Y-126897067D01*
X132731716Y-126992967D01*
X132891193Y-127059024D01*
X133060492Y-127092700D01*
X133233108Y-127092700D01*
X133402407Y-127059024D01*
X133540501Y-127001824D01*
X133540501Y-132923306D01*
X133513233Y-132964116D01*
X133447176Y-133123593D01*
X133413500Y-133292892D01*
X133413500Y-133455400D01*
X129469370Y-133455400D01*
X128930400Y-132916431D01*
X128930400Y-132082498D01*
X128934024Y-132045700D01*
X128930400Y-132008902D01*
X128930400Y-132008894D01*
X128919558Y-131898812D01*
X128876712Y-131757568D01*
X128807134Y-131627397D01*
X128790158Y-131606712D01*
X128736961Y-131541890D01*
X128736954Y-131541883D01*
X128713498Y-131513302D01*
X128684917Y-131489846D01*
X124431663Y-127236594D01*
X124408198Y-127208002D01*
X124294103Y-127114366D01*
X124163932Y-127044788D01*
X124022688Y-127001942D01*
X123912606Y-126991100D01*
X123912595Y-126991100D01*
X123875800Y-126987476D01*
X123839005Y-126991100D01*
X123556992Y-126991100D01*
X123516184Y-126963833D01*
X123356707Y-126897776D01*
X123187408Y-126864100D01*
X123050300Y-126864100D01*
X123050300Y-117865369D01*
X126063054Y-114852616D01*
X126177092Y-114875300D01*
X126349708Y-114875300D01*
X126519007Y-114841624D01*
X126678484Y-114775567D01*
X126822009Y-114679667D01*
X126944067Y-114557609D01*
X127039967Y-114414084D01*
X127106024Y-114254607D01*
X127139700Y-114085308D01*
X127139700Y-113912692D01*
X127106024Y-113743393D01*
X127039967Y-113583916D01*
X126944067Y-113440391D01*
X126822009Y-113318333D01*
X126678484Y-113222433D01*
X126519007Y-113156376D01*
X126349708Y-113122700D01*
X126177092Y-113122700D01*
X126007793Y-113156376D01*
X125848316Y-113222433D01*
X125805315Y-113251165D01*
X125710112Y-113260542D01*
X125568868Y-113303388D01*
X125438697Y-113372966D01*
X125324602Y-113466602D01*
X125301141Y-113495189D01*
X121797189Y-116999142D01*
X121768603Y-117022602D01*
X121745143Y-117051188D01*
X121745140Y-117051191D01*
X121674966Y-117136697D01*
X121605388Y-117266869D01*
X121587605Y-117325494D01*
X121567826Y-117390698D01*
X121562543Y-117408113D01*
X121548076Y-117555000D01*
X121551701Y-117591805D01*
X121551700Y-140454405D01*
X121548076Y-140491200D01*
X121551700Y-140527995D01*
X121551700Y-140528005D01*
X121562542Y-140638087D01*
X121596306Y-140749391D01*
X121605388Y-140779331D01*
X121674966Y-140909503D01*
X121709979Y-140952166D01*
X121768602Y-141023598D01*
X121797194Y-141047063D01*
X123446946Y-142696817D01*
X123470402Y-142725398D01*
X123498983Y-142748854D01*
X123498990Y-142748861D01*
X123575112Y-142811332D01*
X123584497Y-142819034D01*
X123714668Y-142888612D01*
X123855912Y-142931458D01*
X123965994Y-142942300D01*
X123966002Y-142942300D01*
X124002800Y-142945924D01*
X124039598Y-142942300D01*
X133445069Y-142942300D01*
X133229854Y-143086102D01*
X132926102Y-143389854D01*
X132687446Y-143747028D01*
X132523057Y-144143899D01*
X132439252Y-144565215D01*
X132439252Y-144994785D01*
X132523057Y-145416101D01*
X132687446Y-145812972D01*
X132926102Y-146170146D01*
X133229854Y-146473898D01*
X133587028Y-146712554D01*
X133983899Y-146876943D01*
X134405215Y-146960748D01*
X134834785Y-146960748D01*
X135256101Y-146876943D01*
X135652972Y-146712554D01*
X136010146Y-146473898D01*
X136313898Y-146170146D01*
X136552554Y-145812972D01*
X136716943Y-145416101D01*
X136800748Y-144994785D01*
X136800748Y-144565215D01*
X136716943Y-144143899D01*
X136552554Y-143747028D01*
X136313898Y-143389854D01*
X136010146Y-143086102D01*
X135794931Y-142942300D01*
X138500631Y-142942300D01*
X139052301Y-143493971D01*
X139052300Y-148452805D01*
X139052301Y-148452815D01*
X139052301Y-149785520D01*
X138936393Y-149808576D01*
X138776916Y-149874633D01*
X138633391Y-149970533D01*
X138511333Y-150092591D01*
X138415433Y-150236116D01*
X138349376Y-150395593D01*
X138315700Y-150564892D01*
X138315700Y-150737508D01*
X138349376Y-150906807D01*
X138353971Y-150917900D01*
X132453870Y-150917900D01*
X129651363Y-148115394D01*
X129627898Y-148086802D01*
X129513803Y-147993166D01*
X129383632Y-147923588D01*
X129242388Y-147880742D01*
X129132306Y-147869900D01*
X129132295Y-147869900D01*
X129095500Y-147866276D01*
X129058705Y-147869900D01*
X127067106Y-147869900D01*
X126172162Y-146974956D01*
X126077404Y-146897191D01*
X125969296Y-146839406D01*
X125851992Y-146803822D01*
X125730000Y-146791807D01*
X125608008Y-146803822D01*
X125490704Y-146839406D01*
X125382596Y-146897191D01*
X125287838Y-146974956D01*
X124085756Y-148177038D01*
X124007991Y-148271796D01*
X123950206Y-148379904D01*
X123914622Y-148497208D01*
X123902607Y-148619200D01*
X123914622Y-148741192D01*
X123950206Y-148858496D01*
X124007991Y-148966604D01*
X124085756Y-149061362D01*
X125287838Y-150263444D01*
X125382596Y-150341209D01*
X125490704Y-150398994D01*
X125608008Y-150434578D01*
X125730000Y-150446593D01*
X125851992Y-150434578D01*
X125969296Y-150398994D01*
X126053751Y-150353852D01*
X126053751Y-150560260D01*
X126110331Y-150844705D01*
X126221316Y-151112647D01*
X126382441Y-151353788D01*
X126587514Y-151558861D01*
X126828655Y-151719986D01*
X127096597Y-151830971D01*
X127381042Y-151887551D01*
X127671060Y-151887551D01*
X127761570Y-151869547D01*
X127723586Y-152161206D01*
X127744528Y-152474023D01*
X127826095Y-152776744D01*
X127965152Y-153057736D01*
X128020817Y-153141043D01*
X128314745Y-153200699D01*
X129304141Y-152211302D01*
X129289999Y-152197160D01*
X129307960Y-152179199D01*
X129322102Y-152193341D01*
X130311499Y-151203945D01*
X130251843Y-150910017D01*
X130168536Y-150854352D01*
X129887544Y-150715295D01*
X129584823Y-150633728D01*
X129272006Y-150612786D01*
X128980347Y-150650770D01*
X128998351Y-150560260D01*
X128998351Y-150270242D01*
X128941771Y-149985797D01*
X128830786Y-149717855D01*
X128669661Y-149476714D01*
X128561447Y-149368500D01*
X128785131Y-149368500D01*
X131587641Y-152171011D01*
X131611102Y-152199598D01*
X131639688Y-152223058D01*
X131639690Y-152223060D01*
X131725196Y-152293234D01*
X131825043Y-152346603D01*
X131855368Y-152362812D01*
X131996612Y-152405658D01*
X132106694Y-152416500D01*
X132106704Y-152416500D01*
X132143500Y-152420124D01*
X132180296Y-152416500D01*
X138482108Y-152416500D01*
X138522916Y-152443767D01*
X138682393Y-152509824D01*
X138851692Y-152543500D01*
X139024308Y-152543500D01*
X139052300Y-152537932D01*
X139052300Y-152753830D01*
X138332589Y-153473542D01*
X138304003Y-153497002D01*
X138280543Y-153525588D01*
X138280540Y-153525591D01*
X138210366Y-153611097D01*
X138140788Y-153741269D01*
X138118311Y-153815367D01*
X138097943Y-153882512D01*
X138090257Y-153960552D01*
X138083476Y-154029400D01*
X138087101Y-154066205D01*
X138087100Y-157624317D01*
X138083084Y-157621633D01*
X137923607Y-157555576D01*
X137843764Y-157539694D01*
X135710800Y-155406731D01*
X135699239Y-155385102D01*
X135605603Y-155271007D01*
X135491508Y-155177371D01*
X135361337Y-155107793D01*
X135220093Y-155064947D01*
X135110011Y-155054105D01*
X134184259Y-155054105D01*
X134057815Y-154864868D01*
X133852742Y-154659795D01*
X133611601Y-154498670D01*
X133343659Y-154387685D01*
X133059214Y-154331105D01*
X132769196Y-154331105D01*
X132546071Y-154375488D01*
X132590454Y-154152363D01*
X132590454Y-153862345D01*
X132533874Y-153577900D01*
X132422889Y-153309958D01*
X132261764Y-153068817D01*
X132056691Y-152863744D01*
X131815550Y-152702619D01*
X131547608Y-152591634D01*
X131263163Y-152535054D01*
X130973145Y-152535054D01*
X130882634Y-152553058D01*
X130920618Y-152261398D01*
X130899676Y-151948581D01*
X130818109Y-151645860D01*
X130679052Y-151364868D01*
X130623387Y-151281561D01*
X130329459Y-151221905D01*
X129340063Y-152211302D01*
X129354205Y-152225444D01*
X129336244Y-152243405D01*
X129322102Y-152229263D01*
X128332705Y-153218659D01*
X128392361Y-153512587D01*
X128475668Y-153568252D01*
X128756660Y-153707309D01*
X129059381Y-153788876D01*
X129372198Y-153809818D01*
X129663858Y-153771834D01*
X129645854Y-153862345D01*
X129645854Y-154152363D01*
X129702434Y-154436808D01*
X129813419Y-154704750D01*
X129974544Y-154945891D01*
X130179617Y-155150964D01*
X130368854Y-155277408D01*
X130368854Y-156002558D01*
X130365230Y-156039354D01*
X130368854Y-156076149D01*
X130368854Y-156076159D01*
X130379696Y-156186241D01*
X130399253Y-156250711D01*
X130422542Y-156327485D01*
X130492120Y-156457657D01*
X130534777Y-156509634D01*
X130585756Y-156571752D01*
X130614348Y-156595217D01*
X131905139Y-157886009D01*
X131928602Y-157914598D01*
X131957188Y-157938058D01*
X131957190Y-157938060D01*
X132042696Y-158008234D01*
X132159362Y-158070593D01*
X132172868Y-158077812D01*
X132314112Y-158120658D01*
X132424194Y-158131500D01*
X132424203Y-158131500D01*
X132460999Y-158135124D01*
X132497795Y-158131500D01*
X134995431Y-158131500D01*
X136755455Y-159891524D01*
X136761876Y-159923807D01*
X136827933Y-160083284D01*
X136923833Y-160226809D01*
X137045891Y-160348867D01*
X137189416Y-160444767D01*
X137348893Y-160510824D01*
X137518192Y-160544500D01*
X137690808Y-160544500D01*
X137860107Y-160510824D01*
X138019584Y-160444767D01*
X138094959Y-160394403D01*
X138097942Y-160424687D01*
X138134287Y-160544500D01*
X138140788Y-160565931D01*
X138210366Y-160696103D01*
X138256318Y-160752095D01*
X138304002Y-160810198D01*
X138332594Y-160833663D01*
X139694441Y-162195510D01*
X138822036Y-161888025D01*
X136598941Y-160939091D01*
X134441695Y-159848663D01*
X132359335Y-158621308D01*
X130360509Y-157262125D01*
X128453555Y-155776781D01*
X126646431Y-154171476D01*
X124946690Y-152452921D01*
X123361376Y-150628238D01*
X121897116Y-148705056D01*
X120560017Y-146691390D01*
X119355649Y-144595631D01*
X118289045Y-142426537D01*
X117364633Y-140193123D01*
X116586279Y-137904711D01*
X115957221Y-135570832D01*
X115480085Y-133201232D01*
X115156859Y-130805769D01*
X114988894Y-128394464D01*
X114976885Y-125977323D01*
X115120884Y-123564463D01*
X115420292Y-121165914D01*
X115873857Y-118791697D01*
X116479696Y-116451677D01*
X117235275Y-114155645D01*
X118137451Y-111913149D01*
X119182450Y-109733566D01*
X119595975Y-108997135D01*
X132357212Y-108997135D01*
X132357212Y-109442865D01*
X132444169Y-109880031D01*
X132614743Y-110291832D01*
X132862378Y-110662443D01*
X133177557Y-110977622D01*
X133548168Y-111225257D01*
X133959969Y-111395831D01*
X134397135Y-111482788D01*
X134842865Y-111482788D01*
X135280031Y-111395831D01*
X135691832Y-111225257D01*
X136062443Y-110977622D01*
X136377622Y-110662443D01*
X136625257Y-110291832D01*
X136795831Y-109880031D01*
X136882788Y-109442865D01*
X136882788Y-109005215D01*
X167999252Y-109005215D01*
X167999252Y-109434785D01*
X168083057Y-109856101D01*
X168247446Y-110252972D01*
X168486102Y-110610146D01*
X168789854Y-110913898D01*
X169147028Y-111152554D01*
X169543899Y-111316943D01*
X169965215Y-111400748D01*
X170394785Y-111400748D01*
X170816101Y-111316943D01*
X171212972Y-111152554D01*
X171570146Y-110913898D01*
X171873898Y-110610146D01*
X172112554Y-110252972D01*
X172276943Y-109856101D01*
X172360748Y-109434785D01*
X172360748Y-109005215D01*
X172276943Y-108583899D01*
X172112554Y-108187028D01*
X171873898Y-107829854D01*
X171570146Y-107526102D01*
X171212972Y-107287446D01*
X170816101Y-107123057D01*
X170394785Y-107039252D01*
X169965215Y-107039252D01*
X169543899Y-107123057D01*
X169147028Y-107287446D01*
X168789854Y-107526102D01*
X168486102Y-107829854D01*
X168247446Y-108187028D01*
X168083057Y-108583899D01*
X167999252Y-109005215D01*
X136882788Y-109005215D01*
X136882788Y-108997135D01*
X136795831Y-108559969D01*
X136625257Y-108148168D01*
X136377622Y-107777557D01*
X136062443Y-107462378D01*
X135691832Y-107214743D01*
X135280031Y-107044169D01*
X134842865Y-106957212D01*
X134397135Y-106957212D01*
X133959969Y-107044169D01*
X133548168Y-107214743D01*
X133177557Y-107462378D01*
X132862378Y-107777557D01*
X132614743Y-108148168D01*
X132444169Y-108559969D01*
X132357212Y-108997135D01*
X119595975Y-108997135D01*
X120365934Y-107625945D01*
X121682951Y-105599106D01*
X123128037Y-103661458D01*
X124695135Y-101821125D01*
X126377742Y-100085738D01*
X128168809Y-98462572D01*
X130060898Y-96958365D01*
X132046129Y-95579380D01*
X134116194Y-94331395D01*
X136262488Y-93219590D01*
X138476052Y-92248611D01*
X140747648Y-91422506D01*
X143067847Y-90744706D01*
X145426940Y-90218050D01*
X147815087Y-89844732D01*
X150222368Y-89626302D01*
X152638724Y-89563676D01*
X155054073Y-89657112D01*
G36*
X173418500Y-135926952D02*
G01*
X173414260Y-135970000D01*
X173418500Y-136013048D01*
X173418500Y-136013049D01*
X173431179Y-136141784D01*
X173481287Y-136306967D01*
X173562658Y-136459201D01*
X173672164Y-136592636D01*
X173705612Y-136620086D01*
X173741129Y-136655603D01*
X173741133Y-136655609D01*
X173863191Y-136777667D01*
X173899166Y-136801704D01*
X173932598Y-136829142D01*
X173970743Y-136849531D01*
X174006716Y-136873567D01*
X174046688Y-136890124D01*
X174084832Y-136910512D01*
X174126221Y-136923067D01*
X174166193Y-136939624D01*
X174180500Y-136942470D01*
X174180500Y-139698230D01*
X173349431Y-140529300D01*
X168768995Y-140529300D01*
X168732199Y-140525676D01*
X168695403Y-140529300D01*
X168695394Y-140529300D01*
X168585312Y-140540142D01*
X168453595Y-140580098D01*
X168444068Y-140582988D01*
X168313896Y-140652566D01*
X168228390Y-140722740D01*
X168199802Y-140746202D01*
X168176341Y-140774789D01*
X167474900Y-141476230D01*
X167474900Y-134052300D01*
X167510408Y-134052300D01*
X167679707Y-134018624D01*
X167839184Y-133952567D01*
X167982709Y-133856667D01*
X168104767Y-133734609D01*
X168200667Y-133591084D01*
X168266724Y-133431607D01*
X168300400Y-133262308D01*
X168300400Y-133089692D01*
X168266724Y-132920393D01*
X168236900Y-132848391D01*
X168236900Y-132522072D01*
X168991984Y-131766989D01*
X169082790Y-131692466D01*
X169138791Y-131748467D01*
X169282316Y-131844367D01*
X169312501Y-131856870D01*
X170089801Y-132634171D01*
X170099376Y-132682307D01*
X170165433Y-132841784D01*
X170261333Y-132985309D01*
X170383391Y-133107367D01*
X170526916Y-133203267D01*
X170686393Y-133269324D01*
X170855692Y-133303000D01*
X171028308Y-133303000D01*
X171197607Y-133269324D01*
X171357084Y-133203267D01*
X171500609Y-133107367D01*
X171622667Y-132985309D01*
X171718567Y-132841784D01*
X171784624Y-132682307D01*
X171818300Y-132513008D01*
X171818300Y-132340392D01*
X171784624Y-132171093D01*
X171718567Y-132011616D01*
X171698912Y-131982200D01*
X171853808Y-131982200D01*
X172023107Y-131948524D01*
X172182584Y-131882467D01*
X172326109Y-131786567D01*
X172448167Y-131664509D01*
X172544067Y-131520984D01*
X172610124Y-131361507D01*
X172643800Y-131192208D01*
X172643800Y-131019592D01*
X172610124Y-130850293D01*
X172544067Y-130690816D01*
X172448167Y-130547291D01*
X172326109Y-130425233D01*
X172182584Y-130329333D01*
X172110580Y-130299508D01*
X171341772Y-129530700D01*
X171316317Y-129499683D01*
X171192552Y-129398112D01*
X171051350Y-129322638D01*
X170898137Y-129276161D01*
X170778723Y-129264400D01*
X170778720Y-129264400D01*
X170738800Y-129260468D01*
X170698880Y-129264400D01*
X170274469Y-129264400D01*
X173418500Y-126120369D01*
X173418500Y-135926952D01*
G37*
X173418500Y-135926952D02*
X173414260Y-135970000D01*
X173418500Y-136013048D01*
X173418500Y-136013049D01*
X173431179Y-136141784D01*
X173481287Y-136306967D01*
X173562658Y-136459201D01*
X173672164Y-136592636D01*
X173705612Y-136620086D01*
X173741129Y-136655603D01*
X173741133Y-136655609D01*
X173863191Y-136777667D01*
X173899166Y-136801704D01*
X173932598Y-136829142D01*
X173970743Y-136849531D01*
X174006716Y-136873567D01*
X174046688Y-136890124D01*
X174084832Y-136910512D01*
X174126221Y-136923067D01*
X174166193Y-136939624D01*
X174180500Y-136942470D01*
X174180500Y-139698230D01*
X173349431Y-140529300D01*
X168768995Y-140529300D01*
X168732199Y-140525676D01*
X168695403Y-140529300D01*
X168695394Y-140529300D01*
X168585312Y-140540142D01*
X168453595Y-140580098D01*
X168444068Y-140582988D01*
X168313896Y-140652566D01*
X168228390Y-140722740D01*
X168199802Y-140746202D01*
X168176341Y-140774789D01*
X167474900Y-141476230D01*
X167474900Y-134052300D01*
X167510408Y-134052300D01*
X167679707Y-134018624D01*
X167839184Y-133952567D01*
X167982709Y-133856667D01*
X168104767Y-133734609D01*
X168200667Y-133591084D01*
X168266724Y-133431607D01*
X168300400Y-133262308D01*
X168300400Y-133089692D01*
X168266724Y-132920393D01*
X168236900Y-132848391D01*
X168236900Y-132522072D01*
X168991984Y-131766989D01*
X169082790Y-131692466D01*
X169138791Y-131748467D01*
X169282316Y-131844367D01*
X169312501Y-131856870D01*
X170089801Y-132634171D01*
X170099376Y-132682307D01*
X170165433Y-132841784D01*
X170261333Y-132985309D01*
X170383391Y-133107367D01*
X170526916Y-133203267D01*
X170686393Y-133269324D01*
X170855692Y-133303000D01*
X171028308Y-133303000D01*
X171197607Y-133269324D01*
X171357084Y-133203267D01*
X171500609Y-133107367D01*
X171622667Y-132985309D01*
X171718567Y-132841784D01*
X171784624Y-132682307D01*
X171818300Y-132513008D01*
X171818300Y-132340392D01*
X171784624Y-132171093D01*
X171718567Y-132011616D01*
X171698912Y-131982200D01*
X171853808Y-131982200D01*
X172023107Y-131948524D01*
X172182584Y-131882467D01*
X172326109Y-131786567D01*
X172448167Y-131664509D01*
X172544067Y-131520984D01*
X172610124Y-131361507D01*
X172643800Y-131192208D01*
X172643800Y-131019592D01*
X172610124Y-130850293D01*
X172544067Y-130690816D01*
X172448167Y-130547291D01*
X172326109Y-130425233D01*
X172182584Y-130329333D01*
X172110580Y-130299508D01*
X171341772Y-129530700D01*
X171316317Y-129499683D01*
X171192552Y-129398112D01*
X171051350Y-129322638D01*
X170898137Y-129276161D01*
X170778723Y-129264400D01*
X170778720Y-129264400D01*
X170738800Y-129260468D01*
X170698880Y-129264400D01*
X170274469Y-129264400D01*
X173418500Y-126120369D01*
X173418500Y-135926952D01*
G36*
X126873001Y-132521172D02*
G01*
X126873000Y-133355104D01*
X126869376Y-133391900D01*
X126873000Y-133428695D01*
X126873000Y-133428705D01*
X126883842Y-133538787D01*
X126918630Y-133653467D01*
X126926688Y-133680031D01*
X126996266Y-133810203D01*
X127045712Y-133870453D01*
X127089902Y-133924298D01*
X127118494Y-133947763D01*
X128349146Y-135178417D01*
X128372602Y-135206998D01*
X128401183Y-135230454D01*
X128401190Y-135230461D01*
X128468935Y-135286057D01*
X128486697Y-135300634D01*
X128616868Y-135370212D01*
X128758112Y-135413058D01*
X128868194Y-135423900D01*
X128868204Y-135423900D01*
X128905000Y-135427524D01*
X128941796Y-135423900D01*
X139938961Y-135423900D01*
X139917755Y-139919700D01*
X130594100Y-139919700D01*
X130594100Y-139499296D01*
X130597724Y-139462500D01*
X130594100Y-139425704D01*
X130594100Y-139425694D01*
X130583258Y-139315612D01*
X130540412Y-139174368D01*
X130526710Y-139148734D01*
X130470834Y-139044196D01*
X130426796Y-138990537D01*
X130377198Y-138930102D01*
X130348606Y-138906637D01*
X130201699Y-138759730D01*
X130192124Y-138711593D01*
X130126067Y-138552116D01*
X130030167Y-138408591D01*
X129908109Y-138286533D01*
X129764584Y-138190633D01*
X129605107Y-138124576D01*
X129435808Y-138090900D01*
X129263192Y-138090900D01*
X129093893Y-138124576D01*
X128934416Y-138190633D01*
X128790891Y-138286533D01*
X128668833Y-138408591D01*
X128572933Y-138552116D01*
X128506876Y-138711593D01*
X128473200Y-138880892D01*
X128473200Y-139053508D01*
X128506876Y-139222807D01*
X128572933Y-139382284D01*
X128668833Y-139525809D01*
X128790891Y-139647867D01*
X128934416Y-139743767D01*
X129093893Y-139809824D01*
X129095500Y-139810144D01*
X129095500Y-140327405D01*
X129091876Y-140364200D01*
X129095500Y-140400995D01*
X129095500Y-140401005D01*
X129105634Y-140503900D01*
X125677892Y-140503900D01*
X125637084Y-140476633D01*
X125477607Y-140410576D01*
X125308308Y-140376900D01*
X125135692Y-140376900D01*
X124966393Y-140410576D01*
X124896497Y-140439528D01*
X123788199Y-139331230D01*
X123778624Y-139283093D01*
X123712567Y-139123616D01*
X123616667Y-138980091D01*
X123494609Y-138858033D01*
X123351084Y-138762133D01*
X123191607Y-138696076D01*
X123050300Y-138667968D01*
X123050300Y-129766832D01*
X123078292Y-129772400D01*
X123250908Y-129772400D01*
X123420207Y-129738724D01*
X123579684Y-129672667D01*
X123620492Y-129645400D01*
X123997231Y-129645400D01*
X126873001Y-132521172D01*
G37*
X126873001Y-132521172D02*
X126873000Y-133355104D01*
X126869376Y-133391900D01*
X126873000Y-133428695D01*
X126873000Y-133428705D01*
X126883842Y-133538787D01*
X126918630Y-133653467D01*
X126926688Y-133680031D01*
X126996266Y-133810203D01*
X127045712Y-133870453D01*
X127089902Y-133924298D01*
X127118494Y-133947763D01*
X128349146Y-135178417D01*
X128372602Y-135206998D01*
X128401183Y-135230454D01*
X128401190Y-135230461D01*
X128468935Y-135286057D01*
X128486697Y-135300634D01*
X128616868Y-135370212D01*
X128758112Y-135413058D01*
X128868194Y-135423900D01*
X128868204Y-135423900D01*
X128905000Y-135427524D01*
X128941796Y-135423900D01*
X139938961Y-135423900D01*
X139917755Y-139919700D01*
X130594100Y-139919700D01*
X130594100Y-139499296D01*
X130597724Y-139462500D01*
X130594100Y-139425704D01*
X130594100Y-139425694D01*
X130583258Y-139315612D01*
X130540412Y-139174368D01*
X130526710Y-139148734D01*
X130470834Y-139044196D01*
X130426796Y-138990537D01*
X130377198Y-138930102D01*
X130348606Y-138906637D01*
X130201699Y-138759730D01*
X130192124Y-138711593D01*
X130126067Y-138552116D01*
X130030167Y-138408591D01*
X129908109Y-138286533D01*
X129764584Y-138190633D01*
X129605107Y-138124576D01*
X129435808Y-138090900D01*
X129263192Y-138090900D01*
X129093893Y-138124576D01*
X128934416Y-138190633D01*
X128790891Y-138286533D01*
X128668833Y-138408591D01*
X128572933Y-138552116D01*
X128506876Y-138711593D01*
X128473200Y-138880892D01*
X128473200Y-139053508D01*
X128506876Y-139222807D01*
X128572933Y-139382284D01*
X128668833Y-139525809D01*
X128790891Y-139647867D01*
X128934416Y-139743767D01*
X129093893Y-139809824D01*
X129095500Y-139810144D01*
X129095500Y-140327405D01*
X129091876Y-140364200D01*
X129095500Y-140400995D01*
X129095500Y-140401005D01*
X129105634Y-140503900D01*
X125677892Y-140503900D01*
X125637084Y-140476633D01*
X125477607Y-140410576D01*
X125308308Y-140376900D01*
X125135692Y-140376900D01*
X124966393Y-140410576D01*
X124896497Y-140439528D01*
X123788199Y-139331230D01*
X123778624Y-139283093D01*
X123712567Y-139123616D01*
X123616667Y-138980091D01*
X123494609Y-138858033D01*
X123351084Y-138762133D01*
X123191607Y-138696076D01*
X123050300Y-138667968D01*
X123050300Y-129766832D01*
X123078292Y-129772400D01*
X123250908Y-129772400D01*
X123420207Y-129738724D01*
X123579684Y-129672667D01*
X123620492Y-129645400D01*
X123997231Y-129645400D01*
X126873001Y-132521172D01*
G36*
X154493827Y-137180398D02*
G01*
X154442833Y-137256716D01*
X154376776Y-137416193D01*
X154368878Y-137455900D01*
X152483470Y-137455900D01*
X152480624Y-137441593D01*
X152414567Y-137282116D01*
X152403865Y-137266100D01*
X152450609Y-137234867D01*
X152572667Y-137112809D01*
X152668567Y-136969284D01*
X152734624Y-136809807D01*
X152768300Y-136640508D01*
X152768300Y-136467892D01*
X152734624Y-136298593D01*
X152668567Y-136139116D01*
X152572667Y-135995591D01*
X152450609Y-135873533D01*
X152307084Y-135777633D01*
X152147607Y-135711576D01*
X151978308Y-135677900D01*
X151805692Y-135677900D01*
X151636393Y-135711576D01*
X151476916Y-135777633D01*
X151333391Y-135873533D01*
X151211333Y-135995591D01*
X151115433Y-136139116D01*
X151049376Y-136298593D01*
X151037372Y-136358940D01*
X151011966Y-136389897D01*
X150971239Y-136466093D01*
X150942388Y-136520069D01*
X150899542Y-136661313D01*
X150888700Y-136771395D01*
X150888700Y-136771405D01*
X150885076Y-136808200D01*
X150888700Y-136844995D01*
X150888700Y-137241308D01*
X150861433Y-137282116D01*
X150795376Y-137441593D01*
X150792530Y-137455900D01*
X147718375Y-137455900D01*
X147705424Y-137390793D01*
X147639367Y-137231316D01*
X147543467Y-137087791D01*
X147421409Y-136965733D01*
X147277884Y-136869833D01*
X147118407Y-136803776D01*
X146949108Y-136770100D01*
X146776492Y-136770100D01*
X146607193Y-136803776D01*
X146447716Y-136869833D01*
X146304191Y-136965733D01*
X146182133Y-137087791D01*
X146086233Y-137231316D01*
X146020176Y-137390793D01*
X146007225Y-137455900D01*
X145471370Y-137455900D01*
X144513300Y-136497831D01*
X144513300Y-136461145D01*
X144560084Y-136441767D01*
X144703609Y-136345867D01*
X144825667Y-136223809D01*
X144921567Y-136080284D01*
X144987624Y-135920807D01*
X145021300Y-135751508D01*
X145021300Y-135578892D01*
X144990470Y-135423900D01*
X152737331Y-135423900D01*
X154493827Y-137180398D01*
G37*
X154493827Y-137180398D02*
X154442833Y-137256716D01*
X154376776Y-137416193D01*
X154368878Y-137455900D01*
X152483470Y-137455900D01*
X152480624Y-137441593D01*
X152414567Y-137282116D01*
X152403865Y-137266100D01*
X152450609Y-137234867D01*
X152572667Y-137112809D01*
X152668567Y-136969284D01*
X152734624Y-136809807D01*
X152768300Y-136640508D01*
X152768300Y-136467892D01*
X152734624Y-136298593D01*
X152668567Y-136139116D01*
X152572667Y-135995591D01*
X152450609Y-135873533D01*
X152307084Y-135777633D01*
X152147607Y-135711576D01*
X151978308Y-135677900D01*
X151805692Y-135677900D01*
X151636393Y-135711576D01*
X151476916Y-135777633D01*
X151333391Y-135873533D01*
X151211333Y-135995591D01*
X151115433Y-136139116D01*
X151049376Y-136298593D01*
X151037372Y-136358940D01*
X151011966Y-136389897D01*
X150971239Y-136466093D01*
X150942388Y-136520069D01*
X150899542Y-136661313D01*
X150888700Y-136771395D01*
X150888700Y-136771405D01*
X150885076Y-136808200D01*
X150888700Y-136844995D01*
X150888700Y-137241308D01*
X150861433Y-137282116D01*
X150795376Y-137441593D01*
X150792530Y-137455900D01*
X147718375Y-137455900D01*
X147705424Y-137390793D01*
X147639367Y-137231316D01*
X147543467Y-137087791D01*
X147421409Y-136965733D01*
X147277884Y-136869833D01*
X147118407Y-136803776D01*
X146949108Y-136770100D01*
X146776492Y-136770100D01*
X146607193Y-136803776D01*
X146447716Y-136869833D01*
X146304191Y-136965733D01*
X146182133Y-137087791D01*
X146086233Y-137231316D01*
X146020176Y-137390793D01*
X146007225Y-137455900D01*
X145471370Y-137455900D01*
X144513300Y-136497831D01*
X144513300Y-136461145D01*
X144560084Y-136441767D01*
X144703609Y-136345867D01*
X144825667Y-136223809D01*
X144921567Y-136080284D01*
X144987624Y-135920807D01*
X145021300Y-135751508D01*
X145021300Y-135578892D01*
X144990470Y-135423900D01*
X152737331Y-135423900D01*
X154493827Y-137180398D01*
G36*
X148080393Y-99995324D02*
G01*
X148128530Y-100004899D01*
X148551901Y-100428271D01*
X148551900Y-101674430D01*
X148043900Y-102182430D01*
X148043900Y-99980208D01*
X148080393Y-99995324D01*
G37*
X148080393Y-99995324D02*
X148128530Y-100004899D01*
X148551901Y-100428271D01*
X148551900Y-101674430D01*
X148043900Y-102182430D01*
X148043900Y-99980208D01*
X148080393Y-99995324D01*
M02*
