G04 #@! TF.GenerationSoftware,KiCad,Pcbnew,(5.1.5)-3*
G04 #@! TF.CreationDate,2019-12-30T18:43:19-05:00*
G04 #@! TF.ProjectId,Flight_Computer,466c6967-6874-45f4-936f-6d7075746572,rev?*
G04 #@! TF.SameCoordinates,Original*
G04 #@! TF.FileFunction,Copper,L3,Inr*
G04 #@! TF.FilePolarity,Positive*
%FSLAX46Y46*%
G04 Gerber Fmt 4.6, Leading zero omitted, Abs format (unit mm)*
G04 Created by KiCad (PCBNEW (5.1.5)-3) date 2019-12-30 18:43:19*
%MOMM*%
%LPD*%
G04 APERTURE LIST*
%ADD10R,0.740000X2.920000*%
%ADD11C,2.100000*%
%ADD12C,1.700000*%
%ADD13C,0.100000*%
%ADD14C,0.508000*%
%ADD15C,0.254000*%
%ADD16C,0.508000*%
%ADD17C,0.381000*%
%ADD18C,0.152400*%
G04 APERTURE END LIST*
D10*
X164465000Y-125314200D03*
X164465000Y-128744200D03*
X163195000Y-125314200D03*
X163195000Y-128744200D03*
X161925000Y-125314200D03*
X161925000Y-128744200D03*
X160655000Y-125314200D03*
X160655000Y-128744200D03*
X159385000Y-125314200D03*
X159385000Y-128744200D03*
X158115000Y-125314200D03*
X158115000Y-128744200D03*
X156845000Y-125314200D03*
X156845000Y-128744200D03*
X155575000Y-125314200D03*
X155575000Y-128744200D03*
X154305000Y-125314200D03*
X154305000Y-128744200D03*
X153035000Y-125314200D03*
X153035000Y-128744200D03*
X151765000Y-125314200D03*
X151765000Y-128744200D03*
X150495000Y-125314200D03*
X150495000Y-128744200D03*
X149225000Y-125314200D03*
X149225000Y-128744200D03*
X147955000Y-125314200D03*
X147955000Y-128744200D03*
X146685000Y-125314200D03*
X146685000Y-128744200D03*
X145415000Y-125314200D03*
X145415000Y-128744200D03*
X144145000Y-125314200D03*
X144145000Y-128744200D03*
X142875000Y-125314200D03*
X142875000Y-128744200D03*
X141605000Y-125314200D03*
X141605000Y-128744200D03*
X140335000Y-125314200D03*
X140335000Y-128744200D03*
D11*
X177019949Y-149016679D03*
X173908679Y-152127949D03*
D12*
X132914205Y-155803405D02*
X132914205Y-155803405D01*
X131118154Y-154007354D02*
X131118154Y-154007354D01*
X129322102Y-152211302D02*
X129322102Y-152211302D01*
X127526051Y-150415251D02*
X127526051Y-150415251D01*
G04 #@! TA.AperFunction,ViaPad*
D13*
G36*
X125730000Y-149821282D02*
G01*
X124527918Y-148619200D01*
X125730000Y-147417118D01*
X126932082Y-148619200D01*
X125730000Y-149821282D01*
G37*
G04 #@! TD.AperFunction*
D14*
X164401500Y-158703000D03*
X151434800Y-105968800D03*
X153263600Y-103022400D03*
X146630400Y-102137200D03*
X166319200Y-117754400D03*
X161391600Y-121056400D03*
X168452800Y-124307600D03*
X160782000Y-94517200D03*
X159004000Y-100613200D03*
X156464000Y-100613200D03*
X151130000Y-98327200D03*
X148082000Y-94517200D03*
X145288000Y-96041200D03*
X145288000Y-98327200D03*
X150114000Y-93501200D03*
X154940000Y-93501200D03*
X144399000Y-114329200D03*
X149606000Y-114710200D03*
X149225000Y-119409200D03*
X141795500Y-118774200D03*
X141478000Y-115980200D03*
X141478000Y-122203200D03*
X171145200Y-137367000D03*
X167614600Y-139284700D03*
X167513000Y-135512800D03*
X165671500Y-156645600D03*
X164426900Y-157102800D03*
X165671500Y-152162500D03*
X166751000Y-149559000D03*
X168973500Y-147336500D03*
X172021500Y-146853900D03*
X167043100Y-157674300D03*
X167347900Y-153457900D03*
X168287700Y-150524200D03*
X174990512Y-146647912D03*
X175530262Y-146108162D03*
X177627336Y-146569364D03*
X179062436Y-148004464D03*
X178357586Y-147299614D03*
X171562965Y-152836935D03*
X172667864Y-153941836D03*
X161378900Y-136262100D03*
X161315400Y-132718800D03*
X159004000Y-134649200D03*
X143002000Y-133379200D03*
X144272000Y-136427200D03*
X151892000Y-133252200D03*
X153035000Y-136427200D03*
X140525500Y-157509200D03*
X137795000Y-157255200D03*
X147002500Y-163414700D03*
X151193500Y-163414700D03*
X155321000Y-163351200D03*
X139192000Y-149635200D03*
X135572500Y-150524200D03*
X148145500Y-101883200D03*
X143510000Y-96612700D03*
X118300500Y-118710700D03*
X126619000Y-118837700D03*
X118237000Y-134649200D03*
X126555500Y-134649200D03*
X158089600Y-137443200D03*
X132232400Y-129010400D03*
X132232400Y-124489200D03*
X128549400Y-139500600D03*
X124688600Y-136757400D03*
X119176800Y-138205200D03*
X184518300Y-134458700D03*
X185089800Y-136109700D03*
X185534300Y-139475200D03*
X184518300Y-141507200D03*
X129095500Y-104867700D03*
X129794000Y-106328200D03*
X130302000Y-109503200D03*
X130111500Y-112932200D03*
X163652200Y-139602200D03*
X147828000Y-137646400D03*
X153543000Y-137646400D03*
X172237400Y-119053600D03*
X173609000Y-117250200D03*
X178790600Y-136071600D03*
X179501800Y-140440400D03*
X152285700Y-110747800D03*
X156362400Y-119320300D03*
X160362900Y-114037100D03*
X181978300Y-118672600D03*
X187667900Y-118431300D03*
X182702200Y-109782600D03*
X173977300Y-98581200D03*
X166293800Y-98098600D03*
X162052000Y-92739200D03*
X146431000Y-91862900D03*
X132829300Y-97298500D03*
X138988800Y-99381300D03*
X121615200Y-107864900D03*
X117944900Y-115065800D03*
X121297700Y-143805900D03*
X128739900Y-145164800D03*
X134264400Y-159185600D03*
X138277600Y-144136100D03*
X138353800Y-138205200D03*
X139306300Y-110354100D03*
X145732500Y-143932900D03*
X152209500Y-143971000D03*
X159499300Y-143894800D03*
X145567400Y-149914600D03*
X152336500Y-149698700D03*
X159397700Y-149597100D03*
X145338800Y-157242500D03*
X152082500Y-157052000D03*
X159461200Y-156988500D03*
X148729700Y-153470600D03*
X148755100Y-146574500D03*
X156337000Y-146434800D03*
X156337000Y-153432500D03*
X160147000Y-132744200D03*
X160274000Y-134776200D03*
X169697400Y-131067800D03*
X170942000Y-132426700D03*
X143192500Y-116297700D03*
X143827500Y-116297700D03*
X143510000Y-115726200D03*
X156908500Y-163986200D03*
X152908000Y-164049700D03*
X144780000Y-163414700D03*
X139573000Y-156556700D03*
X139192000Y-150651200D03*
X161163000Y-100676700D03*
X133146800Y-126216400D03*
X164795200Y-153038800D03*
X164566600Y-140465800D03*
X146862800Y-137646400D03*
X155219400Y-137671800D03*
X181000400Y-137011400D03*
X180263800Y-142040600D03*
X178308000Y-140415000D03*
X174421800Y-136097000D03*
X173405800Y-112906800D03*
X177749200Y-137925800D03*
X181737000Y-134496800D03*
X178409600Y-141405600D03*
X168300400Y-152353000D03*
X171005500Y-149736800D03*
X138938000Y-151667200D03*
X162052000Y-97755700D03*
X178562000Y-120552200D03*
X173024800Y-120984000D03*
X164465000Y-150168600D03*
X149860000Y-99152700D03*
X165582600Y-144428200D03*
X148336000Y-99152700D03*
X165785800Y-145266400D03*
X162052000Y-98454200D03*
X177952400Y-120120400D03*
X173609000Y-120323600D03*
X164388800Y-149330400D03*
X149453600Y-162995600D03*
X126263400Y-113999000D03*
X167424100Y-133176000D03*
X171767500Y-131105900D03*
X129540000Y-138078200D03*
X161823400Y-140669000D03*
X161417000Y-137189200D03*
X123101100Y-127740400D03*
X158572200Y-139145000D03*
X123164600Y-128896100D03*
X122961400Y-139221200D03*
X155651200Y-141227800D03*
X137668000Y-158398200D03*
X137604500Y-159668200D03*
X151892000Y-136554200D03*
X151638000Y-137697200D03*
X144145000Y-135665200D03*
X156591000Y-138840200D03*
X141605000Y-137125700D03*
X155956000Y-138713200D03*
X165455600Y-145977600D03*
X145745200Y-105566200D03*
X165404800Y-146917400D03*
X148666200Y-104245400D03*
X182575200Y-144504400D03*
X150114000Y-163046400D03*
X148132800Y-113770400D03*
X134289800Y-133379200D03*
X168833800Y-154385000D03*
X177165000Y-117885200D03*
X146558000Y-100740200D03*
X146558000Y-97057200D03*
D15*
X154305000Y-127744200D02*
X154305000Y-131093200D01*
X154305000Y-131093200D02*
X155702000Y-132490200D01*
X155702000Y-132490200D02*
X159893000Y-132490200D01*
X159893000Y-132490200D02*
X160147000Y-132744200D01*
X153035000Y-127744200D02*
X153035000Y-130839200D01*
X153035000Y-130839200D02*
X155321000Y-133125200D01*
X155321000Y-133125200D02*
X159131000Y-133125200D01*
X159131000Y-133125200D02*
X160274000Y-134268200D01*
X160274000Y-134268200D02*
X160274000Y-134776200D01*
X169697400Y-131067800D02*
X169697400Y-131182100D01*
X169697400Y-131182100D02*
X170942000Y-132426700D01*
D16*
X173202600Y-113110000D02*
X173405800Y-112906800D01*
X173202600Y-114710200D02*
X173202600Y-113110000D01*
X174294800Y-115802400D02*
X173202600Y-114710200D01*
X174421800Y-136097000D02*
X174294800Y-135970000D01*
X174294800Y-135970000D02*
X174294800Y-115802400D01*
D15*
X177749200Y-137925800D02*
X181025800Y-137925800D01*
X181025800Y-137925800D02*
X181686200Y-137265400D01*
X181686200Y-137265400D02*
X181686200Y-134547600D01*
X181686200Y-134547600D02*
X181737000Y-134496800D01*
X178409600Y-141405600D02*
X178968400Y-140846800D01*
X178968400Y-140846800D02*
X178968400Y-139399000D01*
X177749200Y-138179800D02*
X177749200Y-137925800D01*
X178968400Y-139399000D02*
X177749200Y-138179800D01*
X168300400Y-152353000D02*
X170916600Y-149736800D01*
X170916600Y-149736800D02*
X171005500Y-149736800D01*
X129095500Y-148619200D02*
X132143500Y-151667200D01*
X125730000Y-148619200D02*
X129095500Y-148619200D01*
X132143500Y-151667200D02*
X138938000Y-151667200D01*
X162052000Y-97755700D02*
X162318700Y-97755700D01*
X162318700Y-97755700D02*
X162712400Y-98149400D01*
X162712400Y-98149400D02*
X162712400Y-102137200D01*
X162712400Y-102137200D02*
X162737800Y-102162600D01*
X162737800Y-102162600D02*
X172669200Y-102162600D01*
X172669200Y-102162600D02*
X178536600Y-108030000D01*
X178536600Y-108030000D02*
X178536600Y-120526800D01*
X178536600Y-120526800D02*
X178562000Y-120552200D01*
X173024800Y-120984000D02*
X173024800Y-123524000D01*
X173024800Y-123524000D02*
X173024800Y-125454400D01*
X173024800Y-125454400D02*
X166725600Y-131753600D01*
X166725600Y-131753600D02*
X166725600Y-142523200D01*
X166725600Y-142523200D02*
X165531800Y-143717000D01*
X165531800Y-143717000D02*
X165303200Y-143717000D01*
X165303200Y-143717000D02*
X164871400Y-144148800D01*
X164871400Y-144148800D02*
X164871400Y-148644600D01*
X164871400Y-148644600D02*
X165354000Y-149127200D01*
X165354000Y-149127200D02*
X165354000Y-149279600D01*
X165354000Y-149279600D02*
X164465000Y-150168600D01*
X165582600Y-144428200D02*
X168732200Y-141278600D01*
X168732200Y-141278600D02*
X173659800Y-141278600D01*
X173659800Y-141278600D02*
X174929800Y-140008600D01*
X174929800Y-140008600D02*
X174929800Y-109325400D01*
X174929800Y-109325400D02*
X171424600Y-105820200D01*
X171424600Y-105820200D02*
X152349200Y-105820200D01*
X152349200Y-105820200D02*
X151333200Y-106836200D01*
X151333200Y-106836200D02*
X145338800Y-106836200D01*
X145338800Y-106836200D02*
X144449800Y-105947200D01*
X144449800Y-105947200D02*
X144449800Y-104829600D01*
X144449800Y-104829600D02*
X145643600Y-103635800D01*
X145643600Y-103635800D02*
X146710400Y-103635800D01*
X146710400Y-103635800D02*
X147294600Y-103051600D01*
X147294600Y-103051600D02*
X147294600Y-99241600D01*
X147294600Y-99241600D02*
X147955000Y-98581200D01*
X149288500Y-98581200D02*
X149860000Y-99152700D01*
X147955000Y-98581200D02*
X149288500Y-98581200D01*
X165785800Y-145266400D02*
X167005000Y-144047200D01*
X167005000Y-144047200D02*
X167005000Y-143793200D01*
X167005000Y-143793200D02*
X169037000Y-141761200D01*
X169037000Y-141761200D02*
X173939200Y-141761200D01*
X173939200Y-141761200D02*
X175463200Y-140237200D01*
X175463200Y-140237200D02*
X175463200Y-109046000D01*
X175463200Y-109046000D02*
X171729400Y-105312200D01*
X171729400Y-105312200D02*
X149225000Y-105312200D01*
X149225000Y-105312200D02*
X148234400Y-106302800D01*
X148234400Y-106302800D02*
X145592800Y-106302800D01*
X145592800Y-106302800D02*
X144957800Y-105667800D01*
X144957800Y-105667800D02*
X144957800Y-105185200D01*
X144957800Y-105185200D02*
X145948400Y-104194600D01*
X145948400Y-104194600D02*
X147091400Y-104194600D01*
X147091400Y-104194600D02*
X149301200Y-101984800D01*
X149301200Y-100117900D02*
X148336000Y-99152700D01*
X149301200Y-101984800D02*
X149301200Y-100117900D01*
X162052000Y-98454200D02*
X162052000Y-102467400D01*
X162052000Y-102467400D02*
X162052000Y-102492800D01*
X162052000Y-102492800D02*
X162433000Y-102873800D01*
X162433000Y-102873800D02*
X172516800Y-102873800D01*
X172516800Y-102873800D02*
X177977800Y-108334800D01*
X177977800Y-108334800D02*
X177977800Y-120095000D01*
X177977800Y-120095000D02*
X177952400Y-120120400D01*
X173609000Y-120323600D02*
X172948600Y-120323600D01*
X172948600Y-120323600D02*
X172466000Y-120806200D01*
X172466000Y-120806200D02*
X172466000Y-125302000D01*
X172466000Y-125302000D02*
X166217600Y-131550400D01*
X166217600Y-131550400D02*
X166217600Y-142167600D01*
X166217600Y-142167600D02*
X164363400Y-144021800D01*
X164388800Y-144047200D02*
X164363400Y-144021800D01*
X164388800Y-149330400D02*
X164388800Y-144047200D01*
X149453600Y-162995600D02*
X149123400Y-162665400D01*
X149123400Y-162665400D02*
X141224000Y-162665400D01*
X141224000Y-162665400D02*
X138836400Y-160277800D01*
X138836400Y-160277800D02*
X138836400Y-154029400D01*
X138836400Y-154029400D02*
X139801600Y-153064200D01*
X139801600Y-153064200D02*
X139801600Y-148416000D01*
X139801600Y-148416000D02*
X139801600Y-143310600D01*
X139801600Y-143310600D02*
X139801600Y-143183600D01*
X139801600Y-143183600D02*
X138811000Y-142193000D01*
X138811000Y-142193000D02*
X124002800Y-142193000D01*
X124002800Y-142193000D02*
X122301000Y-140491200D01*
X122301000Y-140491200D02*
X122301000Y-117555000D01*
X122301000Y-117555000D02*
X125857000Y-113999000D01*
X125857000Y-113999000D02*
X126263400Y-113999000D01*
D17*
X167424100Y-133176000D02*
X167424100Y-132185400D01*
X167424100Y-132185400D02*
X168503600Y-131105900D01*
X168503600Y-131105900D02*
X168516300Y-131105900D01*
X168516300Y-131105900D02*
X169545000Y-130077200D01*
X170738800Y-130077200D02*
X171767500Y-131105900D01*
X169545000Y-130077200D02*
X170738800Y-130077200D01*
D15*
X129540000Y-138078200D02*
X129844800Y-138383000D01*
X129844800Y-138383000D02*
X129844800Y-140364200D01*
X129844800Y-140364200D02*
X130149600Y-140669000D01*
X130149600Y-140669000D02*
X161823400Y-140669000D01*
X129159000Y-134204700D02*
X153225500Y-134204700D01*
X153225500Y-134204700D02*
X155829000Y-136808200D01*
X155829000Y-136808200D02*
X161036000Y-136808200D01*
X161036000Y-136808200D02*
X161417000Y-137189200D01*
X128181100Y-133226800D02*
X129159000Y-134204700D01*
X128181100Y-133226800D02*
X128181100Y-132045700D01*
X128181100Y-132045700D02*
X123875800Y-127740400D01*
X123875800Y-127740400D02*
X123101100Y-127740400D01*
X158572200Y-139145000D02*
X156768800Y-137341600D01*
X156768800Y-137341600D02*
X155714700Y-137341600D01*
X155714700Y-137341600D02*
X153047700Y-134674600D01*
X153047700Y-134674600D02*
X128905000Y-134674600D01*
X128905000Y-134674600D02*
X127622300Y-133391900D01*
X127622300Y-133391900D02*
X127622300Y-132210800D01*
X127622300Y-132210800D02*
X124307600Y-128896100D01*
X124307600Y-128896100D02*
X123164600Y-128896100D01*
X122961400Y-139221200D02*
X124993400Y-141253200D01*
X124993400Y-141253200D02*
X155498800Y-141253200D01*
X155498800Y-141253200D02*
X155524200Y-141227800D01*
X155524200Y-141227800D02*
X155651200Y-141227800D01*
X137642600Y-158398200D02*
X135051800Y-155807400D01*
X137668000Y-158398200D02*
X137642600Y-158398200D01*
D18*
X135073205Y-155803405D02*
X135051800Y-155807400D01*
D15*
X135073205Y-155803405D02*
X132914205Y-155803405D01*
X137591800Y-159668200D02*
X135305800Y-157382200D01*
X137604500Y-159668200D02*
X137591800Y-159668200D01*
D18*
X135318500Y-157382200D02*
X135305800Y-157382200D01*
D15*
X135318500Y-157382200D02*
X132461000Y-157382200D01*
X131118154Y-156039354D02*
X131118154Y-154007354D01*
X132461000Y-157382200D02*
X131118154Y-156039354D01*
X151892000Y-136554200D02*
X151638000Y-136808200D01*
X151638000Y-136808200D02*
X151638000Y-137697200D01*
X144145000Y-135665200D02*
X143764000Y-136046200D01*
X143764000Y-136046200D02*
X143764000Y-136808200D01*
X143764000Y-136808200D02*
X145161000Y-138205200D01*
X145161000Y-138205200D02*
X156210000Y-138205200D01*
X156210000Y-138205200D02*
X156591000Y-138586200D01*
X156591000Y-138586200D02*
X156591000Y-138840200D01*
X141605000Y-137125700D02*
X141732000Y-137252700D01*
X141732000Y-137252700D02*
X143573500Y-137252700D01*
X143573500Y-137252700D02*
X144970500Y-138649700D01*
X144970500Y-138649700D02*
X155892500Y-138649700D01*
X155892500Y-138649700D02*
X155956000Y-138713200D01*
X165455600Y-145977600D02*
X165608000Y-146130000D01*
X165608000Y-146130000D02*
X166192200Y-146130000D01*
X166192200Y-146130000D02*
X167563800Y-144758400D01*
X167563800Y-144758400D02*
X167563800Y-143971000D01*
X167563800Y-143971000D02*
X169189400Y-142345400D01*
X169189400Y-142345400D02*
X174066200Y-142345400D01*
X174066200Y-142345400D02*
X176047400Y-140364200D01*
X176047400Y-140364200D02*
X176047400Y-108893600D01*
X176047400Y-108893600D02*
X171907200Y-104753400D01*
X171907200Y-104753400D02*
X149098000Y-104753400D01*
X149098000Y-104753400D02*
X148285200Y-105566200D01*
X148285200Y-105566200D02*
X145745200Y-105566200D01*
X165404800Y-146917400D02*
X165430200Y-146942800D01*
X165430200Y-146942800D02*
X166319200Y-146942800D01*
X166319200Y-146942800D02*
X168148000Y-145114000D01*
X168148000Y-145114000D02*
X168148000Y-144098000D01*
X168148000Y-144098000D02*
X169341800Y-142904200D01*
X169341800Y-142904200D02*
X174421800Y-142904200D01*
X174421800Y-142904200D02*
X176555400Y-140770600D01*
X176555400Y-140770600D02*
X176555400Y-108639600D01*
X176555400Y-108639600D02*
X172135800Y-104220000D01*
X172135800Y-104220000D02*
X148691600Y-104220000D01*
X148691600Y-104220000D02*
X148666200Y-104245400D01*
X150215600Y-163046400D02*
X151688800Y-161573200D01*
X150114000Y-163046400D02*
X150215600Y-163046400D01*
X170942000Y-155883600D02*
X173532800Y-155883600D01*
X182575200Y-146841200D02*
X182575200Y-144504400D01*
X173532800Y-155883600D02*
X182575200Y-146841200D01*
X151688800Y-161573200D02*
X165252400Y-161573200D01*
X165252400Y-161573200D02*
X170942000Y-155883600D01*
X148132800Y-113770400D02*
X147320000Y-112957600D01*
X147320000Y-112957600D02*
X139141200Y-112957600D01*
X139141200Y-112957600D02*
X134289800Y-117809000D01*
X134289800Y-117809000D02*
X134289800Y-133379200D01*
X168833800Y-154385000D02*
X168833800Y-152810200D01*
X168833800Y-152810200D02*
X173863000Y-147781000D01*
X173863000Y-147781000D02*
X173863000Y-144402800D01*
X173863000Y-144402800D02*
X177063400Y-141202400D01*
X177063400Y-141202400D02*
X177063400Y-117986800D01*
X177063400Y-117986800D02*
X177165000Y-117885200D01*
X146558000Y-100740200D02*
X144653000Y-98835200D01*
X144653000Y-98835200D02*
X144653000Y-97501700D01*
X144653000Y-97501700D02*
X145097500Y-97057200D01*
X145097500Y-97057200D02*
X146558000Y-97057200D01*
G36*
X155071196Y-89416294D02*
G01*
X157490985Y-89667011D01*
X159889547Y-90073358D01*
X162256910Y-90633649D01*
X164583166Y-91345538D01*
X166858637Y-92206063D01*
X169073834Y-93211637D01*
X171219520Y-94358066D01*
X173286742Y-95640564D01*
X175266912Y-97053806D01*
X177151751Y-98591884D01*
X178933393Y-100248378D01*
X180604433Y-102016401D01*
X182157892Y-103888573D01*
X183587300Y-105857092D01*
X184886693Y-107913748D01*
X186050657Y-110049971D01*
X187074343Y-112256862D01*
X187953475Y-114525203D01*
X188684400Y-116845565D01*
X189264056Y-119208235D01*
X189674139Y-121514000D01*
X177819940Y-121514000D01*
X177800000Y-121512036D01*
X177780059Y-121514000D01*
X177720410Y-121519875D01*
X177643879Y-121543090D01*
X177573347Y-121580790D01*
X177571400Y-121582388D01*
X177571400Y-120629531D01*
X177651615Y-120683129D01*
X177767177Y-120730997D01*
X177889858Y-120755400D01*
X177958849Y-120755400D01*
X177999271Y-120852985D01*
X178068764Y-120956989D01*
X178157211Y-121045436D01*
X178261215Y-121114929D01*
X178376777Y-121162797D01*
X178499458Y-121187200D01*
X178624542Y-121187200D01*
X178747223Y-121162797D01*
X178862785Y-121114929D01*
X178966789Y-121045436D01*
X179055236Y-120956989D01*
X179124729Y-120852985D01*
X179172597Y-120737423D01*
X179197000Y-120614742D01*
X179197000Y-120489658D01*
X179172597Y-120366977D01*
X179124729Y-120251415D01*
X179055236Y-120147411D01*
X179044600Y-120136775D01*
X179044600Y-108054944D01*
X179047057Y-108030000D01*
X179043435Y-107993229D01*
X179037249Y-107930415D01*
X179008201Y-107834657D01*
X178961029Y-107746405D01*
X178897548Y-107669052D01*
X178878165Y-107653145D01*
X173046055Y-101821035D01*
X173030148Y-101801652D01*
X172952795Y-101738171D01*
X172864543Y-101690999D01*
X172768785Y-101661951D01*
X172694147Y-101654600D01*
X172694144Y-101654600D01*
X172669200Y-101652143D01*
X172644256Y-101654600D01*
X163220400Y-101654600D01*
X163220400Y-98174344D01*
X163222857Y-98149400D01*
X163217955Y-98099628D01*
X163213049Y-98049815D01*
X163184001Y-97954057D01*
X163136829Y-97865805D01*
X163073348Y-97788452D01*
X163053965Y-97772545D01*
X162695555Y-97414135D01*
X162679648Y-97394752D01*
X162602295Y-97331271D01*
X162514043Y-97284099D01*
X162462914Y-97268589D01*
X162456789Y-97262464D01*
X162352785Y-97192971D01*
X162237223Y-97145103D01*
X162114542Y-97120700D01*
X161989458Y-97120700D01*
X161866777Y-97145103D01*
X161751215Y-97192971D01*
X161647211Y-97262464D01*
X161558764Y-97350911D01*
X161489271Y-97454915D01*
X161441403Y-97570477D01*
X161417000Y-97693158D01*
X161417000Y-97818242D01*
X161441403Y-97940923D01*
X161489271Y-98056485D01*
X161521654Y-98104950D01*
X161489271Y-98153415D01*
X161441403Y-98268977D01*
X161417000Y-98391658D01*
X161417000Y-98516742D01*
X161441403Y-98639423D01*
X161489271Y-98754985D01*
X161544000Y-98836893D01*
X161544000Y-100167569D01*
X161463785Y-100113971D01*
X161348223Y-100066103D01*
X161225542Y-100041700D01*
X161100458Y-100041700D01*
X160977777Y-100066103D01*
X160862215Y-100113971D01*
X160758211Y-100183464D01*
X160669764Y-100271911D01*
X160600271Y-100375915D01*
X160552403Y-100491477D01*
X160528000Y-100614158D01*
X160528000Y-100739242D01*
X160552403Y-100861923D01*
X160600271Y-100977485D01*
X160669764Y-101081489D01*
X160758211Y-101169936D01*
X160862215Y-101239429D01*
X160977777Y-101287297D01*
X161100458Y-101311700D01*
X161225542Y-101311700D01*
X161348223Y-101287297D01*
X161463785Y-101239429D01*
X161544001Y-101185831D01*
X161544001Y-102442444D01*
X161544000Y-102442454D01*
X161544000Y-102467856D01*
X161541543Y-102492800D01*
X161544000Y-102517744D01*
X161544000Y-102517747D01*
X161551351Y-102592385D01*
X161580399Y-102688143D01*
X161627571Y-102776395D01*
X161691052Y-102853748D01*
X161710434Y-102869654D01*
X162056149Y-103215370D01*
X162072052Y-103234748D01*
X162091429Y-103250650D01*
X162149404Y-103298229D01*
X162199209Y-103324850D01*
X162237657Y-103345401D01*
X162333415Y-103374449D01*
X162408053Y-103381800D01*
X162408055Y-103381800D01*
X162432999Y-103384257D01*
X162457943Y-103381800D01*
X172306380Y-103381800D01*
X177469800Y-108545221D01*
X177469801Y-117325154D01*
X177465785Y-117322471D01*
X177350223Y-117274603D01*
X177227542Y-117250200D01*
X177102458Y-117250200D01*
X177063400Y-117257969D01*
X177063400Y-108664543D01*
X177065857Y-108639599D01*
X177059435Y-108574399D01*
X177056049Y-108540015D01*
X177027001Y-108444257D01*
X177015104Y-108421999D01*
X176979829Y-108356004D01*
X176932250Y-108298029D01*
X176916348Y-108278652D01*
X176896971Y-108262750D01*
X172512655Y-103878435D01*
X172496748Y-103859052D01*
X172419395Y-103795571D01*
X172331143Y-103748399D01*
X172235385Y-103719351D01*
X172160747Y-103712000D01*
X172160744Y-103712000D01*
X172135800Y-103709543D01*
X172110856Y-103712000D01*
X149010879Y-103712000D01*
X148966985Y-103682671D01*
X148851423Y-103634803D01*
X148728742Y-103610400D01*
X148603658Y-103610400D01*
X148480977Y-103634803D01*
X148365415Y-103682671D01*
X148261411Y-103752164D01*
X148172964Y-103840611D01*
X148103471Y-103944615D01*
X148055603Y-104060177D01*
X148031200Y-104182858D01*
X148031200Y-104307942D01*
X148055603Y-104430623D01*
X148103471Y-104546185D01*
X148172964Y-104650189D01*
X148261411Y-104738636D01*
X148341099Y-104791881D01*
X148074780Y-105058200D01*
X146127893Y-105058200D01*
X146045985Y-105003471D01*
X145930423Y-104955603D01*
X145909900Y-104951521D01*
X146158821Y-104702600D01*
X147066456Y-104702600D01*
X147091400Y-104705057D01*
X147116344Y-104702600D01*
X147116347Y-104702600D01*
X147190985Y-104695249D01*
X147286743Y-104666201D01*
X147374995Y-104619029D01*
X147452348Y-104555548D01*
X147468255Y-104536165D01*
X149642771Y-102361650D01*
X149662148Y-102345748D01*
X149701779Y-102297457D01*
X149725629Y-102268396D01*
X149757267Y-102209205D01*
X149772801Y-102180143D01*
X149801849Y-102084385D01*
X149809200Y-102009747D01*
X149809200Y-102009745D01*
X149811657Y-101984801D01*
X149809200Y-101959857D01*
X149809200Y-100142844D01*
X149811657Y-100117900D01*
X149808602Y-100086881D01*
X149801849Y-100018315D01*
X149772801Y-99922557D01*
X149729402Y-99841363D01*
X149725629Y-99834304D01*
X149678050Y-99776329D01*
X149663533Y-99758639D01*
X149674777Y-99763297D01*
X149797458Y-99787700D01*
X149922542Y-99787700D01*
X150045223Y-99763297D01*
X150160785Y-99715429D01*
X150264789Y-99645936D01*
X150353236Y-99557489D01*
X150422729Y-99453485D01*
X150470597Y-99337923D01*
X150495000Y-99215242D01*
X150495000Y-99090158D01*
X150470597Y-98967477D01*
X150422729Y-98851915D01*
X150353236Y-98747911D01*
X150264789Y-98659464D01*
X150160785Y-98589971D01*
X150045223Y-98542103D01*
X149948605Y-98522884D01*
X149665355Y-98239635D01*
X149649448Y-98220252D01*
X149572095Y-98156771D01*
X149483843Y-98109599D01*
X149388085Y-98080551D01*
X149313447Y-98073200D01*
X149313444Y-98073200D01*
X149288500Y-98070743D01*
X149263556Y-98073200D01*
X147979944Y-98073200D01*
X147955000Y-98070743D01*
X147930056Y-98073200D01*
X147930053Y-98073200D01*
X147855415Y-98080551D01*
X147759657Y-98109599D01*
X147671405Y-98156771D01*
X147594052Y-98220252D01*
X147578145Y-98239635D01*
X146953030Y-98864750D01*
X146933653Y-98880652D01*
X146917751Y-98900029D01*
X146917750Y-98900030D01*
X146870171Y-98958005D01*
X146823000Y-99046257D01*
X146793952Y-99142016D01*
X146784143Y-99241600D01*
X146786601Y-99266554D01*
X146786601Y-100147571D01*
X146743223Y-100129603D01*
X146646604Y-100110384D01*
X145161000Y-98624780D01*
X145161000Y-97712120D01*
X145307921Y-97565200D01*
X146175307Y-97565200D01*
X146257215Y-97619929D01*
X146372777Y-97667797D01*
X146495458Y-97692200D01*
X146620542Y-97692200D01*
X146743223Y-97667797D01*
X146858785Y-97619929D01*
X146962789Y-97550436D01*
X147051236Y-97461989D01*
X147120729Y-97357985D01*
X147168597Y-97242423D01*
X147193000Y-97119742D01*
X147193000Y-96994658D01*
X147168597Y-96871977D01*
X147120729Y-96756415D01*
X147051236Y-96652411D01*
X146962789Y-96563964D01*
X146858785Y-96494471D01*
X146743223Y-96446603D01*
X146620542Y-96422200D01*
X146495458Y-96422200D01*
X146372777Y-96446603D01*
X146257215Y-96494471D01*
X146175307Y-96549200D01*
X145122444Y-96549200D01*
X145097500Y-96546743D01*
X145072556Y-96549200D01*
X145072553Y-96549200D01*
X144997915Y-96556551D01*
X144902157Y-96585599D01*
X144886575Y-96593928D01*
X144813904Y-96632771D01*
X144776773Y-96663244D01*
X144736552Y-96696252D01*
X144720649Y-96715630D01*
X144311430Y-97124850D01*
X144292053Y-97140752D01*
X144276151Y-97160129D01*
X144276150Y-97160130D01*
X144228571Y-97218105D01*
X144181400Y-97306357D01*
X144153367Y-97398771D01*
X144152352Y-97402116D01*
X144142543Y-97501700D01*
X144145001Y-97526654D01*
X144145000Y-98810255D01*
X144142543Y-98835200D01*
X144145000Y-98860144D01*
X144145000Y-98860146D01*
X144152351Y-98934784D01*
X144181399Y-99030542D01*
X144228571Y-99118795D01*
X144292052Y-99196148D01*
X144311435Y-99212055D01*
X145928184Y-100828804D01*
X145947403Y-100925423D01*
X145995271Y-101040985D01*
X146064764Y-101144989D01*
X146153211Y-101233436D01*
X146257215Y-101302929D01*
X146372777Y-101350797D01*
X146495458Y-101375200D01*
X146620542Y-101375200D01*
X146743223Y-101350797D01*
X146786600Y-101332829D01*
X146786600Y-102841180D01*
X146499980Y-103127800D01*
X145668543Y-103127800D01*
X145643599Y-103125343D01*
X145618655Y-103127800D01*
X145618653Y-103127800D01*
X145544015Y-103135151D01*
X145448257Y-103164199D01*
X145448255Y-103164200D01*
X145360004Y-103211371D01*
X145313304Y-103249697D01*
X145282652Y-103274852D01*
X145266750Y-103294229D01*
X144108230Y-104452750D01*
X144088853Y-104468652D01*
X144072951Y-104488029D01*
X144072950Y-104488030D01*
X144025371Y-104546005D01*
X143984618Y-104622250D01*
X143978200Y-104634257D01*
X143949764Y-104728000D01*
X143949152Y-104730016D01*
X143939343Y-104829600D01*
X143941801Y-104854554D01*
X143941800Y-105922255D01*
X143939343Y-105947200D01*
X143941800Y-105972144D01*
X143941800Y-105972146D01*
X143949151Y-106046784D01*
X143978199Y-106142542D01*
X144025371Y-106230795D01*
X144088852Y-106308148D01*
X144108235Y-106324055D01*
X144961945Y-107177765D01*
X144977852Y-107197148D01*
X145055205Y-107260629D01*
X145143457Y-107307801D01*
X145239215Y-107336849D01*
X145313853Y-107344200D01*
X145313856Y-107344200D01*
X145338800Y-107346657D01*
X145363744Y-107344200D01*
X151308256Y-107344200D01*
X151333200Y-107346657D01*
X151358144Y-107344200D01*
X151358147Y-107344200D01*
X151432785Y-107336849D01*
X151528543Y-107307801D01*
X151616795Y-107260629D01*
X151694148Y-107197148D01*
X151710055Y-107177765D01*
X152559621Y-106328200D01*
X171214180Y-106328200D01*
X174421801Y-109535822D01*
X174421801Y-115031376D01*
X173837600Y-114447176D01*
X173837600Y-113373025D01*
X173899036Y-113311589D01*
X173916456Y-113285518D01*
X173936337Y-113261293D01*
X173951112Y-113233652D01*
X173968529Y-113207585D01*
X173980525Y-113178624D01*
X173995302Y-113150979D01*
X174004400Y-113120985D01*
X174016397Y-113092023D01*
X174022514Y-113061272D01*
X174031611Y-113031282D01*
X174034682Y-113000097D01*
X174040800Y-112969342D01*
X174040800Y-112937982D01*
X174043871Y-112906801D01*
X174040800Y-112875620D01*
X174040800Y-112844258D01*
X174034682Y-112813502D01*
X174031611Y-112782319D01*
X174022514Y-112752330D01*
X174016397Y-112721577D01*
X174004400Y-112692615D01*
X173995302Y-112662621D01*
X173980525Y-112634976D01*
X173968529Y-112606015D01*
X173951112Y-112579948D01*
X173936337Y-112552307D01*
X173916457Y-112528083D01*
X173899036Y-112502011D01*
X173876861Y-112479836D01*
X173856984Y-112455616D01*
X173832764Y-112435739D01*
X173810589Y-112413564D01*
X173784517Y-112396143D01*
X173760293Y-112376263D01*
X173732652Y-112361488D01*
X173706585Y-112344071D01*
X173677624Y-112332075D01*
X173649979Y-112317298D01*
X173619985Y-112308200D01*
X173591023Y-112296203D01*
X173560270Y-112290086D01*
X173530281Y-112280989D01*
X173499098Y-112277918D01*
X173468342Y-112271800D01*
X173436980Y-112271800D01*
X173405799Y-112268729D01*
X173374618Y-112271800D01*
X173343258Y-112271800D01*
X173312503Y-112277918D01*
X173281318Y-112280989D01*
X173251328Y-112290086D01*
X173220577Y-112296203D01*
X173191615Y-112308200D01*
X173161621Y-112317298D01*
X173133976Y-112332075D01*
X173105015Y-112344071D01*
X173078948Y-112361488D01*
X173051307Y-112376263D01*
X173027082Y-112396144D01*
X173001011Y-112413564D01*
X172912564Y-112502011D01*
X172912562Y-112502014D01*
X172775646Y-112638930D01*
X172751416Y-112658815D01*
X172731532Y-112683044D01*
X172672063Y-112755507D01*
X172613098Y-112865821D01*
X172576789Y-112985519D01*
X172564529Y-113110000D01*
X172567601Y-113141191D01*
X172567600Y-114679018D01*
X172564529Y-114710200D01*
X172567600Y-114741381D01*
X172567600Y-114741391D01*
X172576788Y-114834681D01*
X172613098Y-114954379D01*
X172672063Y-115064693D01*
X172751415Y-115161385D01*
X172775650Y-115181274D01*
X173659801Y-116065426D01*
X173659801Y-119688600D01*
X173546458Y-119688600D01*
X173423777Y-119713003D01*
X173308215Y-119760871D01*
X173226307Y-119815600D01*
X172973543Y-119815600D01*
X172948599Y-119813143D01*
X172923655Y-119815600D01*
X172923653Y-119815600D01*
X172849015Y-119822951D01*
X172753257Y-119851999D01*
X172753255Y-119852000D01*
X172665004Y-119899171D01*
X172643036Y-119917200D01*
X172587652Y-119962652D01*
X172571749Y-119982030D01*
X172124434Y-120429345D01*
X172105052Y-120445252D01*
X172041571Y-120522605D01*
X171994399Y-120610858D01*
X171965351Y-120706616D01*
X171959950Y-120761455D01*
X171955543Y-120806200D01*
X171958000Y-120831144D01*
X171958001Y-125091578D01*
X165876035Y-131173545D01*
X165856652Y-131189452D01*
X165793171Y-131266805D01*
X165745999Y-131355058D01*
X165716951Y-131450816D01*
X165710371Y-131517629D01*
X165707143Y-131550400D01*
X165709600Y-131575344D01*
X165709601Y-141957179D01*
X164021827Y-143644953D01*
X164002453Y-143660853D01*
X163986553Y-143680227D01*
X163986550Y-143680230D01*
X163939917Y-143737052D01*
X163938971Y-143738205D01*
X163891800Y-143826457D01*
X163862752Y-143922216D01*
X163852943Y-144021800D01*
X163862752Y-144121384D01*
X163880801Y-144180884D01*
X163880800Y-148947707D01*
X163826071Y-149029615D01*
X163778203Y-149145177D01*
X163753800Y-149267858D01*
X163753800Y-149392942D01*
X163778203Y-149515623D01*
X163826071Y-149631185D01*
X163895564Y-149735189D01*
X163952707Y-149792332D01*
X163902271Y-149867815D01*
X163854403Y-149983377D01*
X163830000Y-150106058D01*
X163830000Y-150231142D01*
X163854403Y-150353823D01*
X163902271Y-150469385D01*
X163971764Y-150573389D01*
X164060211Y-150661836D01*
X164164215Y-150731329D01*
X164279777Y-150779197D01*
X164402458Y-150803600D01*
X164527542Y-150803600D01*
X164650223Y-150779197D01*
X164765785Y-150731329D01*
X164869789Y-150661836D01*
X164958236Y-150573389D01*
X165027729Y-150469385D01*
X165075597Y-150353823D01*
X165094816Y-150257204D01*
X165695565Y-149656455D01*
X165714948Y-149640548D01*
X165778429Y-149563195D01*
X165825601Y-149474943D01*
X165854649Y-149379184D01*
X165862000Y-149304546D01*
X165862000Y-149304544D01*
X165864457Y-149279600D01*
X165862000Y-149254656D01*
X165862000Y-149152143D01*
X165864457Y-149127199D01*
X165861337Y-149095520D01*
X165854649Y-149027615D01*
X165825601Y-148931857D01*
X165822715Y-148926457D01*
X165778429Y-148843604D01*
X165730850Y-148785629D01*
X165714948Y-148766252D01*
X165695570Y-148750349D01*
X165379400Y-148434180D01*
X165379400Y-147552400D01*
X165467342Y-147552400D01*
X165590023Y-147527997D01*
X165705585Y-147480129D01*
X165749479Y-147450800D01*
X166294256Y-147450800D01*
X166319200Y-147453257D01*
X166344144Y-147450800D01*
X166344147Y-147450800D01*
X166418785Y-147443449D01*
X166514543Y-147414401D01*
X166602795Y-147367229D01*
X166680148Y-147303748D01*
X166696055Y-147284365D01*
X168407809Y-145572611D01*
X168460254Y-145699224D01*
X168672630Y-146017067D01*
X168942933Y-146287370D01*
X169260776Y-146499746D01*
X169613945Y-146646034D01*
X169988867Y-146720610D01*
X170371133Y-146720610D01*
X170746055Y-146646034D01*
X171099224Y-146499746D01*
X171417067Y-146287370D01*
X171687370Y-146017067D01*
X171899746Y-145699224D01*
X172046034Y-145346055D01*
X172120610Y-144971133D01*
X172120610Y-144588867D01*
X172046034Y-144213945D01*
X171899746Y-143860776D01*
X171687370Y-143542933D01*
X171556637Y-143412200D01*
X174135180Y-143412200D01*
X173521430Y-144025950D01*
X173502053Y-144041852D01*
X173486151Y-144061229D01*
X173486150Y-144061230D01*
X173438571Y-144119205D01*
X173402241Y-144187175D01*
X173391400Y-144207457D01*
X173362352Y-144303215D01*
X173362137Y-144305395D01*
X173352543Y-144402800D01*
X173355001Y-144427754D01*
X173355000Y-147570580D01*
X171536721Y-149388859D01*
X171498736Y-149332011D01*
X171410289Y-149243564D01*
X171306285Y-149174071D01*
X171190723Y-149126203D01*
X171068042Y-149101800D01*
X170942958Y-149101800D01*
X170820277Y-149126203D01*
X170704715Y-149174071D01*
X170600711Y-149243564D01*
X170512264Y-149332011D01*
X170442771Y-149436015D01*
X170403035Y-149531945D01*
X168211796Y-151723184D01*
X168115177Y-151742403D01*
X167999615Y-151790271D01*
X167895611Y-151859764D01*
X167807164Y-151948211D01*
X167737671Y-152052215D01*
X167689803Y-152167777D01*
X167665400Y-152290458D01*
X167665400Y-152415542D01*
X167689803Y-152538223D01*
X167737671Y-152653785D01*
X167807164Y-152757789D01*
X167895611Y-152846236D01*
X167999615Y-152915729D01*
X168115177Y-152963597D01*
X168237858Y-152988000D01*
X168325801Y-152988000D01*
X168325800Y-154002307D01*
X168271071Y-154084215D01*
X168223203Y-154199777D01*
X168198800Y-154322458D01*
X168198800Y-154447542D01*
X168223203Y-154570223D01*
X168271071Y-154685785D01*
X168340564Y-154789789D01*
X168429011Y-154878236D01*
X168533015Y-154947729D01*
X168648577Y-154995597D01*
X168771258Y-155020000D01*
X168896342Y-155020000D01*
X169019023Y-154995597D01*
X169134585Y-154947729D01*
X169238589Y-154878236D01*
X169327036Y-154789789D01*
X169396529Y-154685785D01*
X169444397Y-154570223D01*
X169468800Y-154447542D01*
X169468800Y-154322458D01*
X169444397Y-154199777D01*
X169396529Y-154084215D01*
X169341800Y-154002307D01*
X169341800Y-153020620D01*
X169844913Y-152517507D01*
X172260950Y-152517507D01*
X172368610Y-152831478D01*
X172535454Y-153118412D01*
X172755070Y-153367283D01*
X173019018Y-153568527D01*
X173317155Y-153714411D01*
X173519121Y-153775678D01*
X173781679Y-153657087D01*
X173781679Y-152254949D01*
X174035679Y-152254949D01*
X174035679Y-153657087D01*
X174298237Y-153775678D01*
X174612208Y-153668018D01*
X174899142Y-153501174D01*
X175148013Y-153281558D01*
X175349257Y-153017610D01*
X175495141Y-152719473D01*
X175556408Y-152517507D01*
X175437817Y-152254949D01*
X174035679Y-152254949D01*
X173781679Y-152254949D01*
X172379541Y-152254949D01*
X172260950Y-152517507D01*
X169844913Y-152517507D01*
X170624029Y-151738391D01*
X172260950Y-151738391D01*
X172379541Y-152000949D01*
X173781679Y-152000949D01*
X173781679Y-150598811D01*
X174035679Y-150598811D01*
X174035679Y-152000949D01*
X175437817Y-152000949D01*
X175556408Y-151738391D01*
X175448748Y-151424420D01*
X175281904Y-151137486D01*
X175062288Y-150888615D01*
X174798340Y-150687371D01*
X174500203Y-150541487D01*
X174298237Y-150480220D01*
X174035679Y-150598811D01*
X173781679Y-150598811D01*
X173519121Y-150480220D01*
X173205150Y-150587880D01*
X172918216Y-150754724D01*
X172669345Y-150974340D01*
X172468101Y-151238288D01*
X172322217Y-151536425D01*
X172260950Y-151738391D01*
X170624029Y-151738391D01*
X172956183Y-149406237D01*
X175372220Y-149406237D01*
X175479880Y-149720208D01*
X175646724Y-150007142D01*
X175866340Y-150256013D01*
X176130288Y-150457257D01*
X176428425Y-150603141D01*
X176630391Y-150664408D01*
X176892949Y-150545817D01*
X176892949Y-149143679D01*
X177146949Y-149143679D01*
X177146949Y-150545817D01*
X177409507Y-150664408D01*
X177723478Y-150556748D01*
X178010412Y-150389904D01*
X178259283Y-150170288D01*
X178460527Y-149906340D01*
X178606411Y-149608203D01*
X178667678Y-149406237D01*
X178549087Y-149143679D01*
X177146949Y-149143679D01*
X176892949Y-149143679D01*
X175490811Y-149143679D01*
X175372220Y-149406237D01*
X172956183Y-149406237D01*
X173735299Y-148627121D01*
X175372220Y-148627121D01*
X175490811Y-148889679D01*
X176892949Y-148889679D01*
X176892949Y-147487541D01*
X177146949Y-147487541D01*
X177146949Y-148889679D01*
X178549087Y-148889679D01*
X178667678Y-148627121D01*
X178560018Y-148313150D01*
X178393174Y-148026216D01*
X178173558Y-147777345D01*
X177909610Y-147576101D01*
X177611473Y-147430217D01*
X177409507Y-147368950D01*
X177146949Y-147487541D01*
X176892949Y-147487541D01*
X176630391Y-147368950D01*
X176316420Y-147476610D01*
X176029486Y-147643454D01*
X175780615Y-147863070D01*
X175579371Y-148127018D01*
X175433487Y-148425155D01*
X175372220Y-148627121D01*
X173735299Y-148627121D01*
X174204565Y-148157855D01*
X174223948Y-148141948D01*
X174287429Y-148064595D01*
X174334601Y-147976343D01*
X174363649Y-147880585D01*
X174371000Y-147805947D01*
X174371000Y-147805944D01*
X174373457Y-147781000D01*
X174371000Y-147756056D01*
X174371000Y-144613220D01*
X177404971Y-141579250D01*
X177424348Y-141563348D01*
X177443024Y-141540590D01*
X177487829Y-141485996D01*
X177515097Y-141434981D01*
X177535001Y-141397743D01*
X177564049Y-141301985D01*
X177571400Y-141227347D01*
X177571400Y-141227345D01*
X177573857Y-141202401D01*
X177571400Y-141177457D01*
X177571400Y-138720420D01*
X178460401Y-139609422D01*
X178460401Y-139797874D01*
X178370542Y-139780000D01*
X178245458Y-139780000D01*
X178122777Y-139804403D01*
X178007215Y-139852271D01*
X177903211Y-139921764D01*
X177814764Y-140010211D01*
X177745271Y-140114215D01*
X177697403Y-140229777D01*
X177673000Y-140352458D01*
X177673000Y-140477542D01*
X177697403Y-140600223D01*
X177745271Y-140715785D01*
X177814764Y-140819789D01*
X177903211Y-140908236D01*
X177966590Y-140950585D01*
X177916364Y-141000811D01*
X177846871Y-141104815D01*
X177799003Y-141220377D01*
X177774600Y-141343058D01*
X177774600Y-141468142D01*
X177799003Y-141590823D01*
X177846871Y-141706385D01*
X177916364Y-141810389D01*
X178004811Y-141898836D01*
X178108815Y-141968329D01*
X178224377Y-142016197D01*
X178347058Y-142040600D01*
X178472142Y-142040600D01*
X178594823Y-142016197D01*
X178686897Y-141978058D01*
X179628800Y-141978058D01*
X179628800Y-142103142D01*
X179653203Y-142225823D01*
X179701071Y-142341385D01*
X179770564Y-142445389D01*
X179859011Y-142533836D01*
X179963015Y-142603329D01*
X180078577Y-142651197D01*
X180201258Y-142675600D01*
X180326342Y-142675600D01*
X180449023Y-142651197D01*
X180564585Y-142603329D01*
X180668589Y-142533836D01*
X180757036Y-142445389D01*
X180826529Y-142341385D01*
X180874397Y-142225823D01*
X180898800Y-142103142D01*
X180898800Y-141978058D01*
X180874397Y-141855377D01*
X180826529Y-141739815D01*
X180757036Y-141635811D01*
X180668589Y-141547364D01*
X180564585Y-141477871D01*
X180449023Y-141430003D01*
X180326342Y-141405600D01*
X180201258Y-141405600D01*
X180078577Y-141430003D01*
X179963015Y-141477871D01*
X179859011Y-141547364D01*
X179770564Y-141635811D01*
X179701071Y-141739815D01*
X179653203Y-141855377D01*
X179628800Y-141978058D01*
X178686897Y-141978058D01*
X178710385Y-141968329D01*
X178814389Y-141898836D01*
X178902836Y-141810389D01*
X178972329Y-141706385D01*
X179020197Y-141590823D01*
X179039416Y-141494204D01*
X179309965Y-141223655D01*
X179329348Y-141207748D01*
X179392829Y-141130395D01*
X179440001Y-141042143D01*
X179469049Y-140946385D01*
X179476400Y-140871747D01*
X179476400Y-140871744D01*
X179478857Y-140846800D01*
X179476400Y-140821856D01*
X179476400Y-139423943D01*
X179478857Y-139398999D01*
X179475973Y-139369722D01*
X179469049Y-139299415D01*
X179440001Y-139203657D01*
X179416012Y-139158777D01*
X179392829Y-139115404D01*
X179348024Y-139060810D01*
X179329348Y-139038052D01*
X179309971Y-139022150D01*
X178721621Y-138433800D01*
X181000856Y-138433800D01*
X181025800Y-138436257D01*
X181050744Y-138433800D01*
X181050747Y-138433800D01*
X181125385Y-138426449D01*
X181221143Y-138397401D01*
X181309395Y-138350229D01*
X181386748Y-138286748D01*
X181402655Y-138267365D01*
X182027765Y-137642255D01*
X182047148Y-137626348D01*
X182110629Y-137548995D01*
X182157801Y-137460743D01*
X182186849Y-137364985D01*
X182194200Y-137290347D01*
X182194200Y-137290344D01*
X182196657Y-137265400D01*
X182194200Y-137240456D01*
X182194200Y-134937625D01*
X182230236Y-134901589D01*
X182299729Y-134797585D01*
X182347597Y-134682023D01*
X182372000Y-134559342D01*
X182372000Y-134434258D01*
X182347597Y-134311577D01*
X182299729Y-134196015D01*
X182230236Y-134092011D01*
X182141789Y-134003564D01*
X182037785Y-133934071D01*
X181922223Y-133886203D01*
X181799542Y-133861800D01*
X181674458Y-133861800D01*
X181551777Y-133886203D01*
X181436215Y-133934071D01*
X181332211Y-134003564D01*
X181243764Y-134092011D01*
X181174271Y-134196015D01*
X181126403Y-134311577D01*
X181102000Y-134434258D01*
X181102000Y-134559342D01*
X181126403Y-134682023D01*
X181174271Y-134797585D01*
X181178201Y-134803467D01*
X181178200Y-136399327D01*
X181062942Y-136376400D01*
X180937858Y-136376400D01*
X180815177Y-136400803D01*
X180699615Y-136448671D01*
X180595611Y-136518164D01*
X180507164Y-136606611D01*
X180437671Y-136710615D01*
X180389803Y-136826177D01*
X180365400Y-136948858D01*
X180365400Y-137073942D01*
X180389803Y-137196623D01*
X180437671Y-137312185D01*
X180507164Y-137416189D01*
X180508775Y-137417800D01*
X178131893Y-137417800D01*
X178049985Y-137363071D01*
X177934423Y-137315203D01*
X177811742Y-137290800D01*
X177686658Y-137290800D01*
X177571400Y-137313726D01*
X177571400Y-132417612D01*
X177573347Y-132419210D01*
X177643879Y-132456910D01*
X177720410Y-132480125D01*
X177780059Y-132486000D01*
X177780060Y-132486000D01*
X177800000Y-132487964D01*
X177819941Y-132486000D01*
X189664683Y-132486000D01*
X189339655Y-134425100D01*
X188783503Y-136793412D01*
X188075672Y-139120917D01*
X187219120Y-141397885D01*
X186217415Y-143614833D01*
X185074731Y-145762520D01*
X183795841Y-147831981D01*
X182386058Y-149814613D01*
X180851283Y-151702119D01*
X179197894Y-153486659D01*
X177432790Y-155160782D01*
X175563328Y-156717511D01*
X173597314Y-158150346D01*
X171542916Y-159453336D01*
X169408727Y-160621026D01*
X167203638Y-161648558D01*
X164936827Y-162531650D01*
X162617759Y-163266618D01*
X160256096Y-163850400D01*
X157861663Y-164280564D01*
X157443782Y-164328062D01*
X157471229Y-164286985D01*
X157519097Y-164171423D01*
X157543500Y-164048742D01*
X157543500Y-163923658D01*
X157519097Y-163800977D01*
X157471229Y-163685415D01*
X157401736Y-163581411D01*
X157313289Y-163492964D01*
X157209285Y-163423471D01*
X157093723Y-163375603D01*
X156971042Y-163351200D01*
X156845958Y-163351200D01*
X156723277Y-163375603D01*
X156607715Y-163423471D01*
X156503711Y-163492964D01*
X156415264Y-163581411D01*
X156345771Y-163685415D01*
X156297903Y-163800977D01*
X156273500Y-163923658D01*
X156273500Y-164048742D01*
X156297903Y-164171423D01*
X156345771Y-164286985D01*
X156415264Y-164390989D01*
X156463734Y-164439459D01*
X155444504Y-164555308D01*
X153030822Y-164672710D01*
X153093223Y-164660297D01*
X153208785Y-164612429D01*
X153312789Y-164542936D01*
X153401236Y-164454489D01*
X153470729Y-164350485D01*
X153518597Y-164234923D01*
X153543000Y-164112242D01*
X153543000Y-163987158D01*
X153518597Y-163864477D01*
X153470729Y-163748915D01*
X153401236Y-163644911D01*
X153312789Y-163556464D01*
X153208785Y-163486971D01*
X153093223Y-163439103D01*
X152970542Y-163414700D01*
X152845458Y-163414700D01*
X152722777Y-163439103D01*
X152607215Y-163486971D01*
X152503211Y-163556464D01*
X152414764Y-163644911D01*
X152345271Y-163748915D01*
X152297403Y-163864477D01*
X152273000Y-163987158D01*
X152273000Y-164112242D01*
X152297403Y-164234923D01*
X152345271Y-164350485D01*
X152414764Y-164454489D01*
X152503211Y-164542936D01*
X152607215Y-164612429D01*
X152722777Y-164660297D01*
X152769453Y-164669581D01*
X150582170Y-164634634D01*
X148157324Y-164438883D01*
X145750133Y-164087053D01*
X145118058Y-163952524D01*
X145184789Y-163907936D01*
X145273236Y-163819489D01*
X145342729Y-163715485D01*
X145390597Y-163599923D01*
X145415000Y-163477242D01*
X145415000Y-163352158D01*
X145390597Y-163229477D01*
X145367369Y-163173400D01*
X148841526Y-163173400D01*
X148843003Y-163180823D01*
X148890871Y-163296385D01*
X148960364Y-163400389D01*
X149048811Y-163488836D01*
X149152815Y-163558329D01*
X149268377Y-163606197D01*
X149391058Y-163630600D01*
X149516142Y-163630600D01*
X149638823Y-163606197D01*
X149743769Y-163562727D01*
X149813215Y-163609129D01*
X149928777Y-163656997D01*
X150051458Y-163681400D01*
X150176542Y-163681400D01*
X150299223Y-163656997D01*
X150414785Y-163609129D01*
X150518789Y-163539636D01*
X150607236Y-163451189D01*
X150676729Y-163347185D01*
X150707485Y-163272936D01*
X151899221Y-162081200D01*
X165227456Y-162081200D01*
X165252400Y-162083657D01*
X165277344Y-162081200D01*
X165277347Y-162081200D01*
X165351985Y-162073849D01*
X165447743Y-162044801D01*
X165535995Y-161997629D01*
X165613348Y-161934148D01*
X165629255Y-161914765D01*
X171152421Y-156391600D01*
X173507856Y-156391600D01*
X173532800Y-156394057D01*
X173557744Y-156391600D01*
X173557747Y-156391600D01*
X173632385Y-156384249D01*
X173728143Y-156355201D01*
X173816395Y-156308029D01*
X173893748Y-156244548D01*
X173909655Y-156225165D01*
X182916765Y-147218055D01*
X182936148Y-147202148D01*
X182999629Y-147124795D01*
X183046801Y-147036543D01*
X183075849Y-146940785D01*
X183083200Y-146866147D01*
X183083200Y-146866144D01*
X183085657Y-146841200D01*
X183083200Y-146816256D01*
X183083200Y-144887093D01*
X183137929Y-144805185D01*
X183185797Y-144689623D01*
X183210200Y-144566942D01*
X183210200Y-144441858D01*
X183185797Y-144319177D01*
X183137929Y-144203615D01*
X183068436Y-144099611D01*
X182979989Y-144011164D01*
X182875985Y-143941671D01*
X182760423Y-143893803D01*
X182637742Y-143869400D01*
X182512658Y-143869400D01*
X182389977Y-143893803D01*
X182274415Y-143941671D01*
X182170411Y-144011164D01*
X182081964Y-144099611D01*
X182012471Y-144203615D01*
X181964603Y-144319177D01*
X181940200Y-144441858D01*
X181940200Y-144566942D01*
X181964603Y-144689623D01*
X182012471Y-144805185D01*
X182067201Y-144887094D01*
X182067200Y-146630780D01*
X173322380Y-155375600D01*
X170966943Y-155375600D01*
X170941999Y-155373143D01*
X170917055Y-155375600D01*
X170917053Y-155375600D01*
X170842415Y-155382951D01*
X170746657Y-155411999D01*
X170746655Y-155412000D01*
X170658404Y-155459171D01*
X170606486Y-155501779D01*
X170581052Y-155522652D01*
X170565150Y-155542029D01*
X165041980Y-161065200D01*
X151713743Y-161065200D01*
X151688799Y-161062743D01*
X151663855Y-161065200D01*
X151663853Y-161065200D01*
X151589215Y-161072551D01*
X151493457Y-161101599D01*
X151493455Y-161101600D01*
X151405204Y-161148771D01*
X151363065Y-161183354D01*
X151327852Y-161212252D01*
X151311950Y-161231629D01*
X150132180Y-162411400D01*
X150051458Y-162411400D01*
X149928777Y-162435803D01*
X149823831Y-162479273D01*
X149754385Y-162432871D01*
X149638823Y-162385003D01*
X149542204Y-162365784D01*
X149500255Y-162323835D01*
X149484348Y-162304452D01*
X149406995Y-162240971D01*
X149318743Y-162193799D01*
X149222985Y-162164751D01*
X149148347Y-162157400D01*
X149148344Y-162157400D01*
X149123400Y-162154943D01*
X149098456Y-162157400D01*
X141434421Y-162157400D01*
X139344400Y-160067380D01*
X139344400Y-157149329D01*
X139387777Y-157167297D01*
X139510458Y-157191700D01*
X139635542Y-157191700D01*
X139758223Y-157167297D01*
X139873785Y-157119429D01*
X139977789Y-157049936D01*
X140066236Y-156961489D01*
X140135729Y-156857485D01*
X140183597Y-156741923D01*
X140208000Y-156619242D01*
X140208000Y-156494158D01*
X140183597Y-156371477D01*
X140135729Y-156255915D01*
X140066236Y-156151911D01*
X139977789Y-156063464D01*
X139873785Y-155993971D01*
X139758223Y-155946103D01*
X139635542Y-155921700D01*
X139510458Y-155921700D01*
X139387777Y-155946103D01*
X139344400Y-155964071D01*
X139344400Y-154239820D01*
X140143171Y-153441050D01*
X140162548Y-153425148D01*
X140185362Y-153397349D01*
X140226029Y-153347796D01*
X140251243Y-153300624D01*
X140273201Y-153259543D01*
X140302249Y-153163785D01*
X140309600Y-153089147D01*
X140309600Y-153089144D01*
X140312057Y-153064200D01*
X140309600Y-153039256D01*
X140309600Y-152976258D01*
X164160200Y-152976258D01*
X164160200Y-153101342D01*
X164184603Y-153224023D01*
X164232471Y-153339585D01*
X164301964Y-153443589D01*
X164390411Y-153532036D01*
X164494415Y-153601529D01*
X164609977Y-153649397D01*
X164732658Y-153673800D01*
X164857742Y-153673800D01*
X164980423Y-153649397D01*
X165095985Y-153601529D01*
X165199989Y-153532036D01*
X165288436Y-153443589D01*
X165357929Y-153339585D01*
X165405797Y-153224023D01*
X165430200Y-153101342D01*
X165430200Y-152976258D01*
X165405797Y-152853577D01*
X165357929Y-152738015D01*
X165288436Y-152634011D01*
X165199989Y-152545564D01*
X165095985Y-152476071D01*
X164980423Y-152428203D01*
X164857742Y-152403800D01*
X164732658Y-152403800D01*
X164609977Y-152428203D01*
X164494415Y-152476071D01*
X164390411Y-152545564D01*
X164301964Y-152634011D01*
X164232471Y-152738015D01*
X164184603Y-152853577D01*
X164160200Y-152976258D01*
X140309600Y-152976258D01*
X140309600Y-143208544D01*
X140312057Y-143183600D01*
X140309600Y-143158653D01*
X140302249Y-143084016D01*
X140273201Y-142988257D01*
X140235641Y-142917987D01*
X140226029Y-142900004D01*
X140178450Y-142842029D01*
X140162548Y-142822652D01*
X140143171Y-142806750D01*
X139187855Y-141851435D01*
X139171948Y-141832052D01*
X139094595Y-141768571D01*
X139080805Y-141761200D01*
X155306521Y-141761200D01*
X155350415Y-141790529D01*
X155465977Y-141838397D01*
X155588658Y-141862800D01*
X155713742Y-141862800D01*
X155836423Y-141838397D01*
X155951985Y-141790529D01*
X156055989Y-141721036D01*
X156144436Y-141632589D01*
X156213929Y-141528585D01*
X156261797Y-141413023D01*
X156286200Y-141290342D01*
X156286200Y-141177000D01*
X161440707Y-141177000D01*
X161522615Y-141231729D01*
X161638177Y-141279597D01*
X161760858Y-141304000D01*
X161885942Y-141304000D01*
X162008623Y-141279597D01*
X162124185Y-141231729D01*
X162228189Y-141162236D01*
X162316636Y-141073789D01*
X162386129Y-140969785D01*
X162433997Y-140854223D01*
X162458400Y-140731542D01*
X162458400Y-140606458D01*
X162433997Y-140483777D01*
X162400645Y-140403258D01*
X163931600Y-140403258D01*
X163931600Y-140528342D01*
X163956003Y-140651023D01*
X164003871Y-140766585D01*
X164073364Y-140870589D01*
X164161811Y-140959036D01*
X164265815Y-141028529D01*
X164381377Y-141076397D01*
X164504058Y-141100800D01*
X164629142Y-141100800D01*
X164751823Y-141076397D01*
X164867385Y-141028529D01*
X164971389Y-140959036D01*
X165059836Y-140870589D01*
X165129329Y-140766585D01*
X165177197Y-140651023D01*
X165201600Y-140528342D01*
X165201600Y-140403258D01*
X165177197Y-140280577D01*
X165129329Y-140165015D01*
X165059836Y-140061011D01*
X164971389Y-139972564D01*
X164867385Y-139903071D01*
X164751823Y-139855203D01*
X164629142Y-139830800D01*
X164504058Y-139830800D01*
X164381377Y-139855203D01*
X164265815Y-139903071D01*
X164161811Y-139972564D01*
X164073364Y-140061011D01*
X164003871Y-140165015D01*
X163956003Y-140280577D01*
X163931600Y-140403258D01*
X162400645Y-140403258D01*
X162386129Y-140368215D01*
X162316636Y-140264211D01*
X162228189Y-140175764D01*
X162124185Y-140106271D01*
X162008623Y-140058403D01*
X161885942Y-140034000D01*
X161760858Y-140034000D01*
X161638177Y-140058403D01*
X161522615Y-140106271D01*
X161440707Y-140161000D01*
X130360020Y-140161000D01*
X130352800Y-140153780D01*
X130352800Y-138407943D01*
X130355257Y-138382999D01*
X130350952Y-138339293D01*
X130345449Y-138283415D01*
X130316401Y-138187657D01*
X130302565Y-138161771D01*
X130269229Y-138099404D01*
X130246154Y-138071288D01*
X130205748Y-138022052D01*
X130186365Y-138006145D01*
X130169816Y-137989596D01*
X130150597Y-137892977D01*
X130102729Y-137777415D01*
X130033236Y-137673411D01*
X129944789Y-137584964D01*
X129840785Y-137515471D01*
X129725223Y-137467603D01*
X129602542Y-137443200D01*
X129477458Y-137443200D01*
X129354777Y-137467603D01*
X129239215Y-137515471D01*
X129135211Y-137584964D01*
X129046764Y-137673411D01*
X128977271Y-137777415D01*
X128929403Y-137892977D01*
X128905000Y-138015658D01*
X128905000Y-138140742D01*
X128929403Y-138263423D01*
X128977271Y-138378985D01*
X129046764Y-138482989D01*
X129135211Y-138571436D01*
X129239215Y-138640929D01*
X129336800Y-138681351D01*
X129336801Y-140339246D01*
X129334343Y-140364200D01*
X129343274Y-140454874D01*
X129344152Y-140463785D01*
X129358324Y-140510502D01*
X129373200Y-140559543D01*
X129420371Y-140647795D01*
X129460985Y-140697283D01*
X129483853Y-140725148D01*
X129503230Y-140741050D01*
X129507380Y-140745200D01*
X125203821Y-140745200D01*
X123591216Y-139132596D01*
X123571997Y-139035977D01*
X123524129Y-138920415D01*
X123454636Y-138816411D01*
X123366189Y-138727964D01*
X123262185Y-138658471D01*
X123146623Y-138610603D01*
X123023942Y-138586200D01*
X122898858Y-138586200D01*
X122809000Y-138604074D01*
X122809000Y-129422203D01*
X122863815Y-129458829D01*
X122979377Y-129506697D01*
X123102058Y-129531100D01*
X123227142Y-129531100D01*
X123349823Y-129506697D01*
X123465385Y-129458829D01*
X123547293Y-129404100D01*
X124097180Y-129404100D01*
X127114301Y-132421221D01*
X127114300Y-133366955D01*
X127111843Y-133391900D01*
X127114300Y-133416844D01*
X127114300Y-133416846D01*
X127121651Y-133491484D01*
X127150699Y-133587242D01*
X127197871Y-133675495D01*
X127261352Y-133752848D01*
X127280735Y-133768755D01*
X128528145Y-135016165D01*
X128544052Y-135035548D01*
X128621405Y-135099029D01*
X128709657Y-135146201D01*
X128805415Y-135175249D01*
X128880053Y-135182600D01*
X128880056Y-135182600D01*
X128905000Y-135185057D01*
X128929944Y-135182600D01*
X143729575Y-135182600D01*
X143651764Y-135260411D01*
X143582271Y-135364415D01*
X143534403Y-135479977D01*
X143515184Y-135576595D01*
X143422434Y-135669346D01*
X143403052Y-135685252D01*
X143339571Y-135762605D01*
X143292399Y-135850858D01*
X143263351Y-135946616D01*
X143256746Y-136013680D01*
X143253543Y-136046200D01*
X143256000Y-136071145D01*
X143256001Y-136744700D01*
X142114131Y-136744700D01*
X142098236Y-136720911D01*
X142009789Y-136632464D01*
X141905785Y-136562971D01*
X141790223Y-136515103D01*
X141667542Y-136490700D01*
X141542458Y-136490700D01*
X141419777Y-136515103D01*
X141304215Y-136562971D01*
X141200211Y-136632464D01*
X141111764Y-136720911D01*
X141042271Y-136824915D01*
X140994403Y-136940477D01*
X140970000Y-137063158D01*
X140970000Y-137188242D01*
X140994403Y-137310923D01*
X141042271Y-137426485D01*
X141111764Y-137530489D01*
X141200211Y-137618936D01*
X141304215Y-137688429D01*
X141419777Y-137736297D01*
X141542458Y-137760700D01*
X141667542Y-137760700D01*
X141680627Y-137758097D01*
X141707053Y-137760700D01*
X141707055Y-137760700D01*
X141731999Y-137763157D01*
X141756943Y-137760700D01*
X143363080Y-137760700D01*
X144593649Y-138991270D01*
X144609552Y-139010648D01*
X144628929Y-139026550D01*
X144686904Y-139074129D01*
X144764126Y-139115405D01*
X144775157Y-139121301D01*
X144870915Y-139150349D01*
X144945553Y-139157700D01*
X144945555Y-139157700D01*
X144970499Y-139160157D01*
X144995443Y-139157700D01*
X155502475Y-139157700D01*
X155551211Y-139206436D01*
X155655215Y-139275929D01*
X155770777Y-139323797D01*
X155893458Y-139348200D01*
X156018542Y-139348200D01*
X156141223Y-139323797D01*
X156166218Y-139313443D01*
X156186211Y-139333436D01*
X156290215Y-139402929D01*
X156405777Y-139450797D01*
X156528458Y-139475200D01*
X156653542Y-139475200D01*
X156776223Y-139450797D01*
X156891785Y-139402929D01*
X156995789Y-139333436D01*
X157084236Y-139244989D01*
X157153729Y-139140985D01*
X157201597Y-139025423D01*
X157226000Y-138902742D01*
X157226000Y-138777658D01*
X157201597Y-138654977D01*
X157153729Y-138539415D01*
X157084236Y-138435411D01*
X157072581Y-138423756D01*
X157062601Y-138390857D01*
X157054201Y-138375142D01*
X157020074Y-138311294D01*
X157942384Y-139233604D01*
X157961603Y-139330223D01*
X158009471Y-139445785D01*
X158078964Y-139549789D01*
X158167411Y-139638236D01*
X158271415Y-139707729D01*
X158386977Y-139755597D01*
X158509658Y-139780000D01*
X158634742Y-139780000D01*
X158757423Y-139755597D01*
X158872985Y-139707729D01*
X158976989Y-139638236D01*
X159065436Y-139549789D01*
X159134929Y-139445785D01*
X159182797Y-139330223D01*
X159207200Y-139207542D01*
X159207200Y-139082458D01*
X159182797Y-138959777D01*
X159134929Y-138844215D01*
X159065436Y-138740211D01*
X158976989Y-138651764D01*
X158872985Y-138582271D01*
X158757423Y-138534403D01*
X158660804Y-138515184D01*
X157461820Y-137316200D01*
X160794822Y-137316200D01*
X160806403Y-137374423D01*
X160854271Y-137489985D01*
X160923764Y-137593989D01*
X161012211Y-137682436D01*
X161116215Y-137751929D01*
X161231777Y-137799797D01*
X161354458Y-137824200D01*
X161479542Y-137824200D01*
X161602223Y-137799797D01*
X161717785Y-137751929D01*
X161821789Y-137682436D01*
X161910236Y-137593989D01*
X161979729Y-137489985D01*
X162027597Y-137374423D01*
X162052000Y-137251742D01*
X162052000Y-137126658D01*
X162027597Y-137003977D01*
X161979729Y-136888415D01*
X161910236Y-136784411D01*
X161821789Y-136695964D01*
X161717785Y-136626471D01*
X161602223Y-136578603D01*
X161505605Y-136559384D01*
X161412854Y-136466634D01*
X161396948Y-136447252D01*
X161319595Y-136383771D01*
X161231343Y-136336599D01*
X161135585Y-136307551D01*
X161060947Y-136300200D01*
X161060944Y-136300200D01*
X161036000Y-136297743D01*
X161011056Y-136300200D01*
X156039421Y-136300200D01*
X153602355Y-133863135D01*
X153586448Y-133843752D01*
X153509095Y-133780271D01*
X153420843Y-133733099D01*
X153325085Y-133704051D01*
X153250447Y-133696700D01*
X153250444Y-133696700D01*
X153225500Y-133694243D01*
X153200556Y-133696700D01*
X134841360Y-133696700D01*
X134852529Y-133679985D01*
X134900397Y-133564423D01*
X134924800Y-133441742D01*
X134924800Y-133316658D01*
X134900397Y-133193977D01*
X134852529Y-133078415D01*
X134797800Y-132996507D01*
X134797800Y-130204200D01*
X139326928Y-130204200D01*
X139339188Y-130328682D01*
X139375498Y-130448380D01*
X139434463Y-130558694D01*
X139513815Y-130655385D01*
X139610506Y-130734737D01*
X139720820Y-130793702D01*
X139840518Y-130830012D01*
X139965000Y-130842272D01*
X140049250Y-130839200D01*
X140208000Y-130680450D01*
X140208000Y-128871200D01*
X139488750Y-128871200D01*
X139330000Y-129029950D01*
X139326928Y-130204200D01*
X134797800Y-130204200D01*
X134797800Y-126917806D01*
X137614000Y-126917806D01*
X137614000Y-127140594D01*
X137657464Y-127359100D01*
X137742721Y-127564929D01*
X137866495Y-127750170D01*
X138024030Y-127907705D01*
X138209271Y-128031479D01*
X138415100Y-128116736D01*
X138633606Y-128160200D01*
X138856394Y-128160200D01*
X139074900Y-128116736D01*
X139280729Y-128031479D01*
X139328799Y-127999360D01*
X139330000Y-128458450D01*
X139488750Y-128617200D01*
X140208000Y-128617200D01*
X140208000Y-128597200D01*
X140462000Y-128597200D01*
X140462000Y-128617200D01*
X140482000Y-128617200D01*
X140482000Y-128871200D01*
X140462000Y-128871200D01*
X140462000Y-130680450D01*
X140620750Y-130839200D01*
X140705000Y-130842272D01*
X140829482Y-130830012D01*
X140949180Y-130793702D01*
X141059494Y-130734737D01*
X141156185Y-130655385D01*
X141213971Y-130584972D01*
X141235000Y-130587043D01*
X141975000Y-130587043D01*
X141996029Y-130584972D01*
X142053815Y-130655385D01*
X142150506Y-130734737D01*
X142260820Y-130793702D01*
X142380518Y-130830012D01*
X142505000Y-130842272D01*
X142589250Y-130839200D01*
X142748000Y-130680450D01*
X142748000Y-128871200D01*
X142728000Y-128871200D01*
X142728000Y-128617200D01*
X142748000Y-128617200D01*
X142748000Y-128597200D01*
X143002000Y-128597200D01*
X143002000Y-128617200D01*
X143022000Y-128617200D01*
X143022000Y-128871200D01*
X143002000Y-128871200D01*
X143002000Y-130680450D01*
X143160750Y-130839200D01*
X143245000Y-130842272D01*
X143369482Y-130830012D01*
X143489180Y-130793702D01*
X143599494Y-130734737D01*
X143696185Y-130655385D01*
X143753971Y-130584972D01*
X143775000Y-130587043D01*
X144515000Y-130587043D01*
X144589689Y-130579687D01*
X144661508Y-130557901D01*
X144727696Y-130522522D01*
X144780000Y-130479598D01*
X144832304Y-130522522D01*
X144898492Y-130557901D01*
X144970311Y-130579687D01*
X145045000Y-130587043D01*
X145785000Y-130587043D01*
X145859689Y-130579687D01*
X145931508Y-130557901D01*
X145997696Y-130522522D01*
X146050000Y-130479598D01*
X146102304Y-130522522D01*
X146168492Y-130557901D01*
X146240311Y-130579687D01*
X146315000Y-130587043D01*
X147055000Y-130587043D01*
X147129689Y-130579687D01*
X147201508Y-130557901D01*
X147267696Y-130522522D01*
X147320000Y-130479598D01*
X147372304Y-130522522D01*
X147438492Y-130557901D01*
X147510311Y-130579687D01*
X147585000Y-130587043D01*
X148325000Y-130587043D01*
X148399689Y-130579687D01*
X148471508Y-130557901D01*
X148537696Y-130522522D01*
X148590000Y-130479598D01*
X148642304Y-130522522D01*
X148708492Y-130557901D01*
X148780311Y-130579687D01*
X148855000Y-130587043D01*
X149595000Y-130587043D01*
X149669689Y-130579687D01*
X149741508Y-130557901D01*
X149807696Y-130522522D01*
X149860000Y-130479598D01*
X149912304Y-130522522D01*
X149978492Y-130557901D01*
X150050311Y-130579687D01*
X150125000Y-130587043D01*
X150865000Y-130587043D01*
X150886029Y-130584972D01*
X150943815Y-130655385D01*
X151040506Y-130734737D01*
X151150820Y-130793702D01*
X151270518Y-130830012D01*
X151395000Y-130842272D01*
X151479250Y-130839200D01*
X151638000Y-130680450D01*
X151638000Y-128871200D01*
X151618000Y-128871200D01*
X151618000Y-128617200D01*
X151638000Y-128617200D01*
X151638000Y-125441200D01*
X151618000Y-125441200D01*
X151618000Y-125187200D01*
X151638000Y-125187200D01*
X151638000Y-123377950D01*
X151892000Y-123377950D01*
X151892000Y-125187200D01*
X151912000Y-125187200D01*
X151912000Y-125441200D01*
X151892000Y-125441200D01*
X151892000Y-128617200D01*
X151912000Y-128617200D01*
X151912000Y-128871200D01*
X151892000Y-128871200D01*
X151892000Y-130680450D01*
X152050750Y-130839200D01*
X152135000Y-130842272D01*
X152259482Y-130830012D01*
X152379180Y-130793702D01*
X152489494Y-130734737D01*
X152527001Y-130703956D01*
X152527001Y-130814246D01*
X152524543Y-130839200D01*
X152533084Y-130925906D01*
X152534352Y-130938785D01*
X152557340Y-131014566D01*
X152563400Y-131034543D01*
X152610571Y-131122795D01*
X152646187Y-131166193D01*
X152674053Y-131200148D01*
X152693430Y-131216050D01*
X154944149Y-133466770D01*
X154960052Y-133486148D01*
X154979429Y-133502050D01*
X155037404Y-133549629D01*
X155102535Y-133584442D01*
X155125657Y-133596801D01*
X155221415Y-133625849D01*
X155296053Y-133633200D01*
X155296055Y-133633200D01*
X155320999Y-133635657D01*
X155345943Y-133633200D01*
X158920580Y-133633200D01*
X159731908Y-134444529D01*
X159711271Y-134475415D01*
X159663403Y-134590977D01*
X159639000Y-134713658D01*
X159639000Y-134838742D01*
X159663403Y-134961423D01*
X159711271Y-135076985D01*
X159780764Y-135180989D01*
X159869211Y-135269436D01*
X159973215Y-135338929D01*
X160088777Y-135386797D01*
X160211458Y-135411200D01*
X160336542Y-135411200D01*
X160459223Y-135386797D01*
X160574785Y-135338929D01*
X160678789Y-135269436D01*
X160767236Y-135180989D01*
X160836729Y-135076985D01*
X160884597Y-134961423D01*
X160909000Y-134838742D01*
X160909000Y-134713658D01*
X160884597Y-134590977D01*
X160836729Y-134475415D01*
X160782000Y-134393507D01*
X160782000Y-134293143D01*
X160784457Y-134268199D01*
X160782000Y-134243253D01*
X160774649Y-134168615D01*
X160745601Y-134072857D01*
X160714248Y-134014200D01*
X160698429Y-133984604D01*
X160650850Y-133926629D01*
X160634948Y-133907252D01*
X160615571Y-133891350D01*
X160103421Y-133379200D01*
X160209542Y-133379200D01*
X160332223Y-133354797D01*
X160447785Y-133306929D01*
X160551789Y-133237436D01*
X160640236Y-133148989D01*
X160709729Y-133044985D01*
X160757597Y-132929423D01*
X160782000Y-132806742D01*
X160782000Y-132681658D01*
X160757597Y-132558977D01*
X160709729Y-132443415D01*
X160640236Y-132339411D01*
X160551789Y-132250964D01*
X160447785Y-132181471D01*
X160332223Y-132133603D01*
X160235904Y-132114444D01*
X160176595Y-132065771D01*
X160088343Y-132018599D01*
X159992585Y-131989551D01*
X159917947Y-131982200D01*
X159917944Y-131982200D01*
X159893000Y-131979743D01*
X159868056Y-131982200D01*
X155912421Y-131982200D01*
X154813000Y-130882780D01*
X154813000Y-130560482D01*
X154821508Y-130557901D01*
X154887696Y-130522522D01*
X154940000Y-130479598D01*
X154992304Y-130522522D01*
X155058492Y-130557901D01*
X155130311Y-130579687D01*
X155205000Y-130587043D01*
X155945000Y-130587043D01*
X156019689Y-130579687D01*
X156091508Y-130557901D01*
X156157696Y-130522522D01*
X156210000Y-130479598D01*
X156262304Y-130522522D01*
X156328492Y-130557901D01*
X156400311Y-130579687D01*
X156475000Y-130587043D01*
X157215000Y-130587043D01*
X157289689Y-130579687D01*
X157361508Y-130557901D01*
X157427696Y-130522522D01*
X157480000Y-130479598D01*
X157532304Y-130522522D01*
X157598492Y-130557901D01*
X157670311Y-130579687D01*
X157745000Y-130587043D01*
X158485000Y-130587043D01*
X158559689Y-130579687D01*
X158631508Y-130557901D01*
X158697696Y-130522522D01*
X158750000Y-130479598D01*
X158802304Y-130522522D01*
X158868492Y-130557901D01*
X158940311Y-130579687D01*
X159015000Y-130587043D01*
X159755000Y-130587043D01*
X159829689Y-130579687D01*
X159901508Y-130557901D01*
X159967696Y-130522522D01*
X160020000Y-130479598D01*
X160072304Y-130522522D01*
X160138492Y-130557901D01*
X160210311Y-130579687D01*
X160285000Y-130587043D01*
X161025000Y-130587043D01*
X161099689Y-130579687D01*
X161171508Y-130557901D01*
X161237696Y-130522522D01*
X161290000Y-130479598D01*
X161342304Y-130522522D01*
X161408492Y-130557901D01*
X161480311Y-130579687D01*
X161555000Y-130587043D01*
X162295000Y-130587043D01*
X162316029Y-130584972D01*
X162373815Y-130655385D01*
X162470506Y-130734737D01*
X162580820Y-130793702D01*
X162700518Y-130830012D01*
X162825000Y-130842272D01*
X162909250Y-130839200D01*
X163068000Y-130680450D01*
X163068000Y-128871200D01*
X163048000Y-128871200D01*
X163048000Y-128617200D01*
X163068000Y-128617200D01*
X163068000Y-128597200D01*
X163322000Y-128597200D01*
X163322000Y-128617200D01*
X163342000Y-128617200D01*
X163342000Y-128871200D01*
X163322000Y-128871200D01*
X163322000Y-130680450D01*
X163480750Y-130839200D01*
X163565000Y-130842272D01*
X163689482Y-130830012D01*
X163809180Y-130793702D01*
X163919494Y-130734737D01*
X164016185Y-130655385D01*
X164073971Y-130584972D01*
X164095000Y-130587043D01*
X164835000Y-130587043D01*
X164909689Y-130579687D01*
X164981508Y-130557901D01*
X165047696Y-130522522D01*
X165105711Y-130474911D01*
X165153322Y-130416896D01*
X165188701Y-130350708D01*
X165210487Y-130278889D01*
X165217843Y-130204200D01*
X165217843Y-127791518D01*
X165334030Y-127907705D01*
X165519271Y-128031479D01*
X165725100Y-128116736D01*
X165943606Y-128160200D01*
X166166394Y-128160200D01*
X166384900Y-128116736D01*
X166590729Y-128031479D01*
X166775970Y-127907705D01*
X166933505Y-127750170D01*
X167057279Y-127564929D01*
X167142536Y-127359100D01*
X167186000Y-127140594D01*
X167186000Y-126917806D01*
X167142536Y-126699300D01*
X167057279Y-126493471D01*
X166933505Y-126308230D01*
X166775970Y-126150695D01*
X166590729Y-126026921D01*
X166384900Y-125941664D01*
X166166394Y-125898200D01*
X165943606Y-125898200D01*
X165725100Y-125941664D01*
X165519271Y-126026921D01*
X165471201Y-126059040D01*
X165470000Y-125599950D01*
X165311250Y-125441200D01*
X164592000Y-125441200D01*
X164592000Y-125461200D01*
X164338000Y-125461200D01*
X164338000Y-125441200D01*
X164318000Y-125441200D01*
X164318000Y-125187200D01*
X164338000Y-125187200D01*
X164338000Y-123377950D01*
X164592000Y-123377950D01*
X164592000Y-125187200D01*
X165311250Y-125187200D01*
X165470000Y-125028450D01*
X165473072Y-123854200D01*
X165460812Y-123729718D01*
X165424502Y-123610020D01*
X165365537Y-123499706D01*
X165286185Y-123403015D01*
X165189494Y-123323663D01*
X165079180Y-123264698D01*
X164959482Y-123228388D01*
X164835000Y-123216128D01*
X164750750Y-123219200D01*
X164592000Y-123377950D01*
X164338000Y-123377950D01*
X164179250Y-123219200D01*
X164095000Y-123216128D01*
X163970518Y-123228388D01*
X163850820Y-123264698D01*
X163740506Y-123323663D01*
X163643815Y-123403015D01*
X163586029Y-123473428D01*
X163565000Y-123471357D01*
X162825000Y-123471357D01*
X162803971Y-123473428D01*
X162746185Y-123403015D01*
X162649494Y-123323663D01*
X162539180Y-123264698D01*
X162419482Y-123228388D01*
X162295000Y-123216128D01*
X162210750Y-123219200D01*
X162052000Y-123377950D01*
X162052000Y-125187200D01*
X162072000Y-125187200D01*
X162072000Y-125441200D01*
X162052000Y-125441200D01*
X162052000Y-125461200D01*
X161798000Y-125461200D01*
X161798000Y-125441200D01*
X161778000Y-125441200D01*
X161778000Y-125187200D01*
X161798000Y-125187200D01*
X161798000Y-123377950D01*
X161639250Y-123219200D01*
X161555000Y-123216128D01*
X161430518Y-123228388D01*
X161310820Y-123264698D01*
X161200506Y-123323663D01*
X161103815Y-123403015D01*
X161046029Y-123473428D01*
X161025000Y-123471357D01*
X160285000Y-123471357D01*
X160210311Y-123478713D01*
X160138492Y-123500499D01*
X160072304Y-123535878D01*
X160020000Y-123578802D01*
X159967696Y-123535878D01*
X159901508Y-123500499D01*
X159829689Y-123478713D01*
X159755000Y-123471357D01*
X159015000Y-123471357D01*
X158940311Y-123478713D01*
X158868492Y-123500499D01*
X158802304Y-123535878D01*
X158750000Y-123578802D01*
X158697696Y-123535878D01*
X158631508Y-123500499D01*
X158559689Y-123478713D01*
X158485000Y-123471357D01*
X157745000Y-123471357D01*
X157670311Y-123478713D01*
X157598492Y-123500499D01*
X157532304Y-123535878D01*
X157480000Y-123578802D01*
X157427696Y-123535878D01*
X157361508Y-123500499D01*
X157289689Y-123478713D01*
X157215000Y-123471357D01*
X156475000Y-123471357D01*
X156400311Y-123478713D01*
X156328492Y-123500499D01*
X156262304Y-123535878D01*
X156210000Y-123578802D01*
X156157696Y-123535878D01*
X156091508Y-123500499D01*
X156019689Y-123478713D01*
X155945000Y-123471357D01*
X155205000Y-123471357D01*
X155130311Y-123478713D01*
X155058492Y-123500499D01*
X154992304Y-123535878D01*
X154940000Y-123578802D01*
X154887696Y-123535878D01*
X154821508Y-123500499D01*
X154749689Y-123478713D01*
X154675000Y-123471357D01*
X153935000Y-123471357D01*
X153860311Y-123478713D01*
X153788492Y-123500499D01*
X153722304Y-123535878D01*
X153670000Y-123578802D01*
X153617696Y-123535878D01*
X153551508Y-123500499D01*
X153479689Y-123478713D01*
X153405000Y-123471357D01*
X152665000Y-123471357D01*
X152643971Y-123473428D01*
X152586185Y-123403015D01*
X152489494Y-123323663D01*
X152379180Y-123264698D01*
X152259482Y-123228388D01*
X152135000Y-123216128D01*
X152050750Y-123219200D01*
X151892000Y-123377950D01*
X151638000Y-123377950D01*
X151479250Y-123219200D01*
X151395000Y-123216128D01*
X151270518Y-123228388D01*
X151150820Y-123264698D01*
X151040506Y-123323663D01*
X150943815Y-123403015D01*
X150886029Y-123473428D01*
X150865000Y-123471357D01*
X150125000Y-123471357D01*
X150050311Y-123478713D01*
X149978492Y-123500499D01*
X149912304Y-123535878D01*
X149860000Y-123578802D01*
X149807696Y-123535878D01*
X149741508Y-123500499D01*
X149669689Y-123478713D01*
X149595000Y-123471357D01*
X148855000Y-123471357D01*
X148780311Y-123478713D01*
X148708492Y-123500499D01*
X148642304Y-123535878D01*
X148590000Y-123578802D01*
X148537696Y-123535878D01*
X148471508Y-123500499D01*
X148399689Y-123478713D01*
X148325000Y-123471357D01*
X147585000Y-123471357D01*
X147510311Y-123478713D01*
X147438492Y-123500499D01*
X147372304Y-123535878D01*
X147320000Y-123578802D01*
X147267696Y-123535878D01*
X147201508Y-123500499D01*
X147129689Y-123478713D01*
X147055000Y-123471357D01*
X146315000Y-123471357D01*
X146240311Y-123478713D01*
X146168492Y-123500499D01*
X146102304Y-123535878D01*
X146050000Y-123578802D01*
X145997696Y-123535878D01*
X145931508Y-123500499D01*
X145859689Y-123478713D01*
X145785000Y-123471357D01*
X145045000Y-123471357D01*
X144970311Y-123478713D01*
X144898492Y-123500499D01*
X144832304Y-123535878D01*
X144780000Y-123578802D01*
X144727696Y-123535878D01*
X144661508Y-123500499D01*
X144589689Y-123478713D01*
X144515000Y-123471357D01*
X143775000Y-123471357D01*
X143700311Y-123478713D01*
X143628492Y-123500499D01*
X143562304Y-123535878D01*
X143510000Y-123578802D01*
X143457696Y-123535878D01*
X143391508Y-123500499D01*
X143319689Y-123478713D01*
X143245000Y-123471357D01*
X142505000Y-123471357D01*
X142483971Y-123473428D01*
X142426185Y-123403015D01*
X142329494Y-123323663D01*
X142219180Y-123264698D01*
X142099482Y-123228388D01*
X141975000Y-123216128D01*
X141890750Y-123219200D01*
X141732000Y-123377950D01*
X141732000Y-125187200D01*
X141752000Y-125187200D01*
X141752000Y-125441200D01*
X141732000Y-125441200D01*
X141732000Y-125461200D01*
X141478000Y-125461200D01*
X141478000Y-125441200D01*
X141458000Y-125441200D01*
X141458000Y-125187200D01*
X141478000Y-125187200D01*
X141478000Y-123377950D01*
X141319250Y-123219200D01*
X141235000Y-123216128D01*
X141110518Y-123228388D01*
X140990820Y-123264698D01*
X140880506Y-123323663D01*
X140783815Y-123403015D01*
X140726029Y-123473428D01*
X140705000Y-123471357D01*
X139965000Y-123471357D01*
X139890311Y-123478713D01*
X139818492Y-123500499D01*
X139752304Y-123535878D01*
X139694289Y-123583489D01*
X139646678Y-123641504D01*
X139611299Y-123707692D01*
X139589513Y-123779511D01*
X139582157Y-123854200D01*
X139582157Y-126266882D01*
X139465970Y-126150695D01*
X139280729Y-126026921D01*
X139074900Y-125941664D01*
X138856394Y-125898200D01*
X138633606Y-125898200D01*
X138415100Y-125941664D01*
X138209271Y-126026921D01*
X138024030Y-126150695D01*
X137866495Y-126308230D01*
X137742721Y-126493471D01*
X137657464Y-126699300D01*
X137614000Y-126917806D01*
X134797800Y-126917806D01*
X134797800Y-118019420D01*
X136582062Y-116235158D01*
X142557500Y-116235158D01*
X142557500Y-116360242D01*
X142581903Y-116482923D01*
X142629771Y-116598485D01*
X142699264Y-116702489D01*
X142787711Y-116790936D01*
X142891715Y-116860429D01*
X143007277Y-116908297D01*
X143129958Y-116932700D01*
X143255042Y-116932700D01*
X143377723Y-116908297D01*
X143493285Y-116860429D01*
X143510000Y-116849260D01*
X143526715Y-116860429D01*
X143642277Y-116908297D01*
X143764958Y-116932700D01*
X143890042Y-116932700D01*
X144012723Y-116908297D01*
X144128285Y-116860429D01*
X144232289Y-116790936D01*
X144320736Y-116702489D01*
X144390229Y-116598485D01*
X144438097Y-116482923D01*
X144462500Y-116360242D01*
X144462500Y-116235158D01*
X144438097Y-116112477D01*
X144390229Y-115996915D01*
X144320736Y-115892911D01*
X144232289Y-115804464D01*
X144145000Y-115746140D01*
X144145000Y-115663658D01*
X144120597Y-115540977D01*
X144072729Y-115425415D01*
X144003236Y-115321411D01*
X143914789Y-115232964D01*
X143810785Y-115163471D01*
X143695223Y-115115603D01*
X143572542Y-115091200D01*
X143447458Y-115091200D01*
X143324777Y-115115603D01*
X143209215Y-115163471D01*
X143105211Y-115232964D01*
X143016764Y-115321411D01*
X142947271Y-115425415D01*
X142899403Y-115540977D01*
X142875000Y-115663658D01*
X142875000Y-115746140D01*
X142787711Y-115804464D01*
X142699264Y-115892911D01*
X142629771Y-115996915D01*
X142581903Y-116112477D01*
X142557500Y-116235158D01*
X136582062Y-116235158D01*
X139351620Y-113465600D01*
X147109580Y-113465600D01*
X147502984Y-113859004D01*
X147522203Y-113955623D01*
X147570071Y-114071185D01*
X147639564Y-114175189D01*
X147728011Y-114263636D01*
X147832015Y-114333129D01*
X147947577Y-114380997D01*
X148070258Y-114405400D01*
X148195342Y-114405400D01*
X148318023Y-114380997D01*
X148433585Y-114333129D01*
X148537589Y-114263636D01*
X148626036Y-114175189D01*
X148695529Y-114071185D01*
X148743397Y-113955623D01*
X148767800Y-113832942D01*
X148767800Y-113707858D01*
X148743397Y-113585177D01*
X148695529Y-113469615D01*
X148626036Y-113365611D01*
X148537589Y-113277164D01*
X148433585Y-113207671D01*
X148318023Y-113159803D01*
X148221404Y-113140584D01*
X147696855Y-112616035D01*
X147680948Y-112596652D01*
X147603595Y-112533171D01*
X147515343Y-112485999D01*
X147419585Y-112456951D01*
X147344947Y-112449600D01*
X147344944Y-112449600D01*
X147320000Y-112447143D01*
X147295056Y-112449600D01*
X139166144Y-112449600D01*
X139141200Y-112447143D01*
X139116256Y-112449600D01*
X139116253Y-112449600D01*
X139041615Y-112456951D01*
X138945857Y-112485999D01*
X138857605Y-112533171D01*
X138780252Y-112596652D01*
X138764345Y-112616035D01*
X133948235Y-117432145D01*
X133928852Y-117448052D01*
X133865371Y-117525405D01*
X133818199Y-117613658D01*
X133789151Y-117709416D01*
X133781800Y-117784053D01*
X133779343Y-117809000D01*
X133781800Y-117833944D01*
X133781801Y-132996506D01*
X133727071Y-133078415D01*
X133679203Y-133193977D01*
X133654800Y-133316658D01*
X133654800Y-133441742D01*
X133679203Y-133564423D01*
X133727071Y-133679985D01*
X133738240Y-133696700D01*
X129369421Y-133696700D01*
X128689100Y-133016380D01*
X128689100Y-132070644D01*
X128691557Y-132045700D01*
X128686679Y-131996174D01*
X128681749Y-131946115D01*
X128652701Y-131850357D01*
X128605529Y-131762105D01*
X128542048Y-131684752D01*
X128522665Y-131668845D01*
X124252655Y-127398835D01*
X124236748Y-127379452D01*
X124159395Y-127315971D01*
X124071143Y-127268799D01*
X123975385Y-127239751D01*
X123900747Y-127232400D01*
X123900744Y-127232400D01*
X123875800Y-127229943D01*
X123850856Y-127232400D01*
X123483793Y-127232400D01*
X123401885Y-127177671D01*
X123286323Y-127129803D01*
X123163642Y-127105400D01*
X123038558Y-127105400D01*
X122915877Y-127129803D01*
X122809000Y-127174074D01*
X122809000Y-126153858D01*
X132511800Y-126153858D01*
X132511800Y-126278942D01*
X132536203Y-126401623D01*
X132584071Y-126517185D01*
X132653564Y-126621189D01*
X132742011Y-126709636D01*
X132846015Y-126779129D01*
X132961577Y-126826997D01*
X133084258Y-126851400D01*
X133209342Y-126851400D01*
X133332023Y-126826997D01*
X133447585Y-126779129D01*
X133551589Y-126709636D01*
X133640036Y-126621189D01*
X133709529Y-126517185D01*
X133757397Y-126401623D01*
X133781800Y-126278942D01*
X133781800Y-126153858D01*
X133757397Y-126031177D01*
X133709529Y-125915615D01*
X133640036Y-125811611D01*
X133551589Y-125723164D01*
X133447585Y-125653671D01*
X133332023Y-125605803D01*
X133209342Y-125581400D01*
X133084258Y-125581400D01*
X132961577Y-125605803D01*
X132846015Y-125653671D01*
X132742011Y-125723164D01*
X132653564Y-125811611D01*
X132584071Y-125915615D01*
X132536203Y-126031177D01*
X132511800Y-126153858D01*
X122809000Y-126153858D01*
X122809000Y-117765420D01*
X125998025Y-114576396D01*
X126078177Y-114609597D01*
X126200858Y-114634000D01*
X126325942Y-114634000D01*
X126448623Y-114609597D01*
X126564185Y-114561729D01*
X126668189Y-114492236D01*
X126756636Y-114403789D01*
X126826129Y-114299785D01*
X126873997Y-114184223D01*
X126898400Y-114061542D01*
X126898400Y-113936458D01*
X126873997Y-113813777D01*
X126826129Y-113698215D01*
X126756636Y-113594211D01*
X126668189Y-113505764D01*
X126564185Y-113436271D01*
X126448623Y-113388403D01*
X126325942Y-113364000D01*
X126200858Y-113364000D01*
X126078177Y-113388403D01*
X125962615Y-113436271D01*
X125880866Y-113490894D01*
X125856999Y-113488543D01*
X125832055Y-113491000D01*
X125832053Y-113491000D01*
X125757415Y-113498351D01*
X125661657Y-113527399D01*
X125661655Y-113527400D01*
X125573404Y-113574571D01*
X125549473Y-113594211D01*
X125496052Y-113638052D01*
X125480150Y-113657429D01*
X121959430Y-117178150D01*
X121940053Y-117194052D01*
X121924151Y-117213429D01*
X121924150Y-117213430D01*
X121876571Y-117271405D01*
X121849276Y-117322471D01*
X121829400Y-117359657D01*
X121800352Y-117455415D01*
X121799474Y-117464326D01*
X121790543Y-117555000D01*
X121793001Y-117579954D01*
X121793000Y-140466256D01*
X121790543Y-140491200D01*
X121793000Y-140516144D01*
X121793000Y-140516146D01*
X121800351Y-140590784D01*
X121829399Y-140686542D01*
X121876571Y-140774795D01*
X121940052Y-140852148D01*
X121959435Y-140868055D01*
X123625945Y-142534565D01*
X123641852Y-142553948D01*
X123719205Y-142617429D01*
X123807457Y-142664601D01*
X123903215Y-142693649D01*
X123977853Y-142701000D01*
X123977856Y-142701000D01*
X124002800Y-142703457D01*
X124027744Y-142701000D01*
X138600580Y-142701000D01*
X139293601Y-143394022D01*
X139293600Y-148440946D01*
X139293601Y-148440956D01*
X139293601Y-150023969D01*
X139254542Y-150016200D01*
X139129458Y-150016200D01*
X139006777Y-150040603D01*
X138891215Y-150088471D01*
X138787211Y-150157964D01*
X138698764Y-150246411D01*
X138629271Y-150350415D01*
X138581403Y-150465977D01*
X138557000Y-150588658D01*
X138557000Y-150713742D01*
X138581403Y-150836423D01*
X138629271Y-150951985D01*
X138698764Y-151055989D01*
X138715018Y-151072243D01*
X138637215Y-151104471D01*
X138555307Y-151159200D01*
X132353921Y-151159200D01*
X129472355Y-148277635D01*
X129456448Y-148258252D01*
X129379095Y-148194771D01*
X129290843Y-148147599D01*
X129195085Y-148118551D01*
X129120447Y-148111200D01*
X129120444Y-148111200D01*
X129095500Y-148108743D01*
X129070556Y-148111200D01*
X126965504Y-148111200D01*
X126000711Y-147146407D01*
X125942696Y-147098796D01*
X125876508Y-147063417D01*
X125804689Y-147041631D01*
X125730000Y-147034275D01*
X125655311Y-147041631D01*
X125583492Y-147063417D01*
X125517304Y-147098796D01*
X125459289Y-147146407D01*
X124257207Y-148348489D01*
X124209596Y-148406504D01*
X124174217Y-148472692D01*
X124152431Y-148544511D01*
X124145075Y-148619200D01*
X124152431Y-148693889D01*
X124174217Y-148765708D01*
X124209596Y-148831896D01*
X124257207Y-148889911D01*
X125459289Y-150091993D01*
X125517304Y-150139604D01*
X125583492Y-150174983D01*
X125655311Y-150196769D01*
X125730000Y-150204125D01*
X125804689Y-150196769D01*
X125876508Y-150174983D01*
X125942696Y-150139604D01*
X126000711Y-150091993D01*
X126965504Y-149127200D01*
X128885080Y-149127200D01*
X131766650Y-152008771D01*
X131782552Y-152028148D01*
X131801929Y-152044050D01*
X131859904Y-152091629D01*
X131896871Y-152111388D01*
X131948157Y-152138801D01*
X132043915Y-152167849D01*
X132118553Y-152175200D01*
X132118556Y-152175200D01*
X132143500Y-152177657D01*
X132168444Y-152175200D01*
X138555307Y-152175200D01*
X138637215Y-152229929D01*
X138752777Y-152277797D01*
X138875458Y-152302200D01*
X139000542Y-152302200D01*
X139123223Y-152277797D01*
X139238785Y-152229929D01*
X139293600Y-152193303D01*
X139293600Y-152853779D01*
X138494830Y-153652550D01*
X138475453Y-153668452D01*
X138459551Y-153687829D01*
X138459550Y-153687830D01*
X138411971Y-153745805D01*
X138396004Y-153775678D01*
X138364800Y-153834057D01*
X138340197Y-153915164D01*
X138335752Y-153929816D01*
X138325943Y-154029400D01*
X138328401Y-154054354D01*
X138328400Y-160252856D01*
X138325943Y-160277800D01*
X138328400Y-160302744D01*
X138328400Y-160302746D01*
X138335751Y-160377384D01*
X138364799Y-160473142D01*
X138411971Y-160561395D01*
X138475452Y-160638748D01*
X138494835Y-160654655D01*
X140616537Y-162776358D01*
X138734474Y-162113012D01*
X136497027Y-161157951D01*
X134325880Y-160060496D01*
X132230098Y-158825230D01*
X130218369Y-157457273D01*
X128299130Y-155962360D01*
X126480359Y-154346708D01*
X125380421Y-153234595D01*
X128478414Y-153234595D01*
X128555184Y-153482939D01*
X128690849Y-153555458D01*
X128965210Y-153652782D01*
X129253287Y-153694711D01*
X129544008Y-153679633D01*
X129826202Y-153608127D01*
X129981792Y-153534018D01*
X129934461Y-153648285D01*
X129887154Y-153886111D01*
X129887154Y-154128597D01*
X129934461Y-154366423D01*
X130027256Y-154590451D01*
X130161974Y-154792071D01*
X130333437Y-154963534D01*
X130535057Y-155098252D01*
X130610154Y-155129358D01*
X130610154Y-156014410D01*
X130607697Y-156039354D01*
X130610154Y-156064298D01*
X130610154Y-156064300D01*
X130617505Y-156138938D01*
X130646553Y-156234696D01*
X130693725Y-156322949D01*
X130757206Y-156400302D01*
X130776589Y-156416209D01*
X132084149Y-157723770D01*
X132100052Y-157743148D01*
X132119429Y-157759050D01*
X132177404Y-157806629D01*
X132215093Y-157826774D01*
X132265657Y-157853801D01*
X132361415Y-157882849D01*
X132436053Y-157890200D01*
X132436055Y-157890200D01*
X132460999Y-157892657D01*
X132485943Y-157890200D01*
X135095380Y-157890200D01*
X136977838Y-159772659D01*
X136993903Y-159853423D01*
X137041771Y-159968985D01*
X137111264Y-160072989D01*
X137199711Y-160161436D01*
X137303715Y-160230929D01*
X137419277Y-160278797D01*
X137541958Y-160303200D01*
X137667042Y-160303200D01*
X137789723Y-160278797D01*
X137905285Y-160230929D01*
X138009289Y-160161436D01*
X138097736Y-160072989D01*
X138167229Y-159968985D01*
X138215097Y-159853423D01*
X138239500Y-159730742D01*
X138239500Y-159605658D01*
X138215097Y-159482977D01*
X138167229Y-159367415D01*
X138097736Y-159263411D01*
X138009289Y-159174964D01*
X137905285Y-159105471D01*
X137789723Y-159057603D01*
X137677252Y-159035231D01*
X137675221Y-159033200D01*
X137730542Y-159033200D01*
X137853223Y-159008797D01*
X137968785Y-158960929D01*
X138072789Y-158891436D01*
X138161236Y-158802989D01*
X138230729Y-158698985D01*
X138278597Y-158583423D01*
X138303000Y-158460742D01*
X138303000Y-158335658D01*
X138278597Y-158212977D01*
X138230729Y-158097415D01*
X138161236Y-157993411D01*
X138072789Y-157904964D01*
X137968785Y-157835471D01*
X137853223Y-157787603D01*
X137730542Y-157763200D01*
X137726021Y-157763200D01*
X135514863Y-155552043D01*
X135497634Y-155519810D01*
X135434153Y-155442457D01*
X135356800Y-155378976D01*
X135268548Y-155331804D01*
X135172790Y-155302756D01*
X135098152Y-155295405D01*
X134036209Y-155295405D01*
X134005103Y-155220308D01*
X133870385Y-155018688D01*
X133698922Y-154847225D01*
X133497302Y-154712507D01*
X133273274Y-154619712D01*
X133035448Y-154572405D01*
X132792962Y-154572405D01*
X132555136Y-154619712D01*
X132331108Y-154712507D01*
X132129488Y-154847225D01*
X131958025Y-155018688D01*
X131823307Y-155220308D01*
X131730512Y-155444336D01*
X131683205Y-155682162D01*
X131683205Y-155885985D01*
X131626154Y-155828934D01*
X131626154Y-155129358D01*
X131701251Y-155098252D01*
X131902871Y-154963534D01*
X132074334Y-154792071D01*
X132209052Y-154590451D01*
X132301847Y-154366423D01*
X132349154Y-154128597D01*
X132349154Y-153886111D01*
X132301847Y-153648285D01*
X132209052Y-153424257D01*
X132074334Y-153222637D01*
X131902871Y-153051174D01*
X131701251Y-152916456D01*
X131477223Y-152823661D01*
X131239397Y-152776354D01*
X130996911Y-152776354D01*
X130759085Y-152823661D01*
X130644818Y-152870992D01*
X130718927Y-152715402D01*
X130790433Y-152433208D01*
X130805511Y-152142487D01*
X130763582Y-151854410D01*
X130666258Y-151580049D01*
X130593739Y-151444384D01*
X130345395Y-151367614D01*
X129501707Y-152211302D01*
X129515850Y-152225445D01*
X129336245Y-152405050D01*
X129322102Y-152390907D01*
X128478414Y-153234595D01*
X125380421Y-153234595D01*
X124769644Y-152617059D01*
X123174100Y-150780600D01*
X122803622Y-150294008D01*
X126295051Y-150294008D01*
X126295051Y-150536494D01*
X126342358Y-150774320D01*
X126435153Y-150998348D01*
X126569871Y-151199968D01*
X126741334Y-151371431D01*
X126942954Y-151506149D01*
X127166982Y-151598944D01*
X127404808Y-151646251D01*
X127647294Y-151646251D01*
X127885120Y-151598944D01*
X127999385Y-151551614D01*
X127925277Y-151707202D01*
X127853771Y-151989396D01*
X127838693Y-152280117D01*
X127880622Y-152568194D01*
X127977946Y-152842555D01*
X128050465Y-152978220D01*
X128298809Y-153054990D01*
X129142497Y-152211302D01*
X129128355Y-152197160D01*
X129307960Y-152017555D01*
X129322102Y-152031697D01*
X130165790Y-151188009D01*
X130089020Y-150939665D01*
X129953355Y-150867146D01*
X129678994Y-150769822D01*
X129390917Y-150727893D01*
X129100196Y-150742971D01*
X128818002Y-150814477D01*
X128662414Y-150888585D01*
X128709744Y-150774320D01*
X128757051Y-150536494D01*
X128757051Y-150294008D01*
X128709744Y-150056182D01*
X128616949Y-149832154D01*
X128482231Y-149630534D01*
X128310768Y-149459071D01*
X128109148Y-149324353D01*
X127885120Y-149231558D01*
X127647294Y-149184251D01*
X127404808Y-149184251D01*
X127166982Y-149231558D01*
X126942954Y-149324353D01*
X126741334Y-149459071D01*
X126569871Y-149630534D01*
X126435153Y-149832154D01*
X126342358Y-150056182D01*
X126295051Y-150294008D01*
X122803622Y-150294008D01*
X121700405Y-148845025D01*
X120354686Y-146818378D01*
X119142555Y-144709111D01*
X119083428Y-144588867D01*
X132679390Y-144588867D01*
X132679390Y-144971133D01*
X132753966Y-145346055D01*
X132900254Y-145699224D01*
X133112630Y-146017067D01*
X133382933Y-146287370D01*
X133700776Y-146499746D01*
X134053945Y-146646034D01*
X134428867Y-146720610D01*
X134811133Y-146720610D01*
X135186055Y-146646034D01*
X135539224Y-146499746D01*
X135857067Y-146287370D01*
X136127370Y-146017067D01*
X136339746Y-145699224D01*
X136486034Y-145346055D01*
X136560610Y-144971133D01*
X136560610Y-144588867D01*
X136486034Y-144213945D01*
X136339746Y-143860776D01*
X136127370Y-143542933D01*
X135857067Y-143272630D01*
X135539224Y-143060254D01*
X135186055Y-142913966D01*
X134811133Y-142839390D01*
X134428867Y-142839390D01*
X134053945Y-142913966D01*
X133700776Y-143060254D01*
X133382933Y-143272630D01*
X133112630Y-143542933D01*
X132900254Y-143860776D01*
X132753966Y-144213945D01*
X132679390Y-144588867D01*
X119083428Y-144588867D01*
X118069066Y-142526016D01*
X117138695Y-140278199D01*
X116355317Y-137975020D01*
X115722209Y-135626113D01*
X115241994Y-133241220D01*
X114916686Y-130830323D01*
X114747636Y-128403446D01*
X114735549Y-125970735D01*
X114880478Y-123542298D01*
X115181815Y-121128293D01*
X115638305Y-118738766D01*
X116248051Y-116383654D01*
X117008504Y-114072810D01*
X117916493Y-111815867D01*
X118968237Y-109622216D01*
X119305955Y-109020786D01*
X132597350Y-109020786D01*
X132597350Y-109419214D01*
X132675079Y-109809985D01*
X132827551Y-110178084D01*
X133048905Y-110509364D01*
X133330636Y-110791095D01*
X133661916Y-111012449D01*
X134030015Y-111164921D01*
X134420786Y-111242650D01*
X134819214Y-111242650D01*
X135209985Y-111164921D01*
X135578084Y-111012449D01*
X135909364Y-110791095D01*
X136191095Y-110509364D01*
X136412449Y-110178084D01*
X136564921Y-109809985D01*
X136642650Y-109419214D01*
X136642650Y-109028867D01*
X168239390Y-109028867D01*
X168239390Y-109411133D01*
X168313966Y-109786055D01*
X168460254Y-110139224D01*
X168672630Y-110457067D01*
X168942933Y-110727370D01*
X169260776Y-110939746D01*
X169613945Y-111086034D01*
X169988867Y-111160610D01*
X170371133Y-111160610D01*
X170746055Y-111086034D01*
X171099224Y-110939746D01*
X171417067Y-110727370D01*
X171687370Y-110457067D01*
X171899746Y-110139224D01*
X172046034Y-109786055D01*
X172120610Y-109411133D01*
X172120610Y-109028867D01*
X172046034Y-108653945D01*
X171899746Y-108300776D01*
X171687370Y-107982933D01*
X171417067Y-107712630D01*
X171099224Y-107500254D01*
X170746055Y-107353966D01*
X170371133Y-107279390D01*
X169988867Y-107279390D01*
X169613945Y-107353966D01*
X169260776Y-107500254D01*
X168942933Y-107712630D01*
X168672630Y-107982933D01*
X168460254Y-108300776D01*
X168313966Y-108653945D01*
X168239390Y-109028867D01*
X136642650Y-109028867D01*
X136642650Y-109020786D01*
X136564921Y-108630015D01*
X136412449Y-108261916D01*
X136191095Y-107930636D01*
X135909364Y-107648905D01*
X135578084Y-107427551D01*
X135209985Y-107275079D01*
X134819214Y-107197350D01*
X134420786Y-107197350D01*
X134030015Y-107275079D01*
X133661916Y-107427551D01*
X133330636Y-107648905D01*
X133048905Y-107930636D01*
X132827551Y-108261916D01*
X132675079Y-108630015D01*
X132597350Y-109020786D01*
X119305955Y-109020786D01*
X120159348Y-107501010D01*
X121484867Y-105461088D01*
X122939265Y-103510954D01*
X124516461Y-101658760D01*
X126209923Y-99912179D01*
X128012547Y-98278539D01*
X129916848Y-96764622D01*
X131914865Y-95376758D01*
X133998281Y-94120722D01*
X136158410Y-93001750D01*
X138386265Y-92024502D01*
X140672519Y-91193067D01*
X143007656Y-90510904D01*
X145381962Y-89980852D01*
X147785518Y-89605124D01*
X150208321Y-89385285D01*
X152640253Y-89322255D01*
X155071196Y-89416294D01*
G37*
X155071196Y-89416294D02*
X157490985Y-89667011D01*
X159889547Y-90073358D01*
X162256910Y-90633649D01*
X164583166Y-91345538D01*
X166858637Y-92206063D01*
X169073834Y-93211637D01*
X171219520Y-94358066D01*
X173286742Y-95640564D01*
X175266912Y-97053806D01*
X177151751Y-98591884D01*
X178933393Y-100248378D01*
X180604433Y-102016401D01*
X182157892Y-103888573D01*
X183587300Y-105857092D01*
X184886693Y-107913748D01*
X186050657Y-110049971D01*
X187074343Y-112256862D01*
X187953475Y-114525203D01*
X188684400Y-116845565D01*
X189264056Y-119208235D01*
X189674139Y-121514000D01*
X177819940Y-121514000D01*
X177800000Y-121512036D01*
X177780059Y-121514000D01*
X177720410Y-121519875D01*
X177643879Y-121543090D01*
X177573347Y-121580790D01*
X177571400Y-121582388D01*
X177571400Y-120629531D01*
X177651615Y-120683129D01*
X177767177Y-120730997D01*
X177889858Y-120755400D01*
X177958849Y-120755400D01*
X177999271Y-120852985D01*
X178068764Y-120956989D01*
X178157211Y-121045436D01*
X178261215Y-121114929D01*
X178376777Y-121162797D01*
X178499458Y-121187200D01*
X178624542Y-121187200D01*
X178747223Y-121162797D01*
X178862785Y-121114929D01*
X178966789Y-121045436D01*
X179055236Y-120956989D01*
X179124729Y-120852985D01*
X179172597Y-120737423D01*
X179197000Y-120614742D01*
X179197000Y-120489658D01*
X179172597Y-120366977D01*
X179124729Y-120251415D01*
X179055236Y-120147411D01*
X179044600Y-120136775D01*
X179044600Y-108054944D01*
X179047057Y-108030000D01*
X179043435Y-107993229D01*
X179037249Y-107930415D01*
X179008201Y-107834657D01*
X178961029Y-107746405D01*
X178897548Y-107669052D01*
X178878165Y-107653145D01*
X173046055Y-101821035D01*
X173030148Y-101801652D01*
X172952795Y-101738171D01*
X172864543Y-101690999D01*
X172768785Y-101661951D01*
X172694147Y-101654600D01*
X172694144Y-101654600D01*
X172669200Y-101652143D01*
X172644256Y-101654600D01*
X163220400Y-101654600D01*
X163220400Y-98174344D01*
X163222857Y-98149400D01*
X163217955Y-98099628D01*
X163213049Y-98049815D01*
X163184001Y-97954057D01*
X163136829Y-97865805D01*
X163073348Y-97788452D01*
X163053965Y-97772545D01*
X162695555Y-97414135D01*
X162679648Y-97394752D01*
X162602295Y-97331271D01*
X162514043Y-97284099D01*
X162462914Y-97268589D01*
X162456789Y-97262464D01*
X162352785Y-97192971D01*
X162237223Y-97145103D01*
X162114542Y-97120700D01*
X161989458Y-97120700D01*
X161866777Y-97145103D01*
X161751215Y-97192971D01*
X161647211Y-97262464D01*
X161558764Y-97350911D01*
X161489271Y-97454915D01*
X161441403Y-97570477D01*
X161417000Y-97693158D01*
X161417000Y-97818242D01*
X161441403Y-97940923D01*
X161489271Y-98056485D01*
X161521654Y-98104950D01*
X161489271Y-98153415D01*
X161441403Y-98268977D01*
X161417000Y-98391658D01*
X161417000Y-98516742D01*
X161441403Y-98639423D01*
X161489271Y-98754985D01*
X161544000Y-98836893D01*
X161544000Y-100167569D01*
X161463785Y-100113971D01*
X161348223Y-100066103D01*
X161225542Y-100041700D01*
X161100458Y-100041700D01*
X160977777Y-100066103D01*
X160862215Y-100113971D01*
X160758211Y-100183464D01*
X160669764Y-100271911D01*
X160600271Y-100375915D01*
X160552403Y-100491477D01*
X160528000Y-100614158D01*
X160528000Y-100739242D01*
X160552403Y-100861923D01*
X160600271Y-100977485D01*
X160669764Y-101081489D01*
X160758211Y-101169936D01*
X160862215Y-101239429D01*
X160977777Y-101287297D01*
X161100458Y-101311700D01*
X161225542Y-101311700D01*
X161348223Y-101287297D01*
X161463785Y-101239429D01*
X161544001Y-101185831D01*
X161544001Y-102442444D01*
X161544000Y-102442454D01*
X161544000Y-102467856D01*
X161541543Y-102492800D01*
X161544000Y-102517744D01*
X161544000Y-102517747D01*
X161551351Y-102592385D01*
X161580399Y-102688143D01*
X161627571Y-102776395D01*
X161691052Y-102853748D01*
X161710434Y-102869654D01*
X162056149Y-103215370D01*
X162072052Y-103234748D01*
X162091429Y-103250650D01*
X162149404Y-103298229D01*
X162199209Y-103324850D01*
X162237657Y-103345401D01*
X162333415Y-103374449D01*
X162408053Y-103381800D01*
X162408055Y-103381800D01*
X162432999Y-103384257D01*
X162457943Y-103381800D01*
X172306380Y-103381800D01*
X177469800Y-108545221D01*
X177469801Y-117325154D01*
X177465785Y-117322471D01*
X177350223Y-117274603D01*
X177227542Y-117250200D01*
X177102458Y-117250200D01*
X177063400Y-117257969D01*
X177063400Y-108664543D01*
X177065857Y-108639599D01*
X177059435Y-108574399D01*
X177056049Y-108540015D01*
X177027001Y-108444257D01*
X177015104Y-108421999D01*
X176979829Y-108356004D01*
X176932250Y-108298029D01*
X176916348Y-108278652D01*
X176896971Y-108262750D01*
X172512655Y-103878435D01*
X172496748Y-103859052D01*
X172419395Y-103795571D01*
X172331143Y-103748399D01*
X172235385Y-103719351D01*
X172160747Y-103712000D01*
X172160744Y-103712000D01*
X172135800Y-103709543D01*
X172110856Y-103712000D01*
X149010879Y-103712000D01*
X148966985Y-103682671D01*
X148851423Y-103634803D01*
X148728742Y-103610400D01*
X148603658Y-103610400D01*
X148480977Y-103634803D01*
X148365415Y-103682671D01*
X148261411Y-103752164D01*
X148172964Y-103840611D01*
X148103471Y-103944615D01*
X148055603Y-104060177D01*
X148031200Y-104182858D01*
X148031200Y-104307942D01*
X148055603Y-104430623D01*
X148103471Y-104546185D01*
X148172964Y-104650189D01*
X148261411Y-104738636D01*
X148341099Y-104791881D01*
X148074780Y-105058200D01*
X146127893Y-105058200D01*
X146045985Y-105003471D01*
X145930423Y-104955603D01*
X145909900Y-104951521D01*
X146158821Y-104702600D01*
X147066456Y-104702600D01*
X147091400Y-104705057D01*
X147116344Y-104702600D01*
X147116347Y-104702600D01*
X147190985Y-104695249D01*
X147286743Y-104666201D01*
X147374995Y-104619029D01*
X147452348Y-104555548D01*
X147468255Y-104536165D01*
X149642771Y-102361650D01*
X149662148Y-102345748D01*
X149701779Y-102297457D01*
X149725629Y-102268396D01*
X149757267Y-102209205D01*
X149772801Y-102180143D01*
X149801849Y-102084385D01*
X149809200Y-102009747D01*
X149809200Y-102009745D01*
X149811657Y-101984801D01*
X149809200Y-101959857D01*
X149809200Y-100142844D01*
X149811657Y-100117900D01*
X149808602Y-100086881D01*
X149801849Y-100018315D01*
X149772801Y-99922557D01*
X149729402Y-99841363D01*
X149725629Y-99834304D01*
X149678050Y-99776329D01*
X149663533Y-99758639D01*
X149674777Y-99763297D01*
X149797458Y-99787700D01*
X149922542Y-99787700D01*
X150045223Y-99763297D01*
X150160785Y-99715429D01*
X150264789Y-99645936D01*
X150353236Y-99557489D01*
X150422729Y-99453485D01*
X150470597Y-99337923D01*
X150495000Y-99215242D01*
X150495000Y-99090158D01*
X150470597Y-98967477D01*
X150422729Y-98851915D01*
X150353236Y-98747911D01*
X150264789Y-98659464D01*
X150160785Y-98589971D01*
X150045223Y-98542103D01*
X149948605Y-98522884D01*
X149665355Y-98239635D01*
X149649448Y-98220252D01*
X149572095Y-98156771D01*
X149483843Y-98109599D01*
X149388085Y-98080551D01*
X149313447Y-98073200D01*
X149313444Y-98073200D01*
X149288500Y-98070743D01*
X149263556Y-98073200D01*
X147979944Y-98073200D01*
X147955000Y-98070743D01*
X147930056Y-98073200D01*
X147930053Y-98073200D01*
X147855415Y-98080551D01*
X147759657Y-98109599D01*
X147671405Y-98156771D01*
X147594052Y-98220252D01*
X147578145Y-98239635D01*
X146953030Y-98864750D01*
X146933653Y-98880652D01*
X146917751Y-98900029D01*
X146917750Y-98900030D01*
X146870171Y-98958005D01*
X146823000Y-99046257D01*
X146793952Y-99142016D01*
X146784143Y-99241600D01*
X146786601Y-99266554D01*
X146786601Y-100147571D01*
X146743223Y-100129603D01*
X146646604Y-100110384D01*
X145161000Y-98624780D01*
X145161000Y-97712120D01*
X145307921Y-97565200D01*
X146175307Y-97565200D01*
X146257215Y-97619929D01*
X146372777Y-97667797D01*
X146495458Y-97692200D01*
X146620542Y-97692200D01*
X146743223Y-97667797D01*
X146858785Y-97619929D01*
X146962789Y-97550436D01*
X147051236Y-97461989D01*
X147120729Y-97357985D01*
X147168597Y-97242423D01*
X147193000Y-97119742D01*
X147193000Y-96994658D01*
X147168597Y-96871977D01*
X147120729Y-96756415D01*
X147051236Y-96652411D01*
X146962789Y-96563964D01*
X146858785Y-96494471D01*
X146743223Y-96446603D01*
X146620542Y-96422200D01*
X146495458Y-96422200D01*
X146372777Y-96446603D01*
X146257215Y-96494471D01*
X146175307Y-96549200D01*
X145122444Y-96549200D01*
X145097500Y-96546743D01*
X145072556Y-96549200D01*
X145072553Y-96549200D01*
X144997915Y-96556551D01*
X144902157Y-96585599D01*
X144886575Y-96593928D01*
X144813904Y-96632771D01*
X144776773Y-96663244D01*
X144736552Y-96696252D01*
X144720649Y-96715630D01*
X144311430Y-97124850D01*
X144292053Y-97140752D01*
X144276151Y-97160129D01*
X144276150Y-97160130D01*
X144228571Y-97218105D01*
X144181400Y-97306357D01*
X144153367Y-97398771D01*
X144152352Y-97402116D01*
X144142543Y-97501700D01*
X144145001Y-97526654D01*
X144145000Y-98810255D01*
X144142543Y-98835200D01*
X144145000Y-98860144D01*
X144145000Y-98860146D01*
X144152351Y-98934784D01*
X144181399Y-99030542D01*
X144228571Y-99118795D01*
X144292052Y-99196148D01*
X144311435Y-99212055D01*
X145928184Y-100828804D01*
X145947403Y-100925423D01*
X145995271Y-101040985D01*
X146064764Y-101144989D01*
X146153211Y-101233436D01*
X146257215Y-101302929D01*
X146372777Y-101350797D01*
X146495458Y-101375200D01*
X146620542Y-101375200D01*
X146743223Y-101350797D01*
X146786600Y-101332829D01*
X146786600Y-102841180D01*
X146499980Y-103127800D01*
X145668543Y-103127800D01*
X145643599Y-103125343D01*
X145618655Y-103127800D01*
X145618653Y-103127800D01*
X145544015Y-103135151D01*
X145448257Y-103164199D01*
X145448255Y-103164200D01*
X145360004Y-103211371D01*
X145313304Y-103249697D01*
X145282652Y-103274852D01*
X145266750Y-103294229D01*
X144108230Y-104452750D01*
X144088853Y-104468652D01*
X144072951Y-104488029D01*
X144072950Y-104488030D01*
X144025371Y-104546005D01*
X143984618Y-104622250D01*
X143978200Y-104634257D01*
X143949764Y-104728000D01*
X143949152Y-104730016D01*
X143939343Y-104829600D01*
X143941801Y-104854554D01*
X143941800Y-105922255D01*
X143939343Y-105947200D01*
X143941800Y-105972144D01*
X143941800Y-105972146D01*
X143949151Y-106046784D01*
X143978199Y-106142542D01*
X144025371Y-106230795D01*
X144088852Y-106308148D01*
X144108235Y-106324055D01*
X144961945Y-107177765D01*
X144977852Y-107197148D01*
X145055205Y-107260629D01*
X145143457Y-107307801D01*
X145239215Y-107336849D01*
X145313853Y-107344200D01*
X145313856Y-107344200D01*
X145338800Y-107346657D01*
X145363744Y-107344200D01*
X151308256Y-107344200D01*
X151333200Y-107346657D01*
X151358144Y-107344200D01*
X151358147Y-107344200D01*
X151432785Y-107336849D01*
X151528543Y-107307801D01*
X151616795Y-107260629D01*
X151694148Y-107197148D01*
X151710055Y-107177765D01*
X152559621Y-106328200D01*
X171214180Y-106328200D01*
X174421801Y-109535822D01*
X174421801Y-115031376D01*
X173837600Y-114447176D01*
X173837600Y-113373025D01*
X173899036Y-113311589D01*
X173916456Y-113285518D01*
X173936337Y-113261293D01*
X173951112Y-113233652D01*
X173968529Y-113207585D01*
X173980525Y-113178624D01*
X173995302Y-113150979D01*
X174004400Y-113120985D01*
X174016397Y-113092023D01*
X174022514Y-113061272D01*
X174031611Y-113031282D01*
X174034682Y-113000097D01*
X174040800Y-112969342D01*
X174040800Y-112937982D01*
X174043871Y-112906801D01*
X174040800Y-112875620D01*
X174040800Y-112844258D01*
X174034682Y-112813502D01*
X174031611Y-112782319D01*
X174022514Y-112752330D01*
X174016397Y-112721577D01*
X174004400Y-112692615D01*
X173995302Y-112662621D01*
X173980525Y-112634976D01*
X173968529Y-112606015D01*
X173951112Y-112579948D01*
X173936337Y-112552307D01*
X173916457Y-112528083D01*
X173899036Y-112502011D01*
X173876861Y-112479836D01*
X173856984Y-112455616D01*
X173832764Y-112435739D01*
X173810589Y-112413564D01*
X173784517Y-112396143D01*
X173760293Y-112376263D01*
X173732652Y-112361488D01*
X173706585Y-112344071D01*
X173677624Y-112332075D01*
X173649979Y-112317298D01*
X173619985Y-112308200D01*
X173591023Y-112296203D01*
X173560270Y-112290086D01*
X173530281Y-112280989D01*
X173499098Y-112277918D01*
X173468342Y-112271800D01*
X173436980Y-112271800D01*
X173405799Y-112268729D01*
X173374618Y-112271800D01*
X173343258Y-112271800D01*
X173312503Y-112277918D01*
X173281318Y-112280989D01*
X173251328Y-112290086D01*
X173220577Y-112296203D01*
X173191615Y-112308200D01*
X173161621Y-112317298D01*
X173133976Y-112332075D01*
X173105015Y-112344071D01*
X173078948Y-112361488D01*
X173051307Y-112376263D01*
X173027082Y-112396144D01*
X173001011Y-112413564D01*
X172912564Y-112502011D01*
X172912562Y-112502014D01*
X172775646Y-112638930D01*
X172751416Y-112658815D01*
X172731532Y-112683044D01*
X172672063Y-112755507D01*
X172613098Y-112865821D01*
X172576789Y-112985519D01*
X172564529Y-113110000D01*
X172567601Y-113141191D01*
X172567600Y-114679018D01*
X172564529Y-114710200D01*
X172567600Y-114741381D01*
X172567600Y-114741391D01*
X172576788Y-114834681D01*
X172613098Y-114954379D01*
X172672063Y-115064693D01*
X172751415Y-115161385D01*
X172775650Y-115181274D01*
X173659801Y-116065426D01*
X173659801Y-119688600D01*
X173546458Y-119688600D01*
X173423777Y-119713003D01*
X173308215Y-119760871D01*
X173226307Y-119815600D01*
X172973543Y-119815600D01*
X172948599Y-119813143D01*
X172923655Y-119815600D01*
X172923653Y-119815600D01*
X172849015Y-119822951D01*
X172753257Y-119851999D01*
X172753255Y-119852000D01*
X172665004Y-119899171D01*
X172643036Y-119917200D01*
X172587652Y-119962652D01*
X172571749Y-119982030D01*
X172124434Y-120429345D01*
X172105052Y-120445252D01*
X172041571Y-120522605D01*
X171994399Y-120610858D01*
X171965351Y-120706616D01*
X171959950Y-120761455D01*
X171955543Y-120806200D01*
X171958000Y-120831144D01*
X171958001Y-125091578D01*
X165876035Y-131173545D01*
X165856652Y-131189452D01*
X165793171Y-131266805D01*
X165745999Y-131355058D01*
X165716951Y-131450816D01*
X165710371Y-131517629D01*
X165707143Y-131550400D01*
X165709600Y-131575344D01*
X165709601Y-141957179D01*
X164021827Y-143644953D01*
X164002453Y-143660853D01*
X163986553Y-143680227D01*
X163986550Y-143680230D01*
X163939917Y-143737052D01*
X163938971Y-143738205D01*
X163891800Y-143826457D01*
X163862752Y-143922216D01*
X163852943Y-144021800D01*
X163862752Y-144121384D01*
X163880801Y-144180884D01*
X163880800Y-148947707D01*
X163826071Y-149029615D01*
X163778203Y-149145177D01*
X163753800Y-149267858D01*
X163753800Y-149392942D01*
X163778203Y-149515623D01*
X163826071Y-149631185D01*
X163895564Y-149735189D01*
X163952707Y-149792332D01*
X163902271Y-149867815D01*
X163854403Y-149983377D01*
X163830000Y-150106058D01*
X163830000Y-150231142D01*
X163854403Y-150353823D01*
X163902271Y-150469385D01*
X163971764Y-150573389D01*
X164060211Y-150661836D01*
X164164215Y-150731329D01*
X164279777Y-150779197D01*
X164402458Y-150803600D01*
X164527542Y-150803600D01*
X164650223Y-150779197D01*
X164765785Y-150731329D01*
X164869789Y-150661836D01*
X164958236Y-150573389D01*
X165027729Y-150469385D01*
X165075597Y-150353823D01*
X165094816Y-150257204D01*
X165695565Y-149656455D01*
X165714948Y-149640548D01*
X165778429Y-149563195D01*
X165825601Y-149474943D01*
X165854649Y-149379184D01*
X165862000Y-149304546D01*
X165862000Y-149304544D01*
X165864457Y-149279600D01*
X165862000Y-149254656D01*
X165862000Y-149152143D01*
X165864457Y-149127199D01*
X165861337Y-149095520D01*
X165854649Y-149027615D01*
X165825601Y-148931857D01*
X165822715Y-148926457D01*
X165778429Y-148843604D01*
X165730850Y-148785629D01*
X165714948Y-148766252D01*
X165695570Y-148750349D01*
X165379400Y-148434180D01*
X165379400Y-147552400D01*
X165467342Y-147552400D01*
X165590023Y-147527997D01*
X165705585Y-147480129D01*
X165749479Y-147450800D01*
X166294256Y-147450800D01*
X166319200Y-147453257D01*
X166344144Y-147450800D01*
X166344147Y-147450800D01*
X166418785Y-147443449D01*
X166514543Y-147414401D01*
X166602795Y-147367229D01*
X166680148Y-147303748D01*
X166696055Y-147284365D01*
X168407809Y-145572611D01*
X168460254Y-145699224D01*
X168672630Y-146017067D01*
X168942933Y-146287370D01*
X169260776Y-146499746D01*
X169613945Y-146646034D01*
X169988867Y-146720610D01*
X170371133Y-146720610D01*
X170746055Y-146646034D01*
X171099224Y-146499746D01*
X171417067Y-146287370D01*
X171687370Y-146017067D01*
X171899746Y-145699224D01*
X172046034Y-145346055D01*
X172120610Y-144971133D01*
X172120610Y-144588867D01*
X172046034Y-144213945D01*
X171899746Y-143860776D01*
X171687370Y-143542933D01*
X171556637Y-143412200D01*
X174135180Y-143412200D01*
X173521430Y-144025950D01*
X173502053Y-144041852D01*
X173486151Y-144061229D01*
X173486150Y-144061230D01*
X173438571Y-144119205D01*
X173402241Y-144187175D01*
X173391400Y-144207457D01*
X173362352Y-144303215D01*
X173362137Y-144305395D01*
X173352543Y-144402800D01*
X173355001Y-144427754D01*
X173355000Y-147570580D01*
X171536721Y-149388859D01*
X171498736Y-149332011D01*
X171410289Y-149243564D01*
X171306285Y-149174071D01*
X171190723Y-149126203D01*
X171068042Y-149101800D01*
X170942958Y-149101800D01*
X170820277Y-149126203D01*
X170704715Y-149174071D01*
X170600711Y-149243564D01*
X170512264Y-149332011D01*
X170442771Y-149436015D01*
X170403035Y-149531945D01*
X168211796Y-151723184D01*
X168115177Y-151742403D01*
X167999615Y-151790271D01*
X167895611Y-151859764D01*
X167807164Y-151948211D01*
X167737671Y-152052215D01*
X167689803Y-152167777D01*
X167665400Y-152290458D01*
X167665400Y-152415542D01*
X167689803Y-152538223D01*
X167737671Y-152653785D01*
X167807164Y-152757789D01*
X167895611Y-152846236D01*
X167999615Y-152915729D01*
X168115177Y-152963597D01*
X168237858Y-152988000D01*
X168325801Y-152988000D01*
X168325800Y-154002307D01*
X168271071Y-154084215D01*
X168223203Y-154199777D01*
X168198800Y-154322458D01*
X168198800Y-154447542D01*
X168223203Y-154570223D01*
X168271071Y-154685785D01*
X168340564Y-154789789D01*
X168429011Y-154878236D01*
X168533015Y-154947729D01*
X168648577Y-154995597D01*
X168771258Y-155020000D01*
X168896342Y-155020000D01*
X169019023Y-154995597D01*
X169134585Y-154947729D01*
X169238589Y-154878236D01*
X169327036Y-154789789D01*
X169396529Y-154685785D01*
X169444397Y-154570223D01*
X169468800Y-154447542D01*
X169468800Y-154322458D01*
X169444397Y-154199777D01*
X169396529Y-154084215D01*
X169341800Y-154002307D01*
X169341800Y-153020620D01*
X169844913Y-152517507D01*
X172260950Y-152517507D01*
X172368610Y-152831478D01*
X172535454Y-153118412D01*
X172755070Y-153367283D01*
X173019018Y-153568527D01*
X173317155Y-153714411D01*
X173519121Y-153775678D01*
X173781679Y-153657087D01*
X173781679Y-152254949D01*
X174035679Y-152254949D01*
X174035679Y-153657087D01*
X174298237Y-153775678D01*
X174612208Y-153668018D01*
X174899142Y-153501174D01*
X175148013Y-153281558D01*
X175349257Y-153017610D01*
X175495141Y-152719473D01*
X175556408Y-152517507D01*
X175437817Y-152254949D01*
X174035679Y-152254949D01*
X173781679Y-152254949D01*
X172379541Y-152254949D01*
X172260950Y-152517507D01*
X169844913Y-152517507D01*
X170624029Y-151738391D01*
X172260950Y-151738391D01*
X172379541Y-152000949D01*
X173781679Y-152000949D01*
X173781679Y-150598811D01*
X174035679Y-150598811D01*
X174035679Y-152000949D01*
X175437817Y-152000949D01*
X175556408Y-151738391D01*
X175448748Y-151424420D01*
X175281904Y-151137486D01*
X175062288Y-150888615D01*
X174798340Y-150687371D01*
X174500203Y-150541487D01*
X174298237Y-150480220D01*
X174035679Y-150598811D01*
X173781679Y-150598811D01*
X173519121Y-150480220D01*
X173205150Y-150587880D01*
X172918216Y-150754724D01*
X172669345Y-150974340D01*
X172468101Y-151238288D01*
X172322217Y-151536425D01*
X172260950Y-151738391D01*
X170624029Y-151738391D01*
X172956183Y-149406237D01*
X175372220Y-149406237D01*
X175479880Y-149720208D01*
X175646724Y-150007142D01*
X175866340Y-150256013D01*
X176130288Y-150457257D01*
X176428425Y-150603141D01*
X176630391Y-150664408D01*
X176892949Y-150545817D01*
X176892949Y-149143679D01*
X177146949Y-149143679D01*
X177146949Y-150545817D01*
X177409507Y-150664408D01*
X177723478Y-150556748D01*
X178010412Y-150389904D01*
X178259283Y-150170288D01*
X178460527Y-149906340D01*
X178606411Y-149608203D01*
X178667678Y-149406237D01*
X178549087Y-149143679D01*
X177146949Y-149143679D01*
X176892949Y-149143679D01*
X175490811Y-149143679D01*
X175372220Y-149406237D01*
X172956183Y-149406237D01*
X173735299Y-148627121D01*
X175372220Y-148627121D01*
X175490811Y-148889679D01*
X176892949Y-148889679D01*
X176892949Y-147487541D01*
X177146949Y-147487541D01*
X177146949Y-148889679D01*
X178549087Y-148889679D01*
X178667678Y-148627121D01*
X178560018Y-148313150D01*
X178393174Y-148026216D01*
X178173558Y-147777345D01*
X177909610Y-147576101D01*
X177611473Y-147430217D01*
X177409507Y-147368950D01*
X177146949Y-147487541D01*
X176892949Y-147487541D01*
X176630391Y-147368950D01*
X176316420Y-147476610D01*
X176029486Y-147643454D01*
X175780615Y-147863070D01*
X175579371Y-148127018D01*
X175433487Y-148425155D01*
X175372220Y-148627121D01*
X173735299Y-148627121D01*
X174204565Y-148157855D01*
X174223948Y-148141948D01*
X174287429Y-148064595D01*
X174334601Y-147976343D01*
X174363649Y-147880585D01*
X174371000Y-147805947D01*
X174371000Y-147805944D01*
X174373457Y-147781000D01*
X174371000Y-147756056D01*
X174371000Y-144613220D01*
X177404971Y-141579250D01*
X177424348Y-141563348D01*
X177443024Y-141540590D01*
X177487829Y-141485996D01*
X177515097Y-141434981D01*
X177535001Y-141397743D01*
X177564049Y-141301985D01*
X177571400Y-141227347D01*
X177571400Y-141227345D01*
X177573857Y-141202401D01*
X177571400Y-141177457D01*
X177571400Y-138720420D01*
X178460401Y-139609422D01*
X178460401Y-139797874D01*
X178370542Y-139780000D01*
X178245458Y-139780000D01*
X178122777Y-139804403D01*
X178007215Y-139852271D01*
X177903211Y-139921764D01*
X177814764Y-140010211D01*
X177745271Y-140114215D01*
X177697403Y-140229777D01*
X177673000Y-140352458D01*
X177673000Y-140477542D01*
X177697403Y-140600223D01*
X177745271Y-140715785D01*
X177814764Y-140819789D01*
X177903211Y-140908236D01*
X177966590Y-140950585D01*
X177916364Y-141000811D01*
X177846871Y-141104815D01*
X177799003Y-141220377D01*
X177774600Y-141343058D01*
X177774600Y-141468142D01*
X177799003Y-141590823D01*
X177846871Y-141706385D01*
X177916364Y-141810389D01*
X178004811Y-141898836D01*
X178108815Y-141968329D01*
X178224377Y-142016197D01*
X178347058Y-142040600D01*
X178472142Y-142040600D01*
X178594823Y-142016197D01*
X178686897Y-141978058D01*
X179628800Y-141978058D01*
X179628800Y-142103142D01*
X179653203Y-142225823D01*
X179701071Y-142341385D01*
X179770564Y-142445389D01*
X179859011Y-142533836D01*
X179963015Y-142603329D01*
X180078577Y-142651197D01*
X180201258Y-142675600D01*
X180326342Y-142675600D01*
X180449023Y-142651197D01*
X180564585Y-142603329D01*
X180668589Y-142533836D01*
X180757036Y-142445389D01*
X180826529Y-142341385D01*
X180874397Y-142225823D01*
X180898800Y-142103142D01*
X180898800Y-141978058D01*
X180874397Y-141855377D01*
X180826529Y-141739815D01*
X180757036Y-141635811D01*
X180668589Y-141547364D01*
X180564585Y-141477871D01*
X180449023Y-141430003D01*
X180326342Y-141405600D01*
X180201258Y-141405600D01*
X180078577Y-141430003D01*
X179963015Y-141477871D01*
X179859011Y-141547364D01*
X179770564Y-141635811D01*
X179701071Y-141739815D01*
X179653203Y-141855377D01*
X179628800Y-141978058D01*
X178686897Y-141978058D01*
X178710385Y-141968329D01*
X178814389Y-141898836D01*
X178902836Y-141810389D01*
X178972329Y-141706385D01*
X179020197Y-141590823D01*
X179039416Y-141494204D01*
X179309965Y-141223655D01*
X179329348Y-141207748D01*
X179392829Y-141130395D01*
X179440001Y-141042143D01*
X179469049Y-140946385D01*
X179476400Y-140871747D01*
X179476400Y-140871744D01*
X179478857Y-140846800D01*
X179476400Y-140821856D01*
X179476400Y-139423943D01*
X179478857Y-139398999D01*
X179475973Y-139369722D01*
X179469049Y-139299415D01*
X179440001Y-139203657D01*
X179416012Y-139158777D01*
X179392829Y-139115404D01*
X179348024Y-139060810D01*
X179329348Y-139038052D01*
X179309971Y-139022150D01*
X178721621Y-138433800D01*
X181000856Y-138433800D01*
X181025800Y-138436257D01*
X181050744Y-138433800D01*
X181050747Y-138433800D01*
X181125385Y-138426449D01*
X181221143Y-138397401D01*
X181309395Y-138350229D01*
X181386748Y-138286748D01*
X181402655Y-138267365D01*
X182027765Y-137642255D01*
X182047148Y-137626348D01*
X182110629Y-137548995D01*
X182157801Y-137460743D01*
X182186849Y-137364985D01*
X182194200Y-137290347D01*
X182194200Y-137290344D01*
X182196657Y-137265400D01*
X182194200Y-137240456D01*
X182194200Y-134937625D01*
X182230236Y-134901589D01*
X182299729Y-134797585D01*
X182347597Y-134682023D01*
X182372000Y-134559342D01*
X182372000Y-134434258D01*
X182347597Y-134311577D01*
X182299729Y-134196015D01*
X182230236Y-134092011D01*
X182141789Y-134003564D01*
X182037785Y-133934071D01*
X181922223Y-133886203D01*
X181799542Y-133861800D01*
X181674458Y-133861800D01*
X181551777Y-133886203D01*
X181436215Y-133934071D01*
X181332211Y-134003564D01*
X181243764Y-134092011D01*
X181174271Y-134196015D01*
X181126403Y-134311577D01*
X181102000Y-134434258D01*
X181102000Y-134559342D01*
X181126403Y-134682023D01*
X181174271Y-134797585D01*
X181178201Y-134803467D01*
X181178200Y-136399327D01*
X181062942Y-136376400D01*
X180937858Y-136376400D01*
X180815177Y-136400803D01*
X180699615Y-136448671D01*
X180595611Y-136518164D01*
X180507164Y-136606611D01*
X180437671Y-136710615D01*
X180389803Y-136826177D01*
X180365400Y-136948858D01*
X180365400Y-137073942D01*
X180389803Y-137196623D01*
X180437671Y-137312185D01*
X180507164Y-137416189D01*
X180508775Y-137417800D01*
X178131893Y-137417800D01*
X178049985Y-137363071D01*
X177934423Y-137315203D01*
X177811742Y-137290800D01*
X177686658Y-137290800D01*
X177571400Y-137313726D01*
X177571400Y-132417612D01*
X177573347Y-132419210D01*
X177643879Y-132456910D01*
X177720410Y-132480125D01*
X177780059Y-132486000D01*
X177780060Y-132486000D01*
X177800000Y-132487964D01*
X177819941Y-132486000D01*
X189664683Y-132486000D01*
X189339655Y-134425100D01*
X188783503Y-136793412D01*
X188075672Y-139120917D01*
X187219120Y-141397885D01*
X186217415Y-143614833D01*
X185074731Y-145762520D01*
X183795841Y-147831981D01*
X182386058Y-149814613D01*
X180851283Y-151702119D01*
X179197894Y-153486659D01*
X177432790Y-155160782D01*
X175563328Y-156717511D01*
X173597314Y-158150346D01*
X171542916Y-159453336D01*
X169408727Y-160621026D01*
X167203638Y-161648558D01*
X164936827Y-162531650D01*
X162617759Y-163266618D01*
X160256096Y-163850400D01*
X157861663Y-164280564D01*
X157443782Y-164328062D01*
X157471229Y-164286985D01*
X157519097Y-164171423D01*
X157543500Y-164048742D01*
X157543500Y-163923658D01*
X157519097Y-163800977D01*
X157471229Y-163685415D01*
X157401736Y-163581411D01*
X157313289Y-163492964D01*
X157209285Y-163423471D01*
X157093723Y-163375603D01*
X156971042Y-163351200D01*
X156845958Y-163351200D01*
X156723277Y-163375603D01*
X156607715Y-163423471D01*
X156503711Y-163492964D01*
X156415264Y-163581411D01*
X156345771Y-163685415D01*
X156297903Y-163800977D01*
X156273500Y-163923658D01*
X156273500Y-164048742D01*
X156297903Y-164171423D01*
X156345771Y-164286985D01*
X156415264Y-164390989D01*
X156463734Y-164439459D01*
X155444504Y-164555308D01*
X153030822Y-164672710D01*
X153093223Y-164660297D01*
X153208785Y-164612429D01*
X153312789Y-164542936D01*
X153401236Y-164454489D01*
X153470729Y-164350485D01*
X153518597Y-164234923D01*
X153543000Y-164112242D01*
X153543000Y-163987158D01*
X153518597Y-163864477D01*
X153470729Y-163748915D01*
X153401236Y-163644911D01*
X153312789Y-163556464D01*
X153208785Y-163486971D01*
X153093223Y-163439103D01*
X152970542Y-163414700D01*
X152845458Y-163414700D01*
X152722777Y-163439103D01*
X152607215Y-163486971D01*
X152503211Y-163556464D01*
X152414764Y-163644911D01*
X152345271Y-163748915D01*
X152297403Y-163864477D01*
X152273000Y-163987158D01*
X152273000Y-164112242D01*
X152297403Y-164234923D01*
X152345271Y-164350485D01*
X152414764Y-164454489D01*
X152503211Y-164542936D01*
X152607215Y-164612429D01*
X152722777Y-164660297D01*
X152769453Y-164669581D01*
X150582170Y-164634634D01*
X148157324Y-164438883D01*
X145750133Y-164087053D01*
X145118058Y-163952524D01*
X145184789Y-163907936D01*
X145273236Y-163819489D01*
X145342729Y-163715485D01*
X145390597Y-163599923D01*
X145415000Y-163477242D01*
X145415000Y-163352158D01*
X145390597Y-163229477D01*
X145367369Y-163173400D01*
X148841526Y-163173400D01*
X148843003Y-163180823D01*
X148890871Y-163296385D01*
X148960364Y-163400389D01*
X149048811Y-163488836D01*
X149152815Y-163558329D01*
X149268377Y-163606197D01*
X149391058Y-163630600D01*
X149516142Y-163630600D01*
X149638823Y-163606197D01*
X149743769Y-163562727D01*
X149813215Y-163609129D01*
X149928777Y-163656997D01*
X150051458Y-163681400D01*
X150176542Y-163681400D01*
X150299223Y-163656997D01*
X150414785Y-163609129D01*
X150518789Y-163539636D01*
X150607236Y-163451189D01*
X150676729Y-163347185D01*
X150707485Y-163272936D01*
X151899221Y-162081200D01*
X165227456Y-162081200D01*
X165252400Y-162083657D01*
X165277344Y-162081200D01*
X165277347Y-162081200D01*
X165351985Y-162073849D01*
X165447743Y-162044801D01*
X165535995Y-161997629D01*
X165613348Y-161934148D01*
X165629255Y-161914765D01*
X171152421Y-156391600D01*
X173507856Y-156391600D01*
X173532800Y-156394057D01*
X173557744Y-156391600D01*
X173557747Y-156391600D01*
X173632385Y-156384249D01*
X173728143Y-156355201D01*
X173816395Y-156308029D01*
X173893748Y-156244548D01*
X173909655Y-156225165D01*
X182916765Y-147218055D01*
X182936148Y-147202148D01*
X182999629Y-147124795D01*
X183046801Y-147036543D01*
X183075849Y-146940785D01*
X183083200Y-146866147D01*
X183083200Y-146866144D01*
X183085657Y-146841200D01*
X183083200Y-146816256D01*
X183083200Y-144887093D01*
X183137929Y-144805185D01*
X183185797Y-144689623D01*
X183210200Y-144566942D01*
X183210200Y-144441858D01*
X183185797Y-144319177D01*
X183137929Y-144203615D01*
X183068436Y-144099611D01*
X182979989Y-144011164D01*
X182875985Y-143941671D01*
X182760423Y-143893803D01*
X182637742Y-143869400D01*
X182512658Y-143869400D01*
X182389977Y-143893803D01*
X182274415Y-143941671D01*
X182170411Y-144011164D01*
X182081964Y-144099611D01*
X182012471Y-144203615D01*
X181964603Y-144319177D01*
X181940200Y-144441858D01*
X181940200Y-144566942D01*
X181964603Y-144689623D01*
X182012471Y-144805185D01*
X182067201Y-144887094D01*
X182067200Y-146630780D01*
X173322380Y-155375600D01*
X170966943Y-155375600D01*
X170941999Y-155373143D01*
X170917055Y-155375600D01*
X170917053Y-155375600D01*
X170842415Y-155382951D01*
X170746657Y-155411999D01*
X170746655Y-155412000D01*
X170658404Y-155459171D01*
X170606486Y-155501779D01*
X170581052Y-155522652D01*
X170565150Y-155542029D01*
X165041980Y-161065200D01*
X151713743Y-161065200D01*
X151688799Y-161062743D01*
X151663855Y-161065200D01*
X151663853Y-161065200D01*
X151589215Y-161072551D01*
X151493457Y-161101599D01*
X151493455Y-161101600D01*
X151405204Y-161148771D01*
X151363065Y-161183354D01*
X151327852Y-161212252D01*
X151311950Y-161231629D01*
X150132180Y-162411400D01*
X150051458Y-162411400D01*
X149928777Y-162435803D01*
X149823831Y-162479273D01*
X149754385Y-162432871D01*
X149638823Y-162385003D01*
X149542204Y-162365784D01*
X149500255Y-162323835D01*
X149484348Y-162304452D01*
X149406995Y-162240971D01*
X149318743Y-162193799D01*
X149222985Y-162164751D01*
X149148347Y-162157400D01*
X149148344Y-162157400D01*
X149123400Y-162154943D01*
X149098456Y-162157400D01*
X141434421Y-162157400D01*
X139344400Y-160067380D01*
X139344400Y-157149329D01*
X139387777Y-157167297D01*
X139510458Y-157191700D01*
X139635542Y-157191700D01*
X139758223Y-157167297D01*
X139873785Y-157119429D01*
X139977789Y-157049936D01*
X140066236Y-156961489D01*
X140135729Y-156857485D01*
X140183597Y-156741923D01*
X140208000Y-156619242D01*
X140208000Y-156494158D01*
X140183597Y-156371477D01*
X140135729Y-156255915D01*
X140066236Y-156151911D01*
X139977789Y-156063464D01*
X139873785Y-155993971D01*
X139758223Y-155946103D01*
X139635542Y-155921700D01*
X139510458Y-155921700D01*
X139387777Y-155946103D01*
X139344400Y-155964071D01*
X139344400Y-154239820D01*
X140143171Y-153441050D01*
X140162548Y-153425148D01*
X140185362Y-153397349D01*
X140226029Y-153347796D01*
X140251243Y-153300624D01*
X140273201Y-153259543D01*
X140302249Y-153163785D01*
X140309600Y-153089147D01*
X140309600Y-153089144D01*
X140312057Y-153064200D01*
X140309600Y-153039256D01*
X140309600Y-152976258D01*
X164160200Y-152976258D01*
X164160200Y-153101342D01*
X164184603Y-153224023D01*
X164232471Y-153339585D01*
X164301964Y-153443589D01*
X164390411Y-153532036D01*
X164494415Y-153601529D01*
X164609977Y-153649397D01*
X164732658Y-153673800D01*
X164857742Y-153673800D01*
X164980423Y-153649397D01*
X165095985Y-153601529D01*
X165199989Y-153532036D01*
X165288436Y-153443589D01*
X165357929Y-153339585D01*
X165405797Y-153224023D01*
X165430200Y-153101342D01*
X165430200Y-152976258D01*
X165405797Y-152853577D01*
X165357929Y-152738015D01*
X165288436Y-152634011D01*
X165199989Y-152545564D01*
X165095985Y-152476071D01*
X164980423Y-152428203D01*
X164857742Y-152403800D01*
X164732658Y-152403800D01*
X164609977Y-152428203D01*
X164494415Y-152476071D01*
X164390411Y-152545564D01*
X164301964Y-152634011D01*
X164232471Y-152738015D01*
X164184603Y-152853577D01*
X164160200Y-152976258D01*
X140309600Y-152976258D01*
X140309600Y-143208544D01*
X140312057Y-143183600D01*
X140309600Y-143158653D01*
X140302249Y-143084016D01*
X140273201Y-142988257D01*
X140235641Y-142917987D01*
X140226029Y-142900004D01*
X140178450Y-142842029D01*
X140162548Y-142822652D01*
X140143171Y-142806750D01*
X139187855Y-141851435D01*
X139171948Y-141832052D01*
X139094595Y-141768571D01*
X139080805Y-141761200D01*
X155306521Y-141761200D01*
X155350415Y-141790529D01*
X155465977Y-141838397D01*
X155588658Y-141862800D01*
X155713742Y-141862800D01*
X155836423Y-141838397D01*
X155951985Y-141790529D01*
X156055989Y-141721036D01*
X156144436Y-141632589D01*
X156213929Y-141528585D01*
X156261797Y-141413023D01*
X156286200Y-141290342D01*
X156286200Y-141177000D01*
X161440707Y-141177000D01*
X161522615Y-141231729D01*
X161638177Y-141279597D01*
X161760858Y-141304000D01*
X161885942Y-141304000D01*
X162008623Y-141279597D01*
X162124185Y-141231729D01*
X162228189Y-141162236D01*
X162316636Y-141073789D01*
X162386129Y-140969785D01*
X162433997Y-140854223D01*
X162458400Y-140731542D01*
X162458400Y-140606458D01*
X162433997Y-140483777D01*
X162400645Y-140403258D01*
X163931600Y-140403258D01*
X163931600Y-140528342D01*
X163956003Y-140651023D01*
X164003871Y-140766585D01*
X164073364Y-140870589D01*
X164161811Y-140959036D01*
X164265815Y-141028529D01*
X164381377Y-141076397D01*
X164504058Y-141100800D01*
X164629142Y-141100800D01*
X164751823Y-141076397D01*
X164867385Y-141028529D01*
X164971389Y-140959036D01*
X165059836Y-140870589D01*
X165129329Y-140766585D01*
X165177197Y-140651023D01*
X165201600Y-140528342D01*
X165201600Y-140403258D01*
X165177197Y-140280577D01*
X165129329Y-140165015D01*
X165059836Y-140061011D01*
X164971389Y-139972564D01*
X164867385Y-139903071D01*
X164751823Y-139855203D01*
X164629142Y-139830800D01*
X164504058Y-139830800D01*
X164381377Y-139855203D01*
X164265815Y-139903071D01*
X164161811Y-139972564D01*
X164073364Y-140061011D01*
X164003871Y-140165015D01*
X163956003Y-140280577D01*
X163931600Y-140403258D01*
X162400645Y-140403258D01*
X162386129Y-140368215D01*
X162316636Y-140264211D01*
X162228189Y-140175764D01*
X162124185Y-140106271D01*
X162008623Y-140058403D01*
X161885942Y-140034000D01*
X161760858Y-140034000D01*
X161638177Y-140058403D01*
X161522615Y-140106271D01*
X161440707Y-140161000D01*
X130360020Y-140161000D01*
X130352800Y-140153780D01*
X130352800Y-138407943D01*
X130355257Y-138382999D01*
X130350952Y-138339293D01*
X130345449Y-138283415D01*
X130316401Y-138187657D01*
X130302565Y-138161771D01*
X130269229Y-138099404D01*
X130246154Y-138071288D01*
X130205748Y-138022052D01*
X130186365Y-138006145D01*
X130169816Y-137989596D01*
X130150597Y-137892977D01*
X130102729Y-137777415D01*
X130033236Y-137673411D01*
X129944789Y-137584964D01*
X129840785Y-137515471D01*
X129725223Y-137467603D01*
X129602542Y-137443200D01*
X129477458Y-137443200D01*
X129354777Y-137467603D01*
X129239215Y-137515471D01*
X129135211Y-137584964D01*
X129046764Y-137673411D01*
X128977271Y-137777415D01*
X128929403Y-137892977D01*
X128905000Y-138015658D01*
X128905000Y-138140742D01*
X128929403Y-138263423D01*
X128977271Y-138378985D01*
X129046764Y-138482989D01*
X129135211Y-138571436D01*
X129239215Y-138640929D01*
X129336800Y-138681351D01*
X129336801Y-140339246D01*
X129334343Y-140364200D01*
X129343274Y-140454874D01*
X129344152Y-140463785D01*
X129358324Y-140510502D01*
X129373200Y-140559543D01*
X129420371Y-140647795D01*
X129460985Y-140697283D01*
X129483853Y-140725148D01*
X129503230Y-140741050D01*
X129507380Y-140745200D01*
X125203821Y-140745200D01*
X123591216Y-139132596D01*
X123571997Y-139035977D01*
X123524129Y-138920415D01*
X123454636Y-138816411D01*
X123366189Y-138727964D01*
X123262185Y-138658471D01*
X123146623Y-138610603D01*
X123023942Y-138586200D01*
X122898858Y-138586200D01*
X122809000Y-138604074D01*
X122809000Y-129422203D01*
X122863815Y-129458829D01*
X122979377Y-129506697D01*
X123102058Y-129531100D01*
X123227142Y-129531100D01*
X123349823Y-129506697D01*
X123465385Y-129458829D01*
X123547293Y-129404100D01*
X124097180Y-129404100D01*
X127114301Y-132421221D01*
X127114300Y-133366955D01*
X127111843Y-133391900D01*
X127114300Y-133416844D01*
X127114300Y-133416846D01*
X127121651Y-133491484D01*
X127150699Y-133587242D01*
X127197871Y-133675495D01*
X127261352Y-133752848D01*
X127280735Y-133768755D01*
X128528145Y-135016165D01*
X128544052Y-135035548D01*
X128621405Y-135099029D01*
X128709657Y-135146201D01*
X128805415Y-135175249D01*
X128880053Y-135182600D01*
X128880056Y-135182600D01*
X128905000Y-135185057D01*
X128929944Y-135182600D01*
X143729575Y-135182600D01*
X143651764Y-135260411D01*
X143582271Y-135364415D01*
X143534403Y-135479977D01*
X143515184Y-135576595D01*
X143422434Y-135669346D01*
X143403052Y-135685252D01*
X143339571Y-135762605D01*
X143292399Y-135850858D01*
X143263351Y-135946616D01*
X143256746Y-136013680D01*
X143253543Y-136046200D01*
X143256000Y-136071145D01*
X143256001Y-136744700D01*
X142114131Y-136744700D01*
X142098236Y-136720911D01*
X142009789Y-136632464D01*
X141905785Y-136562971D01*
X141790223Y-136515103D01*
X141667542Y-136490700D01*
X141542458Y-136490700D01*
X141419777Y-136515103D01*
X141304215Y-136562971D01*
X141200211Y-136632464D01*
X141111764Y-136720911D01*
X141042271Y-136824915D01*
X140994403Y-136940477D01*
X140970000Y-137063158D01*
X140970000Y-137188242D01*
X140994403Y-137310923D01*
X141042271Y-137426485D01*
X141111764Y-137530489D01*
X141200211Y-137618936D01*
X141304215Y-137688429D01*
X141419777Y-137736297D01*
X141542458Y-137760700D01*
X141667542Y-137760700D01*
X141680627Y-137758097D01*
X141707053Y-137760700D01*
X141707055Y-137760700D01*
X141731999Y-137763157D01*
X141756943Y-137760700D01*
X143363080Y-137760700D01*
X144593649Y-138991270D01*
X144609552Y-139010648D01*
X144628929Y-139026550D01*
X144686904Y-139074129D01*
X144764126Y-139115405D01*
X144775157Y-139121301D01*
X144870915Y-139150349D01*
X144945553Y-139157700D01*
X144945555Y-139157700D01*
X144970499Y-139160157D01*
X144995443Y-139157700D01*
X155502475Y-139157700D01*
X155551211Y-139206436D01*
X155655215Y-139275929D01*
X155770777Y-139323797D01*
X155893458Y-139348200D01*
X156018542Y-139348200D01*
X156141223Y-139323797D01*
X156166218Y-139313443D01*
X156186211Y-139333436D01*
X156290215Y-139402929D01*
X156405777Y-139450797D01*
X156528458Y-139475200D01*
X156653542Y-139475200D01*
X156776223Y-139450797D01*
X156891785Y-139402929D01*
X156995789Y-139333436D01*
X157084236Y-139244989D01*
X157153729Y-139140985D01*
X157201597Y-139025423D01*
X157226000Y-138902742D01*
X157226000Y-138777658D01*
X157201597Y-138654977D01*
X157153729Y-138539415D01*
X157084236Y-138435411D01*
X157072581Y-138423756D01*
X157062601Y-138390857D01*
X157054201Y-138375142D01*
X157020074Y-138311294D01*
X157942384Y-139233604D01*
X157961603Y-139330223D01*
X158009471Y-139445785D01*
X158078964Y-139549789D01*
X158167411Y-139638236D01*
X158271415Y-139707729D01*
X158386977Y-139755597D01*
X158509658Y-139780000D01*
X158634742Y-139780000D01*
X158757423Y-139755597D01*
X158872985Y-139707729D01*
X158976989Y-139638236D01*
X159065436Y-139549789D01*
X159134929Y-139445785D01*
X159182797Y-139330223D01*
X159207200Y-139207542D01*
X159207200Y-139082458D01*
X159182797Y-138959777D01*
X159134929Y-138844215D01*
X159065436Y-138740211D01*
X158976989Y-138651764D01*
X158872985Y-138582271D01*
X158757423Y-138534403D01*
X158660804Y-138515184D01*
X157461820Y-137316200D01*
X160794822Y-137316200D01*
X160806403Y-137374423D01*
X160854271Y-137489985D01*
X160923764Y-137593989D01*
X161012211Y-137682436D01*
X161116215Y-137751929D01*
X161231777Y-137799797D01*
X161354458Y-137824200D01*
X161479542Y-137824200D01*
X161602223Y-137799797D01*
X161717785Y-137751929D01*
X161821789Y-137682436D01*
X161910236Y-137593989D01*
X161979729Y-137489985D01*
X162027597Y-137374423D01*
X162052000Y-137251742D01*
X162052000Y-137126658D01*
X162027597Y-137003977D01*
X161979729Y-136888415D01*
X161910236Y-136784411D01*
X161821789Y-136695964D01*
X161717785Y-136626471D01*
X161602223Y-136578603D01*
X161505605Y-136559384D01*
X161412854Y-136466634D01*
X161396948Y-136447252D01*
X161319595Y-136383771D01*
X161231343Y-136336599D01*
X161135585Y-136307551D01*
X161060947Y-136300200D01*
X161060944Y-136300200D01*
X161036000Y-136297743D01*
X161011056Y-136300200D01*
X156039421Y-136300200D01*
X153602355Y-133863135D01*
X153586448Y-133843752D01*
X153509095Y-133780271D01*
X153420843Y-133733099D01*
X153325085Y-133704051D01*
X153250447Y-133696700D01*
X153250444Y-133696700D01*
X153225500Y-133694243D01*
X153200556Y-133696700D01*
X134841360Y-133696700D01*
X134852529Y-133679985D01*
X134900397Y-133564423D01*
X134924800Y-133441742D01*
X134924800Y-133316658D01*
X134900397Y-133193977D01*
X134852529Y-133078415D01*
X134797800Y-132996507D01*
X134797800Y-130204200D01*
X139326928Y-130204200D01*
X139339188Y-130328682D01*
X139375498Y-130448380D01*
X139434463Y-130558694D01*
X139513815Y-130655385D01*
X139610506Y-130734737D01*
X139720820Y-130793702D01*
X139840518Y-130830012D01*
X139965000Y-130842272D01*
X140049250Y-130839200D01*
X140208000Y-130680450D01*
X140208000Y-128871200D01*
X139488750Y-128871200D01*
X139330000Y-129029950D01*
X139326928Y-130204200D01*
X134797800Y-130204200D01*
X134797800Y-126917806D01*
X137614000Y-126917806D01*
X137614000Y-127140594D01*
X137657464Y-127359100D01*
X137742721Y-127564929D01*
X137866495Y-127750170D01*
X138024030Y-127907705D01*
X138209271Y-128031479D01*
X138415100Y-128116736D01*
X138633606Y-128160200D01*
X138856394Y-128160200D01*
X139074900Y-128116736D01*
X139280729Y-128031479D01*
X139328799Y-127999360D01*
X139330000Y-128458450D01*
X139488750Y-128617200D01*
X140208000Y-128617200D01*
X140208000Y-128597200D01*
X140462000Y-128597200D01*
X140462000Y-128617200D01*
X140482000Y-128617200D01*
X140482000Y-128871200D01*
X140462000Y-128871200D01*
X140462000Y-130680450D01*
X140620750Y-130839200D01*
X140705000Y-130842272D01*
X140829482Y-130830012D01*
X140949180Y-130793702D01*
X141059494Y-130734737D01*
X141156185Y-130655385D01*
X141213971Y-130584972D01*
X141235000Y-130587043D01*
X141975000Y-130587043D01*
X141996029Y-130584972D01*
X142053815Y-130655385D01*
X142150506Y-130734737D01*
X142260820Y-130793702D01*
X142380518Y-130830012D01*
X142505000Y-130842272D01*
X142589250Y-130839200D01*
X142748000Y-130680450D01*
X142748000Y-128871200D01*
X142728000Y-128871200D01*
X142728000Y-128617200D01*
X142748000Y-128617200D01*
X142748000Y-128597200D01*
X143002000Y-128597200D01*
X143002000Y-128617200D01*
X143022000Y-128617200D01*
X143022000Y-128871200D01*
X143002000Y-128871200D01*
X143002000Y-130680450D01*
X143160750Y-130839200D01*
X143245000Y-130842272D01*
X143369482Y-130830012D01*
X143489180Y-130793702D01*
X143599494Y-130734737D01*
X143696185Y-130655385D01*
X143753971Y-130584972D01*
X143775000Y-130587043D01*
X144515000Y-130587043D01*
X144589689Y-130579687D01*
X144661508Y-130557901D01*
X144727696Y-130522522D01*
X144780000Y-130479598D01*
X144832304Y-130522522D01*
X144898492Y-130557901D01*
X144970311Y-130579687D01*
X145045000Y-130587043D01*
X145785000Y-130587043D01*
X145859689Y-130579687D01*
X145931508Y-130557901D01*
X145997696Y-130522522D01*
X146050000Y-130479598D01*
X146102304Y-130522522D01*
X146168492Y-130557901D01*
X146240311Y-130579687D01*
X146315000Y-130587043D01*
X147055000Y-130587043D01*
X147129689Y-130579687D01*
X147201508Y-130557901D01*
X147267696Y-130522522D01*
X147320000Y-130479598D01*
X147372304Y-130522522D01*
X147438492Y-130557901D01*
X147510311Y-130579687D01*
X147585000Y-130587043D01*
X148325000Y-130587043D01*
X148399689Y-130579687D01*
X148471508Y-130557901D01*
X148537696Y-130522522D01*
X148590000Y-130479598D01*
X148642304Y-130522522D01*
X148708492Y-130557901D01*
X148780311Y-130579687D01*
X148855000Y-130587043D01*
X149595000Y-130587043D01*
X149669689Y-130579687D01*
X149741508Y-130557901D01*
X149807696Y-130522522D01*
X149860000Y-130479598D01*
X149912304Y-130522522D01*
X149978492Y-130557901D01*
X150050311Y-130579687D01*
X150125000Y-130587043D01*
X150865000Y-130587043D01*
X150886029Y-130584972D01*
X150943815Y-130655385D01*
X151040506Y-130734737D01*
X151150820Y-130793702D01*
X151270518Y-130830012D01*
X151395000Y-130842272D01*
X151479250Y-130839200D01*
X151638000Y-130680450D01*
X151638000Y-128871200D01*
X151618000Y-128871200D01*
X151618000Y-128617200D01*
X151638000Y-128617200D01*
X151638000Y-125441200D01*
X151618000Y-125441200D01*
X151618000Y-125187200D01*
X151638000Y-125187200D01*
X151638000Y-123377950D01*
X151892000Y-123377950D01*
X151892000Y-125187200D01*
X151912000Y-125187200D01*
X151912000Y-125441200D01*
X151892000Y-125441200D01*
X151892000Y-128617200D01*
X151912000Y-128617200D01*
X151912000Y-128871200D01*
X151892000Y-128871200D01*
X151892000Y-130680450D01*
X152050750Y-130839200D01*
X152135000Y-130842272D01*
X152259482Y-130830012D01*
X152379180Y-130793702D01*
X152489494Y-130734737D01*
X152527001Y-130703956D01*
X152527001Y-130814246D01*
X152524543Y-130839200D01*
X152533084Y-130925906D01*
X152534352Y-130938785D01*
X152557340Y-131014566D01*
X152563400Y-131034543D01*
X152610571Y-131122795D01*
X152646187Y-131166193D01*
X152674053Y-131200148D01*
X152693430Y-131216050D01*
X154944149Y-133466770D01*
X154960052Y-133486148D01*
X154979429Y-133502050D01*
X155037404Y-133549629D01*
X155102535Y-133584442D01*
X155125657Y-133596801D01*
X155221415Y-133625849D01*
X155296053Y-133633200D01*
X155296055Y-133633200D01*
X155320999Y-133635657D01*
X155345943Y-133633200D01*
X158920580Y-133633200D01*
X159731908Y-134444529D01*
X159711271Y-134475415D01*
X159663403Y-134590977D01*
X159639000Y-134713658D01*
X159639000Y-134838742D01*
X159663403Y-134961423D01*
X159711271Y-135076985D01*
X159780764Y-135180989D01*
X159869211Y-135269436D01*
X159973215Y-135338929D01*
X160088777Y-135386797D01*
X160211458Y-135411200D01*
X160336542Y-135411200D01*
X160459223Y-135386797D01*
X160574785Y-135338929D01*
X160678789Y-135269436D01*
X160767236Y-135180989D01*
X160836729Y-135076985D01*
X160884597Y-134961423D01*
X160909000Y-134838742D01*
X160909000Y-134713658D01*
X160884597Y-134590977D01*
X160836729Y-134475415D01*
X160782000Y-134393507D01*
X160782000Y-134293143D01*
X160784457Y-134268199D01*
X160782000Y-134243253D01*
X160774649Y-134168615D01*
X160745601Y-134072857D01*
X160714248Y-134014200D01*
X160698429Y-133984604D01*
X160650850Y-133926629D01*
X160634948Y-133907252D01*
X160615571Y-133891350D01*
X160103421Y-133379200D01*
X160209542Y-133379200D01*
X160332223Y-133354797D01*
X160447785Y-133306929D01*
X160551789Y-133237436D01*
X160640236Y-133148989D01*
X160709729Y-133044985D01*
X160757597Y-132929423D01*
X160782000Y-132806742D01*
X160782000Y-132681658D01*
X160757597Y-132558977D01*
X160709729Y-132443415D01*
X160640236Y-132339411D01*
X160551789Y-132250964D01*
X160447785Y-132181471D01*
X160332223Y-132133603D01*
X160235904Y-132114444D01*
X160176595Y-132065771D01*
X160088343Y-132018599D01*
X159992585Y-131989551D01*
X159917947Y-131982200D01*
X159917944Y-131982200D01*
X159893000Y-131979743D01*
X159868056Y-131982200D01*
X155912421Y-131982200D01*
X154813000Y-130882780D01*
X154813000Y-130560482D01*
X154821508Y-130557901D01*
X154887696Y-130522522D01*
X154940000Y-130479598D01*
X154992304Y-130522522D01*
X155058492Y-130557901D01*
X155130311Y-130579687D01*
X155205000Y-130587043D01*
X155945000Y-130587043D01*
X156019689Y-130579687D01*
X156091508Y-130557901D01*
X156157696Y-130522522D01*
X156210000Y-130479598D01*
X156262304Y-130522522D01*
X156328492Y-130557901D01*
X156400311Y-130579687D01*
X156475000Y-130587043D01*
X157215000Y-130587043D01*
X157289689Y-130579687D01*
X157361508Y-130557901D01*
X157427696Y-130522522D01*
X157480000Y-130479598D01*
X157532304Y-130522522D01*
X157598492Y-130557901D01*
X157670311Y-130579687D01*
X157745000Y-130587043D01*
X158485000Y-130587043D01*
X158559689Y-130579687D01*
X158631508Y-130557901D01*
X158697696Y-130522522D01*
X158750000Y-130479598D01*
X158802304Y-130522522D01*
X158868492Y-130557901D01*
X158940311Y-130579687D01*
X159015000Y-130587043D01*
X159755000Y-130587043D01*
X159829689Y-130579687D01*
X159901508Y-130557901D01*
X159967696Y-130522522D01*
X160020000Y-130479598D01*
X160072304Y-130522522D01*
X160138492Y-130557901D01*
X160210311Y-130579687D01*
X160285000Y-130587043D01*
X161025000Y-130587043D01*
X161099689Y-130579687D01*
X161171508Y-130557901D01*
X161237696Y-130522522D01*
X161290000Y-130479598D01*
X161342304Y-130522522D01*
X161408492Y-130557901D01*
X161480311Y-130579687D01*
X161555000Y-130587043D01*
X162295000Y-130587043D01*
X162316029Y-130584972D01*
X162373815Y-130655385D01*
X162470506Y-130734737D01*
X162580820Y-130793702D01*
X162700518Y-130830012D01*
X162825000Y-130842272D01*
X162909250Y-130839200D01*
X163068000Y-130680450D01*
X163068000Y-128871200D01*
X163048000Y-128871200D01*
X163048000Y-128617200D01*
X163068000Y-128617200D01*
X163068000Y-128597200D01*
X163322000Y-128597200D01*
X163322000Y-128617200D01*
X163342000Y-128617200D01*
X163342000Y-128871200D01*
X163322000Y-128871200D01*
X163322000Y-130680450D01*
X163480750Y-130839200D01*
X163565000Y-130842272D01*
X163689482Y-130830012D01*
X163809180Y-130793702D01*
X163919494Y-130734737D01*
X164016185Y-130655385D01*
X164073971Y-130584972D01*
X164095000Y-130587043D01*
X164835000Y-130587043D01*
X164909689Y-130579687D01*
X164981508Y-130557901D01*
X165047696Y-130522522D01*
X165105711Y-130474911D01*
X165153322Y-130416896D01*
X165188701Y-130350708D01*
X165210487Y-130278889D01*
X165217843Y-130204200D01*
X165217843Y-127791518D01*
X165334030Y-127907705D01*
X165519271Y-128031479D01*
X165725100Y-128116736D01*
X165943606Y-128160200D01*
X166166394Y-128160200D01*
X166384900Y-128116736D01*
X166590729Y-128031479D01*
X166775970Y-127907705D01*
X166933505Y-127750170D01*
X167057279Y-127564929D01*
X167142536Y-127359100D01*
X167186000Y-127140594D01*
X167186000Y-126917806D01*
X167142536Y-126699300D01*
X167057279Y-126493471D01*
X166933505Y-126308230D01*
X166775970Y-126150695D01*
X166590729Y-126026921D01*
X166384900Y-125941664D01*
X166166394Y-125898200D01*
X165943606Y-125898200D01*
X165725100Y-125941664D01*
X165519271Y-126026921D01*
X165471201Y-126059040D01*
X165470000Y-125599950D01*
X165311250Y-125441200D01*
X164592000Y-125441200D01*
X164592000Y-125461200D01*
X164338000Y-125461200D01*
X164338000Y-125441200D01*
X164318000Y-125441200D01*
X164318000Y-125187200D01*
X164338000Y-125187200D01*
X164338000Y-123377950D01*
X164592000Y-123377950D01*
X164592000Y-125187200D01*
X165311250Y-125187200D01*
X165470000Y-125028450D01*
X165473072Y-123854200D01*
X165460812Y-123729718D01*
X165424502Y-123610020D01*
X165365537Y-123499706D01*
X165286185Y-123403015D01*
X165189494Y-123323663D01*
X165079180Y-123264698D01*
X164959482Y-123228388D01*
X164835000Y-123216128D01*
X164750750Y-123219200D01*
X164592000Y-123377950D01*
X164338000Y-123377950D01*
X164179250Y-123219200D01*
X164095000Y-123216128D01*
X163970518Y-123228388D01*
X163850820Y-123264698D01*
X163740506Y-123323663D01*
X163643815Y-123403015D01*
X163586029Y-123473428D01*
X163565000Y-123471357D01*
X162825000Y-123471357D01*
X162803971Y-123473428D01*
X162746185Y-123403015D01*
X162649494Y-123323663D01*
X162539180Y-123264698D01*
X162419482Y-123228388D01*
X162295000Y-123216128D01*
X162210750Y-123219200D01*
X162052000Y-123377950D01*
X162052000Y-125187200D01*
X162072000Y-125187200D01*
X162072000Y-125441200D01*
X162052000Y-125441200D01*
X162052000Y-125461200D01*
X161798000Y-125461200D01*
X161798000Y-125441200D01*
X161778000Y-125441200D01*
X161778000Y-125187200D01*
X161798000Y-125187200D01*
X161798000Y-123377950D01*
X161639250Y-123219200D01*
X161555000Y-123216128D01*
X161430518Y-123228388D01*
X161310820Y-123264698D01*
X161200506Y-123323663D01*
X161103815Y-123403015D01*
X161046029Y-123473428D01*
X161025000Y-123471357D01*
X160285000Y-123471357D01*
X160210311Y-123478713D01*
X160138492Y-123500499D01*
X160072304Y-123535878D01*
X160020000Y-123578802D01*
X159967696Y-123535878D01*
X159901508Y-123500499D01*
X159829689Y-123478713D01*
X159755000Y-123471357D01*
X159015000Y-123471357D01*
X158940311Y-123478713D01*
X158868492Y-123500499D01*
X158802304Y-123535878D01*
X158750000Y-123578802D01*
X158697696Y-123535878D01*
X158631508Y-123500499D01*
X158559689Y-123478713D01*
X158485000Y-123471357D01*
X157745000Y-123471357D01*
X157670311Y-123478713D01*
X157598492Y-123500499D01*
X157532304Y-123535878D01*
X157480000Y-123578802D01*
X157427696Y-123535878D01*
X157361508Y-123500499D01*
X157289689Y-123478713D01*
X157215000Y-123471357D01*
X156475000Y-123471357D01*
X156400311Y-123478713D01*
X156328492Y-123500499D01*
X156262304Y-123535878D01*
X156210000Y-123578802D01*
X156157696Y-123535878D01*
X156091508Y-123500499D01*
X156019689Y-123478713D01*
X155945000Y-123471357D01*
X155205000Y-123471357D01*
X155130311Y-123478713D01*
X155058492Y-123500499D01*
X154992304Y-123535878D01*
X154940000Y-123578802D01*
X154887696Y-123535878D01*
X154821508Y-123500499D01*
X154749689Y-123478713D01*
X154675000Y-123471357D01*
X153935000Y-123471357D01*
X153860311Y-123478713D01*
X153788492Y-123500499D01*
X153722304Y-123535878D01*
X153670000Y-123578802D01*
X153617696Y-123535878D01*
X153551508Y-123500499D01*
X153479689Y-123478713D01*
X153405000Y-123471357D01*
X152665000Y-123471357D01*
X152643971Y-123473428D01*
X152586185Y-123403015D01*
X152489494Y-123323663D01*
X152379180Y-123264698D01*
X152259482Y-123228388D01*
X152135000Y-123216128D01*
X152050750Y-123219200D01*
X151892000Y-123377950D01*
X151638000Y-123377950D01*
X151479250Y-123219200D01*
X151395000Y-123216128D01*
X151270518Y-123228388D01*
X151150820Y-123264698D01*
X151040506Y-123323663D01*
X150943815Y-123403015D01*
X150886029Y-123473428D01*
X150865000Y-123471357D01*
X150125000Y-123471357D01*
X150050311Y-123478713D01*
X149978492Y-123500499D01*
X149912304Y-123535878D01*
X149860000Y-123578802D01*
X149807696Y-123535878D01*
X149741508Y-123500499D01*
X149669689Y-123478713D01*
X149595000Y-123471357D01*
X148855000Y-123471357D01*
X148780311Y-123478713D01*
X148708492Y-123500499D01*
X148642304Y-123535878D01*
X148590000Y-123578802D01*
X148537696Y-123535878D01*
X148471508Y-123500499D01*
X148399689Y-123478713D01*
X148325000Y-123471357D01*
X147585000Y-123471357D01*
X147510311Y-123478713D01*
X147438492Y-123500499D01*
X147372304Y-123535878D01*
X147320000Y-123578802D01*
X147267696Y-123535878D01*
X147201508Y-123500499D01*
X147129689Y-123478713D01*
X147055000Y-123471357D01*
X146315000Y-123471357D01*
X146240311Y-123478713D01*
X146168492Y-123500499D01*
X146102304Y-123535878D01*
X146050000Y-123578802D01*
X145997696Y-123535878D01*
X145931508Y-123500499D01*
X145859689Y-123478713D01*
X145785000Y-123471357D01*
X145045000Y-123471357D01*
X144970311Y-123478713D01*
X144898492Y-123500499D01*
X144832304Y-123535878D01*
X144780000Y-123578802D01*
X144727696Y-123535878D01*
X144661508Y-123500499D01*
X144589689Y-123478713D01*
X144515000Y-123471357D01*
X143775000Y-123471357D01*
X143700311Y-123478713D01*
X143628492Y-123500499D01*
X143562304Y-123535878D01*
X143510000Y-123578802D01*
X143457696Y-123535878D01*
X143391508Y-123500499D01*
X143319689Y-123478713D01*
X143245000Y-123471357D01*
X142505000Y-123471357D01*
X142483971Y-123473428D01*
X142426185Y-123403015D01*
X142329494Y-123323663D01*
X142219180Y-123264698D01*
X142099482Y-123228388D01*
X141975000Y-123216128D01*
X141890750Y-123219200D01*
X141732000Y-123377950D01*
X141732000Y-125187200D01*
X141752000Y-125187200D01*
X141752000Y-125441200D01*
X141732000Y-125441200D01*
X141732000Y-125461200D01*
X141478000Y-125461200D01*
X141478000Y-125441200D01*
X141458000Y-125441200D01*
X141458000Y-125187200D01*
X141478000Y-125187200D01*
X141478000Y-123377950D01*
X141319250Y-123219200D01*
X141235000Y-123216128D01*
X141110518Y-123228388D01*
X140990820Y-123264698D01*
X140880506Y-123323663D01*
X140783815Y-123403015D01*
X140726029Y-123473428D01*
X140705000Y-123471357D01*
X139965000Y-123471357D01*
X139890311Y-123478713D01*
X139818492Y-123500499D01*
X139752304Y-123535878D01*
X139694289Y-123583489D01*
X139646678Y-123641504D01*
X139611299Y-123707692D01*
X139589513Y-123779511D01*
X139582157Y-123854200D01*
X139582157Y-126266882D01*
X139465970Y-126150695D01*
X139280729Y-126026921D01*
X139074900Y-125941664D01*
X138856394Y-125898200D01*
X138633606Y-125898200D01*
X138415100Y-125941664D01*
X138209271Y-126026921D01*
X138024030Y-126150695D01*
X137866495Y-126308230D01*
X137742721Y-126493471D01*
X137657464Y-126699300D01*
X137614000Y-126917806D01*
X134797800Y-126917806D01*
X134797800Y-118019420D01*
X136582062Y-116235158D01*
X142557500Y-116235158D01*
X142557500Y-116360242D01*
X142581903Y-116482923D01*
X142629771Y-116598485D01*
X142699264Y-116702489D01*
X142787711Y-116790936D01*
X142891715Y-116860429D01*
X143007277Y-116908297D01*
X143129958Y-116932700D01*
X143255042Y-116932700D01*
X143377723Y-116908297D01*
X143493285Y-116860429D01*
X143510000Y-116849260D01*
X143526715Y-116860429D01*
X143642277Y-116908297D01*
X143764958Y-116932700D01*
X143890042Y-116932700D01*
X144012723Y-116908297D01*
X144128285Y-116860429D01*
X144232289Y-116790936D01*
X144320736Y-116702489D01*
X144390229Y-116598485D01*
X144438097Y-116482923D01*
X144462500Y-116360242D01*
X144462500Y-116235158D01*
X144438097Y-116112477D01*
X144390229Y-115996915D01*
X144320736Y-115892911D01*
X144232289Y-115804464D01*
X144145000Y-115746140D01*
X144145000Y-115663658D01*
X144120597Y-115540977D01*
X144072729Y-115425415D01*
X144003236Y-115321411D01*
X143914789Y-115232964D01*
X143810785Y-115163471D01*
X143695223Y-115115603D01*
X143572542Y-115091200D01*
X143447458Y-115091200D01*
X143324777Y-115115603D01*
X143209215Y-115163471D01*
X143105211Y-115232964D01*
X143016764Y-115321411D01*
X142947271Y-115425415D01*
X142899403Y-115540977D01*
X142875000Y-115663658D01*
X142875000Y-115746140D01*
X142787711Y-115804464D01*
X142699264Y-115892911D01*
X142629771Y-115996915D01*
X142581903Y-116112477D01*
X142557500Y-116235158D01*
X136582062Y-116235158D01*
X139351620Y-113465600D01*
X147109580Y-113465600D01*
X147502984Y-113859004D01*
X147522203Y-113955623D01*
X147570071Y-114071185D01*
X147639564Y-114175189D01*
X147728011Y-114263636D01*
X147832015Y-114333129D01*
X147947577Y-114380997D01*
X148070258Y-114405400D01*
X148195342Y-114405400D01*
X148318023Y-114380997D01*
X148433585Y-114333129D01*
X148537589Y-114263636D01*
X148626036Y-114175189D01*
X148695529Y-114071185D01*
X148743397Y-113955623D01*
X148767800Y-113832942D01*
X148767800Y-113707858D01*
X148743397Y-113585177D01*
X148695529Y-113469615D01*
X148626036Y-113365611D01*
X148537589Y-113277164D01*
X148433585Y-113207671D01*
X148318023Y-113159803D01*
X148221404Y-113140584D01*
X147696855Y-112616035D01*
X147680948Y-112596652D01*
X147603595Y-112533171D01*
X147515343Y-112485999D01*
X147419585Y-112456951D01*
X147344947Y-112449600D01*
X147344944Y-112449600D01*
X147320000Y-112447143D01*
X147295056Y-112449600D01*
X139166144Y-112449600D01*
X139141200Y-112447143D01*
X139116256Y-112449600D01*
X139116253Y-112449600D01*
X139041615Y-112456951D01*
X138945857Y-112485999D01*
X138857605Y-112533171D01*
X138780252Y-112596652D01*
X138764345Y-112616035D01*
X133948235Y-117432145D01*
X133928852Y-117448052D01*
X133865371Y-117525405D01*
X133818199Y-117613658D01*
X133789151Y-117709416D01*
X133781800Y-117784053D01*
X133779343Y-117809000D01*
X133781800Y-117833944D01*
X133781801Y-132996506D01*
X133727071Y-133078415D01*
X133679203Y-133193977D01*
X133654800Y-133316658D01*
X133654800Y-133441742D01*
X133679203Y-133564423D01*
X133727071Y-133679985D01*
X133738240Y-133696700D01*
X129369421Y-133696700D01*
X128689100Y-133016380D01*
X128689100Y-132070644D01*
X128691557Y-132045700D01*
X128686679Y-131996174D01*
X128681749Y-131946115D01*
X128652701Y-131850357D01*
X128605529Y-131762105D01*
X128542048Y-131684752D01*
X128522665Y-131668845D01*
X124252655Y-127398835D01*
X124236748Y-127379452D01*
X124159395Y-127315971D01*
X124071143Y-127268799D01*
X123975385Y-127239751D01*
X123900747Y-127232400D01*
X123900744Y-127232400D01*
X123875800Y-127229943D01*
X123850856Y-127232400D01*
X123483793Y-127232400D01*
X123401885Y-127177671D01*
X123286323Y-127129803D01*
X123163642Y-127105400D01*
X123038558Y-127105400D01*
X122915877Y-127129803D01*
X122809000Y-127174074D01*
X122809000Y-126153858D01*
X132511800Y-126153858D01*
X132511800Y-126278942D01*
X132536203Y-126401623D01*
X132584071Y-126517185D01*
X132653564Y-126621189D01*
X132742011Y-126709636D01*
X132846015Y-126779129D01*
X132961577Y-126826997D01*
X133084258Y-126851400D01*
X133209342Y-126851400D01*
X133332023Y-126826997D01*
X133447585Y-126779129D01*
X133551589Y-126709636D01*
X133640036Y-126621189D01*
X133709529Y-126517185D01*
X133757397Y-126401623D01*
X133781800Y-126278942D01*
X133781800Y-126153858D01*
X133757397Y-126031177D01*
X133709529Y-125915615D01*
X133640036Y-125811611D01*
X133551589Y-125723164D01*
X133447585Y-125653671D01*
X133332023Y-125605803D01*
X133209342Y-125581400D01*
X133084258Y-125581400D01*
X132961577Y-125605803D01*
X132846015Y-125653671D01*
X132742011Y-125723164D01*
X132653564Y-125811611D01*
X132584071Y-125915615D01*
X132536203Y-126031177D01*
X132511800Y-126153858D01*
X122809000Y-126153858D01*
X122809000Y-117765420D01*
X125998025Y-114576396D01*
X126078177Y-114609597D01*
X126200858Y-114634000D01*
X126325942Y-114634000D01*
X126448623Y-114609597D01*
X126564185Y-114561729D01*
X126668189Y-114492236D01*
X126756636Y-114403789D01*
X126826129Y-114299785D01*
X126873997Y-114184223D01*
X126898400Y-114061542D01*
X126898400Y-113936458D01*
X126873997Y-113813777D01*
X126826129Y-113698215D01*
X126756636Y-113594211D01*
X126668189Y-113505764D01*
X126564185Y-113436271D01*
X126448623Y-113388403D01*
X126325942Y-113364000D01*
X126200858Y-113364000D01*
X126078177Y-113388403D01*
X125962615Y-113436271D01*
X125880866Y-113490894D01*
X125856999Y-113488543D01*
X125832055Y-113491000D01*
X125832053Y-113491000D01*
X125757415Y-113498351D01*
X125661657Y-113527399D01*
X125661655Y-113527400D01*
X125573404Y-113574571D01*
X125549473Y-113594211D01*
X125496052Y-113638052D01*
X125480150Y-113657429D01*
X121959430Y-117178150D01*
X121940053Y-117194052D01*
X121924151Y-117213429D01*
X121924150Y-117213430D01*
X121876571Y-117271405D01*
X121849276Y-117322471D01*
X121829400Y-117359657D01*
X121800352Y-117455415D01*
X121799474Y-117464326D01*
X121790543Y-117555000D01*
X121793001Y-117579954D01*
X121793000Y-140466256D01*
X121790543Y-140491200D01*
X121793000Y-140516144D01*
X121793000Y-140516146D01*
X121800351Y-140590784D01*
X121829399Y-140686542D01*
X121876571Y-140774795D01*
X121940052Y-140852148D01*
X121959435Y-140868055D01*
X123625945Y-142534565D01*
X123641852Y-142553948D01*
X123719205Y-142617429D01*
X123807457Y-142664601D01*
X123903215Y-142693649D01*
X123977853Y-142701000D01*
X123977856Y-142701000D01*
X124002800Y-142703457D01*
X124027744Y-142701000D01*
X138600580Y-142701000D01*
X139293601Y-143394022D01*
X139293600Y-148440946D01*
X139293601Y-148440956D01*
X139293601Y-150023969D01*
X139254542Y-150016200D01*
X139129458Y-150016200D01*
X139006777Y-150040603D01*
X138891215Y-150088471D01*
X138787211Y-150157964D01*
X138698764Y-150246411D01*
X138629271Y-150350415D01*
X138581403Y-150465977D01*
X138557000Y-150588658D01*
X138557000Y-150713742D01*
X138581403Y-150836423D01*
X138629271Y-150951985D01*
X138698764Y-151055989D01*
X138715018Y-151072243D01*
X138637215Y-151104471D01*
X138555307Y-151159200D01*
X132353921Y-151159200D01*
X129472355Y-148277635D01*
X129456448Y-148258252D01*
X129379095Y-148194771D01*
X129290843Y-148147599D01*
X129195085Y-148118551D01*
X129120447Y-148111200D01*
X129120444Y-148111200D01*
X129095500Y-148108743D01*
X129070556Y-148111200D01*
X126965504Y-148111200D01*
X126000711Y-147146407D01*
X125942696Y-147098796D01*
X125876508Y-147063417D01*
X125804689Y-147041631D01*
X125730000Y-147034275D01*
X125655311Y-147041631D01*
X125583492Y-147063417D01*
X125517304Y-147098796D01*
X125459289Y-147146407D01*
X124257207Y-148348489D01*
X124209596Y-148406504D01*
X124174217Y-148472692D01*
X124152431Y-148544511D01*
X124145075Y-148619200D01*
X124152431Y-148693889D01*
X124174217Y-148765708D01*
X124209596Y-148831896D01*
X124257207Y-148889911D01*
X125459289Y-150091993D01*
X125517304Y-150139604D01*
X125583492Y-150174983D01*
X125655311Y-150196769D01*
X125730000Y-150204125D01*
X125804689Y-150196769D01*
X125876508Y-150174983D01*
X125942696Y-150139604D01*
X126000711Y-150091993D01*
X126965504Y-149127200D01*
X128885080Y-149127200D01*
X131766650Y-152008771D01*
X131782552Y-152028148D01*
X131801929Y-152044050D01*
X131859904Y-152091629D01*
X131896871Y-152111388D01*
X131948157Y-152138801D01*
X132043915Y-152167849D01*
X132118553Y-152175200D01*
X132118556Y-152175200D01*
X132143500Y-152177657D01*
X132168444Y-152175200D01*
X138555307Y-152175200D01*
X138637215Y-152229929D01*
X138752777Y-152277797D01*
X138875458Y-152302200D01*
X139000542Y-152302200D01*
X139123223Y-152277797D01*
X139238785Y-152229929D01*
X139293600Y-152193303D01*
X139293600Y-152853779D01*
X138494830Y-153652550D01*
X138475453Y-153668452D01*
X138459551Y-153687829D01*
X138459550Y-153687830D01*
X138411971Y-153745805D01*
X138396004Y-153775678D01*
X138364800Y-153834057D01*
X138340197Y-153915164D01*
X138335752Y-153929816D01*
X138325943Y-154029400D01*
X138328401Y-154054354D01*
X138328400Y-160252856D01*
X138325943Y-160277800D01*
X138328400Y-160302744D01*
X138328400Y-160302746D01*
X138335751Y-160377384D01*
X138364799Y-160473142D01*
X138411971Y-160561395D01*
X138475452Y-160638748D01*
X138494835Y-160654655D01*
X140616537Y-162776358D01*
X138734474Y-162113012D01*
X136497027Y-161157951D01*
X134325880Y-160060496D01*
X132230098Y-158825230D01*
X130218369Y-157457273D01*
X128299130Y-155962360D01*
X126480359Y-154346708D01*
X125380421Y-153234595D01*
X128478414Y-153234595D01*
X128555184Y-153482939D01*
X128690849Y-153555458D01*
X128965210Y-153652782D01*
X129253287Y-153694711D01*
X129544008Y-153679633D01*
X129826202Y-153608127D01*
X129981792Y-153534018D01*
X129934461Y-153648285D01*
X129887154Y-153886111D01*
X129887154Y-154128597D01*
X129934461Y-154366423D01*
X130027256Y-154590451D01*
X130161974Y-154792071D01*
X130333437Y-154963534D01*
X130535057Y-155098252D01*
X130610154Y-155129358D01*
X130610154Y-156014410D01*
X130607697Y-156039354D01*
X130610154Y-156064298D01*
X130610154Y-156064300D01*
X130617505Y-156138938D01*
X130646553Y-156234696D01*
X130693725Y-156322949D01*
X130757206Y-156400302D01*
X130776589Y-156416209D01*
X132084149Y-157723770D01*
X132100052Y-157743148D01*
X132119429Y-157759050D01*
X132177404Y-157806629D01*
X132215093Y-157826774D01*
X132265657Y-157853801D01*
X132361415Y-157882849D01*
X132436053Y-157890200D01*
X132436055Y-157890200D01*
X132460999Y-157892657D01*
X132485943Y-157890200D01*
X135095380Y-157890200D01*
X136977838Y-159772659D01*
X136993903Y-159853423D01*
X137041771Y-159968985D01*
X137111264Y-160072989D01*
X137199711Y-160161436D01*
X137303715Y-160230929D01*
X137419277Y-160278797D01*
X137541958Y-160303200D01*
X137667042Y-160303200D01*
X137789723Y-160278797D01*
X137905285Y-160230929D01*
X138009289Y-160161436D01*
X138097736Y-160072989D01*
X138167229Y-159968985D01*
X138215097Y-159853423D01*
X138239500Y-159730742D01*
X138239500Y-159605658D01*
X138215097Y-159482977D01*
X138167229Y-159367415D01*
X138097736Y-159263411D01*
X138009289Y-159174964D01*
X137905285Y-159105471D01*
X137789723Y-159057603D01*
X137677252Y-159035231D01*
X137675221Y-159033200D01*
X137730542Y-159033200D01*
X137853223Y-159008797D01*
X137968785Y-158960929D01*
X138072789Y-158891436D01*
X138161236Y-158802989D01*
X138230729Y-158698985D01*
X138278597Y-158583423D01*
X138303000Y-158460742D01*
X138303000Y-158335658D01*
X138278597Y-158212977D01*
X138230729Y-158097415D01*
X138161236Y-157993411D01*
X138072789Y-157904964D01*
X137968785Y-157835471D01*
X137853223Y-157787603D01*
X137730542Y-157763200D01*
X137726021Y-157763200D01*
X135514863Y-155552043D01*
X135497634Y-155519810D01*
X135434153Y-155442457D01*
X135356800Y-155378976D01*
X135268548Y-155331804D01*
X135172790Y-155302756D01*
X135098152Y-155295405D01*
X134036209Y-155295405D01*
X134005103Y-155220308D01*
X133870385Y-155018688D01*
X133698922Y-154847225D01*
X133497302Y-154712507D01*
X133273274Y-154619712D01*
X133035448Y-154572405D01*
X132792962Y-154572405D01*
X132555136Y-154619712D01*
X132331108Y-154712507D01*
X132129488Y-154847225D01*
X131958025Y-155018688D01*
X131823307Y-155220308D01*
X131730512Y-155444336D01*
X131683205Y-155682162D01*
X131683205Y-155885985D01*
X131626154Y-155828934D01*
X131626154Y-155129358D01*
X131701251Y-155098252D01*
X131902871Y-154963534D01*
X132074334Y-154792071D01*
X132209052Y-154590451D01*
X132301847Y-154366423D01*
X132349154Y-154128597D01*
X132349154Y-153886111D01*
X132301847Y-153648285D01*
X132209052Y-153424257D01*
X132074334Y-153222637D01*
X131902871Y-153051174D01*
X131701251Y-152916456D01*
X131477223Y-152823661D01*
X131239397Y-152776354D01*
X130996911Y-152776354D01*
X130759085Y-152823661D01*
X130644818Y-152870992D01*
X130718927Y-152715402D01*
X130790433Y-152433208D01*
X130805511Y-152142487D01*
X130763582Y-151854410D01*
X130666258Y-151580049D01*
X130593739Y-151444384D01*
X130345395Y-151367614D01*
X129501707Y-152211302D01*
X129515850Y-152225445D01*
X129336245Y-152405050D01*
X129322102Y-152390907D01*
X128478414Y-153234595D01*
X125380421Y-153234595D01*
X124769644Y-152617059D01*
X123174100Y-150780600D01*
X122803622Y-150294008D01*
X126295051Y-150294008D01*
X126295051Y-150536494D01*
X126342358Y-150774320D01*
X126435153Y-150998348D01*
X126569871Y-151199968D01*
X126741334Y-151371431D01*
X126942954Y-151506149D01*
X127166982Y-151598944D01*
X127404808Y-151646251D01*
X127647294Y-151646251D01*
X127885120Y-151598944D01*
X127999385Y-151551614D01*
X127925277Y-151707202D01*
X127853771Y-151989396D01*
X127838693Y-152280117D01*
X127880622Y-152568194D01*
X127977946Y-152842555D01*
X128050465Y-152978220D01*
X128298809Y-153054990D01*
X129142497Y-152211302D01*
X129128355Y-152197160D01*
X129307960Y-152017555D01*
X129322102Y-152031697D01*
X130165790Y-151188009D01*
X130089020Y-150939665D01*
X129953355Y-150867146D01*
X129678994Y-150769822D01*
X129390917Y-150727893D01*
X129100196Y-150742971D01*
X128818002Y-150814477D01*
X128662414Y-150888585D01*
X128709744Y-150774320D01*
X128757051Y-150536494D01*
X128757051Y-150294008D01*
X128709744Y-150056182D01*
X128616949Y-149832154D01*
X128482231Y-149630534D01*
X128310768Y-149459071D01*
X128109148Y-149324353D01*
X127885120Y-149231558D01*
X127647294Y-149184251D01*
X127404808Y-149184251D01*
X127166982Y-149231558D01*
X126942954Y-149324353D01*
X126741334Y-149459071D01*
X126569871Y-149630534D01*
X126435153Y-149832154D01*
X126342358Y-150056182D01*
X126295051Y-150294008D01*
X122803622Y-150294008D01*
X121700405Y-148845025D01*
X120354686Y-146818378D01*
X119142555Y-144709111D01*
X119083428Y-144588867D01*
X132679390Y-144588867D01*
X132679390Y-144971133D01*
X132753966Y-145346055D01*
X132900254Y-145699224D01*
X133112630Y-146017067D01*
X133382933Y-146287370D01*
X133700776Y-146499746D01*
X134053945Y-146646034D01*
X134428867Y-146720610D01*
X134811133Y-146720610D01*
X135186055Y-146646034D01*
X135539224Y-146499746D01*
X135857067Y-146287370D01*
X136127370Y-146017067D01*
X136339746Y-145699224D01*
X136486034Y-145346055D01*
X136560610Y-144971133D01*
X136560610Y-144588867D01*
X136486034Y-144213945D01*
X136339746Y-143860776D01*
X136127370Y-143542933D01*
X135857067Y-143272630D01*
X135539224Y-143060254D01*
X135186055Y-142913966D01*
X134811133Y-142839390D01*
X134428867Y-142839390D01*
X134053945Y-142913966D01*
X133700776Y-143060254D01*
X133382933Y-143272630D01*
X133112630Y-143542933D01*
X132900254Y-143860776D01*
X132753966Y-144213945D01*
X132679390Y-144588867D01*
X119083428Y-144588867D01*
X118069066Y-142526016D01*
X117138695Y-140278199D01*
X116355317Y-137975020D01*
X115722209Y-135626113D01*
X115241994Y-133241220D01*
X114916686Y-130830323D01*
X114747636Y-128403446D01*
X114735549Y-125970735D01*
X114880478Y-123542298D01*
X115181815Y-121128293D01*
X115638305Y-118738766D01*
X116248051Y-116383654D01*
X117008504Y-114072810D01*
X117916493Y-111815867D01*
X118968237Y-109622216D01*
X119305955Y-109020786D01*
X132597350Y-109020786D01*
X132597350Y-109419214D01*
X132675079Y-109809985D01*
X132827551Y-110178084D01*
X133048905Y-110509364D01*
X133330636Y-110791095D01*
X133661916Y-111012449D01*
X134030015Y-111164921D01*
X134420786Y-111242650D01*
X134819214Y-111242650D01*
X135209985Y-111164921D01*
X135578084Y-111012449D01*
X135909364Y-110791095D01*
X136191095Y-110509364D01*
X136412449Y-110178084D01*
X136564921Y-109809985D01*
X136642650Y-109419214D01*
X136642650Y-109028867D01*
X168239390Y-109028867D01*
X168239390Y-109411133D01*
X168313966Y-109786055D01*
X168460254Y-110139224D01*
X168672630Y-110457067D01*
X168942933Y-110727370D01*
X169260776Y-110939746D01*
X169613945Y-111086034D01*
X169988867Y-111160610D01*
X170371133Y-111160610D01*
X170746055Y-111086034D01*
X171099224Y-110939746D01*
X171417067Y-110727370D01*
X171687370Y-110457067D01*
X171899746Y-110139224D01*
X172046034Y-109786055D01*
X172120610Y-109411133D01*
X172120610Y-109028867D01*
X172046034Y-108653945D01*
X171899746Y-108300776D01*
X171687370Y-107982933D01*
X171417067Y-107712630D01*
X171099224Y-107500254D01*
X170746055Y-107353966D01*
X170371133Y-107279390D01*
X169988867Y-107279390D01*
X169613945Y-107353966D01*
X169260776Y-107500254D01*
X168942933Y-107712630D01*
X168672630Y-107982933D01*
X168460254Y-108300776D01*
X168313966Y-108653945D01*
X168239390Y-109028867D01*
X136642650Y-109028867D01*
X136642650Y-109020786D01*
X136564921Y-108630015D01*
X136412449Y-108261916D01*
X136191095Y-107930636D01*
X135909364Y-107648905D01*
X135578084Y-107427551D01*
X135209985Y-107275079D01*
X134819214Y-107197350D01*
X134420786Y-107197350D01*
X134030015Y-107275079D01*
X133661916Y-107427551D01*
X133330636Y-107648905D01*
X133048905Y-107930636D01*
X132827551Y-108261916D01*
X132675079Y-108630015D01*
X132597350Y-109020786D01*
X119305955Y-109020786D01*
X120159348Y-107501010D01*
X121484867Y-105461088D01*
X122939265Y-103510954D01*
X124516461Y-101658760D01*
X126209923Y-99912179D01*
X128012547Y-98278539D01*
X129916848Y-96764622D01*
X131914865Y-95376758D01*
X133998281Y-94120722D01*
X136158410Y-93001750D01*
X138386265Y-92024502D01*
X140672519Y-91193067D01*
X143007656Y-90510904D01*
X145381962Y-89980852D01*
X147785518Y-89605124D01*
X150208321Y-89385285D01*
X152640253Y-89322255D01*
X155071196Y-89416294D01*
G36*
X173659800Y-135938819D02*
G01*
X173656729Y-135970000D01*
X173659800Y-136001181D01*
X173659800Y-136001191D01*
X173668988Y-136094481D01*
X173705298Y-136214179D01*
X173764263Y-136324493D01*
X173843615Y-136421185D01*
X173867850Y-136441074D01*
X173928562Y-136501786D01*
X173928564Y-136501789D01*
X174017011Y-136590236D01*
X174043082Y-136607656D01*
X174067307Y-136627537D01*
X174094948Y-136642312D01*
X174121015Y-136659729D01*
X174149976Y-136671725D01*
X174177621Y-136686502D01*
X174207615Y-136695600D01*
X174236577Y-136707597D01*
X174267328Y-136713714D01*
X174297318Y-136722811D01*
X174328503Y-136725882D01*
X174359258Y-136732000D01*
X174390618Y-136732000D01*
X174421799Y-136735071D01*
X174421800Y-136735071D01*
X174421800Y-139798179D01*
X173449380Y-140770600D01*
X168757143Y-140770600D01*
X168732199Y-140768143D01*
X168707255Y-140770600D01*
X168707253Y-140770600D01*
X168632615Y-140777951D01*
X168536857Y-140806999D01*
X168512929Y-140819789D01*
X168448604Y-140854171D01*
X168428599Y-140870589D01*
X168371252Y-140917652D01*
X168355350Y-140937029D01*
X167233600Y-142058779D01*
X167233600Y-133784411D01*
X167238877Y-133786597D01*
X167361558Y-133811000D01*
X167486642Y-133811000D01*
X167609323Y-133786597D01*
X167724885Y-133738729D01*
X167828889Y-133669236D01*
X167917336Y-133580789D01*
X167986829Y-133476785D01*
X168034697Y-133361223D01*
X168059100Y-133238542D01*
X168059100Y-133113458D01*
X168034697Y-132990777D01*
X167995600Y-132896390D01*
X167995600Y-132422122D01*
X168833184Y-131584539D01*
X168835345Y-131583384D01*
X168922367Y-131511967D01*
X168940270Y-131490152D01*
X169113338Y-131317084D01*
X169134671Y-131368585D01*
X169204164Y-131472589D01*
X169292611Y-131561036D01*
X169396615Y-131630529D01*
X169449184Y-131652304D01*
X170312184Y-132515305D01*
X170331403Y-132611923D01*
X170379271Y-132727485D01*
X170448764Y-132831489D01*
X170537211Y-132919936D01*
X170641215Y-132989429D01*
X170756777Y-133037297D01*
X170879458Y-133061700D01*
X171004542Y-133061700D01*
X171127223Y-133037297D01*
X171242785Y-132989429D01*
X171346789Y-132919936D01*
X171435236Y-132831489D01*
X171504729Y-132727485D01*
X171552597Y-132611923D01*
X171577000Y-132489242D01*
X171577000Y-132364158D01*
X171552597Y-132241477D01*
X171504729Y-132125915D01*
X171435236Y-132021911D01*
X171346789Y-131933464D01*
X171242785Y-131863971D01*
X171127223Y-131816103D01*
X171030605Y-131796884D01*
X170332400Y-131098680D01*
X170332400Y-131005258D01*
X170307997Y-130882577D01*
X170260129Y-130767015D01*
X170190636Y-130663011D01*
X170176325Y-130648700D01*
X170502078Y-130648700D01*
X171165673Y-131312296D01*
X171204771Y-131406685D01*
X171274264Y-131510689D01*
X171362711Y-131599136D01*
X171466715Y-131668629D01*
X171582277Y-131716497D01*
X171704958Y-131740900D01*
X171830042Y-131740900D01*
X171952723Y-131716497D01*
X172068285Y-131668629D01*
X172172289Y-131599136D01*
X172260736Y-131510689D01*
X172330229Y-131406685D01*
X172378097Y-131291123D01*
X172402500Y-131168442D01*
X172402500Y-131043358D01*
X172378097Y-130920677D01*
X172330229Y-130805115D01*
X172260736Y-130701111D01*
X172172289Y-130612664D01*
X172068285Y-130543171D01*
X171973896Y-130504073D01*
X171162770Y-129692948D01*
X171144867Y-129671133D01*
X171057845Y-129599716D01*
X170958562Y-129546648D01*
X170850834Y-129513969D01*
X170766874Y-129505700D01*
X170738800Y-129502935D01*
X170710726Y-129505700D01*
X169691920Y-129505700D01*
X173366371Y-125831250D01*
X173385748Y-125815348D01*
X173414361Y-125780483D01*
X173449229Y-125737996D01*
X173478248Y-125683704D01*
X173496401Y-125649743D01*
X173525449Y-125553985D01*
X173532800Y-125479347D01*
X173532800Y-125479345D01*
X173535257Y-125454401D01*
X173532800Y-125429457D01*
X173532800Y-121366693D01*
X173587529Y-121284785D01*
X173635397Y-121169223D01*
X173659800Y-121046542D01*
X173659800Y-120958600D01*
X173659801Y-120958600D01*
X173659800Y-135938819D01*
G37*
X173659800Y-135938819D02*
X173656729Y-135970000D01*
X173659800Y-136001181D01*
X173659800Y-136001191D01*
X173668988Y-136094481D01*
X173705298Y-136214179D01*
X173764263Y-136324493D01*
X173843615Y-136421185D01*
X173867850Y-136441074D01*
X173928562Y-136501786D01*
X173928564Y-136501789D01*
X174017011Y-136590236D01*
X174043082Y-136607656D01*
X174067307Y-136627537D01*
X174094948Y-136642312D01*
X174121015Y-136659729D01*
X174149976Y-136671725D01*
X174177621Y-136686502D01*
X174207615Y-136695600D01*
X174236577Y-136707597D01*
X174267328Y-136713714D01*
X174297318Y-136722811D01*
X174328503Y-136725882D01*
X174359258Y-136732000D01*
X174390618Y-136732000D01*
X174421799Y-136735071D01*
X174421800Y-136735071D01*
X174421800Y-139798179D01*
X173449380Y-140770600D01*
X168757143Y-140770600D01*
X168732199Y-140768143D01*
X168707255Y-140770600D01*
X168707253Y-140770600D01*
X168632615Y-140777951D01*
X168536857Y-140806999D01*
X168512929Y-140819789D01*
X168448604Y-140854171D01*
X168428599Y-140870589D01*
X168371252Y-140917652D01*
X168355350Y-140937029D01*
X167233600Y-142058779D01*
X167233600Y-133784411D01*
X167238877Y-133786597D01*
X167361558Y-133811000D01*
X167486642Y-133811000D01*
X167609323Y-133786597D01*
X167724885Y-133738729D01*
X167828889Y-133669236D01*
X167917336Y-133580789D01*
X167986829Y-133476785D01*
X168034697Y-133361223D01*
X168059100Y-133238542D01*
X168059100Y-133113458D01*
X168034697Y-132990777D01*
X167995600Y-132896390D01*
X167995600Y-132422122D01*
X168833184Y-131584539D01*
X168835345Y-131583384D01*
X168922367Y-131511967D01*
X168940270Y-131490152D01*
X169113338Y-131317084D01*
X169134671Y-131368585D01*
X169204164Y-131472589D01*
X169292611Y-131561036D01*
X169396615Y-131630529D01*
X169449184Y-131652304D01*
X170312184Y-132515305D01*
X170331403Y-132611923D01*
X170379271Y-132727485D01*
X170448764Y-132831489D01*
X170537211Y-132919936D01*
X170641215Y-132989429D01*
X170756777Y-133037297D01*
X170879458Y-133061700D01*
X171004542Y-133061700D01*
X171127223Y-133037297D01*
X171242785Y-132989429D01*
X171346789Y-132919936D01*
X171435236Y-132831489D01*
X171504729Y-132727485D01*
X171552597Y-132611923D01*
X171577000Y-132489242D01*
X171577000Y-132364158D01*
X171552597Y-132241477D01*
X171504729Y-132125915D01*
X171435236Y-132021911D01*
X171346789Y-131933464D01*
X171242785Y-131863971D01*
X171127223Y-131816103D01*
X171030605Y-131796884D01*
X170332400Y-131098680D01*
X170332400Y-131005258D01*
X170307997Y-130882577D01*
X170260129Y-130767015D01*
X170190636Y-130663011D01*
X170176325Y-130648700D01*
X170502078Y-130648700D01*
X171165673Y-131312296D01*
X171204771Y-131406685D01*
X171274264Y-131510689D01*
X171362711Y-131599136D01*
X171466715Y-131668629D01*
X171582277Y-131716497D01*
X171704958Y-131740900D01*
X171830042Y-131740900D01*
X171952723Y-131716497D01*
X172068285Y-131668629D01*
X172172289Y-131599136D01*
X172260736Y-131510689D01*
X172330229Y-131406685D01*
X172378097Y-131291123D01*
X172402500Y-131168442D01*
X172402500Y-131043358D01*
X172378097Y-130920677D01*
X172330229Y-130805115D01*
X172260736Y-130701111D01*
X172172289Y-130612664D01*
X172068285Y-130543171D01*
X171973896Y-130504073D01*
X171162770Y-129692948D01*
X171144867Y-129671133D01*
X171057845Y-129599716D01*
X170958562Y-129546648D01*
X170850834Y-129513969D01*
X170766874Y-129505700D01*
X170738800Y-129502935D01*
X170710726Y-129505700D01*
X169691920Y-129505700D01*
X173366371Y-125831250D01*
X173385748Y-125815348D01*
X173414361Y-125780483D01*
X173449229Y-125737996D01*
X173478248Y-125683704D01*
X173496401Y-125649743D01*
X173525449Y-125553985D01*
X173532800Y-125479347D01*
X173532800Y-125479345D01*
X173535257Y-125454401D01*
X173532800Y-125429457D01*
X173532800Y-121366693D01*
X173587529Y-121284785D01*
X173635397Y-121169223D01*
X173659800Y-121046542D01*
X173659800Y-120958600D01*
X173659801Y-120958600D01*
X173659800Y-135938819D01*
G36*
X154825781Y-137171101D02*
G01*
X154814611Y-137178564D01*
X154726164Y-137267011D01*
X154656671Y-137371015D01*
X154608803Y-137486577D01*
X154584400Y-137609258D01*
X154584400Y-137697200D01*
X152273000Y-137697200D01*
X152273000Y-137634658D01*
X152248597Y-137511977D01*
X152200729Y-137396415D01*
X152146000Y-137314507D01*
X152146000Y-137136308D01*
X152192785Y-137116929D01*
X152296789Y-137047436D01*
X152385236Y-136958989D01*
X152454729Y-136854985D01*
X152502597Y-136739423D01*
X152527000Y-136616742D01*
X152527000Y-136491658D01*
X152502597Y-136368977D01*
X152454729Y-136253415D01*
X152385236Y-136149411D01*
X152296789Y-136060964D01*
X152192785Y-135991471D01*
X152077223Y-135943603D01*
X151954542Y-135919200D01*
X151829458Y-135919200D01*
X151706777Y-135943603D01*
X151591215Y-135991471D01*
X151487211Y-136060964D01*
X151398764Y-136149411D01*
X151329271Y-136253415D01*
X151281403Y-136368977D01*
X151262244Y-136465296D01*
X151213571Y-136524605D01*
X151166399Y-136612858D01*
X151137351Y-136708616D01*
X151130235Y-136780873D01*
X151127543Y-136808200D01*
X151130000Y-136833145D01*
X151130001Y-137314506D01*
X151075271Y-137396415D01*
X151027403Y-137511977D01*
X151003000Y-137634658D01*
X151003000Y-137697200D01*
X147497800Y-137697200D01*
X147497800Y-137583858D01*
X147473397Y-137461177D01*
X147425529Y-137345615D01*
X147356036Y-137241611D01*
X147267589Y-137153164D01*
X147163585Y-137083671D01*
X147048023Y-137035803D01*
X146925342Y-137011400D01*
X146800258Y-137011400D01*
X146677577Y-137035803D01*
X146562015Y-137083671D01*
X146458011Y-137153164D01*
X146369564Y-137241611D01*
X146300071Y-137345615D01*
X146252203Y-137461177D01*
X146227800Y-137583858D01*
X146227800Y-137697200D01*
X145371421Y-137697200D01*
X144272000Y-136597780D01*
X144272000Y-136287378D01*
X144330223Y-136275797D01*
X144445785Y-136227929D01*
X144549789Y-136158436D01*
X144638236Y-136069989D01*
X144707729Y-135965985D01*
X144755597Y-135850423D01*
X144780000Y-135727742D01*
X144780000Y-135602658D01*
X144755597Y-135479977D01*
X144707729Y-135364415D01*
X144638236Y-135260411D01*
X144560425Y-135182600D01*
X152837280Y-135182600D01*
X154825781Y-137171101D01*
G37*
X154825781Y-137171101D02*
X154814611Y-137178564D01*
X154726164Y-137267011D01*
X154656671Y-137371015D01*
X154608803Y-137486577D01*
X154584400Y-137609258D01*
X154584400Y-137697200D01*
X152273000Y-137697200D01*
X152273000Y-137634658D01*
X152248597Y-137511977D01*
X152200729Y-137396415D01*
X152146000Y-137314507D01*
X152146000Y-137136308D01*
X152192785Y-137116929D01*
X152296789Y-137047436D01*
X152385236Y-136958989D01*
X152454729Y-136854985D01*
X152502597Y-136739423D01*
X152527000Y-136616742D01*
X152527000Y-136491658D01*
X152502597Y-136368977D01*
X152454729Y-136253415D01*
X152385236Y-136149411D01*
X152296789Y-136060964D01*
X152192785Y-135991471D01*
X152077223Y-135943603D01*
X151954542Y-135919200D01*
X151829458Y-135919200D01*
X151706777Y-135943603D01*
X151591215Y-135991471D01*
X151487211Y-136060964D01*
X151398764Y-136149411D01*
X151329271Y-136253415D01*
X151281403Y-136368977D01*
X151262244Y-136465296D01*
X151213571Y-136524605D01*
X151166399Y-136612858D01*
X151137351Y-136708616D01*
X151130235Y-136780873D01*
X151127543Y-136808200D01*
X151130000Y-136833145D01*
X151130001Y-137314506D01*
X151075271Y-137396415D01*
X151027403Y-137511977D01*
X151003000Y-137634658D01*
X151003000Y-137697200D01*
X147497800Y-137697200D01*
X147497800Y-137583858D01*
X147473397Y-137461177D01*
X147425529Y-137345615D01*
X147356036Y-137241611D01*
X147267589Y-137153164D01*
X147163585Y-137083671D01*
X147048023Y-137035803D01*
X146925342Y-137011400D01*
X146800258Y-137011400D01*
X146677577Y-137035803D01*
X146562015Y-137083671D01*
X146458011Y-137153164D01*
X146369564Y-137241611D01*
X146300071Y-137345615D01*
X146252203Y-137461177D01*
X146227800Y-137583858D01*
X146227800Y-137697200D01*
X145371421Y-137697200D01*
X144272000Y-136597780D01*
X144272000Y-136287378D01*
X144330223Y-136275797D01*
X144445785Y-136227929D01*
X144549789Y-136158436D01*
X144638236Y-136069989D01*
X144707729Y-135965985D01*
X144755597Y-135850423D01*
X144780000Y-135727742D01*
X144780000Y-135602658D01*
X144755597Y-135479977D01*
X144707729Y-135364415D01*
X144638236Y-135260411D01*
X144560425Y-135182600D01*
X152837280Y-135182600D01*
X154825781Y-137171101D01*
G36*
X151122780Y-106328200D02*
G01*
X148927420Y-106328200D01*
X149435421Y-105820200D01*
X151630779Y-105820200D01*
X151122780Y-106328200D01*
G37*
X151122780Y-106328200D02*
X148927420Y-106328200D01*
X149435421Y-105820200D01*
X151630779Y-105820200D01*
X151122780Y-106328200D01*
G36*
X147842764Y-99557489D02*
G01*
X147931211Y-99645936D01*
X148035215Y-99715429D01*
X148150777Y-99763297D01*
X148247396Y-99782516D01*
X148793201Y-100328322D01*
X148793200Y-101774379D01*
X147802600Y-102764980D01*
X147802600Y-99497379D01*
X147842764Y-99557489D01*
G37*
X147842764Y-99557489D02*
X147931211Y-99645936D01*
X148035215Y-99715429D01*
X148150777Y-99763297D01*
X148247396Y-99782516D01*
X148793201Y-100328322D01*
X148793200Y-101774379D01*
X147802600Y-102764980D01*
X147802600Y-99497379D01*
X147842764Y-99557489D01*
M02*
