M48
; DRILL file {KiCad (5.1.5)-3} date 12/30/2019 6:43:25 PM
; FORMAT={-:-/ absolute / inch / decimal}
; #@! TF.CreationDate,2019-12-30T18:43:25-05:00
; #@! TF.GenerationSoftware,Kicad,Pcbnew,(5.1.5)-3
; #@! TF.FileFunction,Plated,1,4,PTH
FMAT,2
INCH
T1C0.0150
T2C0.0197
T3C0.0394
T4C0.0433
%
G90
G05
T1
X4.6435Y-4.5301
X4.655Y-5.3011
X4.6575Y-4.6736
X4.692Y-5.4411
X4.7755Y-5.6616
X4.788Y-4.2466
X4.841Y-5.4811
X4.8465Y-5.0291
X4.849Y-5.0746
X4.909Y-5.3841
X4.971Y-4.4881
X4.9825Y-5.3011
X4.985Y-4.6786
X5.061Y-5.4921
X5.0685Y-5.7151
X5.0825Y-4.1286
X5.1Y-5.4361
X5.11Y-4.1861
X5.1225Y-4.4461
X5.13Y-4.3111
X5.206Y-4.9011
X5.206Y-5.0791
X5.2295Y-3.8306
X5.242Y-4.9691
X5.286Y-6.2671
X5.287Y-5.2511
X5.3375Y-5.9261
X5.4175Y-6.2861
X5.42Y-6.2361
X5.425Y-6.1911
X5.444Y-5.6746
X5.447Y-5.4411
X5.47Y-5.9711
X5.472Y-3.9126
X5.48Y-5.8911
X5.48Y-5.9311
X5.4845Y-4.3446
X5.495Y-6.1636
X5.5325Y-6.2011
X5.57Y-4.5661
X5.57Y-4.8111
X5.575Y-5.3986
X5.5825Y-4.6761
X5.63Y-5.2511
X5.6375Y-4.5786
X5.65Y-3.8036
X5.65Y-4.5561
X5.6625Y-4.5786
X5.675Y-5.3411
X5.68Y-5.3711
X5.685Y-4.5011
X5.7Y-6.4336
X5.72Y-3.7811
X5.72Y-3.8711
X5.722Y-6.1906
X5.731Y-5.9021
X5.7375Y-5.6666
X5.738Y-4.1561
X5.765Y-3.6166
X5.77Y-3.8211
X5.77Y-3.9661
X5.7729Y-4.0211
X5.782Y-5.4191
X5.7875Y-6.4336
X5.82Y-5.4191
X5.83Y-3.7211
X5.832Y-4.4791
X5.8325Y-4.0111
X5.84Y-3.9036
X5.853Y-4.1041
X5.8555Y-6.0421
X5.8565Y-5.7706
X5.875Y-4.7011
X5.884Y-6.4171
X5.89Y-4.5161
X5.9Y-3.9036
X5.91Y-3.6811
X5.91Y-6.4191
X5.95Y-3.8711
X5.9525Y-6.4336
X5.962Y-4.172
X5.97Y-5.4211
X5.98Y-5.2461
X5.98Y-5.3761
X5.9875Y-6.1831
X5.9925Y-5.6681
X5.9955Y-4.3601
X5.9975Y-5.8936
X6.02Y-6.4586
X6.025Y-5.3711
X6.034Y-4.056
X6.045Y-5.4191
X6.1Y-3.6811
X6.111Y-5.4201
X6.115Y-6.4311
X6.128Y-5.5601
X6.14Y-5.4611
X6.155Y-5.7651
X6.155Y-6.0406
X6.156Y-4.6976
X6.16Y-3.9611
X6.165Y-5.4661
X6.1775Y-6.4561
X6.224Y-5.4111
X6.243Y-5.4781
X6.26Y-3.9611
X6.26Y-5.3011
X6.2755Y-5.8896
X6.278Y-6.1806
X6.2795Y-5.6651
X6.305Y-5.2261
X6.31Y-5.3061
X6.3135Y-4.4896
X6.33Y-3.7211
X6.345Y-3.9636
X6.351Y-5.2251
X6.3535Y-5.3646
X6.354Y-4.766
X6.355Y-5.4011
X6.371Y-5.5381
X6.38Y-3.6511
X6.38Y-3.8486
X6.38Y-3.8761
X6.443Y-5.4961
X6.472Y-5.8791
X6.4725Y-6.2481
X6.4735Y-6.1851
X6.475Y-5.9121
X6.479Y-5.5301
X6.488Y-6.0251
X6.512Y-5.7841
X6.514Y-5.7471
X6.519Y-5.6861
X6.5225Y-5.9906
X6.5225Y-6.1671
X6.527Y-5.7191
X6.547Y-3.8621
X6.548Y-4.636
X6.565Y-5.8881
X6.5765Y-6.2076
X6.5885Y-6.0416
X6.5915Y-5.2431
X6.595Y-5.3351
X6.599Y-5.4836
X6.6255Y-5.9261
X6.626Y-5.9981
X6.632Y-4.894
X6.647Y-6.0781
X6.6525Y-5.8006
X6.681Y-5.1601
X6.73Y-5.2136
X6.7325Y-5.8951
X6.738Y-5.4081
X6.7544Y-6.0172
X6.7625Y-5.1616
X6.7725Y-5.7816
X6.781Y-4.6871
X6.7979Y-6.0607
X6.812Y-4.7631
X6.827Y-4.4451
X6.835Y-4.6161
X6.835Y-4.7371
X6.8495Y-3.8811
X6.867Y-5.3581
X6.8894Y-5.7735
X6.9106Y-5.7523
X6.975Y-4.6411
X6.9932Y-5.7704
X6.998Y-5.4301
X7.006Y-4.7291
X7.02Y-5.5281
X7.022Y-5.7992
X7.024Y-5.5671
X7.03Y-4.7461
X7.039Y-5.3571
X7.0497Y-5.8269
X7.067Y-5.5291
X7.097Y-5.5921
X7.126Y-5.3941
X7.155Y-5.2951
X7.1645Y-4.6721
X7.188Y-5.6891
X7.193Y-4.3221
X7.2645Y-5.2936
X7.2645Y-5.5711
X7.287Y-5.3586
X7.3045Y-5.4911
X7.3885Y-4.6626
T2
X5.525Y-4.973
X5.525Y-5.0293
X5.575Y-4.973
X5.575Y-5.0293
X5.625Y-4.973
X5.625Y-5.0293
X5.675Y-4.973
X5.675Y-5.0293
X5.725Y-4.973
X5.725Y-5.0293
X5.775Y-4.973
X5.775Y-5.0293
X5.825Y-4.973
X5.825Y-5.0293
X5.875Y-4.973
X5.875Y-5.0293
X5.925Y-4.973
X5.925Y-5.0293
X5.975Y-4.973
X5.975Y-5.0293
X6.025Y-4.973
X6.025Y-5.0293
X6.075Y-4.973
X6.075Y-5.0293
X6.125Y-4.973
X6.125Y-5.0293
X6.175Y-4.973
X6.175Y-5.0293
X6.225Y-4.973
X6.225Y-5.0293
X6.275Y-4.973
X6.275Y-5.0293
X6.325Y-4.973
X6.325Y-5.0293
X6.375Y-4.973
X6.375Y-5.0293
X6.425Y-4.973
X6.425Y-5.0293
X6.475Y-4.973
X6.475Y-5.0293
T3
X4.95Y-5.8511
X5.0207Y-5.9219
X5.0914Y-5.9926
X5.1621Y-6.0633
X5.2328Y-6.134
T4
X6.8468Y-5.9893
X6.9693Y-5.8668
T0
M30
